<svg width="467" height="361" viewBox="0 0 467 361" fill="none" xmlns="http://www.w3.org/2000/svg">
<path d="M172.818 80.9171C170.544 82.2803 168.564 84.1765 167.014 86.4743C161.647 95.0566 166.482 108.036 161.184 116.679C159.888 118.802 158.067 120.47 156.581 122.433C153.212 126.884 151.657 132.744 151.289 138.544C150.92 144.344 151.636 150.151 152.352 155.906C152.55 157.467 152.782 159.12 153.716 160.31C154.651 161.501 156.308 162.039 157.808 162.403C171.289 165.664 185.113 166.822 198.881 165.845C201.268 165.671 203.771 165.398 205.762 163.919C210.447 160.462 209.942 152.858 211.272 146.777C212.391 141.66 215.112 137.164 216.728 132.213C218.603 126.52 218.978 120.379 219.312 114.329C219.776 105.989 219.715 96.3227 213.945 90.955C212.084 89.2264 209.813 88.165 207.583 87.1188C201.739 84.397 195.492 82.5092 189.764 79.7268C183.845 76.8458 178.553 77.187 172.818 80.9171Z" fill="#3B3E3C"/>
<path d="M205.339 99.2719C205.339 99.2719 215.684 106.808 215.439 118.84C215.193 130.872 207.508 151.994 207.508 151.994L194.633 153.95L205.339 99.2719Z" fill="#3B3E3C"/>
<path d="M168.883 117.483C167.151 119.098 166.046 121.38 165.105 123.669C162.111 130.977 160.4 138.854 160.065 146.876L175.648 147.05C176.175 147.106 176.707 147.007 177.189 146.762C177.754 146.301 178.155 145.632 178.321 144.875C179.978 139.947 181.608 134.875 181.567 129.621C181.519 122.979 176.009 110.856 168.883 117.483Z" fill="url(#paint0_linear)"/>
<path d="M283.169 116.588C288.625 116.467 294.046 116.899 299.474 117.346C302.768 117.612 306.089 117.885 309.233 118.984C311.77 119.957 314.207 121.227 316.502 122.775C327.955 130.034 338.583 138.795 348.158 148.87C349.917 150.72 352.25 152.555 354.575 153.184C356.901 153.813 359.71 153.26 361.204 151.137C362.083 149.886 362.411 148.279 362.813 146.747C364.013 142.198 366.564 137.399 370.751 136.338C374.842 135.307 379.064 138.362 381.041 142.456C383.019 146.55 383.183 151.417 382.923 156.057C382.434 163.774 381.017 171.383 378.709 178.68C377.713 181.872 376.479 185.163 374.113 187.278C371.746 189.393 368.657 190.03 365.643 190.31C348.595 191.743 332.364 182.684 317.191 173.866C316.993 182.964 318.848 191.933 319.285 201.008C319.721 210.083 318.473 219.84 313.072 226.656C306.151 235.299 294.558 236.876 284.151 236.368C275.202 235.921 266.324 234.396 257.671 231.819C255.305 231.114 252.898 230.303 251.009 228.536C249.532 227.061 248.386 225.223 247.66 223.169C242.034 208.597 247.21 185.921 241.653 171.311C212.779 177.922 184.84 179.325 157.774 166.307C156.56 165.716 155.278 165.057 154.535 163.828C153.682 162.426 153.709 160.599 153.853 158.908C154.22 154.026 155.136 149.215 156.58 144.587C167.491 150.341 178.587 156.156 190.507 158.279C202.427 160.402 203.75 157.596 213.045 149.029C219.79 142.812 235.767 134.511 242.478 128.256C253.307 118.18 269.053 116.922 283.169 116.588Z" fill="#5DB07B"/>
<path d="M283.169 116.588C288.625 116.467 294.046 116.899 299.474 117.346C302.768 117.612 306.089 117.885 309.233 118.984C311.77 119.957 314.207 121.227 316.502 122.775C327.955 130.034 338.583 138.795 348.158 148.87C349.917 150.72 352.25 152.555 354.575 153.184C356.901 153.813 359.71 153.26 361.204 151.137C362.083 149.886 362.411 148.279 362.813 146.747C364.013 142.198 366.564 137.399 370.751 136.338C374.842 135.307 379.064 138.362 381.041 142.456C383.019 146.55 383.183 151.417 382.923 156.057C382.434 163.774 381.017 171.383 378.709 178.68C377.713 181.872 376.479 185.163 374.113 187.278C371.746 189.393 368.657 190.03 365.643 190.31C348.595 191.743 332.364 182.683 317.191 173.866C316.993 182.964 318.848 191.933 319.285 201.008C319.721 210.083 318.473 219.84 313.072 226.656C306.151 235.299 294.558 236.876 284.151 236.368C275.202 235.921 266.324 234.396 257.671 231.819C255.305 231.114 252.898 230.303 251.009 228.536C249.532 227.061 248.386 225.223 247.66 223.169C242.034 208.597 247.21 185.921 241.653 171.311C212.779 177.922 184.84 179.325 157.774 166.307C156.56 165.716 155.278 165.057 154.535 163.828C153.682 162.426 153.709 160.599 153.853 158.908C154.22 154.026 155.136 149.215 156.58 144.587C167.491 150.341 178.587 156.156 190.507 158.279C202.427 160.402 203.75 157.596 213.045 149.029C219.79 142.812 235.767 134.511 242.478 128.256C253.307 118.18 269.053 116.922 283.169 116.588Z" fill="#278147"/>
<path d="M413.65 282.356C429.152 281.979 441.526 295.965 434.137 309.597C420.641 335.026 397.626 350.09 374.072 356.398C350.517 362.706 326.24 361.174 302.222 359.635L149.884 349.848C129.391 348.536 108.756 347.202 88.8771 340.75C72.714 335.451 57.498 327.081 43.9031 316.011C31.4234 306.03 38.7164 289.664 54.6716 290.559C58.7815 290.789 62.5014 290.967 65.5684 290.894L157.583 288.62C218.048 287.149 278.491 285.668 338.911 284.177L413.65 282.356Z" fill="#5DB07B"/>
<path d="M95.1994 287.842C83.4247 289.971 82.1668 302.408 94.0966 303.332C97.4872 303.595 101.003 303.895 104.732 304.835C108.762 305.85 109.684 310.198 108.806 314.26C107.991 318.029 111.484 321.427 115.336 321.599C130.589 322.279 140.563 322.87 155.799 322.822C159.934 322.809 162.459 324.59 165.226 327.663C166.728 329.332 169.991 331.271 172.235 331.344C234.552 333.385 296.885 332.8 359.232 329.59C363.692 329.362 368.384 329.036 372.135 326.337C375.885 323.638 378.143 317.71 375.708 313.547C373.99 310.606 370.669 309.514 367.845 307.937C365.022 306.36 362.219 303.191 363.072 299.817C364.715 293.418 376.649 295.041 376.336 288.4C376.226 286.127 374.515 284.605 372.602 283.522C371.939 283.147 371.95 282.142 372.652 281.845C373.521 281.478 373.264 280.184 372.321 280.176L220.28 278.87C192.723 278.627 165.043 278.392 137.656 282.539C124.5 284.532 109.402 285.274 95.1994 287.842Z" fill="#278147"/>
<path d="M386.217 211.902C391.079 208.453 396.385 204.859 402.134 205.314C407.882 205.769 413.447 212.494 411.081 218.339C410.358 220.128 409.035 221.554 408.271 223.335C407.146 226.012 407.466 229.135 407.841 232.062C409.812 247.452 412.663 263.548 407.985 278.195C406.239 283.631 403.463 288.885 403.491 294.662C403.491 297.528 404.227 300.371 404.009 303.229C403.791 306.087 402.209 309.165 399.651 309.514C395.846 310.03 393.8 304.791 390.786 302.13C386.156 298.021 379.405 300.394 373.499 299.855C366.802 299.264 360.951 294.776 354.561 292.441C346.555 289.507 337.608 289.954 330.087 285.731C321.508 280.917 316.236 270.644 314.47 260.143C312.704 249.643 313.972 238.832 315.568 228.301C317.709 214.184 321.931 187.141 338.461 186.376C346.269 186.012 355.462 190.856 362.329 194.427C364.722 195.678 386.388 211.796 386.217 211.902Z" fill="white"/>
<path opacity="0.45" d="M341.141 259.764C341.038 262.395 341.004 265.109 341.823 267.573C344.462 275.42 354.882 278.612 355.345 286.974C346.085 290.765 334.615 285.776 330.114 276.004C327.747 270.848 327.25 264.935 326.786 259.173C325.818 247.08 324.638 234.98 323.874 222.873C323.438 215.822 324.058 209.628 331.866 210.651C348.84 212.88 341.604 247.687 341.141 259.764Z" fill="#828482"/>
<path d="M69.4831 217.558C64.2117 219.939 58.9948 223.396 53.3142 223.047C49.9045 222.835 46.5698 221.22 43.1397 221.402C39.7095 221.584 35.9452 224.829 36.8454 228.514C37.2545 230.166 38.4684 231.387 39.3345 232.805C41.7417 236.755 41.278 241.94 41.1825 246.709C41.0042 255.899 42.5269 265.032 45.656 273.54C47.9746 279.825 51.1866 285.807 52.2368 292.494C53.1847 298.468 53.0278 306.004 57.8901 308.748C66.0324 301.334 77.8709 303.441 88.3319 302.107C100.716 300.53 111.988 293.714 122.899 287.02C124.07 286.424 125.103 285.54 125.92 284.435C126.655 283.033 127.006 281.423 126.93 279.802C127.039 273.131 125.429 266.557 123.431 260.265C118.972 246.254 112.561 233.11 104.433 221.311C100.239 215.246 98.3701 211.084 91.3393 212.001C83.9334 212.972 76.4184 214.42 69.4831 217.558Z" fill="white"/>
<path opacity="0.45" d="M85.222 235.352C84.4241 237.301 83.6058 239.325 83.6126 241.463C83.6126 247.46 89.6341 251.076 91.9459 256.497C84.5741 262.562 82.2419 275.026 86.8245 283.851C88.3043 286.702 90.4661 289.461 90.2956 292.736C90.1933 294.753 89.2181 296.891 90.0842 298.665C94.6259 298.991 98.8608 296.391 103.041 294.412C110.011 291.084 117.471 289.241 124.863 287.414C124.113 283.093 122.033 279.226 119.987 275.458C112.486 261.576 104.876 247.611 95.1442 235.549C92.8733 232.736 91.8436 227.93 89.5182 225.739C87.5474 227.93 86.4358 232.388 85.222 235.352Z" fill="url(#paint1_linear)"/>
<path d="M353.614 293.836C355.019 295.64 356.383 297.892 356.117 300.34C355.823 303.123 353.505 304.996 351.227 305.648C348.192 306.481 345.028 305.784 341.966 305.086L316.7 299.332C316.102 299.255 315.532 299.01 315.043 298.619C314.547 298.068 314.202 297.371 314.048 296.61C312.813 292.061 313.147 284.836 316.243 281.273C318.794 278.331 323.131 278.817 326.398 278.999C331.599 279.309 336.69 280.783 341.366 283.333C346.043 285.882 350.208 289.454 353.614 293.836Z" fill="#3B3E3C"/>
<path d="M351.998 295.648C353.362 297.285 354.725 299.325 354.453 301.546C354.159 304.071 351.888 305.761 349.679 306.33C346.706 307.088 343.61 306.459 340.609 305.83L315.841 300.613C315.26 300.539 314.702 300.316 314.211 299.961C313.734 299.475 313.397 298.841 313.243 298.142C312.029 294.002 312.356 287.467 315.391 284.23C317.894 281.569 322.149 282.008 325.347 282.168C335.464 282.664 345.015 287.495 351.998 295.648Z" fill="#3B3E3C"/>
<path d="M351.998 295.648C353.362 297.285 354.725 299.325 354.453 301.546C354.159 304.071 351.888 305.761 349.679 306.33C346.706 307.088 343.61 306.459 340.609 305.83L315.841 300.613C315.26 300.539 314.702 300.316 314.211 299.961C313.734 299.475 313.397 298.841 313.243 298.142C312.029 294.002 312.356 287.467 315.391 284.23C317.894 281.569 322.149 282.008 325.347 282.168C335.464 282.664 345.015 287.495 351.998 295.648Z" fill="url(#paint2_linear)" fill-opacity="0.5"/>
<path d="M212.52 163.517C217.778 169.909 219.919 178.961 219.456 187.611C218.992 196.262 216.148 204.556 212.473 212.198C210.625 216.042 213.155 226.846 212.67 231.152C212.063 236.413 211.532 236.55 210.87 241.811C210.134 247.702 204.139 250.78 200.375 255.003C195.312 260.691 189.908 265.99 184.199 270.864C176.466 277.46 167.083 283.532 157.508 281.478C153.492 280.621 149.823 278.384 146.29 276.087C141.958 273.272 137.702 270.325 133.524 267.247C132.437 266.697 131.531 265.783 130.932 264.634C130.333 263.484 130.071 262.156 130.183 260.833C129.719 251.978 129.255 242.88 131.028 234.192C132.542 226.679 135.652 219.651 137.166 212.145C140.139 197.452 136.886 181.705 140.76 167.27C141.483 164.579 142.512 161.865 144.435 160.038C146.045 158.521 148.125 157.763 150.143 157.005C158.708 153.972 167.328 150.887 176.241 149.628C191.312 147.52 202.387 151.182 212.52 163.517Z" fill="#5DB07B"/>
<path d="M218.221 173.237C219.647 182.009 233.456 165.443 232.999 174.548C232.542 183.654 218.828 203.1 215.153 211.144C213.304 215.193 214.634 228.195 214.13 232.752C213.523 238.294 211.531 236.3 210.87 241.842C210.133 248.036 204.139 249.173 200.375 253.623C195.331 259.586 189.926 265.159 184.199 270.303C176.466 277.255 167.082 283.646 157.508 281.5C153.491 280.598 149.822 278.24 146.29 275.822C141.957 272.865 137.702 269.762 133.524 266.512C132.436 265.8 131.521 264.803 130.858 263.608C130.389 262.395 130.157 261.085 130.176 259.764C129.712 250.378 129.262 240.856 131.021 231.713C132.535 223.805 135.645 216.413 137.159 208.514C140.132 193.047 136.879 176.474 140.753 161.281C141.475 158.453 142.505 155.587 144.428 153.699C146.038 152.085 148.118 151.288 150.136 150.53C158.701 147.316 167.321 144.094 176.234 142.767C191.312 140.462 215.582 156.929 218.221 173.237Z" fill="#BDE1CA"/>
<path d="M159.26 187.02C159.26 187.02 168.555 218.392 176.575 223.411C184.595 228.43 189.723 227.331 189.723 227.331L191.646 240.166C191.646 240.166 171.631 247.172 166.312 240.166C160.993 233.161 159.26 187.02 159.26 187.02Z" fill="#5DB07B"/>
<path d="M159.26 187.02C159.26 187.02 168.555 218.392 176.575 223.411C184.595 228.43 189.723 227.331 189.723 227.331L191.646 240.166C191.646 240.166 171.631 247.172 166.312 240.166C160.993 233.161 159.26 187.02 159.26 187.02Z" fill="#278147"/>
<path d="M89.7024 221.463C88.7067 223.859 87.752 226.353 87.6225 228.991C87.5913 231.822 88.211 234.614 89.4228 237.103C92.4197 243.817 97.4808 249.116 103.689 252.039C110.188 255.072 117.444 255.269 124.495 255.337C126.773 255.337 129.228 255.337 131.069 253.821C133.844 251.584 134.069 247.149 134.029 243.335C129.149 240.803 124.617 237.515 120.567 233.57C119.532 232.692 118.702 231.551 118.146 230.242C117.403 228.081 118.146 225.693 118.91 223.525C123.025 212.397 129.008 202.242 136.538 193.601C142.485 186.777 149.829 179.954 150.497 170.47C150.729 168.23 150.318 165.967 149.324 164.003C148.213 162.009 146.358 160.69 144.455 159.681C137.813 156.126 133.633 155.132 128.668 161.243C123.704 167.354 118.692 173.722 113.939 180.197C104.576 192.941 95.9694 206.489 89.7024 221.463Z" fill="#5DB07B"/>
<path d="M89.7024 221.463C88.7067 223.859 87.752 226.353 87.6225 228.991C87.5913 231.822 88.211 234.614 89.4228 237.103C92.4197 243.817 97.4808 249.116 103.689 252.039C110.188 255.072 117.444 255.269 124.495 255.337C126.773 255.337 129.228 255.337 131.069 253.821C133.844 251.584 134.069 247.149 134.029 243.335C129.149 240.803 124.617 237.515 120.567 233.57C119.532 232.692 118.702 231.551 118.146 230.242C117.403 228.081 118.146 225.693 118.91 223.525C123.025 212.397 129.008 202.242 136.538 193.601C142.485 186.777 149.829 179.954 150.497 170.47C150.729 168.23 150.319 165.967 149.324 164.003C148.213 162.009 146.358 160.69 144.455 159.681C137.813 156.126 133.633 155.132 128.668 161.243C123.704 167.354 118.692 173.722 113.939 180.197C104.576 192.941 95.9694 206.489 89.7024 221.463Z" fill="#BDE1CA"/>
<path d="M122.511 196.732C119.783 204.806 119.34 213.571 119.299 222.183C119.251 231.895 119.837 242.062 124.297 250.424C130.558 262.168 144.551 268.013 156.226 263.768C159.636 262.517 162.977 260.379 164.927 256.997C167.403 252.706 167.273 247.225 166.803 242.16C166.121 234.92 164.961 227.756 164.607 220.47C164.205 212.342 164.832 204.071 163.182 196.133C161.531 188.195 156.915 180.326 149.829 178.248C136.961 174.488 126.827 183.745 122.511 196.732Z" fill="#5DB07B"/>
<path d="M165.18 247.983C165.18 247.983 197.401 230.333 201.254 241.031C205.107 251.728 177.673 273.654 172.899 276.323C168.126 278.991 153.662 280.606 153.662 280.606C153.662 280.606 113.257 270.439 116.626 259.749C119.994 249.059 161.306 248.521 165.18 247.983Z" fill="#5DB07B"/>
<path d="M165.18 248.339C165.18 248.339 197.401 230.689 201.254 241.387C205.107 252.084 177.673 274.01 172.899 276.679C168.126 279.347 153.662 280.962 153.662 280.962C153.662 280.962 113.257 270.795 116.626 260.105C119.994 249.416 161.306 248.877 165.18 248.339Z" fill="#1E1F1E"/>
<path d="M135.597 186.777C135.597 186.777 110.365 206.027 109.622 234.639C108.879 263.252 122.368 263.115 128.382 265.117C134.397 267.118 156.758 244.533 156.758 244.533L148.575 233.032C148.575 233.032 132.447 242.494 130.701 238.65C126.22 228.733 135.597 186.777 135.597 186.777Z" fill="url(#paint3_linear)"/>
<path d="M130.789 182.744C130.789 182.744 105.558 201.994 104.814 230.606C104.071 259.219 117.321 254.533 123.329 256.527C129.337 258.521 151.97 240.485 151.97 240.485L143.787 228.984C143.787 228.984 127.659 238.445 125.913 234.602C121.406 224.723 130.789 182.744 130.789 182.744Z" fill="#278147"/>
<path d="M134.029 181.16C134.138 184.086 134.827 187.179 136.79 189.12C139.266 191.554 143.003 191.463 146.208 190.636C147.456 190.31 148.786 189.795 149.475 188.589C150.163 187.384 150.006 185.959 149.836 184.602C149.55 182.383 149.179 180.179 148.724 177.991C148.586 177.072 148.29 176.192 147.852 175.398C147.247 174.541 146.459 173.866 145.56 173.434C143.242 172.153 137.657 169.818 135.174 171.63C133.169 173.055 133.947 178.976 134.029 181.16Z" fill="#E4B387"/>
<path d="M123.991 160.492C123.35 160.772 122.815 161.289 122.477 161.956C122.006 163.078 122.477 164.389 122.968 165.504C123.34 166.606 123.974 167.575 124.802 168.309C125.294 168.63 125.831 168.855 126.391 168.976C127.142 169.214 127.929 169.276 128.703 169.158C129.092 169.092 129.46 168.918 129.773 168.653C130.086 168.388 130.335 168.041 130.496 167.642C130.649 167.155 130.679 166.631 130.585 166.125C130.019 162.085 128.007 158.726 123.991 160.492Z" fill="#FFD1A9"/>
<path d="M126.064 162.304C125.738 162.334 125.429 162.48 125.184 162.721C125.059 162.882 124.962 163.067 124.898 163.267C124.701 163.741 124.635 164.268 124.707 164.783C124.788 165.187 124.962 165.561 125.211 165.868C125.555 166.307 125.988 166.651 126.474 166.869C126.96 167.088 127.485 167.176 128.007 167.126C128.175 167.118 128.337 167.061 128.478 166.959C128.792 166.702 128.771 166.201 128.703 165.761C128.57 164.751 128.318 163.764 127.953 162.827C127.632 162.092 126.725 162.191 126.064 162.304Z" fill="#E4B387"/>
<path d="M194.633 153.95C193.951 156.831 191.939 159.575 189.273 159.886C187.07 160.151 185.004 158.734 183.251 157.217C181.608 155.881 180.176 154.249 179.016 152.388C176.098 147.392 176.555 140.91 177.373 135.019C177.83 131.759 178.553 128.158 181.001 126.285C181.544 125.83 182.197 125.566 182.876 125.527C183.391 125.545 183.897 125.671 184.37 125.898C187.745 127.354 190.35 130.508 192.089 134.033C195.063 140.068 196.283 147.21 194.633 153.95Z" fill="#FFD1A9"/>
<path d="M178.484 130.159C178.484 130.159 180.564 147.763 187.165 149.871C193.767 151.978 195.144 148.514 195.144 148.514L195.321 135.557L178.484 130.159Z" fill="#E4B387"/>
<path d="M281.874 273.055C279.146 273.214 276.336 273.123 273.834 271.91C266.864 268.536 265.316 258.513 264.737 250.083C264.375 244.92 264.055 239.469 266.203 234.829C269.128 228.498 275.109 226.489 280.251 223.169C286.668 218.991 289.157 214.655 294.162 208.984C303.253 198.673 319.012 199.886 326.759 212.342C344.824 241.364 303.928 271.766 281.874 273.055Z" fill="#3B3E3C"/>
<path d="M281.874 273.055C279.146 273.214 276.336 273.123 273.834 271.91C266.864 268.536 265.316 258.513 264.737 250.083C264.375 244.92 264.055 239.469 266.203 234.829C269.128 228.498 275.109 226.489 280.251 223.169C286.668 218.991 289.157 214.655 294.162 208.984C303.253 198.673 319.012 199.886 326.759 212.342C344.824 241.364 303.928 271.766 281.874 273.055Z" fill="url(#paint4_linear)"/>
<path d="M160.624 153.032C161.517 153.396 161.92 154.549 162.022 155.602C162.118 156.664 162.015 157.737 161.72 158.752C161.424 159.767 160.942 160.703 160.303 161.501C160.071 161.836 159.763 162.098 159.41 162.259C159.233 162.334 159.04 162.349 158.856 162.302C158.671 162.254 158.503 162.147 158.374 161.994C158.246 161.788 158.164 161.552 158.135 161.304C157.896 159.696 157.269 151.645 160.624 153.032Z" fill="#FFD1A9"/>
<path d="M158.926 160.652C158.776 163.176 158.544 165.686 158.244 168.188C158.071 170.061 157.686 171.903 157.099 173.669C155.346 178.453 150.825 181.66 146.188 181.918C143.858 181.975 141.547 181.451 139.423 180.386C137.299 179.321 135.416 177.741 133.913 175.762C132.18 173.355 130.725 170.716 129.582 167.907C128.294 165.216 127.237 162.396 126.425 159.484C125.259 154.875 125.354 149.575 127.884 145.709C128.783 144.33 129.948 143.193 131.294 142.38C133.66 140.963 136.415 140.637 139.102 140.409C141.127 140.148 143.175 140.207 145.185 140.584C146.691 140.973 148.137 141.609 149.475 142.471C152.366 144.253 155.612 146.937 157.296 150.174C158.899 153.176 159.131 157.286 158.926 160.652Z" fill="#FFD1A9"/>
<path d="M282.569 114.935C283.933 118.787 285.979 122.684 285.338 126.747C284.751 130.326 282.119 133.093 279.269 134.882C276.766 136.459 273.854 137.513 271.01 136.982C267.505 136.33 264.634 133.313 263.025 129.795C261.415 126.277 260.89 122.267 260.576 118.332C260.274 115.772 260.339 113.175 260.767 110.637C261.22 108.539 262.104 106.586 263.35 104.933C264.596 103.279 266.17 101.969 267.948 101.107C270.969 99.6663 276.37 99.1736 279.023 101.964C281.785 104.898 281.253 111.16 282.569 114.935Z" fill="#FFD1A9"/>
<path d="M281.376 105.739C281.376 105.739 278.13 117.642 275.845 120.985C273.561 124.329 267.662 125.125 267.662 125.125L263.823 110.963L281.376 105.739Z" fill="#E4B387"/>
<path d="M375.668 145.079C376.363 145.161 377.065 145.051 377.714 144.761C379.869 143.73 380.339 140.667 381.021 138.173C382.385 133.199 385.536 129.135 387.84 124.617C390.145 120.098 391.516 114.291 389.129 109.825C387.006 111.122 385.061 112.751 383.353 114.662C382.624 115.481 381.764 116.421 380.735 116.3C379.969 116.094 379.293 115.595 378.825 114.89L373.854 108.908C373.274 108.218 372.524 107.46 371.706 107.695C370.587 108.006 370.506 109.788 370.935 110.978C371.617 112.828 372.879 114.367 373.397 116.285C374.263 119.439 372.913 122.577 371.931 125.481C371.024 128.173 370.485 130.985 369.755 133.745C368.46 138.627 370.54 144.7 375.668 145.079Z" fill="#FFD1A9"/>
<path d="M199.495 147.096C197.708 148.537 190.043 145.345 188.045 144.306C186.005 143.311 184.153 141.894 182.59 140.129C181.723 139.044 180.934 137.886 180.23 136.664C179.338 135.357 178.628 133.908 178.123 132.365C177.83 131.311 177.728 130.197 177.359 129.173C176.5 126.785 171.904 124.109 171.904 121.251C171.904 119.81 172.027 118.279 172.79 117.119C173.554 115.959 175.211 115.413 176.2 116.361C175.668 114.496 175.6 106.02 176.425 104.291C177.305 102.588 178.477 101.094 179.876 99.8937C184.247 95.8831 189.955 93.404 195.594 94.056C199.293 94.4823 202.745 96.317 205.367 99.2493C208.422 102.775 212.316 136.74 199.495 147.096Z" fill="#FFD1A9"/>
<path d="M153.252 129.37C152.107 127.901 150.662 126.757 149.038 126.035C147.135 125.352 145.076 125.769 143.085 125.701C141.591 125.656 140.111 125.337 138.618 125.246C135.828 125.141 133.057 125.787 130.54 127.128C128.023 128.469 125.835 130.466 124.161 132.949C122.523 135.459 121.384 138.327 120.819 141.363C120.254 144.399 120.275 147.534 120.881 150.561C121.389 152.989 122.173 155.335 123.213 157.543C124.688 160.932 126.753 163.963 129.289 166.459L128.982 150.69C130.006 151.055 131.089 151.166 132.155 151.015C133.221 150.865 134.245 150.456 135.154 149.818C136.966 148.527 138.484 146.785 139.586 144.731C139.784 144.389 140.036 143.972 140.405 143.972C140.773 143.972 141.087 144.496 141.257 144.928C142.621 148.195 145.349 150.561 148.329 151.887C151.309 153.214 154.596 153.616 157.815 153.821C158.544 153.866 159.383 153.859 159.86 153.245C160.14 152.8 160.29 152.271 160.29 151.728C161.122 142.729 158.872 135.671 153.252 129.37Z" fill="#3B3E3C"/>
<path d="M153.252 129.37C152.107 127.901 150.662 126.757 149.038 126.035C147.135 125.352 145.076 125.769 143.085 125.701C141.591 125.656 140.111 125.337 138.618 125.246C135.828 125.141 133.057 125.787 130.54 127.128C128.023 128.469 125.835 130.466 124.161 132.949C122.523 135.459 121.384 138.327 120.819 141.363C120.254 144.399 120.275 147.534 120.881 150.561C121.389 152.989 122.173 155.335 123.213 157.543C124.688 160.932 126.753 163.963 129.289 166.459L128.982 150.69C130.006 151.055 131.089 151.166 132.155 151.015C133.221 150.865 134.245 150.456 135.154 149.818C136.966 148.527 138.484 146.785 139.586 144.731C139.784 144.389 140.036 143.972 140.405 143.972C140.773 143.972 141.087 144.496 141.257 144.928C142.621 148.195 145.349 150.561 148.329 151.887C151.309 153.214 154.596 153.616 157.815 153.821C158.544 153.866 159.383 153.859 159.86 153.245C160.14 152.8 160.29 152.271 160.29 151.728C161.122 142.729 158.872 135.671 153.252 129.37Z" fill="url(#paint5_linear)"/>
<path d="M234.806 260.834C229.241 265.595 223.138 269.795 218.808 275.943C214.477 282.092 212.309 290.947 215.746 297.748C220.049 306.269 230.387 307.604 239.17 307.915C264.934 308.824 290.937 309.507 316.264 304.184C316.703 297.626 315.954 291.037 314.061 284.806C313.897 284.114 313.583 283.476 313.147 282.949C312.254 282.024 310.87 282.191 309.656 282.312C299.017 283.668 288.241 282.168 278.232 277.937L286.784 269.946C291.673 265.398 296.897 260.212 297.872 253.207C299.168 243.843 291.864 235.163 283.674 232.547C275.954 230.083 261.634 229.863 255.796 236.414C248.554 244.556 243.18 253.677 234.806 260.834Z" fill="#3B3E3C"/>
<path d="M234.806 260.834C229.241 265.595 223.138 269.795 218.808 275.943C214.477 282.092 212.309 290.947 215.746 297.748C220.049 306.269 230.387 307.604 239.17 307.915C264.934 308.824 290.937 309.507 316.264 304.184C316.703 297.626 315.954 291.037 314.061 284.806C313.897 284.114 313.583 283.476 313.147 282.949C312.254 282.024 310.87 282.191 309.656 282.312C299.017 283.668 288.241 282.168 278.232 277.937L286.784 269.946C291.673 265.398 296.897 260.212 297.872 253.207C299.168 243.843 291.864 235.163 283.674 232.547C275.954 230.083 261.634 229.863 255.796 236.414C248.554 244.556 243.18 253.677 234.806 260.834Z" fill="url(#paint6_linear)" fill-opacity="0.5"/>
<path d="M277.85 275.291C276.893 274.804 276.044 274.089 275.361 273.199C272.738 270.273 269.947 267.538 267.007 265.011C266.22 264.235 265.289 263.663 264.279 263.335C262.411 262.881 260.583 264.041 258.878 264.988C254.45 267.458 249.567 268.756 244.612 268.779C243.404 268.696 242.19 268.793 241.005 269.067C239.75 269.553 238.57 270.251 237.506 271.137C232.159 275.033 226.177 277.727 219.899 279.067C220.867 275.997 223.608 274.169 225.982 272.244C228.569 270.16 230.911 267.722 232.951 264.988C235.229 261.956 237.145 258.483 239.873 255.89C242.15 253.745 244.892 252.32 247.592 250.909L258.974 244.996C260.042 244.346 261.214 243.934 262.424 243.783C265.22 243.654 267.457 246.27 269.128 248.764C272.157 253.3 274.73 258.191 276.8 263.351C277.604 265.345 282.89 277.316 277.85 275.291Z" fill="url(#paint7_linear)"/>
<path d="M319.817 283.244C318.924 283.196 318.037 283.439 317.266 283.942C316.596 284.612 316.135 285.501 315.95 286.482C314.197 292.903 314.361 299.757 314.586 306.466C314.547 307.539 314.729 308.607 315.118 309.59C315.628 310.502 316.33 311.262 317.164 311.804C323.582 316.55 331.058 319.227 338.761 319.537C340.677 319.613 342.805 319.446 344.162 317.937C345.519 316.429 345.676 313.813 345.396 311.584C344.973 308.198 343.936 304.943 342.348 302.016C340.705 299.021 338.515 296.444 336.702 293.578C334.99 290.864 334.417 284.973 332.003 283.161C329.589 281.349 322.749 283.062 319.817 283.244Z" fill="#3B3E3C"/>
<path d="M319.66 279.673C318.766 279.628 317.88 279.873 317.109 280.378C316.437 281.046 315.976 281.937 315.793 282.918C314.034 289.34 314.197 296.193 314.429 302.903C314.393 303.973 314.575 305.038 314.961 306.019C315.48 306.938 316.195 307.7 317.041 308.24C323.452 312.979 330.917 315.656 338.611 315.974C340.527 316.042 342.648 315.875 344.005 314.374C345.362 312.873 345.519 310.25 345.239 308.021C344.811 304.632 343.764 301.376 342.164 298.453C340.52 295.458 338.338 292.88 336.524 290.007C334.806 287.3 334.24 281.41 331.819 279.598C329.398 277.786 322.585 279.522 319.66 279.673Z" fill="url(#paint8_linear)"/>
<path d="M112.848 252.896C106.71 250.758 99.2091 249.34 94.6674 254.344C91.8578 257.422 91.0804 262.274 91.8305 266.58C92.7989 272.183 96.0381 277.05 100.014 280.659C103.99 284.268 108.681 286.724 113.387 288.999C130.326 297.141 148.077 302.949 165.78 308.711C168.508 309.598 171.331 310.492 174.1 309.855C179.324 308.635 182.283 302.607 184.513 297.225C184.722 296.891 184.865 296.512 184.932 296.113C184.999 295.713 184.988 295.303 184.901 294.908C184.814 294.514 184.652 294.144 184.427 293.825C184.201 293.505 183.917 293.243 183.593 293.055C174.079 283.54 163.134 277.642 151.773 271.197C139.26 264.147 126.33 257.361 112.848 252.896Z" fill="#3B3E3C"/>
<path d="M112.848 252.896C106.71 250.758 99.2091 249.34 94.6674 254.344C91.8578 257.422 91.0804 262.274 91.8305 266.58C92.7989 272.183 96.0381 277.05 100.014 280.659C103.99 284.268 108.681 286.724 113.387 288.999C130.326 297.141 148.077 302.949 165.78 308.711C168.508 309.598 171.331 310.492 174.1 309.855C179.324 308.635 182.283 302.607 184.513 297.225C184.722 296.891 184.865 296.512 184.932 296.113C184.999 295.713 184.988 295.303 184.901 294.908C184.814 294.514 184.652 294.144 184.427 293.825C184.201 293.505 183.917 293.243 183.593 293.055C174.079 283.54 163.134 277.642 151.773 271.197C139.26 264.147 126.33 257.361 112.848 252.896Z" fill="url(#paint9_linear)"/>
<path d="M129.753 303.237C128.559 304.419 127.366 305.731 126.896 307.429C126.132 310.174 127.577 313.244 129.691 314.859C131.805 316.474 134.513 316.906 137.104 316.959C142.955 317.065 165.2 306.004 164.58 304.397C163.154 300.742 157.89 291.508 153.873 291.03C148.493 290.378 133.456 299.582 129.753 303.237Z" fill="#5DB07B"/>
<path d="M129.753 303.237C128.559 304.419 127.366 305.731 126.896 307.429C126.132 310.174 127.577 313.244 129.691 314.859C131.805 316.474 134.513 316.906 137.104 316.959C142.955 317.065 165.2 306.004 164.58 304.397C163.154 300.742 157.89 291.508 153.873 291.03C148.493 290.378 133.456 299.582 129.753 303.237Z" fill="#3B3E3C"/>
<path d="M129.753 303.237C128.559 304.419 127.366 305.731 126.896 307.429C126.132 310.174 127.577 313.244 129.691 314.859C131.805 316.474 134.513 316.906 137.104 316.959C142.955 317.065 165.2 306.004 164.58 304.397C163.154 300.742 157.89 291.508 153.873 291.03C148.493 290.378 133.456 299.582 129.753 303.237Z" fill="#1E1F1E"/>
<path d="M150.116 293.714C148.752 294.382 147.299 295.178 146.706 296.671C146.381 297.613 146.293 298.635 146.454 299.628C146.829 302.911 148.595 306.3 151.473 307.134C153.921 307.846 156.451 306.573 158.722 305.329C162.132 303.457 165.65 301.485 168.112 298.248C169.006 297.073 169.776 295.549 169.408 294.063C169.125 293.194 168.657 292.413 168.044 291.789C165.821 289.226 163.673 287.043 160.611 288.407C157.044 289.992 153.587 291.986 150.116 293.714Z" fill="#FFD1A9"/>
<path d="M191.701 296.754C196.004 298.271 199.932 300.985 204.255 302.448C208.579 303.911 213.741 303.911 217.117 300.568C217.76 299.969 218.275 299.218 218.624 298.369C219.044 297.021 219.163 295.58 218.971 294.169C218.649 289.687 217.964 285.247 216.926 280.902C216.656 279.303 216.019 277.81 215.078 276.565C213.311 274.571 210.461 274.579 207.938 274.723L194.524 275.481C190.057 275.731 184.909 276.398 182.474 280.568C181.737 281.983 181.203 283.518 180.892 285.117C180.149 288.149 177.946 292.425 181.083 294.336C182.447 295.177 184.493 295.094 185.986 295.337C187.773 295.632 189.948 296.754 191.701 296.754Z" fill="#3B3E3C"/>
<path d="M191.701 296.754C196.004 298.271 199.932 300.985 204.255 302.448C208.579 303.911 213.741 303.911 217.117 300.568C217.76 299.969 218.275 299.218 218.624 298.369C219.044 297.021 219.163 295.58 218.971 294.169C218.649 289.687 217.964 285.247 216.926 280.902C216.656 279.303 216.019 277.81 215.078 276.565C213.311 274.571 210.461 274.579 207.938 274.723L194.524 275.481C190.057 275.731 184.909 276.398 182.474 280.568C181.737 281.983 181.203 283.518 180.892 285.117C180.149 288.149 177.946 292.425 181.083 294.336C182.447 295.177 184.493 295.094 185.986 295.337C187.773 295.632 189.948 296.754 191.701 296.754Z" fill="url(#paint10_linear)"/>
<path d="M185.658 315.329C188.626 316.115 191.671 316.482 194.721 316.421C197.797 316.254 200.961 315.276 203.293 313.191C205.626 311.106 206.969 307.793 206.151 304.927C205.087 301.182 201.016 299.317 197.285 298.142C193.651 296.997 189.443 296.163 186.013 298.142C184.531 299.104 183.203 300.334 182.085 301.781C180.983 302.931 180.041 304.257 179.289 305.716C176.909 310.901 181.042 314.283 185.658 315.329Z" fill="#3B3E3C"/>
<path d="M185.658 315.329C188.626 316.115 191.671 316.482 194.721 316.421C197.797 316.254 200.961 315.276 203.293 313.191C205.626 311.106 206.969 307.793 206.151 304.927C205.087 301.182 201.016 299.317 197.285 298.142C193.651 296.997 189.443 296.163 186.013 298.142C184.531 299.104 183.203 300.334 182.085 301.781C180.983 302.931 180.041 304.257 179.289 305.716C176.909 310.901 181.042 314.283 185.658 315.329Z" fill="url(#paint11_linear)" fill-opacity="0.5"/>
<path d="M174.324 304.996C176.227 309.059 180.605 311.265 184.717 310.947C186.865 310.78 189.075 309.939 190.466 308.112C192.982 304.798 191.469 299.939 183.053 296.914C179.664 295.693 173.683 303.638 174.324 304.996Z" fill="#FFD1A9"/>
<path d="M280.305 75.2084C280.53 74.2532 281.157 73.2448 282.044 73.2676C282.321 73.2944 282.588 73.3989 282.82 73.5712C283.051 73.7436 283.239 73.9782 283.367 74.2532C283.615 74.8088 283.756 75.4154 283.783 76.0348C283.931 77.5889 283.908 79.1571 283.715 80.705C283.665 81.8974 283.206 83.0233 282.433 83.8513C282.405 83.891 282.368 83.9216 282.326 83.9401C282.285 83.9587 282.239 83.9643 282.194 83.9566C282.15 83.9489 282.108 83.928 282.073 83.8961C282.038 83.8643 282.012 83.8226 281.996 83.7755C281.258 82.4924 280.755 81.0599 280.516 79.5602C280.285 78.1273 279.964 76.6489 280.305 75.2084Z" fill="#FFD1A9"/>
<path d="M242.737 86.626C242.311 86.634 241.905 86.8272 241.605 87.1643C241.393 87.4924 241.288 87.8906 241.305 88.294C241.251 91.0536 243.276 93.3356 245.438 94.7003C246.351 95.2765 247.593 95.7238 248.377 94.9429C249.161 94.162 248.909 92.767 248.513 91.6905C247.49 88.8701 245.867 86.2773 242.737 86.626Z" fill="#FFD1A9"/>
<path d="M247.333 91.7284C250.415 98.855 253.593 106.133 258.681 111.66C260.113 113.454 261.954 114.785 264.01 115.513C266.066 116.242 268.26 116.341 270.362 115.8C273.349 115.337 276.397 114.283 278.545 111.88C279.696 110.491 280.604 108.876 281.225 107.119C285.788 95.2614 283.053 81.3418 277.625 69.9241C275.94 66.3911 273.901 62.8884 270.846 60.8263C266.536 57.8695 260.999 58.2638 256.151 59.8407C251.916 61.2205 242.512 64.7687 241.605 70.4017C240.507 77.1871 244.796 85.8755 247.333 91.7284Z" fill="#FFD1A9"/>
<path d="M236.572 73.0551C235.647 71.4813 234.984 69.7349 234.615 67.8997C234.349 66.0422 234.792 63.9497 236.136 62.8201C236.467 62.5996 236.765 62.3204 237.016 61.9937C237.243 61.5055 237.347 60.9578 237.316 60.4092C237.561 55.2235 241.407 50.9475 245.778 49.037C250.15 47.1264 254.937 47.1643 259.608 47.1492C264.279 47.134 269.108 47.0203 273.383 44.9278C273.843 46.551 273.831 48.2936 273.349 49.9088C274.454 49.1507 275.968 50.4244 276.118 51.8724C276.268 53.3205 275.538 54.6624 274.843 55.8906C277.571 56.6488 278.982 60.068 279.234 63.1764C279.487 66.2848 278.996 69.4918 279.705 72.5168C279.958 73.3355 280.132 74.1818 280.223 75.0415C280.274 75.4784 280.213 75.9224 280.046 76.3222C279.88 76.722 279.615 77.0612 279.282 77.3007C278.048 72.7519 275.422 68.8777 272.838 65.1021C272.111 63.906 271.213 62.8508 270.178 61.9786C269.657 61.5461 269.049 61.2597 268.407 61.1436C267.765 61.0275 267.107 61.085 266.489 61.3114C265.69 61.8067 264.93 62.3774 264.218 63.0172C263.303 63.5779 262.301 63.9431 261.265 64.0938C255.428 65.2917 249.072 65.231 244.183 68.9763C243.558 69.3891 243.052 69.9913 242.723 70.7124C242.497 71.5231 242.464 72.3853 242.628 73.2143L243.644 81.9254C243.862 83.8057 244.183 85.8148 245.458 87.187C241.714 83.1688 239.116 78.0361 236.572 73.0551Z" fill="#3B3E3C"/>
<path d="M236.572 73.0551C235.647 71.4813 234.984 69.7349 234.615 67.8997C234.349 66.0422 234.792 63.9497 236.136 62.8201C236.467 62.5996 236.765 62.3204 237.016 61.9937C237.243 61.5055 237.347 60.9578 237.316 60.4092C237.561 55.2235 241.407 50.9475 245.778 49.037C250.15 47.1264 254.937 47.1643 259.608 47.1492C264.279 47.134 269.108 47.0203 273.383 44.9278C273.843 46.551 273.831 48.2936 273.349 49.9088C274.454 49.1507 275.968 50.4244 276.118 51.8724C276.268 53.3205 275.538 54.6624 274.843 55.8906C277.571 56.6488 278.982 60.068 279.234 63.1764C279.487 66.2848 278.996 69.4918 279.705 72.5168C279.958 73.3355 280.132 74.1818 280.223 75.0415C280.274 75.4784 280.213 75.9224 280.046 76.3222C279.88 76.722 279.615 77.0612 279.282 77.3007C278.048 72.7519 275.422 68.8777 272.838 65.1021C272.111 63.906 271.213 62.8508 270.178 61.9786C269.657 61.5461 269.049 61.2597 268.407 61.1436C267.765 61.0275 267.107 61.085 266.489 61.3114C265.69 61.8067 264.93 62.3774 264.218 63.0172C263.303 63.5779 262.301 63.9431 261.265 64.0938C255.428 65.2917 249.072 65.231 244.183 68.9763C243.558 69.3891 243.052 69.9913 242.723 70.7124C242.497 71.5231 242.464 72.3853 242.628 73.2143L243.644 81.9254C243.862 83.8057 244.183 85.8148 245.458 87.187C241.714 83.1688 239.116 78.0361 236.572 73.0551Z" fill="url(#paint12_linear)"/>
<path d="M104.842 225.443C106.66 225.343 108.482 225.368 110.297 225.519C111.661 225.633 113.4 226.171 113.591 227.695C113.748 228.9 112.759 229.969 111.729 230.348C110.7 230.727 109.568 230.765 108.538 231.19C110.579 231.064 112.607 231.627 114.355 232.805C114.614 232.953 114.831 233.179 114.982 233.457C115.35 234.283 114.532 235.14 113.796 235.549C112.821 236.084 111.79 236.482 110.727 236.732C111.999 236.764 113.244 237.141 114.355 237.831C114.822 238.077 115.203 238.487 115.439 238.999C115.559 239.474 115.523 239.982 115.337 240.431C115.151 240.88 114.827 241.24 114.423 241.447C113.602 241.838 112.707 241.997 111.818 241.91C112.594 242.151 113.316 242.569 113.939 243.138C114.243 243.428 114.461 243.813 114.565 244.244C114.668 244.674 114.652 245.129 114.518 245.549C114.116 246.512 113.025 246.785 112.084 246.936L106.39 247.877C105.816 248.008 105.227 248.041 104.644 247.975C103.894 247.832 103.2 247.441 102.653 246.853C100.607 244.768 100.45 241.311 100.436 238.233L100.395 231.114C100.375 227.96 101.841 225.64 104.842 225.443Z" fill="#FFD1A9"/>
<path d="M202.905 245.989C207.392 242.289 211.947 238.536 217.178 236.353C222.408 234.169 228.484 233.707 233.442 236.557C238.4 239.408 241.741 246.102 240.098 252.031C239.416 254.579 237.902 256.747 236.402 258.809C226.909 271.88 215.691 283.57 202.577 291.902C189.464 300.234 174.338 305.102 159.26 304.29C158.71 304.373 158.152 304.214 157.706 303.845C157.26 303.477 156.961 302.929 156.874 302.319L154.63 295.625C154.107 294.361 153.846 292.982 153.866 291.591C154.05 289.408 155.571 287.695 157.01 286.193C171.229 271.447 187.316 258.801 202.905 245.989Z" fill="#3B3E3C"/>
<path d="M202.905 245.989C207.392 242.289 211.947 238.536 217.178 236.353C222.408 234.169 228.484 233.707 233.442 236.557C238.4 239.408 241.741 246.102 240.098 252.031C239.416 254.579 237.902 256.747 236.402 258.809C226.909 271.88 215.691 283.57 202.577 291.902C189.464 300.234 174.338 305.102 159.26 304.29C158.71 304.373 158.152 304.214 157.706 303.845C157.26 303.477 156.961 302.929 156.874 302.319L154.63 295.625C154.107 294.361 153.846 292.982 153.866 291.591C154.05 289.408 155.571 287.695 157.01 286.193C171.229 271.447 187.316 258.801 202.905 245.989Z" fill="url(#paint13_linear)"/>
<path d="M276.997 190.743C282.194 191.789 287.356 189.128 292.102 186.535L303.566 180.273C304.947 179.375 306.483 178.812 308.074 178.62C309.662 178.552 311.408 179.378 311.967 181.061C312.588 182.888 311.565 184.958 310.174 186.148C308.783 187.339 307.057 187.938 305.516 188.87C301.043 191.592 298.39 196.959 294.278 200.318C291.704 202.304 288.795 203.692 285.726 204.397C277.802 206.467 268.835 205.413 262.54 199.651C258.667 196.103 251.329 181.167 258.449 177.149C262.07 175.117 264.457 180.773 266.509 183.214C269.421 186.679 272.715 189.878 276.997 190.743Z" fill="#FFD1A9"/>
<path d="M213.284 223.737C213.284 223.737 207.044 236.125 212.834 247.278C218.623 258.43 243.139 261.895 247.613 257.68C252.086 253.464 260.317 245.792 260.317 245.792C260.317 245.792 258.312 240.583 262.097 232.411C265.882 224.238 268.112 222.009 269.674 222.994C271.235 223.98 281.485 235.883 282.821 242.077C284.158 248.271 292.853 250.25 295.526 250.5C298.199 250.75 306.437 246.285 306.437 246.285C306.437 246.285 305.325 232.411 300.866 227.21C296.406 222.009 287.049 204.662 273.677 211.349C260.304 218.036 250.947 221.759 250.947 221.759L213.284 223.737Z" fill="#3B3E3C"/>
<path d="M213.284 223.737C213.284 223.737 207.044 236.125 212.834 247.278C218.623 258.43 243.139 261.895 247.613 257.68C252.086 253.464 260.317 245.792 260.317 245.792C260.317 245.792 258.312 240.583 262.097 232.411C265.882 224.238 268.112 222.009 269.674 222.994C271.235 223.98 281.485 235.883 282.821 242.077C284.158 248.271 292.853 250.25 295.526 250.5C298.199 250.75 306.437 246.285 306.437 246.285C306.437 246.285 305.325 232.411 300.866 227.21C296.406 222.009 287.049 204.662 273.677 211.349C260.304 218.036 250.947 221.759 250.947 221.759L213.284 223.737Z" fill="url(#paint14_linear)"/>
<path d="M218.589 180.636C216.823 187.619 217.635 195.109 216.339 202.221C215.534 206.679 213.911 210.924 213.277 215.413C212.643 219.901 213.182 224.958 216.087 228.165C217.847 229.947 220.024 231.141 222.367 231.607C227.611 232.896 233.128 232.016 238.209 230.09C243.289 228.165 248.008 225.238 252.693 222.327C253.938 221.652 255.072 220.75 256.048 219.658C257.896 217.384 258.156 214.003 258.196 210.909C258.285 204.738 257.896 198.498 258.974 192.441C259.731 188.142 261.224 183.942 261.095 179.552C260.979 176.768 260.215 174.064 258.878 171.707C257.54 169.349 255.674 167.418 253.464 166.103C249.515 163.828 245.015 163.76 240.732 162.835C237.138 162.077 235.324 161.493 231.805 163.373C228.638 165.062 225.825 167.471 223.549 170.445C221.272 173.419 219.583 176.891 218.589 180.636Z" fill="#5DB07B"/>
<path d="M218.589 180.636C216.823 187.619 217.635 195.109 216.339 202.221C215.534 206.679 213.911 210.924 213.277 215.413C212.643 219.901 213.182 224.958 216.087 228.165C217.847 229.947 220.024 231.141 222.367 231.607C227.611 232.896 233.128 232.016 238.209 230.09C243.289 228.165 248.008 225.238 252.693 222.327C253.938 221.652 255.072 220.75 256.048 219.658C257.896 217.384 258.156 214.003 258.196 210.909C258.285 204.738 257.896 198.498 258.974 192.441C259.731 188.142 261.224 183.942 261.095 179.552C260.979 176.768 260.215 174.064 258.878 171.707C257.54 169.349 255.674 167.418 253.464 166.103C249.515 163.828 245.015 163.76 240.732 162.835C237.138 162.077 235.324 161.493 231.805 163.373C228.638 165.062 225.825 167.471 223.549 170.445C221.272 173.419 219.583 176.891 218.589 180.636Z" fill="url(#paint15_linear)"/>
<path d="M214.859 219.378C214.614 223.76 214.812 228.946 218.078 231.41C219.514 232.366 221.145 232.901 222.818 232.964C226.077 233.282 229.361 233.026 232.549 232.206C233.708 231.91 239.779 229.465 239.779 229.465C239.459 228.919 230.353 224.404 228.58 222.721C225.723 220.068 225.852 215.178 226.65 211.137C227.448 207.096 228.58 202.714 226.971 199.006C225.361 195.299 218.576 191.933 217.048 196.967C215.003 203.608 215.241 212.403 214.859 219.378Z" fill="#FFD1A9"/>
<path d="M226.691 115.155C225.584 116.653 224.834 118.436 224.509 120.341C223.69 124.042 223.486 127.878 223.909 131.66C224.488 136.846 226.2 142.274 224.365 147.104C223.793 148.62 222.913 149.901 222.32 151.364C221.963 152.071 221.741 152.852 221.67 153.659C221.598 154.465 221.678 155.279 221.904 156.05C222.068 156.539 222.372 156.954 222.77 157.232C223.155 157.426 223.584 157.486 224 157.403C224.417 157.321 224.801 157.1 225.102 156.77C225.698 156.1 226.162 155.299 226.466 154.42C225.927 155.489 226.677 156.959 227.741 157.278C228.284 157.396 228.845 157.351 229.366 157.147C229.888 156.943 230.351 156.588 230.707 156.118C231.408 155.166 231.948 154.083 232.303 152.919C232.441 153.672 232.738 154.379 233.169 154.981C235.215 154.435 236.388 152.001 237.152 149.787C239.266 143.662 240.561 137.058 239.88 130.546C239.32 125.58 233.012 107.437 226.691 115.155Z" fill="#3B3E3C"/>
<path d="M226.691 115.155C225.584 116.653 224.834 118.436 224.509 120.341C223.69 124.042 223.486 127.878 223.909 131.66C224.488 136.846 226.2 142.274 224.365 147.104C223.793 148.62 222.913 149.901 222.32 151.364C221.963 152.071 221.741 152.852 221.67 153.659C221.598 154.465 221.678 155.279 221.904 156.05C222.068 156.539 222.372 156.954 222.77 157.232C223.155 157.426 223.584 157.486 224 157.403C224.417 157.321 224.801 157.1 225.102 156.77C225.698 156.1 226.162 155.299 226.466 154.42C225.927 155.489 226.677 156.959 227.741 157.278C228.284 157.396 228.845 157.351 229.366 157.147C229.888 156.943 230.351 156.588 230.707 156.118C231.408 155.166 231.948 154.083 232.303 152.919C232.441 153.672 232.738 154.379 233.169 154.981C235.215 154.435 236.388 152.001 237.152 149.787C239.266 143.662 240.561 137.058 239.88 130.546C239.32 125.58 233.012 107.437 226.691 115.155Z" fill="url(#paint16_linear)"/>
<path d="M251.677 169.385C251.786 171.994 252.032 174.693 251.302 177.24C250.572 179.787 248.424 181.849 246.828 180.735C246.158 180.133 245.637 179.35 245.315 178.461L239.729 166.262C239.335 165.516 239.084 164.687 238.993 163.828C238.918 162.312 239.504 160.113 239.525 158.68C239.525 156.27 239.034 153.017 239.525 151.599C240.016 150.182 243.194 152.972 244.005 151.834C244.817 150.697 246.297 150.727 247.367 151.311C249.604 152.532 251.295 155.345 251.813 158.718C251.929 159.476 252.093 160.166 252.236 160.902C252.482 162.168 252.564 161.523 252.304 162.896C251.83 165.017 251.619 167.201 251.677 169.385Z" fill="#FFD1A9"/>
<path d="M242.068 160.894C243.678 164.306 245.478 167.968 248.683 169.499C249.025 169.704 249.416 169.783 249.801 169.727C250.093 169.635 250.357 169.457 250.565 169.211C251.581 168.066 251.759 166.323 251.874 164.715L252.147 161.008C252.206 160.69 252.16 160.359 252.018 160.075C251.877 159.9 251.699 159.767 251.499 159.689L243.787 155.898C242.893 155.451 240.882 154.647 240.377 156.088C239.975 157.21 241.604 159.901 242.068 160.894Z" fill="#E4B387"/>
<path d="M250.484 164.48C246.055 163.054 242.218 159.944 239.641 155.693C238.914 154.553 238.34 153.302 237.936 151.979C237.535 150.433 237.333 148.833 237.336 147.225C237.204 140.788 238.43 134.405 240.916 128.59C241.497 127.119 242.276 125.756 243.228 124.549C245.274 122.077 248.377 120.97 251.37 120.417C253.679 120.017 256.011 119.809 258.347 119.795C259.665 119.68 260.99 119.89 262.227 120.409C263.13 120.909 263.93 121.614 264.573 122.479C266.305 124.64 266.353 127.566 266.707 130.477C267.096 133.586 263.754 168.491 250.484 164.48Z" fill="#FFD1A9"/>
<path d="M271.781 125.057C271.297 121.22 269.803 117.642 268.146 114.23C267.389 112.676 266.544 111.091 265.214 110.129C264.14 109.465 262.966 109.023 261.75 108.825L254.446 107.126C252.392 106.568 250.292 106.246 248.179 106.164C241.189 106.164 234.697 111.865 232.385 119.196C230.073 126.527 231.662 135.019 235.795 141.266C235.917 141.504 236.081 141.712 236.277 141.878C236.472 142.045 236.696 142.167 236.934 142.236C237.718 142.335 238.257 141.387 238.55 140.568C239.491 137.953 240.139 135.201 241.278 132.676C242.417 130.151 244.162 127.816 246.563 126.884C247.761 126.519 248.98 126.245 250.211 126.065C252.264 125.594 254.192 124.603 255.844 123.169C255.98 123.007 256.147 122.882 256.332 122.802C256.517 122.722 256.716 122.689 256.915 122.706C257.269 122.812 257.46 123.229 257.651 123.578C258.967 125.989 261.886 126.611 263.645 128.681C264.655 129.856 265.207 131.402 265.985 132.775C270.322 140.424 272.279 129.022 271.781 125.057Z" fill="#3B3E3C"/>
<path d="M271.781 125.057C271.297 121.22 269.803 117.642 268.146 114.23C267.389 112.676 266.544 111.091 265.214 110.129C264.14 109.465 262.966 109.023 261.75 108.825L254.446 107.126C252.392 106.568 250.292 106.246 248.179 106.164C241.189 106.164 234.697 111.865 232.385 119.196C230.073 126.527 231.662 135.019 235.795 141.266C235.917 141.504 236.081 141.712 236.277 141.878C236.472 142.045 236.696 142.167 236.934 142.236C237.718 142.335 238.257 141.387 238.55 140.568C239.491 137.953 240.139 135.201 241.278 132.676C242.417 130.151 244.162 127.816 246.563 126.884C247.761 126.519 248.98 126.245 250.211 126.065C252.264 125.594 254.192 124.603 255.844 123.169C255.98 123.007 256.147 122.882 256.332 122.802C256.517 122.722 256.716 122.689 256.915 122.706C257.269 122.812 257.46 123.229 257.651 123.578C258.967 125.989 261.886 126.611 263.645 128.681C264.655 129.856 265.207 131.402 265.985 132.775C270.322 140.424 272.279 129.022 271.781 125.057Z" fill="url(#paint17_linear)"/>
<path d="M263.407 177.574C265.125 180 266.926 182.668 266.946 185.754C266.897 187.196 266.629 188.619 266.155 189.962C265.439 192.327 264.607 194.655 263.686 196.929C263.216 198.074 262.623 199.31 261.559 199.727C259.145 198.491 257.767 195.527 257.378 192.6C256.99 189.674 257.378 186.709 257.576 183.76C257.706 181.675 257.726 179.59 257.685 177.505C257.685 176.3 256.874 172.373 257.46 171.44C258.742 169.401 262.527 176.338 263.407 177.574Z" fill="#5DB07B"/>
<path d="M263.407 177.574C265.125 180 266.926 182.668 266.946 185.754C266.897 187.196 266.629 188.619 266.155 189.962C265.439 192.327 264.607 194.655 263.686 196.929C263.216 198.074 262.623 199.31 261.559 199.727C259.145 198.491 257.767 195.527 257.378 192.6C256.99 189.674 257.378 186.709 257.576 183.76C257.706 181.675 257.726 179.59 257.685 177.505C257.685 176.3 256.874 172.373 257.46 171.44C258.742 169.401 262.527 176.338 263.407 177.574Z" fill="#5DB07B"/>
<path d="M222.531 171.463C220.151 175.155 216.775 179.575 215.03 183.684C213.366 187.642 213.325 202.987 214.034 203.298C217.287 204.753 223.724 204.435 227.148 203.601C227.623 203.536 228.067 203.299 228.409 202.926C228.729 202.418 228.874 201.799 228.818 201.182C228.784 196.596 227.195 189.583 227.154 184.996C227.234 182.764 227.016 180.531 226.507 178.37C225.906 176.247 224.747 173.063 222.763 173.396L222.531 171.463Z" fill="#5DB07B"/>
<path d="M225.668 174.708C225.459 174.204 225.135 173.769 224.729 173.445C224.323 173.122 223.848 172.922 223.352 172.865C222.855 172.808 222.353 172.895 221.896 173.118C221.439 173.342 221.042 173.694 220.744 174.139C218.698 177.172 216.38 180.53 215.057 183.684C213.393 187.642 213.352 202.987 214.061 203.298C217.314 204.753 223.752 204.435 227.175 203.601C227.651 203.536 228.094 203.299 228.437 202.926C228.747 202.414 228.882 201.796 228.818 201.182C228.784 196.596 227.195 189.583 227.155 184.996C227.155 182.767 226.698 180.591 226.507 178.37C226.407 177.107 226.123 175.87 225.668 174.708Z" fill="#5DB07B"/>
<path d="M298.949 186.269C302.134 177.536 310.794 170.303 318.773 173.472C345.028 183.904 333.367 253.328 334.096 283.57C334.108 284.795 333.858 286.005 333.367 287.102C332.876 288.198 332.159 289.149 331.273 289.878C330.012 290.879 321.358 289.249 319.817 289.423C314.825 289.992 303.675 224.056 298.41 214.753C293.671 206.376 295.649 195.299 298.949 186.269Z" fill="#3B3E3C"/>
<path d="M298.949 186.269C302.134 177.536 310.794 170.303 318.773 173.472C345.028 183.904 333.367 253.328 334.096 283.57C334.108 284.795 333.858 286.005 333.367 287.102C332.876 288.198 332.159 289.149 331.273 289.878C330.012 290.879 321.358 289.249 319.817 289.423C314.825 289.992 303.675 224.056 298.41 214.753C293.671 206.376 295.649 195.299 298.949 186.269Z" fill="url(#paint18_linear)"/>
<path d="M185.897 236.429C185.802 237.596 185.972 238.908 186.797 239.628C187.107 239.871 187.447 240.062 187.807 240.197L191.216 241.713C191.423 241.841 191.653 241.916 191.889 241.93C192.126 241.944 192.362 241.899 192.58 241.796C192.853 241.599 192.976 241.235 193.187 240.962C193.808 240.166 194.981 240.325 195.819 240.818C196.534 241.246 197.146 241.857 197.606 242.6C197.988 243.222 198.329 243.987 198.97 244.184C199.3 244.243 199.639 244.193 199.944 244.041C200.249 243.889 200.508 243.641 200.688 243.328C202.052 241.349 201.316 238.422 200.068 236.338C198.161 233.187 195.332 230.867 192.062 229.772C188.509 228.544 186.19 232.736 185.897 236.429Z" fill="#FFD1A9"/>
<path d="M161.852 227.627C163.263 228.961 162.916 231.516 162.036 233.328C159.717 238.119 148.656 246.55 143.658 242.57C139.218 239.037 145.813 231.053 148.554 228.961C151.759 226.505 158.51 224.458 161.852 227.627Z" fill="#FFD1A9"/>
<path d="M265.643 253.555L284.554 278.324C285.331 279.355 285.951 280.56 287.104 280.962C289.007 281.622 295.881 283.123 295.587 282.221C288.693 260.651 283.401 240.773 273.199 226.557C272.101 225.041 270.853 223.457 269.169 222.858C266.393 221.865 263.332 223.942 261.879 226.762C257.133 236.057 260.045 246.194 265.643 253.555Z" fill="#FFD1A9"/>
<path d="M280.871 224.541C281.137 221.228 283.005 217.831 285.924 217.088C287.3 216.793 288.725 216.959 290.016 217.566C294.748 219.636 297.319 225.254 299.058 230.561C304.036 245.761 309.383 266.133 307.426 282.153C307.262 283.472 302.563 282.911 301.37 282.812C300.613 282.744 292.798 262.721 289.272 253.244C286.258 245.208 280.155 233.51 280.871 224.541Z" fill="#FFD1A9"/>
<path d="M236.082 138.301C235.773 138.237 235.456 138.237 235.147 138.301C234.921 138.372 234.71 138.493 234.527 138.657C234.344 138.822 234.193 139.026 234.084 139.257C233.866 139.73 233.729 140.244 233.681 140.773C233.472 142.102 233.661 143.472 234.22 144.67C234.506 145.263 234.937 145.753 235.463 146.085C235.989 146.416 236.589 146.575 237.193 146.542C237.421 146.529 237.641 146.445 237.827 146.3C238.095 145.985 238.248 145.572 238.257 145.14C238.448 143.715 239.041 141.637 238.734 140.212C238.462 138.908 237.111 138.468 236.082 138.301Z" fill="#FFD1A9"/>
<path d="M235.863 140.015C235.622 140.017 235.386 140.099 235.187 140.25C234.988 140.401 234.834 140.615 234.745 140.864C234.661 141.153 234.636 141.458 234.669 141.759C234.695 142.454 234.88 143.13 235.208 143.722C235.396 144.074 235.667 144.361 235.992 144.552C236.316 144.744 236.683 144.832 237.049 144.806C237.169 144.806 237.286 144.77 237.389 144.703C237.492 144.636 237.578 144.54 237.637 144.425C237.696 144.31 237.727 144.18 237.727 144.047C237.727 143.914 237.696 143.784 237.636 143.669C237.367 143.031 237.168 142.359 237.043 141.668C237.002 140.872 236.736 140.038 235.863 140.015Z" fill="#E4B387"/>
<path d="M177.311 117.21C177.964 117.424 178.642 117.534 179.323 117.536C181.744 117.665 184.362 117.725 186.354 116.201C188.345 114.677 189.218 111.978 189.961 109.446C190.704 106.914 191.53 104.2 193.446 102.623C195.492 100.94 198.485 100.697 199.897 98.3621C200.266 97.7937 200.438 97.0965 200.381 96.3985C200.199 95.5903 199.814 94.8565 199.27 94.2833C198.52 93.1618 197.531 92.2655 196.392 91.6752C195.636 91.3837 194.84 91.24 194.039 91.2507C191.557 91.2227 189.076 91.3468 186.606 91.6222C184.137 91.8799 181.621 92.259 179.418 93.5175C177.289 94.8517 175.454 96.6956 174.045 98.9156C172.679 100.761 171.643 102.879 170.99 105.155C170.308 107.763 170.417 111.076 172.142 113.191C173.602 114.907 175.36 116.275 177.311 117.21Z" fill="#3B3E3C"/>
<path d="M192.328 84.2076C194.797 84.3213 197.142 85.3751 199.393 86.482C204.432 89.0218 209.417 92.1833 212.772 97.0961C216.128 102.009 217.546 108.938 215.009 114.397C213.317 110.446 211.236 106.716 208.804 103.275C207.411 101.381 205.807 99.6919 204.03 98.2485C202.577 97.0961 200.818 96.4972 199.938 94.7231C197.804 90.4926 196.249 86.8838 192.328 84.2076Z" fill="#3B3E3C"/>
<path d="M256.021 175.815C255.98 176.285 256.021 176.861 256.383 177.073C256.517 177.123 256.659 177.141 256.8 177.127C256.94 177.112 257.077 177.066 257.201 176.99C258.03 176.578 258.739 175.916 259.247 175.079C258.643 176.444 258.406 177.973 258.565 179.484C258.619 179.984 258.776 180.561 259.199 180.727C259.377 180.771 259.562 180.767 259.739 180.716C259.916 180.664 260.079 180.567 260.215 180.432C260.942 179.847 261.465 179.001 261.695 178.036C261.142 179.809 260.967 181.701 261.183 183.563C261.182 183.755 261.222 183.946 261.299 184.118C261.376 184.291 261.488 184.441 261.627 184.556C261.771 184.617 261.927 184.639 262.08 184.622C262.234 184.605 262.382 184.549 262.513 184.457C263.687 183.699 264.611 182.543 265.152 181.16C265.699 180.182 265.963 179.041 265.909 177.892C265.773 176.762 264.873 175.671 263.863 175.815C264.013 175.815 260.972 169.749 259.513 169.454C256.649 168.87 256.226 173.457 256.021 175.815Z" fill="#FFD1A9"/>
<path opacity="0.5" d="M52.3869 248.817C54.751 253.038 56.8452 257.438 58.6539 261.986C60.3101 266.434 61.4158 271.111 61.9409 275.89C62.7729 283.472 61.9409 291.728 57.8493 297.877C57.7706 298.028 57.6443 298.141 57.4946 298.195C57.2287 298.24 57.0377 297.922 56.9286 297.649C54.0736 290.629 51.2185 283.611 48.3635 276.595C47.1087 273.517 45.8539 270.432 44.8651 267.24C42.4335 259.357 41.643 250.963 42.5533 242.691C42.8261 240.197 42.9488 234.867 46.2222 237.384C48.7453 239.317 50.8321 245.913 52.3869 248.817Z" fill="#5DB07B"/>
<path d="M52.3869 248.817C54.751 253.038 56.8452 257.438 58.6539 261.986C60.3101 266.434 61.4158 271.111 61.9409 275.89C62.7729 283.472 61.9409 291.728 57.8493 297.877C57.7706 298.028 57.6443 298.141 57.4946 298.195C57.2287 298.24 57.0377 297.922 56.9286 297.649C54.0736 290.629 51.2185 283.611 48.3635 276.595C47.1087 273.517 45.8539 270.432 44.8651 267.24C42.4335 259.357 41.643 250.963 42.5533 242.691C42.8261 240.197 42.9488 234.867 46.2222 237.384C48.7453 239.317 50.8321 245.913 52.3869 248.817Z" fill="url(#paint19_linear)"/>
<path opacity="0.24" d="M394.687 292.16C395.635 286.095 400.354 281.607 402.284 275.822C402.949 273.642 403.381 271.382 403.573 269.09C404.6 259.8 404.694 250.412 403.852 241.099C402.611 227.384 398.826 233.479 395.478 242.797C389.785 258.588 389.503 276.153 394.687 292.16Z" fill="#5DB07B"/>
<path d="M394.687 292.16C395.635 286.095 400.354 281.607 402.284 275.822C402.949 273.642 403.381 271.382 403.573 269.09C404.6 259.8 404.694 250.412 403.852 241.099C402.611 227.384 398.826 233.479 395.478 242.797C389.785 258.588 389.503 276.153 394.687 292.16Z" fill="url(#paint20_linear)"/>
<defs>
<linearGradient id="paint0_linear" x1="5238.49" y1="8237.98" x2="5916.46" y2="8237.98" gradientUnits="userSpaceOnUse">
<stop offset="0.12" stop-color="#010101" stop-opacity="0"/>
<stop offset="0.67" stop-color="#010101" stop-opacity="0.67"/>
<stop offset="0.95" stop-color="#010101"/>
</linearGradient>
<linearGradient id="paint1_linear" x1="3866.3" y1="31302" x2="11440.9" y2="31768.3" gradientUnits="userSpaceOnUse">
<stop offset="0.12" stop-color="#010101" stop-opacity="0"/>
<stop offset="0.67" stop-color="#010101" stop-opacity="0.67"/>
<stop offset="0.95" stop-color="#010101"/>
</linearGradient>
<linearGradient id="paint2_linear" x1="20187.2" y1="12475.2" x2="20853.1" y2="11026.6" gradientUnits="userSpaceOnUse">
<stop offset="0.12" stop-color="#010101" stop-opacity="0"/>
<stop offset="0.67" stop-color="#010101" stop-opacity="0.67"/>
<stop offset="0.95" stop-color="#010101"/>
</linearGradient>
<linearGradient id="paint3_linear" x1="10628.4" y1="28899.5" x2="2120.17" y2="32309.1" gradientUnits="userSpaceOnUse">
<stop offset="0.12" stop-color="#010101" stop-opacity="0"/>
<stop offset="0.67" stop-color="#010101" stop-opacity="0.67"/>
<stop offset="0.95" stop-color="#010101"/>
</linearGradient>
<linearGradient id="paint4_linear" x1="29358.2" y1="24795.4" x2="29607" y2="29472.8" gradientUnits="userSpaceOnUse">
<stop offset="0.12" stop-color="#1E1F1E"/>
<stop offset="0.67" stop-color="#010101" stop-opacity="0.67"/>
<stop offset="0.95" stop-color="#010101"/>
</linearGradient>
<linearGradient id="paint5_linear" x1="7250.92" y1="11543.9" x2="9602.12" y2="11543.9" gradientUnits="userSpaceOnUse">
<stop offset="0.12" stop-color="#010101" stop-opacity="0"/>
<stop offset="0.67" stop-color="#010101" stop-opacity="0.67"/>
<stop offset="0.95" stop-color="#010101"/>
</linearGradient>
<linearGradient id="paint6_linear" x1="39807.3" y1="39944.7" x2="40515.2" y2="30112.6" gradientUnits="userSpaceOnUse">
<stop offset="0.12" stop-color="#010101" stop-opacity="0"/>
<stop offset="0.67" stop-color="#010101" stop-opacity="0.67"/>
<stop offset="0.95" stop-color="#010101"/>
</linearGradient>
<linearGradient id="paint7_linear" x1="19689.1" y1="15400" x2="24986" y2="15400" gradientUnits="userSpaceOnUse">
<stop offset="0.12" stop-color="#010101" stop-opacity="0"/>
<stop offset="0.67" stop-color="#010101" stop-opacity="0.67"/>
<stop offset="0.95" stop-color="#010101"/>
</linearGradient>
<linearGradient id="paint8_linear" x1="14677.6" y1="18021.8" x2="16094.5" y2="18021.8" gradientUnits="userSpaceOnUse">
<stop offset="0.12" stop-color="#010101" stop-opacity="0"/>
<stop offset="0.67" stop-color="#010101" stop-opacity="0.67"/>
<stop offset="0.95" stop-color="#010101"/>
</linearGradient>
<linearGradient id="paint9_linear" x1="12769.7" y1="27134" x2="25564.7" y2="27134" gradientUnits="userSpaceOnUse">
<stop offset="0.12" stop-color="#010101" stop-opacity="0"/>
<stop offset="0.67" stop-color="#010101" stop-opacity="0.67"/>
<stop offset="0.95" stop-color="#010101"/>
</linearGradient>
<linearGradient id="paint10_linear" x1="10662.6" y1="13651.4" x2="12961.4" y2="13651.4" gradientUnits="userSpaceOnUse">
<stop offset="0.12" stop-color="#1E1F1E"/>
<stop offset="0.67" stop-color="#010101" stop-opacity="0.67"/>
<stop offset="0.95" stop-color="#010101"/>
</linearGradient>
<linearGradient id="paint11_linear" x1="8731.58" y1="10079.1" x2="7871.37" y2="9449.9" gradientUnits="userSpaceOnUse">
<stop offset="0.12" stop-color="#010101" stop-opacity="0"/>
<stop offset="0.67" stop-color="#010101" stop-opacity="0.67"/>
<stop offset="0.95" stop-color="#010101"/>
</linearGradient>
<linearGradient id="paint12_linear" x1="16018.6" y1="7305.06" x2="19079.9" y2="7305.06" gradientUnits="userSpaceOnUse">
<stop offset="0.12" stop-color="#010101" stop-opacity="0"/>
<stop offset="0.67" stop-color="#010101" stop-opacity="0.67"/>
<stop offset="0.95" stop-color="#010101"/>
</linearGradient>
<linearGradient id="paint13_linear" x1="19829" y1="30957.5" x2="30840.3" y2="30957.5" gradientUnits="userSpaceOnUse">
<stop offset="0.12" stop-color="#010101" stop-opacity="0"/>
<stop offset="0.67" stop-color="#010101" stop-opacity="0.67"/>
<stop offset="0.95" stop-color="#010101"/>
</linearGradient>
<linearGradient id="paint14_linear" x1="243.378" y1="185.019" x2="272.151" y2="272.115" gradientUnits="userSpaceOnUse">
<stop offset="0.12" stop-color="#010101" stop-opacity="0"/>
<stop offset="0.45" stop-color="#010101" stop-opacity="0.35"/>
<stop offset="0.67" stop-color="#010101" stop-opacity="0.67"/>
<stop offset="0.95" stop-color="#010101"/>
</linearGradient>
<linearGradient id="paint15_linear" x1="15296.2" y1="24326.3" x2="18683.7" y2="24326.3" gradientUnits="userSpaceOnUse">
<stop stop-color="white" stop-opacity="0"/>
<stop offset="0.95" stop-color="white"/>
</linearGradient>
<linearGradient id="paint16_linear" x1="6233.48" y1="11738" x2="6731.14" y2="11738" gradientUnits="userSpaceOnUse">
<stop offset="0.12" stop-color="#010101" stop-opacity="0"/>
<stop offset="0.45" stop-color="#010101" stop-opacity="0.35"/>
<stop offset="0.67" stop-color="#010101" stop-opacity="0.67"/>
<stop offset="0.95" stop-color="#010101"/>
</linearGradient>
<linearGradient id="paint17_linear" x1="14040.4" y1="9070.55" x2="16450.4" y2="9070.55" gradientUnits="userSpaceOnUse">
<stop offset="0.12" stop-color="#010101" stop-opacity="0"/>
<stop offset="0.67" stop-color="#010101" stop-opacity="0.67"/>
<stop offset="0.95" stop-color="#010101"/>
</linearGradient>
<linearGradient id="paint18_linear" x1="17894.7" y1="45987.8" x2="20295.9" y2="45987.8" gradientUnits="userSpaceOnUse">
<stop offset="0.12" stop-color="#010101" stop-opacity="0"/>
<stop offset="0.67" stop-color="#010101" stop-opacity="0.67"/>
<stop offset="0.95" stop-color="#010101"/>
</linearGradient>
<linearGradient id="paint19_linear" x1="1340.29" y1="27237.5" x2="2888.65" y2="27160.9" gradientUnits="userSpaceOnUse">
<stop offset="0.12" stop-color="#010101" stop-opacity="0"/>
<stop offset="0.67" stop-color="#010101" stop-opacity="0.67"/>
<stop offset="0.95" stop-color="#010101"/>
</linearGradient>
<linearGradient id="paint20_linear" x1="7857.04" y1="24748.4" x2="9830" y2="24997.2" gradientUnits="userSpaceOnUse">
<stop offset="0.12" stop-color="#010101" stop-opacity="0"/>
<stop offset="0.67" stop-color="#010101" stop-opacity="0.67"/>
<stop offset="0.95" stop-color="#010101"/>
</linearGradient>
</defs>
</svg>
