<svg width="20" height="22" viewBox="0 0 20 22" fill="none" xmlns="http://www.w3.org/2000/svg">
<path fill-rule="evenodd" clip-rule="evenodd" d="M14.502 1C14.502 0.447715 14.0542 0 13.502 0H2.50195C1.40195 0 0.501953 0.9 0.501953 2V15C0.501953 15.5523 0.949668 16 1.50195 16C2.05424 16 2.50195 15.5523 2.50195 15V3C2.50195 2.44772 2.94967 2 3.50195 2H13.502C14.0542 2 14.502 1.55228 14.502 1ZM17.502 4H6.50195C5.40195 4 4.50195 4.9 4.50195 6V20C4.50195 21.1 5.40195 22 6.50195 22H17.502C18.602 22 19.502 21.1 19.502 20V6C19.502 4.9 18.602 4 17.502 4ZM16.502 20C17.0542 20 17.502 19.5523 17.502 19V7C17.502 6.44772 17.0542 6 16.502 6H7.50195C6.94967 6 6.50195 6.44772 6.50195 7V19C6.50195 19.5523 6.94967 20 7.50195 20H16.502Z" fill="#3B3E3C"/>
</svg>
