<svg width="18" height="20" viewBox="0 0 18 20" fill="none" xmlns="http://www.w3.org/2000/svg">
<path d="M11.002 8L10.702 15M7.30195 15L7.00195 8M3.00195 4L3.87749 17.133C3.94753 18.1836 4.82013 19 5.87306 19H12.1308C13.1838 19 14.0564 18.1836 14.1264 17.133L15.002 4M3.00195 4H6.00195M3.00195 4H1.00195M15.002 4H17.002M15.002 4H12.002M12.002 4V3C12.002 1.89543 11.1065 1 10.002 1H8.00195C6.89738 1 6.00195 1.89543 6.00195 3V4M12.002 4H6.00195" stroke="#3B3E3C" stroke-width="1.8" stroke-linecap="round" stroke-linejoin="round"/>
</svg>
