<svg width="20" height="19" viewBox="0 0 20 19" fill="none" xmlns="http://www.w3.org/2000/svg">
<mask id="path-1-inside-1" fill="white">
<path fill-rule="evenodd" clip-rule="evenodd" d="M9.28354 18.1989C9.67564 18.599 10.3199 18.5991 10.712 18.1989L12.8516 16.0156C13.1617 15.6991 12.9376 15.1656 12.4945 15.1656H11.0849V7.50001C11.0849 6.94772 10.6372 6.50001 10.0849 6.50001C9.53263 6.50001 9.08491 6.94772 9.08491 7.50001V15.1656H7.501C7.05798 15.1656 6.83381 15.6991 7.14389 16.0156L9.28354 18.1989ZM10 0.5C13.559 0.5 16.507 3.17 16.944 6.612C18.695 7.038 20 8.619 20 10.5C20 12.706 18.206 14.5 16 14.5H14V12.5H16C17.103 12.5 18 11.603 18 10.5C18 9.397 17.103 8.5 16 8.5H15V7.5C15 4.743 12.757 2.5 10 2.5C7.894 2.5 6.149 3.773 5.446 5.824L5.254 6.382L4.673 6.484C3.199 6.743 2 8.096 2 9.5C2 11.154 3.346 12.5 5 12.5H6V14.5H5C2.243 14.5 0 12.257 0 9.5C0 7.32 1.609 5.292 3.757 4.65C4.85 2.111 7.244 0.5 10 0.5Z"/>
</mask>
<path fill-rule="evenodd" clip-rule="evenodd" d="M9.28354 18.1989C9.67564 18.599 10.3199 18.5991 10.712 18.1989L12.8516 16.0156C13.1617 15.6991 12.9376 15.1656 12.4945 15.1656H11.0849V7.50001C11.0849 6.94772 10.6372 6.50001 10.0849 6.50001C9.53263 6.50001 9.08491 6.94772 9.08491 7.50001V15.1656H7.501C7.05798 15.1656 6.83381 15.6991 7.14389 16.0156L9.28354 18.1989ZM10 0.5C13.559 0.5 16.507 3.17 16.944 6.612C18.695 7.038 20 8.619 20 10.5C20 12.706 18.206 14.5 16 14.5H14V12.5H16C17.103 12.5 18 11.603 18 10.5C18 9.397 17.103 8.5 16 8.5H15V7.5C15 4.743 12.757 2.5 10 2.5C7.894 2.5 6.149 3.773 5.446 5.824L5.254 6.382L4.673 6.484C3.199 6.743 2 8.096 2 9.5C2 11.154 3.346 12.5 5 12.5H6V14.5H5C2.243 14.5 0 12.257 0 9.5C0 7.32 1.609 5.292 3.757 4.65C4.85 2.111 7.244 0.5 10 0.5Z" fill="#3B3E3C"/>
<path d="M10.712 18.1989L11.4262 18.8989V18.8989L10.712 18.1989ZM9.28354 18.1989L8.56932 18.8989V18.8989L9.28354 18.1989ZM12.8516 16.0156L13.5659 16.7155V16.7155L12.8516 16.0156ZM11.0849 15.1656V16.1656H10.0849V15.1656H11.0849ZM9.08491 15.1656H10.0849V16.1656H9.08491V15.1656ZM7.14389 16.0156L6.42967 16.7155L6.42966 16.7155L7.14389 16.0156ZM16.944 6.612L16.7076 7.58366L16.0387 7.42091L15.952 6.73795L16.944 6.612ZM14 14.5V15.5H13V14.5H14ZM14 12.5H13V11.5H14V12.5ZM15 8.5V9.5H14V8.5H15ZM5.446 5.824L6.39197 6.14824L6.39159 6.14937L5.446 5.824ZM5.254 6.382L6.19959 6.70737L6.00772 7.26497L5.42692 7.36694L5.254 6.382ZM4.673 6.484L4.49994 5.49909L4.50008 5.49906L4.673 6.484ZM6 12.5V11.5H7V12.5H6ZM6 14.5H7V15.5H6V14.5ZM3.757 4.65L4.67551 5.0454L4.49084 5.47438L4.04337 5.60812L3.757 4.65ZM11.4262 18.8989C10.642 19.6991 9.35351 19.6991 8.56932 18.8989L9.99777 17.499L9.99777 17.499L11.4262 18.8989ZM13.5659 16.7155L11.4262 18.8989L9.99777 17.499L12.1374 15.3156L13.5659 16.7155ZM12.4945 14.1656C13.8236 14.1656 14.4961 15.7662 13.5659 16.7155L12.1374 15.3156C11.8274 15.6321 12.0515 16.1656 12.4945 16.1656V14.1656ZM11.0849 14.1656H12.4945V16.1656H11.0849V14.1656ZM12.0849 7.50001V15.1656H10.0849V7.50001H12.0849ZM10.0849 5.50001C11.1895 5.50001 12.0849 6.39544 12.0849 7.50001H10.0849V5.50001ZM8.08491 7.50001C8.08491 6.39544 8.98034 5.50001 10.0849 5.50001V7.50001H8.08491ZM8.08491 15.1656V7.50001H10.0849V15.1656H8.08491ZM7.501 14.1656H9.08491V16.1656H7.501V14.1656ZM6.42966 16.7155C5.49944 15.7662 6.17194 14.1656 7.501 14.1656V16.1656C7.94402 16.1656 8.16818 15.6321 7.85811 15.3156L6.42966 16.7155ZM8.56932 18.8989L6.42967 16.7155L7.85811 15.3156L9.99777 17.499L8.56932 18.8989ZM15.952 6.73795C15.5775 3.78886 13.0487 1.5 10 1.5V-0.5C14.0693 -0.5 17.4365 2.55114 17.936 6.48605L15.952 6.73795ZM19 10.5C19 9.09219 18.0222 7.90348 16.7076 7.58366L17.1804 5.64034C19.3678 6.17252 21 8.14581 21 10.5H19ZM16 13.5C17.6537 13.5 19 12.1537 19 10.5H21C21 13.2583 18.7583 15.5 16 15.5V13.5ZM14 13.5H16V15.5H14V13.5ZM15 12.5V14.5H13V12.5H15ZM16 13.5H14V11.5H16V13.5ZM19 10.5C19 12.1553 17.6553 13.5 16 13.5V11.5C16.5507 11.5 17 11.0507 17 10.5H19ZM16 7.5C17.6553 7.5 19 8.84472 19 10.5H17C17 9.94928 16.5507 9.5 16 9.5V7.5ZM15 7.5H16V9.5H15V7.5ZM16 7.5V8.5H14V7.5H16ZM10 1.5C13.3093 1.5 16 4.19071 16 7.5H14C14 5.29529 12.2047 3.5 10 3.5V1.5ZM4.50003 5.49976C5.33615 3.06038 7.45016 1.5 10 1.5V3.5C8.33784 3.5 6.96185 4.48563 6.39197 6.14824L4.50003 5.49976ZM4.30841 6.05663L4.50041 5.49864L6.39159 6.14937L6.19959 6.70737L4.30841 6.05663ZM4.50008 5.49906L5.08108 5.39706L5.42692 7.36694L4.84592 7.46894L4.50008 5.49906ZM1 9.5C1 7.56469 2.59431 5.83393 4.49994 5.49909L4.84606 7.46891C3.80369 7.65207 3 8.62731 3 9.5H1ZM5 13.5C2.79372 13.5 1 11.7063 1 9.5H3C3 10.6017 3.89828 11.5 5 11.5V13.5ZM6 13.5H5V11.5H6V13.5ZM5 14.5V12.5H7V14.5H5ZM5 13.5H6V15.5H5V13.5ZM1 9.5C1 11.7047 2.79528 13.5 5 13.5V15.5C1.69072 15.5 -1 12.8093 -1 9.5H1ZM4.04337 5.60812C2.28271 6.13435 1 7.79858 1 9.5H-1C-1 6.84142 0.935288 4.44965 3.47063 3.69188L4.04337 5.60812ZM10 1.5C7.65313 1.5 5.61443 2.86431 4.67551 5.0454L2.83849 4.2546C4.08557 1.35769 6.83487 -0.5 10 -0.5V1.5Z" fill="#3B3E3C" mask="url(#path-1-inside-1)"/>
</svg>
