<svg width="24" height="24" viewBox="0 0 24 24" fill="none" xmlns="http://www.w3.org/2000/svg">
<path fill-rule="evenodd" clip-rule="evenodd" d="M3.5 11.0002C3.22386 11.0002 3 11.2241 3 11.5002V12.5002C3 12.7764 3.22386 13.0002 3.5 13.0002H4.5C4.77614 13.0002 5 12.7764 5 12.5002V11.5002C5 11.2241 4.77614 11.0002 4.5 11.0002H3.5ZM3.5 7.00024C3.22386 7.00024 3 7.2241 3 7.50024V8.50024C3 8.77639 3.22386 9.00024 3.5 9.00024H4.5C4.77614 9.00024 5 8.77639 5 8.50024V7.50024C5 7.2241 4.77614 7.00024 4.5 7.00024H3.5ZM5 3.50024C5 3.2241 4.77267 2.99379 4.50503 3.06178C3.79609 3.24189 3.24139 3.79998 3.06177 4.50532C2.99362 4.77292 3.22386 5.00024 3.5 5.00024H4.5C4.77614 5.00024 5 4.77639 5 4.50024V3.50024ZM3.5 15.0002C3.22386 15.0002 3 15.2241 3 15.5002V16.5002C3 16.7764 3.22386 17.0002 3.5 17.0002H4.5C4.77614 17.0002 5 16.7764 5 16.5002V15.5002C5 15.2241 4.77614 15.0002 4.5 15.0002H3.5ZM15.5 3.00024C15.2239 3.00024 15 3.2241 15 3.50024V4.50024C15 4.77639 15.2239 5.00024 15.5 5.00024H16.5C16.7761 5.00024 17 4.77639 17 4.50024V3.50024C17 3.2241 16.7761 3.00024 16.5 3.00024H15.5ZM9 21.0002H19C20.1 21.0002 21 20.1002 21 19.0002V9.00024C21 7.90024 20.1 7.00024 19 7.00024H11.2426L13.1213 8.87892L13.2426 9.00024H18C18.5523 9.00024 19 9.44796 19 10.0002V18.0002C19 18.5525 18.5523 19.0002 18 19.0002H10C9.44772 19.0002 9 18.5525 9 18.0002V13.2429L8.87868 13.1216L7 11.2429V19.0002C7 20.1002 7.89 21.0002 9 21.0002ZM11.5 3.00024C11.2239 3.00024 11 3.2241 11 3.50024V4.50024C11 4.77639 11.2239 5.00024 11.5 5.00024H12.5C12.7761 5.00024 13 4.77639 13 4.50024V3.50024C13 3.2241 12.7761 3.00024 12.5 3.00024H11.5ZM7.5 3.00024C7.22386 3.00024 7 3.2241 7 3.50024V4.50024C7 4.77639 7.22386 5.00024 7.5 5.00024H8.5C8.77614 5.00024 9 4.77639 9 4.50024V3.50024C9 3.2241 8.77614 3.00024 8.5 3.00024H7.5Z" fill="#3B3E3C"/>
<path fill-rule="evenodd" clip-rule="evenodd" d="M13.5561 15.0004L11.001 15.0004C10.4487 15.0004 10.001 15.4481 10.001 16.0004C10.001 16.5527 10.4487 17.0004 11.001 17.0004L15.5118 17.0004C16.3274 17.0004 16.9935 16.3487 17.0114 15.5333L17.1093 11.0839C17.1214 10.5318 16.6837 10.0743 16.1315 10.0622C15.5794 10.05 15.1219 10.4878 15.1098 11.04L15.052 13.6687L8.98106 7.53086C8.59268 7.1382 7.95952 7.13473 7.56687 7.52311C7.17421 7.91149 7.17074 8.54464 7.55911 8.9373L13.5561 15.0004Z" fill="#3B3E3C"/>
</svg>
