<svg width="18" height="18" viewBox="0 0 18 18" fill="none" xmlns="http://www.w3.org/2000/svg">
<path fill-rule="evenodd" clip-rule="evenodd" d="M0 1C0 1.55228 0.447715 2 1 2H7C7.55228 2 8 1.55228 8 1C8 0.447715 7.55228 0 7 0H1C0.447715 0 0 0.447715 0 1ZM0 5C0 5.55228 0.447715 6 1 6H7C7.55228 6 8 5.55228 8 5C8 4.44772 7.55228 4 7 4H1C0.447715 4 0 4.44772 0 5ZM8 9C8 9.55229 7.55228 10 7 10H1C0.447715 10 0 9.55229 0 9C0 8.44771 0.447715 8 1 8H7C7.55228 8 8 8.44771 8 9ZM0 13C0 13.5523 0.447715 14 1 14H7C7.55228 14 8 13.5523 8 13C8 12.4477 7.55228 12 7 12H1C0.447715 12 0 12.4477 0 13ZM8 17C8 17.5523 7.55228 18 7 18H1C0.447715 18 0 17.5523 0 17C0 16.4477 0.447715 16 1 16H7C7.55228 16 8 16.4477 8 17ZM10 1C10 1.55228 10.4477 2 11 2H17C17.5523 2 18 1.55228 18 1C18 0.447715 17.5523 0 17 0H11C10.4477 0 10 0.447715 10 1ZM18 5C18 5.55228 17.5523 6 17 6H11C10.4477 6 10 5.55228 10 5C10 4.44772 10.4477 4 11 4H17C17.5523 4 18 4.44772 18 5ZM10 9C10 9.55229 10.4477 10 11 10H17C17.5523 10 18 9.55229 18 9C18 8.44771 17.5523 8 17 8H11C10.4477 8 10 8.44771 10 9ZM18 13C18 13.5523 17.5523 14 17 14H11C10.4477 14 10 13.5523 10 13C10 12.4477 10.4477 12 11 12H17C17.5523 12 18 12.4477 18 13ZM10 17C10 17.5523 10.4477 18 11 18H17C17.5523 18 18 17.5523 18 17C18 16.4477 17.5523 16 17 16H11C10.4477 16 10 16.4477 10 17Z" fill="#3B3E3C"/>
</svg>
