<svg width="31" height="31" viewBox="0 0 31 31" fill="none" xmlns="http://www.w3.org/2000/svg">
<path fill-rule="evenodd" clip-rule="evenodd" d="M15.5 0.916656C7.44996 0.916656 0.916626 7.44999 0.916626 15.5C0.916626 23.55 7.44996 30.0833 15.5 30.0833C23.55 30.0833 30.0833 23.55 30.0833 15.5C30.0833 7.44999 23.55 0.916656 15.5 0.916656ZM16.9583 14.0417V8.20832H14.0416V14.0417H8.20829V16.9583H14.0416V22.7917H16.9583V16.9583H22.7916V14.0417H16.9583ZM3.83329 15.5C3.83329 21.9312 9.06871 27.1667 15.5 27.1667C21.9312 27.1667 27.1666 21.9312 27.1666 15.5C27.1666 9.06874 21.9312 3.83332 15.5 3.83332C9.06871 3.83332 3.83329 9.06874 3.83329 15.5Z" fill="#3B3E3C"/>
</svg>
