<svg width="326" height="270" viewBox="0 0 326 270" fill="none" xmlns="http://www.w3.org/2000/svg">
<g clip-path="url(#clip0)">
<path d="M325.928 199.512C327.222 179.061 310.083 159.808 314.627 139.829C316.294 132.483 320.794 126.03 322.644 118.724C324.678 110.691 323.372 102.17 321.005 94.2262C315.396 75.5573 304.201 59.0458 288.921 46.9052C266.909 29.498 238.175 22.646 210.124 21.1492C182.073 19.6524 154.011 23.0285 125.943 23.7215C108.165 24.1595 89.9975 23.5718 73.0525 28.9714C52.9629 35.3688 36.0901 49.9321 24.4286 67.4668C12.7671 85.0015 5.96689 105.38 1.87786 126.025C0.316696 134.013 -0.894457 142.301 0.87227 150.245C4.10016 164.659 16.3672 175.297 22.0619 188.935C26.0287 198.425 26.6565 209.014 30.2566 218.654C36.3124 234.881 50.4684 247.116 66.2578 254.306C82.0472 261.496 99.4756 264.196 116.721 266.114C145.343 269.297 174.15 270.525 202.94 269.789C231.83 269.047 251.964 259.994 277.154 247.448C297.666 237.242 324.25 226.066 325.928 199.512Z" fill="#BDE1CA"/>
<path d="M263.103 235.058C265.648 235.74 268.459 236.721 269.598 239.083C272.265 244.627 263.803 248.568 257.664 248.912C194.47 252.468 131.085 250.428 68.2523 242.814C61.1021 241.943 53.124 240.53 48.9517 234.67C56.2686 225.046 70.1635 224.237 82.2361 224.237C142.544 224.337 204.396 219.076 263.103 235.058Z" fill="#278147"/>
<path d="M258.82 159.304L236.836 172.126L233.741 171.289C225.024 168.883 200.762 161.942 198.579 158.455C195.912 154.203 186.301 134.174 186.301 134.174L190.784 120.315L196.09 103.9C196.09 103.9 216.691 137.206 220.419 139.335C224.147 141.464 258.82 159.304 258.82 159.304Z" fill="#5DB07B"/>
<path d="M115.36 194.262C115.36 194.262 108.493 184.838 100.203 189.539C91.9143 194.24 86.0029 231.117 95.4699 237.969C104.937 244.821 114.409 224.265 114.409 224.265L115.36 194.262Z" fill="#5DB07B"/>
<path d="M115.36 194.262C115.36 194.262 108.493 184.838 100.203 189.539C91.9143 194.24 86.0029 231.117 95.4699 237.969C104.937 244.821 114.409 224.265 114.409 224.265L115.36 194.262Z" fill="#3B3E3C"/>
<path d="M140.516 246.705C140.516 246.705 110.148 223.322 109.087 219.07C108.026 214.818 103.759 205.25 108.531 198.869C113.304 192.488 123.443 194.085 123.443 194.085C123.443 194.085 145.838 221.193 140.516 246.705Z" fill="#5DB07B"/>
<path d="M140.516 246.705C140.516 246.705 110.148 223.322 109.087 219.07C108.026 214.818 103.759 205.25 108.531 198.869C113.304 192.488 123.443 194.085 123.443 194.085C123.443 194.085 145.838 221.193 140.516 246.705Z" fill="#828482"/>
<path d="M231.608 243.518C226.28 248.84 203.901 248.84 199.107 244.582C194.312 240.325 184.545 239.088 185.084 228.988L188.101 224.553L187.545 224.409L184.578 223.633L182.617 203.476L164.083 208.842L160.594 209.845L158.461 178.113C158.461 178.113 192.729 158.993 206.051 161.66C219.374 164.326 215.107 195.144 215.641 196.74C216.024 197.849 216.13 210.827 217.307 219.558C217.485 220.839 213.646 221.376 213.863 222.43C214.263 224.281 218.78 226.349 219.369 227.031C222.546 230.762 236.93 238.201 231.608 243.518Z" fill="#828482"/>
<path d="M200.59 224.265L187.529 224.414L184.562 223.638L182.601 203.481L164.067 208.848L163.895 208.67L162.95 190.01C162.95 190.01 189.934 179.849 193.507 181.273C197.079 182.698 200.59 224.265 200.59 224.265Z" fill="#3B3E3C"/>
<path d="M185.917 164.426L191.118 176.561L118.143 183.984C110.921 184.466 110.454 170.912 111.271 161.87C111.404 160.418 111.571 159.099 111.748 157.945C114.132 142.545 118.471 121.767 121.971 106.217C124.465 95.1298 126.549 86.7145 127.199 84.7631C129.327 78.3823 152.755 78.0331 152.755 78.0331C152.877 78.0331 153.005 78.0331 153.122 78.0331C177.106 76.564 196.085 103.922 196.085 103.922L186.94 135.521L181.528 154.226L182.412 156.277L183.223 158.184L185.917 164.426Z" fill="#5DB07B"/>
<path d="M137.255 180.819C137.966 179.294 139.716 178.601 141.283 178.008C144.387 176.798 147.364 175.286 150.172 173.495C151.014 172.879 151.953 172.405 152.95 172.093C153.814 171.929 154.705 171.981 155.544 172.245C156.382 172.509 157.142 172.977 157.755 173.606C163.056 178.806 156.089 178.762 152.083 179.277C150.4 179.499 137.738 179.787 137.255 180.819Z" fill="url(#paint0_linear)"/>
<path d="M186.945 135.538L181.534 154.242L182.417 156.293C182.518 156.703 182.662 157.1 182.845 157.48C182.967 157.729 183.09 157.968 183.228 158.2C184.273 159.952 185.829 161.527 185.967 163.511C185.987 163.824 185.97 164.139 185.917 164.448C185.595 166.582 183.695 168.329 181.951 169.742C180.206 171.156 178.412 172.603 176.256 173.224C172.95 174.177 169.322 172.985 166.572 170.929C163.822 168.872 161.783 166.028 159.767 163.217C158.5 161.443 157.172 159.503 157.172 157.324C157.223 156.224 157.475 155.141 157.916 154.131C160.372 147.811 164.889 142.545 169.322 137.412L185.523 118.652C186.079 117.986 186.784 117.266 187.667 117.238C188.823 117.199 189.623 118.347 190.195 119.334L190.751 120.315L186.267 134.174C186.267 134.174 186.534 134.678 186.945 135.538Z" fill="#278147"/>
<path d="M233.741 171.306C225.024 168.9 200.762 161.959 198.579 158.472C195.912 154.22 186.301 134.191 186.301 134.191L190.784 120.332L205.013 145.04C207.079 148.627 209.218 152.308 212.446 154.908C214.63 156.665 217.207 157.84 219.763 159.004C222.319 160.168 239.28 166.028 233.741 171.306Z" fill="#278147"/>
<path d="M157.955 177.265C147.438 163.611 118.46 167.325 117.954 167.841C115.898 170.058 119.065 176.777 119.726 179.71C120.015 180.996 125.154 182.077 124.682 183.297L118.132 183.962C109.798 184.516 110.454 166.178 111.737 157.907C113.315 147.706 115.754 135.139 118.237 123.303C118.587 122.87 118.954 122.46 119.349 122.056C122.087 119.189 128.371 115.575 132.538 117.41C138.094 119.855 134.177 125.842 132.793 130.438C132.341 131.615 132.152 132.877 132.238 134.135C132.443 135.654 133.432 136.907 134.427 138.11C137.858 142.15 141.777 145.751 146.094 148.832C148.783 150.744 151.7 152.535 153.455 155.318C157.5 161.743 153.972 170.846 157.955 177.265Z" fill="#278147"/>
<path d="M245.808 155.972L282.898 175.181C282.898 175.181 284.565 178.064 283.554 180.819C282.543 183.574 279.109 189.195 274.026 188.203C268.942 187.211 237.036 170.164 237.036 170.164L245.808 155.972Z" fill="#5DB07B"/>
<path d="M245.808 155.972L282.898 175.181C282.898 175.181 284.565 178.064 283.554 180.819C282.543 183.574 279.109 189.195 274.026 188.203C268.942 187.211 237.036 170.164 237.036 170.164L245.808 155.972Z" fill="#3B3E3C"/>
<path d="M166.322 101.505C164.589 101.993 162.722 101.505 161.1 100.701C155.577 98.0015 152.144 91.9201 151.805 85.7943C151.466 79.6685 153.927 73.5982 157.739 68.7807C158.455 67.8715 159.405 66.9236 160.517 66.9513C161.628 66.979 162.494 67.8715 163.206 68.7197C167.539 73.8809 174.711 82.3905 175.734 89.2702C176.256 92.8237 174.323 93.1064 172 95.8893C170.322 97.9516 169.15 100.707 166.322 101.505Z" fill="#FFD1A9"/>
<path d="M160.322 81.3372C160.322 81.3372 159.844 98.1124 163.161 101.184C166.478 104.255 169.317 98.3508 169.317 98.3508L177.367 89.6083L160.322 81.3372Z" fill="#E4B387"/>
<path d="M208.413 86.7921C206.074 89.3699 203.624 91.8812 200.729 93.816C194.934 97.6965 187.629 98.9716 180.728 98.1012C175.223 97.4027 169.767 95.3294 165.772 91.4821C160.905 86.8143 158.616 79.9345 158.378 73.1879C158.139 66.4412 159.778 59.7999 161.789 53.3692C163.278 48.6016 165.017 43.8451 167.789 39.6873C175.917 27.4912 191.606 22.4465 206.285 22.003C213.568 21.7812 221.285 22.6183 227.185 26.887C231.48 29.9914 235.058 36.0673 234.286 41.5278C233.675 45.8464 230.219 50.3201 228.697 54.4336C224.213 66.5465 217.057 77.2569 208.413 86.7921Z" fill="#FFD1A9"/>
<path d="M236.13 52.5986C235.342 54.6269 234.175 56.4874 232.691 58.0813C231.06 59.7494 228.937 60.8535 226.632 61.2324C224.327 61.6114 221.961 61.2454 219.88 60.1879C216.785 58.5248 214.535 55.4869 211.779 53.2361C206.013 48.5185 197.573 47.7313 191.551 52.0442C189.834 53.2694 188.217 54.9103 186.19 55.1875C183.634 55.5312 181.139 53.5965 178.6 54.0788C176.234 54.5056 174.595 56.8506 173.395 59.1457C172.195 61.4408 171.061 63.9576 168.95 65.2438L169.717 58.9794C169.945 57.1112 170.167 55.1764 169.672 53.3692C169.178 51.5619 167.761 49.921 166.05 49.9155C164.339 49.9099 162.883 51.5509 162.294 53.347C161.705 55.1432 161.739 57.0945 161.55 58.996C161.328 61.3244 160.739 63.686 159.394 65.5043C158.05 67.3227 160.055 70.6988 157.983 70.161C155.761 69.5734 150.016 65.0497 149.094 62.7491C145.96 55.0545 146.999 46.118 148.649 37.9023C149.994 31.1944 151.727 24.5198 154.666 18.4606C157.605 12.4013 161.85 6.92413 167.333 3.6478C172.07 0.858207 177.56 -0.387851 183.04 0.0832144C185.25 0.260377 187.435 0.684345 189.551 1.34718C190.386 1.66368 191.258 1.87414 192.145 1.97361C193.49 2.05122 194.79 1.53011 196.09 1.13651C204.24 -1.34152 212.941 1.22521 220.802 4.6623C225.019 6.5139 229.269 8.71474 232.313 12.4235C236.708 17.7787 237.597 25.0132 237.769 31.9428C237.941 39.0775 238.958 45.8298 236.13 52.5986Z" fill="#3B3E3C"/>
<path d="M244.325 116.334C230.03 107.187 203.74 114.117 184.562 132.372C171.545 144.768 165.05 159.298 166.1 170.768C165.645 170.485 165.206 170.175 164.778 169.859C150.822 159.376 155.544 135.61 175.323 116.778C195.101 97.946 222.452 91.166 236.436 101.649C241.186 105.23 243.781 110.369 244.325 116.334Z" fill="#5DB07B"/>
<path d="M244.325 116.334C230.03 107.187 203.74 114.117 184.562 132.372C171.545 144.768 165.05 159.298 166.1 170.768C165.645 170.485 165.206 170.175 164.778 169.859C150.822 159.376 155.544 135.61 175.323 116.778C195.101 97.946 222.452 91.166 236.436 101.649C241.186 105.23 243.781 110.369 244.325 116.334Z" fill="#3B3E3C"/>
<path d="M190.762 192.904C183.573 192.904 177.295 191.063 172.495 187.454C167.3 183.574 164.222 177.869 163.606 171.001C162.433 158.25 169.622 143.133 182.834 130.532C202.757 111.561 230.374 104.388 245.703 114.2C246.181 114.494 246.669 114.832 247.175 115.215C252.62 119.3 255.725 125.315 256.153 132.616C256.892 145.145 249.675 159.913 236.852 172.126C226.974 181.55 214.952 188.341 202.996 191.302C198.998 192.328 194.89 192.866 190.762 192.904ZM228.886 114.821C224.843 114.855 220.822 115.415 216.924 116.484C206.129 119.361 195.257 125.642 186.301 134.168C174.378 145.527 167.6 159.453 168.611 170.518C169.117 176.012 171.445 180.347 175.528 183.408C188.517 193.17 214.457 186.473 233.352 168.478C245.114 157.275 251.753 143.975 251.103 132.905C250.758 127.128 248.353 122.371 244.13 119.234C243.736 118.94 243.364 118.679 242.992 118.447C239.214 116.046 234.38 114.821 228.886 114.821Z" fill="#5DB07B"/>
<path opacity="0.69" d="M256.137 132.633C255.709 125.332 252.609 119.328 247.158 115.226C246.647 114.849 246.164 114.511 245.692 114.217C230.358 104.404 202.74 111.578 182.817 130.548C169.606 143.133 162.417 158.267 163.589 171.017C164.222 177.886 167.3 183.579 172.478 187.471C173.822 188.481 175.269 189.347 176.795 190.054C181.178 192.025 185.944 193.002 190.751 192.915C194.874 192.885 198.979 192.354 202.974 191.335C209.177 189.759 215.136 187.346 220.685 184.161C226.543 180.826 231.967 176.784 236.836 172.126C245.725 163.639 251.953 153.921 254.653 144.568C255.823 140.703 256.325 136.667 256.137 132.633ZM233.358 168.501C214.468 186.495 188.529 193.192 175.528 183.43C171.45 180.37 169.128 176.034 168.617 170.535C167.6 159.481 174.384 145.55 186.306 134.191C195.262 125.67 206.135 119.383 216.93 116.506C220.826 115.437 224.845 114.878 228.886 114.843C234.38 114.843 239.208 116.068 242.997 118.491C243.369 118.724 243.742 118.984 244.108 119.278C248.336 122.444 250.742 127.178 251.086 132.954C251.748 143.997 245.114 157.297 233.352 168.501H233.358Z" fill="white"/>
<path d="M250.325 159.875C249.892 161.804 249.42 163.822 248.103 165.318C246.308 167.392 243.319 168.024 241.314 169.886C241.032 170.129 240.803 170.427 240.642 170.762C240.214 171.816 241.042 172.98 242.036 173.534C242.909 173.996 243.903 174.182 244.885 174.066C245.867 173.95 246.789 173.538 247.531 172.886C246.755 173.215 246.001 173.595 245.275 174.022C244.947 174.216 244.592 174.471 244.558 174.854C244.525 175.236 244.936 175.624 245.325 175.829C246.416 176.382 247.651 176.589 248.863 176.423C250.075 176.256 251.208 175.724 252.109 174.898L250.086 176.068C249.67 176.312 249.197 176.666 249.264 177.138C249.314 177.492 249.653 177.725 249.981 177.88C251.052 178.365 252.247 178.508 253.403 178.288C254.559 178.069 255.618 177.499 256.436 176.655L252.292 179.095C252.69 179.609 253.223 180.004 253.832 180.235C254.441 180.466 255.102 180.524 255.742 180.403C257.022 180.136 258.219 179.566 259.231 178.74C261.399 177.163 263.301 175.25 264.865 173.074C266.742 170.452 268.137 167.092 267.087 164.038C266.015 160.889 262.77 159.098 259.781 157.635C257.559 156.526 255.214 155.445 252.714 155.234C251.409 155.124 250.947 155.018 250.664 156.194C250.381 157.369 250.581 158.688 250.325 159.875Z" fill="#FFD1A9"/>
<path d="M150.1 145.716L148.655 163.938C148.655 163.938 120.021 162.547 111.276 161.87C110.243 161.787 109.487 161.721 109.093 161.665C108.474 161.541 107.899 161.256 107.426 160.839C103.854 157.973 99.6478 148.116 100.565 136.68C101.626 123.375 127.199 84.7632 127.199 84.7632C129.39 86.1098 131.422 87.6999 133.255 89.503C145.877 102.032 138.382 117.543 138.382 117.543C138.382 117.543 125.049 131.363 127.199 136.148C129.349 140.932 150.1 145.716 150.1 145.716Z" fill="#5DB07B"/>
<path d="M144.621 247.26C143.236 247.239 141.857 247.053 140.516 246.705L140.244 246.628C123.282 241.794 118.143 183.984 118.143 183.984H118.265L130.871 182.155L158.444 178.141L163.444 192.516C163.444 192.516 167.722 247.365 144.621 247.26Z" fill="#828482"/>
<path d="M116.432 175.924L116.182 175.835C116.182 175.835 116.26 175.68 116.432 175.924Z" fill="url(#paint1_linear)"/>
<path d="M147.083 246.711C146.293 247.011 145.464 247.197 144.622 247.265C143.133 247.412 141.631 247.197 140.244 246.639C138.387 245.841 136.811 244.509 135.716 242.814C131.099 236.084 122.938 221.193 120.093 197.455C119.376 191.457 118.771 187.116 118.265 183.967L130.871 182.138C132.416 186.523 137.255 200.721 137.849 208.443C138.56 217.657 132.527 234.315 140.694 239.271C148.861 244.227 147.083 246.711 147.083 246.711Z" fill="#3B3E3C"/>
<path d="M153.127 78.0109C153.027 80.2283 152.311 82.4458 150.988 83.7818C147.833 86.9584 139.427 87.6624 135.216 88.8765C134.56 89.065 133.899 89.259 133.254 89.5029C132.508 89.7654 131.805 90.1392 131.171 90.6117C129.86 91.6151 129.038 93.1174 128.249 94.5699C126.152 98.4505 124.06 102.331 121.971 106.212L113.098 122.643C109.681 128.985 106.187 135.577 105.72 142.761C105.331 148.809 107.126 154.797 107.387 160.839C103.815 157.973 99.6089 148.116 100.526 136.68C101.587 123.375 127.16 84.7631 127.16 84.7631C129.288 78.3823 152.716 78.033 152.716 78.033C152.883 78.0275 153.011 78.0109 153.127 78.0109Z" fill="#278147"/>
<path d="M231.608 243.518C226.28 248.84 203.901 248.84 199.107 244.582C194.312 240.325 184.545 239.088 185.084 228.988L188.101 224.553C188.101 224.553 206.99 225.562 213.846 222.43C214.246 224.281 218.763 226.349 219.352 227.031C222.546 230.762 236.93 238.202 231.608 243.518Z" fill="#3B3E3C"/>
<path d="M233.352 168.501C214.463 186.495 188.523 193.192 175.523 183.43C171.445 180.37 169.122 176.034 168.611 170.535C168.611 170.535 176.206 187.166 211.007 166.976C245.808 146.786 242.992 118.469 242.992 118.469C243.364 118.702 243.736 118.962 244.103 119.256C248.331 122.421 250.736 127.156 251.081 132.932C251.747 143.997 245.114 157.297 233.352 168.501Z" fill="#5DB07B"/>
<path d="M233.352 168.501C214.463 186.495 188.523 193.192 175.523 183.43C171.445 180.37 169.122 176.034 168.611 170.535C168.611 170.535 176.206 187.166 211.007 166.976C245.808 146.786 242.992 118.469 242.992 118.469C243.364 118.702 243.736 118.962 244.103 119.256C248.331 122.421 250.736 127.156 251.081 132.932C251.747 143.997 245.114 157.297 233.352 168.501Z" fill="#3B3E3C"/>
<g opacity="0.69">
<path opacity="0.69" d="M233.18 168.329C214.291 186.318 188.345 193.015 175.345 183.252C171.267 180.192 168.945 175.857 168.434 170.358C167.422 159.304 174.2 145.372 186.123 134.013C195.079 125.493 205.951 119.206 216.752 116.329C220.648 115.259 224.667 114.7 228.708 114.666C234.197 114.666 239.025 115.891 242.814 118.314C243.186 118.546 243.558 118.807 243.925 119.101C248.153 122.266 250.559 127 250.903 132.777C251.575 143.82 244.942 157.119 233.18 168.329Z" fill="url(#paint2_linear)"/>
</g>
<path d="M222.369 115.12L167.328 169.448C167.328 169.448 168.745 179.721 171.945 178.662L235.325 115.741C231.04 115.083 226.697 114.875 222.369 115.12Z" fill="url(#paint3_linear)"/>
<path d="M238.619 103.279L253.103 121.706C253.103 121.706 239.341 103.013 206.99 114.888L195.029 102.924C195.029 102.924 222.107 88.5772 238.619 103.279Z" fill="#5DB07B"/>
<path d="M238.619 103.279L253.103 121.706C253.103 121.706 239.341 103.013 206.99 114.888L195.029 102.924C195.029 102.924 222.107 88.5772 238.619 103.279Z" fill="#828482"/>
<path d="M159.883 137.339C161.094 139.097 161.022 141.47 160.355 143.499C159.689 145.528 158.5 147.329 157.578 149.247C156.961 150.489 156.466 151.919 156.844 153.25C157.172 154.085 157.674 154.84 158.317 155.467C160.628 158.04 163.361 160.811 166.822 160.861C168.067 160.861 169.834 160.917 169.922 162.153C169.911 162.617 169.727 163.06 169.406 163.395C168.698 164.273 167.809 164.99 166.8 165.497C165.791 166.004 164.685 166.289 163.556 166.333L169.422 166.272C169.63 166.238 169.843 166.253 170.044 166.316C170.245 166.38 170.428 166.49 170.578 166.638C170.662 166.8 170.708 166.979 170.714 167.161C170.72 167.343 170.685 167.524 170.611 167.691C170.203 169.021 169.476 170.23 168.492 171.215C167.508 172.2 166.298 172.929 164.967 173.34C166.06 173.288 167.133 173.021 168.122 172.553C169.695 174.033 168.706 177.199 166.567 177.542C167.322 177.066 168.395 176.605 169.022 177.249C169.65 177.892 169.172 178.912 168.539 179.533C165.811 182.105 161.111 180.808 158.467 178.147C155.822 175.486 154.444 171.843 152.261 168.789C151.094 167.159 149.7 165.69 148.672 163.966C141.81 152.457 153.066 144.785 159.883 137.339Z" fill="#FFD1A9"/>
</g>
<defs>
<linearGradient id="paint0_linear" x1="6655.52" y1="3910.92" x2="6373.27" y2="3135.19" gradientUnits="userSpaceOnUse">
<stop offset="0.01"/>
<stop offset="0.13" stop-opacity="0.69"/>
<stop offset="1" stop-opacity="0"/>
</linearGradient>
<linearGradient id="paint1_linear" x1="168.822" y1="230.148" x2="168.934" y2="230.148" gradientUnits="userSpaceOnUse">
<stop offset="0.01"/>
<stop offset="0.13" stop-opacity="0.69"/>
<stop offset="1" stop-opacity="0"/>
</linearGradient>
<linearGradient id="paint2_linear" x1="29704.1" y1="24223.4" x2="31929.2" y2="26739.8" gradientUnits="userSpaceOnUse">
<stop offset="0.02" stop-color="white" stop-opacity="0"/>
<stop offset="0.58" stop-color="white" stop-opacity="0.39"/>
<stop offset="0.68" stop-color="white" stop-opacity="0.68"/>
<stop offset="1" stop-color="white"/>
</linearGradient>
<linearGradient id="paint3_linear" x1="24025.4" y1="19897.5" x2="26278.6" y2="25107.1" gradientUnits="userSpaceOnUse">
<stop offset="0.02" stop-color="white" stop-opacity="0"/>
<stop offset="0.58" stop-color="white" stop-opacity="0.39"/>
<stop offset="0.68" stop-color="white" stop-opacity="0.68"/>
<stop offset="1" stop-color="white"/>
</linearGradient>
<clipPath id="clip0">
<rect width="326" height="270" fill="white"/>
</clipPath>
</defs>
</svg>
