<svg width="18" height="18" viewBox="0 0 18 18" fill="none" xmlns="http://www.w3.org/2000/svg">
<path fill-rule="evenodd" clip-rule="evenodd" d="M10.5 2H7.5V5.5H10.5V2ZM5.5 2V5.5H2V2H5.5ZM5.5 7.5H2V11H5.5V7.5ZM5.5 13H2V16H5.5V13ZM0 13V11V7.5V5.5V2C0 0.89543 0.895431 0 2 0H16C17.1046 0 18 0.895431 18 2V16C18 17.1046 17.1046 18 16 18H2C0.89543 18 0 17.1046 0 16V13ZM7.5 13H10.5V16H7.5V13ZM10.5 11H7.5V7.5H10.5V11ZM12.5 13V16H16V13H12.5ZM16 11V7.5H12.5V11H16ZM16 2V5.5H12.5V2H16Z" fill="#3B3E3C"/>
</svg>
