<svg width="19" height="19" viewBox="0 0 19 19" fill="none" xmlns="http://www.w3.org/2000/svg">
<path fill-rule="evenodd" clip-rule="evenodd" d="M13.7636 0.263604C14.1151 -0.087868 14.6849 -0.087868 15.0364 0.263604L18.0364 3.2636C18.3879 3.61508 18.3879 4.18492 18.0364 4.5364L15.5364 7.0364C15.1849 7.38787 14.6151 7.38787 14.2636 7.0364L11.2636 4.0364C10.9121 3.68492 10.9121 3.11508 11.2636 2.7636L13.7636 0.263604ZM13.1728 3.4L14.9 5.12721L16.1272 3.9L14.4 2.17279L13.1728 3.4ZM9.2636 4.7636C9.61508 4.41213 10.1849 4.41213 10.5364 4.7636L13.5364 7.7636C13.8879 8.11508 13.8879 8.68492 13.5364 9.0364L4.5364 18.0364C4.36761 18.2052 4.13869 18.3 3.9 18.3H0.9C0.402944 18.3 0 17.8971 0 17.4V14.4C0 14.1613 0.0948213 13.9324 0.263604 13.7636L9.2636 4.7636ZM1.8 14.7728V16.5H3.52721L11.6272 8.4L9.9 6.67279L1.8 14.7728ZM6.41213 17.8879L7.31213 16.9879C7.36839 16.9316 7.4447 16.9 7.52426 16.9H14.3394C14.5791 16.9 14.722 17.167 14.5891 17.3664L13.9891 18.2664C13.9334 18.3499 13.8398 18.4 13.7394 18.4H6.62426C6.35699 18.4 6.22314 18.0769 6.41213 17.8879Z" fill="#3B3E3C"/>
</svg>
