<svg width="24" height="24" viewBox="0 0 24 24" fill="none" xmlns="http://www.w3.org/2000/svg">
<path d="M23.1401 3.85988L20.1401 0.859875C20.0698 0.789544 19.9744 0.750021 19.875 0.75H2.625C2.1279 0.750595 1.65133 0.948331 1.29983 1.29983C0.948331 1.65133 0.750595 2.1279 0.75 2.625V21.375C0.750595 21.8721 0.948331 22.3487 1.29983 22.7002C1.65133 23.0517 2.1279 23.2494 2.625 23.25H21.375C21.8721 23.2494 22.3487 23.0517 22.7002 22.7002C23.0517 22.3487 23.2494 21.8721 23.25 21.375V4.125C23.25 4.02555 23.2105 3.93018 23.1401 3.85988ZM18 1.5V7.5C18 7.59946 17.9605 7.69484 17.8902 7.76517C17.8198 7.83549 17.7245 7.875 17.625 7.875H6.375C6.27554 7.875 6.18016 7.83549 6.10983 7.76517C6.03951 7.69484 6 7.59946 6 7.5V1.5H18ZM3.75 22.5V13.125C3.75 12.8266 3.86853 12.5405 4.0795 12.3295C4.29048 12.1185 4.57663 12 4.875 12H19.125C19.4234 12 19.7095 12.1185 19.9205 12.3295C20.1315 12.5405 20.25 12.8266 20.25 13.125V22.5H3.75ZM22.5 21.375C22.5 21.6734 22.3815 21.9595 22.1705 22.1705C21.9595 22.3815 21.6734 22.5 21.375 22.5H21V13.125C20.9994 12.6279 20.8017 12.1513 20.4502 11.7998C20.0987 11.4483 19.6221 11.2506 19.125 11.25H4.875C4.3779 11.2506 3.90133 11.4483 3.54983 11.7998C3.19833 12.1513 3.0006 12.6279 3 13.125V22.5H2.625C2.32663 22.5 2.04048 22.3815 1.8295 22.1705C1.61853 21.9595 1.5 21.6734 1.5 21.375V2.625C1.5 2.32663 1.61853 2.04048 1.8295 1.8295C2.04048 1.61853 2.32663 1.5 2.625 1.5H5.25V7.5C5.25 7.79837 5.36853 8.08452 5.5795 8.2955C5.79048 8.50647 6.07663 8.625 6.375 8.625H17.625C17.9234 8.625 18.2095 8.50647 18.4205 8.2955C18.6315 8.08452 18.75 7.79837 18.75 7.5V1.5H19.7197L22.5 4.28025V21.375Z" fill="black"/>
<path d="M14.625 7.125H16.875C16.9745 7.125 17.0698 7.08549 17.1402 7.01517C17.2105 6.94484 17.25 6.84946 17.25 6.75V2.625C17.25 2.52554 17.2105 2.43016 17.1402 2.35984C17.0698 2.28951 16.9745 2.25 16.875 2.25H14.625C14.5255 2.25 14.4302 2.28951 14.3598 2.35984C14.2895 2.43016 14.25 2.52554 14.25 2.625V6.75C14.25 6.84946 14.2895 6.94484 14.3598 7.01517C14.4302 7.08549 14.5255 7.125 14.625 7.125ZM15 3H16.5V6.375H15V3Z" fill="black"/>
<path d="M17.625 16.875H6.375C6.27554 16.875 6.18016 16.9145 6.10983 16.9848C6.03951 17.0552 6 17.1505 6 17.25C6 17.3495 6.03951 17.4448 6.10983 17.5152C6.18016 17.5855 6.27554 17.625 6.375 17.625H17.625C17.7245 17.625 17.8198 17.5855 17.8902 17.5152C17.9605 17.4448 18 17.3495 18 17.25C18 17.1505 17.9605 17.0552 17.8902 16.9848C17.8198 16.9145 17.7245 16.875 17.625 16.875Z" fill="black"/>
<path d="M17.625 14.625H6.375C6.27554 14.625 6.18016 14.6645 6.10983 14.7348C6.03951 14.8052 6 14.9005 6 15C6 15.0995 6.03951 15.1948 6.10983 15.2652C6.18016 15.3355 6.27554 15.375 6.375 15.375H17.625C17.7245 15.375 17.8198 15.3355 17.8902 15.2652C17.9605 15.1948 18 15.0995 18 15C18 14.9005 17.9605 14.8052 17.8902 14.7348C17.8198 14.6645 17.7245 14.625 17.625 14.625Z" fill="black"/>
<path d="M17.625 19.125H6.375C6.27554 19.125 6.18016 19.1645 6.10983 19.2348C6.03951 19.3052 6 19.4005 6 19.5C6 19.5995 6.03951 19.6948 6.10983 19.7652C6.18016 19.8355 6.27554 19.875 6.375 19.875H17.625C17.7245 19.875 17.8198 19.8355 17.8902 19.7652C17.9605 19.6948 18 19.5995 18 19.5C18 19.4005 17.9605 19.3052 17.8902 19.2348C17.8198 19.1645 17.7245 19.125 17.625 19.125Z" fill="black"/>
</svg>
