<svg width="29" height="28" viewBox="0 0 29 28" fill="none" xmlns="http://www.w3.org/2000/svg">
<path fill-rule="evenodd" clip-rule="evenodd" d="M14.8235 0C14.2713 0 13.8235 0.447715 13.8235 1C13.8235 1.55228 14.2713 2 14.8235 2H25.8235C26.3758 2 26.8235 2.44772 26.8235 3V22.5C26.8235 23.0523 27.2713 23.5 27.8235 23.5C28.3758 23.5 28.8235 23.0523 28.8235 22.5V3C28.8235 1.34315 27.4804 0 25.8235 0H14.8235ZM3.32355 6H22.3234C22.5995 6 22.8234 6.22386 22.8234 6.5V17.4605C22.2687 17.8211 21.4938 18.3158 20.7875 18.7646C20.3264 19.0576 19.8977 19.3289 19.5844 19.527L19.2112 19.7627L19.109 19.8272L19.0962 19.8352L19.0949 19.8359C19.0804 19.8438 19.0548 19.8573 19.0188 19.8752C18.9466 19.9112 18.8332 19.9645 18.6835 20.0252C18.3831 20.147 17.9427 20.296 17.4013 20.3955C16.323 20.5936 14.8572 20.5942 13.2711 19.8012C12.4428 19.3871 11.8027 19.0567 11.2854 18.7897L11.2852 18.7896L11.2836 18.7888C11.1541 18.7219 11.0323 18.659 10.9172 18.5998C10.3545 18.3105 9.92081 18.0921 9.54318 17.9411C8.71127 17.6083 8.14395 17.6085 7.16366 17.6087L7.08485 17.6087C6.06117 17.6087 4.79067 17.9672 3.73201 18.4007C3.41853 18.529 3.11203 18.6687 2.82355 18.8154V6.5C2.82355 6.22386 3.04741 6 3.32355 6ZM21.86 20.4527C22.1734 20.2536 22.5034 20.0435 22.8234 19.8389V25.5C22.8234 25.7761 22.5995 26 22.3234 26H3.32355C3.04741 26 2.82355 25.7761 2.82355 25.5V21.1563C2.9246 21.0752 3.06723 20.9742 3.25852 20.8586C3.59758 20.6538 4.02377 20.4424 4.4899 20.2515C5.44861 19.8589 6.43897 19.6087 7.08484 19.6087C8.14256 19.6087 8.35001 19.6179 8.80039 19.798C9.07493 19.9079 9.42382 20.0808 10.0025 20.3784C10.1139 20.4357 10.2327 20.4971 10.3598 20.5626L10.3641 20.5649C10.8819 20.8321 11.5356 21.1695 12.3767 21.5901C14.4354 22.6194 16.3608 22.6201 17.7626 22.3626C18.4612 22.2342 19.0331 22.0416 19.435 21.8786C19.6364 21.797 19.7966 21.7222 19.9103 21.6656C19.9672 21.6372 20.0126 21.6134 20.0458 21.5954C20.0625 21.5864 20.0761 21.5789 20.0866 21.573L20.1 21.5654L20.1049 21.5626L20.107 21.5614L20.1079 21.5609C20.1083 21.5606 20.1087 21.5604 19.6065 20.6957L20.1087 21.5604L20.1243 21.5513L20.1396 21.5417L19.6065 20.6957L20.1397 21.5416L20.1398 21.5416L20.1403 21.5413L20.142 21.5402L20.1489 21.5358L20.1758 21.5189L20.2786 21.4541L20.653 21.2176C20.9672 21.0189 21.3972 20.7468 21.86 20.4527ZM0.823547 6.5C0.823547 5.11929 1.94284 4 3.32355 4H22.3234C23.7041 4 24.8234 5.11929 24.8234 6.5V25.5C24.8234 26.8807 23.7041 28 22.3234 28H3.32355C1.94284 28 0.823547 26.8807 0.823547 25.5V6.5ZM18.6498 11.8261C18.6498 12.7386 17.9101 13.4783 16.9977 13.4783C16.0852 13.4783 15.3455 12.7386 15.3455 11.8261C15.3455 10.9136 16.0852 10.1739 16.9977 10.1739C17.9101 10.1739 18.6498 10.9136 18.6498 11.8261ZM20.6498 11.8261C20.6498 13.8431 19.0147 15.4783 16.9977 15.4783C14.9806 15.4783 13.3455 13.8431 13.3455 11.8261C13.3455 9.80904 14.9806 8.17391 16.9977 8.17391C19.0147 8.17391 20.6498 9.80904 20.6498 11.8261Z" fill="#3B3E3C"/>
</svg>
