<svg width="40" height="40" viewBox="0 0 40 40" fill="none" xmlns="http://www.w3.org/2000/svg">
<path fill-rule="evenodd" clip-rule="evenodd" d="M36.4507 3.44018H38.4152C38.7388 3.44018 39.0011 3.69747 39.0011 4.01483V19.4969C39.0011 19.8143 38.7388 20.0715 38.4152 20.0715H36.4507V37.2827C36.4507 38.3558 35.5605 39.2288 34.4663 39.2288H14.1099C13.7863 39.2288 13.5239 38.9716 13.5239 38.6542C13.5239 38.3368 13.7863 38.0796 14.1099 38.0796H34.4663C34.9143 38.0796 35.2789 37.722 35.2789 37.2827V1.94612C35.2789 1.50679 34.9143 1.14928 34.4663 1.14928H8.41667V4.56962C8.41667 4.88705 8.15433 5.14426 7.83073 5.14426C7.50714 5.14426 7.24479 4.88705 7.24479 4.56962V1.14928H4.93229C4.48433 1.14928 4.11979 1.50679 4.11979 1.94612V3.44018H5.483C5.80659 3.44018 6.06893 3.69739 6.06893 4.01483C6.06893 4.33226 5.80659 4.58947 5.483 4.58947H4.11979V7.35058H5.483C5.80659 7.35058 6.06893 7.60779 6.06893 7.92522C6.06893 8.24265 5.80659 8.49986 5.483 8.49986H4.11979V11.2609H5.483C5.80659 11.2609 6.06893 11.5181 6.06893 11.8355C6.06893 12.153 5.80659 12.4102 5.483 12.4102H4.11979V15.1711H5.483C5.80659 15.1711 6.06893 15.4283 6.06893 15.7458C6.06893 16.0632 5.80659 16.3204 5.483 16.3204H4.11979V19.0814H5.483C5.80659 19.0814 6.06893 19.3386 6.06893 19.656C6.06893 19.9735 5.80659 20.2307 5.483 20.2307H4.11979V22.9816H5.483C5.80659 22.9816 6.06893 23.2388 6.06893 23.5562C6.06893 23.8737 5.80659 24.1309 5.483 24.1309H4.11979V26.8818H5.483C5.80659 26.8818 6.06893 27.139 6.06893 27.4564C6.06893 27.7739 5.80659 28.0311 5.483 28.0311H4.11979V30.782H5.483C5.80659 30.782 6.06893 31.0392 6.06893 31.3566C6.06893 31.6741 5.80659 31.9313 5.483 31.9313H4.11979V34.6823H5.483C5.80659 34.6823 6.06893 34.9395 6.06893 35.2569C6.06893 35.5743 5.80659 35.8316 5.483 35.8316H4.11979V37.2827C4.11979 37.722 4.48425 38.0796 4.93229 38.0796H7.24479V7.25687C7.24479 6.93944 7.50714 6.68223 7.83073 6.68223C8.15433 6.68223 8.41667 6.93944 8.41667 7.25687V38.0796H11.3516C11.6752 38.0796 11.9375 38.3368 11.9375 38.6542C11.9375 38.9716 11.6752 39.2288 11.3516 39.2288H4.93229C3.83815 39.2288 2.94792 38.3558 2.94792 37.2827V35.8314H1.58472C1.26112 35.8314 0.998779 35.5742 0.998779 35.2568C0.998779 34.9393 1.26112 34.6821 1.58472 34.6821H2.94792V31.9311H1.58472C1.26112 31.9311 0.998779 31.6739 0.998779 31.3565C0.998779 31.039 1.26112 30.7818 1.58472 30.7818H2.94792V28.0309H1.58472C1.26112 28.0309 0.998779 27.7737 0.998779 27.4563C0.998779 27.1388 1.26112 26.8816 1.58472 26.8816H2.94792V24.1307H1.58472C1.26112 24.1307 0.998779 23.8735 0.998779 23.5561C0.998779 23.2386 1.26112 22.9814 1.58472 22.9814H2.94792V20.2305H1.58472C1.26112 20.2305 0.998779 19.9733 0.998779 19.6559C0.998779 19.3384 1.26112 19.0812 1.58472 19.0812H2.94792V16.3203H1.58472C1.26112 16.3203 0.998779 16.0631 0.998779 15.7456C0.998779 15.4282 1.26112 15.171 1.58472 15.171H2.94792V12.41H1.58472C1.26112 12.41 0.998779 12.1528 0.998779 11.8354C0.998779 11.518 1.26112 11.2607 1.58472 11.2607H2.94792V8.49971H1.58472C1.26112 8.49971 0.998779 8.2425 0.998779 7.92507C0.998779 7.60764 1.26112 7.35043 1.58472 7.35043H2.94792V4.58947H1.58472C1.26112 4.58947 0.998779 4.33226 0.998779 4.01483C0.998779 3.69739 1.26112 3.44018 1.58472 3.44018H2.948V1.94612C2.948 0.873071 3.83815 0 4.93237 0H34.4663C35.5605 0 36.4507 0.872995 36.4507 1.94612V3.44018ZM37.8292 9.7502H36.4507V13.7615H37.8292V9.7502ZM37.8292 8.60084V4.58947H36.4507V8.60084H37.8292ZM36.4507 18.9222H37.8292V14.9108H36.4507V18.9222ZM32.3679 11.7192C32.6915 11.7192 32.9538 11.462 32.9538 11.1446V8.86649C32.9538 8.54906 32.6915 8.29185 32.3679 8.29185H11.3518C11.0282 8.29185 10.7659 8.54906 10.7659 8.86649V30.319C10.7659 30.6364 11.0282 30.8936 11.3518 30.8936H32.3679C32.6915 30.8936 32.9538 30.6364 32.9538 30.319V13.7963C32.9538 13.4789 32.6915 13.2217 32.3679 13.2217C32.0443 13.2217 31.782 13.4789 31.782 13.7963V25.14L27.4135 20.8557C27.1846 20.6314 26.8136 20.6314 26.5849 20.8557L23.6052 23.778L18.9872 19.249C18.7584 19.0247 18.3874 19.0247 18.1586 19.249L13.8064 23.5173H11.9377V9.44113H31.782V11.1446C31.782 11.4619 32.0443 11.7192 32.3679 11.7192ZM14.0492 24.6666C14.2045 24.6666 14.3536 24.6061 14.4634 24.4983L18.5729 20.468L23.1909 24.997C23.4197 25.2213 23.7907 25.2213 24.0195 24.997L26.9992 22.0747L31.782 26.7653V29.7442H11.9377V24.6665H14.0492V24.6666ZM20.769 16.3019C20.769 17.8083 22.0188 19.0339 23.555 19.0339C25.0912 19.0339 26.3408 17.8083 26.3408 16.3019C26.3408 14.7955 25.0911 13.5699 23.555 13.5699C22.0189 13.5699 20.769 14.7955 20.769 16.3019ZM25.169 16.3019C25.169 17.1747 24.4449 17.8847 23.555 17.8847C22.6651 17.8847 21.9409 17.1746 21.9409 16.3019C21.9409 15.4292 22.665 14.7191 23.555 14.7191C24.445 14.7191 25.169 15.4292 25.169 16.3019Z" fill="#3B3E3C"/>
</svg>
