<svg width="27" height="30" viewBox="0 0 27 30" fill="none" xmlns="http://www.w3.org/2000/svg">
<path fill-rule="evenodd" clip-rule="evenodd" d="M16.4118 5.33333C16.4118 7.2212 15 8.54167 13.5098 8.54167C12.0196 8.54167 10.6078 7.2212 10.6078 5.33333C10.6078 3.44546 12.0196 2.125 13.5098 2.125C15 2.125 16.4118 3.44546 16.4118 5.33333ZM13.5098 10.5417C16.2171 10.5417 18.4118 8.20982 18.4118 5.33333C18.4118 2.45685 16.2171 0.125 13.5098 0.125C10.8025 0.125 8.60784 2.45685 8.60784 5.33333C8.60784 8.20982 10.8025 10.5417 13.5098 10.5417ZM12.5094 15.3583L13.5096 15.936L14.5099 15.3583C18.0508 13.3133 22.1304 12.58 24.5815 12.3249V24.1263C24.5815 24.1299 24.5813 24.1347 24.5769 24.1452C24.5716 24.1576 24.559 24.18 24.5332 24.2066C24.4763 24.2652 24.3937 24.3054 24.3135 24.3132C21.9482 24.5436 17.9924 25.2476 13.5789 27.3675C13.5366 27.3878 13.4827 27.3878 13.4404 27.3675C9.02685 25.2476 5.07109 24.5436 2.70577 24.3132C2.62558 24.3054 2.543 24.2652 2.48612 24.2066C2.46025 24.18 2.44771 24.1576 2.44242 24.1452C2.43794 24.1347 2.43774 24.1299 2.43774 24.1263V12.3249C4.8889 12.58 8.96846 13.3133 12.5094 15.3583ZM2.43033 10.3141C4.96911 10.5607 9.50843 11.3156 13.5096 13.6264C17.5108 11.3156 22.0502 10.5607 24.589 10.3141C25.6883 10.2073 26.5815 11.0899 26.5815 12.1944V24.1263C26.5815 25.2619 25.6376 26.1938 24.5074 26.3038C22.3125 26.5176 18.5968 27.176 14.4449 29.1703C13.8552 29.4536 13.1641 29.4536 12.5744 29.1703C8.4225 27.176 4.70681 26.5176 2.51193 26.3038C1.3817 26.1938 0.437744 25.2619 0.437744 24.1263V12.1944C0.437744 11.0899 1.33093 10.2073 2.43033 10.3141Z" fill="#3B3E3C"/>
</svg>
