<svg width="40" height="39" viewBox="0 0 40 39" fill="none" xmlns="http://www.w3.org/2000/svg">
<path fill-rule="evenodd" clip-rule="evenodd" d="M39.1012 37.2424H39.4143C39.7378 37.2424 40 37.4997 40 37.8169C40 38.1341 39.7378 38.3913 39.4143 38.3913H32.3587C32.0352 38.3913 31.773 38.1341 31.773 37.8169C31.773 37.4997 32.0352 37.2425 32.3587 37.2425H37.8652C37.5915 36.4058 37.2185 35.034 37.2185 33.7688C37.2185 32.5037 37.5914 31.1319 37.8652 30.2952H4.71344C2.76039 30.2952 1.17148 31.8534 1.17148 33.7688C1.17148 35.6842 2.76039 37.2425 4.71344 37.2425H29.357C29.6805 37.2425 29.9427 37.4997 29.9427 37.8169C29.9427 38.1341 29.6805 38.3913 29.357 38.3913H4.71344C2.11445 38.3913 0 36.3176 0 33.7688C0 31.2199 2.11445 29.1462 4.71344 29.1462H6.26742C4.01969 29.1462 2.19109 27.3529 2.19109 25.1485V18.7234C2.19109 16.519 4.01969 14.7257 6.26742 14.7257H8.24352C5.85672 14.7257 3.91492 12.8213 3.91492 10.4806C3.91492 8.13977 5.85672 6.23541 8.24352 6.23541H2.77938C1.26195 6.23541 0.0275 5.02476 0.0275 3.53659C0.0275 2.04843 1.26195 0.837772 2.77938 0.837772H5.51312C5.83656 0.837772 6.09883 1.09498 6.09883 1.41218C6.09883 1.72938 5.83664 1.98659 5.51312 1.98659H2.77938C1.90797 1.98659 1.19898 2.68191 1.19898 3.53652C1.19898 4.39112 1.90789 5.08644 2.77938 5.08644H33.7769C33.5395 4.61018 33.4144 4.08342 33.4144 3.53652C33.4144 2.98961 33.5399 2.46293 33.7773 1.98659H8.49055C8.16711 1.98659 7.90484 1.72938 7.90484 1.41218C7.90484 1.09498 8.16703 0.837772 8.49055 0.837772H34.9159C35.4773 0.826968 35.6641 1.51822 35.3244 1.82401C34.8481 2.27821 34.5859 2.88648 34.5859 3.53659C34.5859 4.1867 34.8482 4.79498 35.3244 5.24918C35.4953 5.41214 35.5484 5.66047 35.4588 5.87707C35.3691 6.09374 35.1545 6.23541 34.916 6.23541H38.5462H38.5486H39.2136C39.5371 6.23541 39.7993 6.49262 39.7993 6.80982C39.7993 7.12703 39.5371 7.38423 39.2136 7.38423H38.9687C38.7498 8.00799 38.3393 9.33074 38.3393 10.4805C38.3393 11.6303 38.7498 12.953 38.9687 13.5768H39.2136C39.5371 13.5768 39.7993 13.8339 39.7993 14.1512C39.7993 14.4684 39.5371 14.7256 39.2136 14.7256H34.9945C35.318 14.7256 35.5802 14.9828 35.5802 15.3C35.5802 15.6172 35.318 15.8744 34.9945 15.8744H34.9294C33.3492 17.5225 32.4818 19.6655 32.4818 21.9358C32.4818 22.4574 32.5284 22.9798 32.6202 23.4887C32.6764 23.8011 32.4639 24.0992 32.1454 24.1544C32.1109 24.1604 32.0765 24.1633 32.0427 24.1633C31.7639 24.1633 31.5168 23.9674 31.4666 23.6888C31.363 23.114 31.3104 22.5242 31.3104 21.9358C31.3104 19.7183 32.0433 17.6086 33.3952 15.8744H27.6012V17.949C27.6012 18.2899 27.3909 18.588 27.0655 18.7082C26.7405 18.8285 26.3819 18.7407 26.1523 18.4845L25.5131 17.7711L24.8738 18.4845C24.6033 18.769 24.1879 18.8043 23.9607 18.7082C23.6353 18.588 23.4251 18.29 23.4251 17.949V15.8744H6.26742C4.66563 15.8744 3.3625 17.1524 3.3625 18.7234V25.1485C3.3625 26.7194 4.66563 27.9974 6.26742 27.9974H33.3978C33.0347 27.5308 32.7126 27.0346 32.4377 26.5114C32.2895 26.2293 32.4025 25.8829 32.69 25.7376C32.9775 25.5923 33.3308 25.7031 33.479 25.9851C33.8647 26.7192 34.3533 27.3946 34.9311 27.9974H34.9945C35.318 27.9974 35.5802 28.2547 35.5802 28.5719C35.5802 28.8891 35.318 29.1463 34.9945 29.1463H39.4143C39.7378 29.1463 40 29.4035 40 29.7207C40 30.0379 39.7378 30.2951 39.4143 30.2951H39.1012C38.8625 30.9693 38.39 32.468 38.39 33.7688C38.39 35.0695 38.8624 36.5681 39.1012 37.2424ZM25.5131 16.405C25.7262 16.405 25.9291 16.495 26.0698 16.652L26.4297 17.0536V10.1023H24.5966V17.0536L24.9564 16.652C25.0972 16.495 25.3001 16.405 25.5131 16.405ZM8.24352 7.38423C6.50273 7.38423 5.08641 8.77318 5.08641 10.4805C5.08641 12.1878 6.50273 13.5768 8.24359 13.5768H23.4251V10.1024H23.2239C22.9004 10.1024 22.6382 9.84515 22.6382 9.52795C22.6382 9.21075 22.9004 8.95354 23.2239 8.95354H32.9091C33.2327 8.95354 33.4948 9.21075 33.4948 9.52795C33.4948 9.84515 33.2327 10.1024 32.9091 10.1024H27.6011V13.5768H37.7341C37.4873 12.8093 37.1677 11.5994 37.1677 10.4805C37.1677 9.36161 37.4873 8.15173 37.7341 7.38423H8.24352ZM30.1057 22.2399H17.2312C16.9077 22.2399 16.6455 21.9827 16.6455 21.6655C16.6455 21.3483 16.9077 21.0911 17.2312 21.0911H30.1057C30.4292 21.0911 30.6914 21.3482 30.6914 21.6655C30.6914 21.9827 30.4292 22.2399 30.1057 22.2399ZM23.2239 33.961C22.9004 33.961 22.6382 34.2182 22.6382 34.5354C22.6382 34.8526 22.9004 35.1097 23.2239 35.1097H25.8553C26.1788 35.1097 26.441 34.8526 26.441 34.5354C26.441 34.2182 26.1788 33.961 25.8553 33.961H23.2239ZM10.1216 34.5354C10.1216 34.2182 10.3838 33.961 10.7073 33.961H20.6591C20.9826 33.961 21.2448 34.2182 21.2448 34.5354C21.2448 34.8526 20.9826 35.1097 20.6591 35.1097H10.7073C10.3838 35.1097 10.1216 34.8526 10.1216 34.5354ZM19.2761 10.1016H20.7814C21.1049 10.1016 21.3671 9.84445 21.3671 9.52727C21.3671 9.21009 21.1049 8.9529 20.7814 8.9529H19.2761C18.9526 8.9529 18.6904 9.21009 18.6904 9.52727C18.6904 9.84445 18.9526 10.1016 19.2761 10.1016ZM9.86076 25.7693C9.58693 25.9657 9.22896 25.9942 8.92639 25.8435C8.62396 25.6929 8.436 25.3927 8.436 25.0601V19.9125H7.01881C6.69537 19.9125 6.43311 19.6554 6.43311 19.3382C6.43311 19.021 6.69529 18.7638 7.01881 18.7638H16.7039C17.0273 18.7638 17.2896 19.021 17.2896 19.3382C17.2896 19.6554 17.0274 19.9125 16.7039 19.9125H14.9816V25.0601C14.9889 25.8287 14.008 26.1496 13.5569 25.7693L11.7088 24.4439L9.86076 25.7693ZM13.8103 24.5276L12.0547 23.2685C11.9517 23.1947 11.8303 23.1578 11.7089 23.1578C11.5875 23.1578 11.4661 23.1947 11.3631 23.2685L9.6074 24.5277V19.9125H13.8103V24.5276Z" fill="#3B3E3C"/>
</svg>
