<svg width="30" height="21" viewBox="0 0 30 21" fill="none" xmlns="http://www.w3.org/2000/svg">
<path fill-rule="evenodd" clip-rule="evenodd" d="M7.82355 8C9.4804 8 10.8235 6.65685 10.8235 5C10.8235 3.34315 9.4804 2 7.82355 2C6.16669 2 4.82355 3.34315 4.82355 5C4.82355 6.65685 6.16669 8 7.82355 8ZM7.82355 10C10.585 10 12.8235 7.76142 12.8235 5C12.8235 2.23858 10.585 0 7.82355 0C5.06212 0 2.82355 2.23858 2.82355 5C2.82355 7.76142 5.06212 10 7.82355 10ZM8.32355 11C4.18141 11 0.823547 14.3579 0.823547 18.5V21H2.82355V18.5C2.82355 15.4624 5.28598 13 8.32355 13C11.3611 13 13.8235 15.4624 13.8235 18.5V21H15.8235V18.5C15.8235 15.4624 18.286 13 21.3235 13C24.3611 13 26.8235 15.4624 26.8235 18.5V21H28.8235V18.5C28.8235 14.3579 25.4657 11 21.3235 11C18.5451 11 16.1195 12.5109 14.8235 14.7558C13.5276 12.5109 11.102 11 8.32355 11ZM22.7184 7.33304L22.6708 7.36483L22.625 7.39929C22.1233 7.77695 21.5024 8 20.8235 8C19.1667 8 17.8235 6.65685 17.8235 5C17.8235 3.34315 19.1667 2 20.8235 2C21.5023 2 22.1233 2.22304 22.6249 2.60068L22.6707 2.63514L22.7184 2.66691L26.2179 5L22.7184 7.33304ZM28.0227 3.79945L28.0207 3.79815L23.8278 1.00282C22.9914 0.373204 21.9511 0 20.8235 0C18.0621 0 15.8235 2.23858 15.8235 5C15.8235 7.76142 18.0621 10 20.8235 10C21.9511 10 22.9914 9.62678 23.8278 8.99714L28.0207 6.20186L28.0227 6.20055L28.2009 6.0817L29.1994 5.41603C29.4963 5.21811 29.4963 4.78189 29.1994 4.58398L28.2009 3.9183L28.0227 3.79945Z" fill="#3B3E3C"/>
</svg>
