<svg width="40" height="30" viewBox="0 0 40 30" fill="none" xmlns="http://www.w3.org/2000/svg">
<path fill-rule="evenodd" clip-rule="evenodd" d="M38.2119 21.3597L35.792 20.6816C35.6875 20.6523 35.6145 20.5575 35.6145 20.4509V19.6587C35.8114 19.525 35.9992 19.3753 36.1748 19.2082C37.0255 18.3984 37.4941 17.3124 37.4941 16.1499V15.0568L37.728 14.5979C37.9848 14.0942 38.1205 13.5302 38.1205 12.967V10.0057C38.1205 9.68834 37.8582 9.43106 37.5346 9.43106H31.8961C29.8458 9.43106 28.1777 11.067 28.1777 13.0778V13.1121C28.1777 13.5803 28.2905 14.0493 28.5041 14.4681L28.8041 15.0567V15.9953C28.8041 17.4828 29.5516 18.8174 30.6837 19.6205L30.6838 20.4508C30.6838 20.5788 30.6838 20.6318 30.2 20.7674L29.0192 21.0983L25.6035 19.8802C25.6158 19.7221 25.5614 19.5614 25.4438 19.4402L24.3523 18.3156V16.4277C24.4677 16.3345 24.5815 16.2387 24.6917 16.1374C26.0687 14.8717 26.8584 13.0846 26.8584 11.2345V9.72681C27.2741 8.83948 27.4848 7.90052 27.4848 6.93352V0.789454C27.4848 0.472099 27.2225 0.214813 26.8989 0.214813H18.1279C15.0412 0.214813 12.53 2.67765 12.53 5.70478V6.93367C12.53 7.90067 12.7407 8.83964 13.1565 9.72696V11.0242C13.1565 13.1723 14.1304 15.1075 15.6625 16.3834V18.3157L14.571 19.4403C14.4534 19.5614 14.3991 19.7222 14.4113 19.8803L10.8063 21.1658C10.545 21.259 10.3023 21.3852 10.0819 21.5381L9.51578 21.2605C11.2009 20.5411 11.7348 19.5293 11.7604 19.4791C11.8429 19.3173 11.8429 19.1269 11.7604 18.9651C11.338 18.1366 11.2868 16.6179 11.2457 15.3977C11.232 14.9914 11.2191 14.6077 11.1943 14.2659C10.9945 11.5096 8.85797 9.43106 6.22437 9.43106C3.59078 9.43106 1.45414 11.5096 1.25445 14.2659C1.22969 14.6077 1.21672 14.9915 1.20305 15.3978C1.16195 16.618 1.1107 18.1365 0.688359 18.965C0.605859 19.1268 0.605859 19.3173 0.688359 19.479C0.713984 19.5293 1.24672 20.5389 2.93523 21.2592L1.36281 22.0302C0.522187 22.4427 0 23.2713 0 24.193V28.4383C0 28.7557 0.262344 29.013 0.585938 29.013C0.909531 29.013 1.17188 28.7557 1.17188 28.4383V24.193C1.17188 23.7094 1.44586 23.2745 1.88688 23.0582L3.84492 22.0981L4.52602 22.7329C5.00227 23.1768 5.6132 23.3986 6.22437 23.3986C6.83539 23.3986 7.44664 23.1766 7.92273 22.7329L8.60375 22.0982L9.24219 22.4113C8.94156 22.883 8.77094 23.4362 8.77094 24.0157V28.4385C8.77094 28.7559 9.03328 29.0131 9.35687 29.0131C9.68047 29.0131 9.94281 28.7559 9.94281 28.4385V24.0157C9.94281 23.2268 10.4507 22.5156 11.2067 22.246L15.0077 20.8905L16.5899 23.2183C16.7922 23.5159 17.1163 23.7067 17.4792 23.742C17.5197 23.7459 17.5599 23.7478 17.6001 23.7478C17.9202 23.7478 18.2269 23.6242 18.4561 23.3995L19.4214 22.4528V28.4386C19.4214 28.7559 19.6838 29.0132 20.0073 29.0132C20.3309 29.0132 20.5933 28.7559 20.5933 28.4386V22.4528L21.5586 23.3995C21.7877 23.6243 22.0944 23.7479 22.4146 23.7479C22.4547 23.7479 22.495 23.746 22.5354 23.7421C22.8984 23.7068 23.2225 23.516 23.4248 23.2184L25.0071 20.8907L28.808 22.2462C29.5639 22.5158 30.0719 23.227 30.0719 24.0158V28.4387C30.0719 28.756 30.3342 29.0133 30.6578 29.0133C30.9814 29.0133 31.2438 28.756 31.2438 28.4387V24.0158C31.2438 23.2168 30.9201 22.4675 30.3771 21.9133L30.5219 21.8728C30.6679 21.8319 30.8671 21.7759 31.0671 21.6797L32.5631 23.1469V28.4387C32.5631 28.756 32.8255 29.0133 33.1491 29.0133C33.4727 29.0133 33.735 28.756 33.735 28.4387V23.1469L35.2206 21.6899C35.2996 21.7293 35.3826 21.7625 35.4699 21.787L37.8899 22.4651C38.4423 22.6198 38.8281 23.1215 38.8281 23.6849V28.4387C38.8281 28.756 39.0905 29.0133 39.4141 29.0133C39.7377 29.0133 40 28.756 40 28.4387V23.6849C40 22.6109 39.2647 21.6547 38.2119 21.3597ZM3.75898 20.3447C2.66297 19.9579 2.1132 19.4423 1.87852 19.1607C2.03852 18.7505 2.14227 18.2807 2.2125 17.7847C2.53562 18.5446 3.0768 19.1932 3.75898 19.656V20.3447ZM7.11563 21.8999C6.61586 22.3656 5.83297 22.3655 5.33336 21.8998L4.78844 21.392C4.88039 21.2231 4.93094 21.0315 4.93094 20.8309V20.2184C5.33969 20.3436 5.77422 20.4112 6.22453 20.4112C6.6743 20.4112 7.10859 20.3433 7.51805 20.2188L7.51797 20.8308C7.51797 21.0315 7.56844 21.2232 7.66047 21.3922L7.11563 21.8999ZM6.22469 19.2619C4.475 19.2619 3.05164 17.8659 3.05164 16.1501C3.05164 15.8327 2.7893 15.5754 2.4657 15.5754C2.43289 15.5754 2.40086 15.5787 2.36953 15.5839L2.37461 15.436C2.38766 15.0409 2.40023 14.6676 2.42344 14.3475C2.49828 13.315 2.91898 12.3636 3.60805 11.6683C4.30328 10.9668 5.2325 10.5805 6.22453 10.5805C7.21656 10.5805 8.1457 10.9668 8.84102 11.6683C9.53008 12.3636 9.95078 13.315 10.0256 14.3475C10.0487 14.6676 10.0614 15.0407 10.0747 15.4358L10.0782 15.5383C9.4407 14.575 8.45617 13.8651 7.18406 13.4643C6.00883 13.094 4.99805 13.1169 4.95539 13.118C4.80195 13.1222 4.65633 13.1852 4.54984 13.2935L3.49266 14.3688C3.26805 14.5972 3.27477 14.961 3.50773 15.1813C3.7407 15.4016 4.11164 15.3949 4.33625 15.1665L5.21594 14.2718C5.97352 14.3082 8.41078 14.5861 9.35867 16.6331C9.12016 18.1416 7.79813 19.2619 6.22469 19.2619ZM8.68976 20.3466L8.68984 19.6613C9.37148 19.201 9.91344 18.5536 10.2368 17.788C10.307 18.2828 10.4107 18.7516 10.5704 19.1609C10.337 19.4398 9.78469 19.96 8.68976 20.3466ZM14.3284 11.0241V9.59839C14.3284 9.51189 14.3084 9.42646 14.2701 9.34854C13.893 8.58281 13.7019 7.77035 13.7019 6.93367V5.70486C13.7019 3.31136 15.6874 1.36417 18.1279 1.36417H26.313V6.93375C26.313 7.77042 26.1218 8.58289 25.7448 9.34862C25.7064 9.42654 25.6865 9.51197 25.6865 9.59847V11.2347C25.6865 12.7909 25.0486 14.2343 23.8903 15.2991C23.7457 15.4319 23.5956 15.5565 23.4405 15.6726L23.4342 15.677L23.4304 15.6798C22.3453 16.4877 21.0163 16.8804 19.6283 16.7922C16.6563 16.6035 14.3284 14.0699 14.3284 11.0241ZM17.6275 22.5867L17.6274 22.5868C17.6233 22.5909 17.6138 22.6001 17.5948 22.5982C17.5758 22.5963 17.5683 22.5854 17.5651 22.5806L15.7428 19.8999L16.3292 19.2956L19.0937 21.1488L17.6275 22.5867ZM20.0074 20.3692L16.8344 18.2421V17.1694C17.6554 17.6047 18.5747 17.8769 19.5524 17.939C19.7069 17.9488 19.8604 17.9536 20.0134 17.9536C21.1338 17.9536 22.2121 17.6909 23.1805 17.1924V18.2421L20.0074 20.3692ZM22.4498 22.5808C22.4466 22.5855 22.4391 22.5965 22.42 22.5983C22.4017 22.6006 22.3923 22.5916 22.3879 22.5874L22.3873 22.5869L20.9212 21.149L23.6856 19.2957L24.2721 19.9L22.4498 22.5808ZM33.1491 22.0959L31.8194 20.7919C31.8426 20.6886 31.8557 20.5754 31.8556 20.4506L31.8555 20.2081C32.2245 20.3269 32.6134 20.3974 33.0159 20.4092C33.061 20.4105 33.1058 20.4111 33.1508 20.4111C33.5955 20.4111 34.0295 20.3453 34.4427 20.2195V20.4509C34.4427 20.5655 34.4573 20.6779 34.485 20.7858L33.1491 22.0959ZM35.3587 18.3834C34.7377 18.9745 33.9173 19.2866 33.0511 19.2604C31.3555 19.2105 29.976 17.7458 29.976 15.9954V14.9212C29.976 14.8319 29.9548 14.744 29.9141 14.6642L29.5522 13.9542C29.4196 13.6941 29.3495 13.403 29.3495 13.1121V13.0779C29.3495 11.7007 30.492 10.5804 31.8961 10.5804H36.9487V12.9671C36.9487 13.3528 36.8557 13.739 36.6798 14.084L36.3841 14.6642C36.3434 14.744 36.3222 14.8319 36.3222 14.9212V16.15C36.3222 16.9989 35.98 17.7921 35.3587 18.3834ZM35.2906 13.1785C33.9295 12.5112 31.3775 12.5035 31.2695 12.5035C30.9459 12.5035 30.6836 12.7608 30.6836 13.0781C30.6836 13.3954 30.9459 13.6527 31.2695 13.6527C31.9281 13.6528 33.84 13.7522 34.7665 14.2065C34.8506 14.2478 34.94 14.2672 35.0281 14.2672C35.243 14.2672 35.4499 14.1508 35.5526 13.9495C35.6974 13.6657 35.58 13.3205 35.2906 13.1785ZM36.322 24.7521C36.322 24.4348 36.5844 24.1775 36.908 24.1775C37.2316 24.1775 37.4939 24.4349 37.4939 24.7521V28.4384C37.4939 28.7557 37.2316 29.013 36.908 29.013C36.5844 29.013 36.322 28.7557 36.322 28.4384V24.7521ZM3.09204 24.9371C2.76845 24.9371 2.5061 25.1944 2.5061 25.5117V28.4385C2.5061 28.7558 2.76845 29.0131 3.09204 29.0131C3.41564 29.0131 3.67798 28.7558 3.67798 28.4385V25.5117C3.67798 25.1945 3.41564 24.9371 3.09204 24.9371ZM16.0636 5.66313C17.9544 5.38364 22.591 4.96816 24.8071 7.14139C25.036 7.36571 25.036 7.72955 24.8071 7.95395C24.5784 8.17835 24.2074 8.17835 23.9785 7.95395C23.1957 7.18613 21.8722 6.73633 20.045 6.61704C18.4923 6.51553 16.9936 6.68776 16.2384 6.79938C16.2209 6.80199 16.2078 6.81869 16.2078 6.83823V8.16203C16.2078 8.47937 15.9454 8.73664 15.6218 8.73664C15.2982 8.73664 15.0359 8.47937 15.0359 8.16203V6.8383C15.0359 6.24539 15.4681 5.75115 16.0636 5.66313ZM13.116 25.4064C12.7924 25.4064 12.53 25.6637 12.53 25.981V28.4386C12.53 28.7559 12.7924 29.0132 13.116 29.0132C13.4396 29.0132 13.7019 28.7559 13.7019 28.4386V25.981C13.7019 25.6638 13.4396 25.4064 13.116 25.4064ZM26.313 25.981C26.313 25.6637 26.5753 25.4064 26.8989 25.4064C27.2225 25.4064 27.4849 25.6638 27.4849 25.981V28.4386C27.4849 28.7559 27.2225 29.0132 26.8989 29.0132C26.5753 29.0132 26.313 28.7559 26.313 28.4386V25.981Z" fill="#F2F2F2"/>
</svg>
