<svg width="27" height="26" viewBox="0 0 27 26" fill="none" xmlns="http://www.w3.org/2000/svg">
<path fill-rule="evenodd" clip-rule="evenodd" d="M24.8235 2H2.82355L2.82355 24H24.8235V2ZM2.82355 0C1.71898 0 0.823547 0.89543 0.823547 2V24C0.823547 25.1046 1.71898 26 2.82355 26H24.8235C25.9281 26 26.8235 25.1046 26.8235 24V2C26.8235 0.895431 25.9281 0 24.8235 0H2.82355ZM21.8235 7H9.82355V5H21.8235V7ZM4.82355 7H6.82355V5H4.82355V7ZM6.82355 11H4.82355V9H6.82355V11ZM4.82355 15H6.82355V13H4.82355V15ZM6.82355 19H4.82355V17H6.82355V19ZM9.82355 11H21.8235V9H9.82355V11ZM21.8235 15H9.82355V13H21.8235V15ZM9.82355 19H21.8235V17H9.82355V19Z" fill="#3B3E3C"/>
</svg>
