<svg width="40" height="37" viewBox="0 0 40 37" fill="none" xmlns="http://www.w3.org/2000/svg">
<path fill-rule="evenodd" clip-rule="evenodd" d="M34.0292 0.965332H1.96242C0.880312 0.965332 0 1.82875 0 2.88992V30.4074C0 31.4687 0.880312 32.332 1.96242 32.332H23.3403C23.6862 32.332 23.9666 32.057 23.9666 31.7177C23.9666 31.3785 23.6863 31.1035 23.3403 31.1035H1.96242C1.57102 31.1035 1.25258 30.7912 1.25258 30.4073V7.43525H26.0126C26.3585 7.43525 26.6389 7.16027 26.6389 6.821C26.6389 6.48173 26.3586 6.20675 26.0126 6.20675H1.25258V2.88992C1.25258 2.50606 1.57102 2.19376 1.96242 2.19376H34.0292C34.4206 2.19376 34.7391 2.50606 34.7391 2.88992V6.20675H32.6931C32.3472 6.20675 32.0668 6.48173 32.0668 6.821C32.0668 7.16027 32.3471 7.43525 32.6931 7.43525H34.7391V19.9246C34.7391 20.2638 35.0194 20.5388 35.3654 20.5388C35.7113 20.5388 35.9917 20.2638 35.9917 19.9246V2.88992C35.9916 1.82875 35.1113 0.965332 34.0292 0.965332ZM30.0212 6.20649H28.6847C28.3387 6.20649 28.0583 6.48146 28.0583 6.82071C28.0583 7.15995 28.3387 7.43492 28.6847 7.43492H30.0212C30.3671 7.43492 30.6475 7.15995 30.6475 6.82071C30.6475 6.48146 30.3672 6.20649 30.0212 6.20649ZM3.29851 3.58591H3.30522C3.65116 3.58591 3.93147 3.86088 3.93147 4.20013C3.93147 4.53937 3.65108 4.81434 3.30515 4.81434C2.95921 4.81434 2.67554 4.53937 2.67554 4.20013C2.67554 3.86088 2.95257 3.58591 3.29851 3.58591ZM8.64971 3.58591H8.64299C8.29705 3.58591 8.02002 3.86088 8.02002 4.20013C8.02002 4.53937 8.30369 4.81434 8.64963 4.81434C8.99557 4.81434 9.27596 4.53937 9.27596 4.20013C9.27596 3.86088 8.99565 3.58591 8.64971 3.58591ZM5.96403 3.58591H5.97075C6.31669 3.58591 6.597 3.86088 6.597 4.20013C6.597 4.53937 6.31661 4.81434 5.97067 4.81434C5.62474 4.81434 5.34106 4.53937 5.34106 4.20013C5.34106 3.86088 5.6181 3.58591 5.96403 3.58591ZM32.6932 3.58591H11.3153C10.9694 3.58591 10.689 3.86088 10.689 4.20013C10.689 4.53937 10.9693 4.81434 11.3153 4.81434H32.6932C33.0391 4.81434 33.3195 4.53937 33.3195 4.20013C33.3195 3.86088 33.0391 3.58591 32.6932 3.58591ZM25.3862 29.0968C25.3862 25.1456 28.664 21.9312 32.6931 21.9312C36.7222 21.9312 40 25.1456 40 29.0968C40 33.0479 36.7222 36.2623 32.6931 36.2623C28.664 36.2623 25.3862 33.0479 25.3862 29.0968ZM26.6388 29.0968C26.6388 32.3705 29.3547 35.0339 32.6931 35.0339C36.0315 35.0339 38.7474 32.3705 38.7474 29.0968C38.7474 25.823 36.0315 23.1596 32.6931 23.1596C29.3547 23.1596 26.6388 25.823 26.6388 29.0968ZM36.0335 28.4828H33.3195V25.8213C33.3195 25.4822 33.0392 25.2071 32.6932 25.2071C32.3473 25.2071 32.0669 25.4821 32.0669 25.8213V28.4828H29.3529C29.007 28.4828 28.7266 28.7578 28.7266 29.097C28.7266 29.4362 29.0069 29.7112 29.3529 29.7112H32.0669V32.3727C32.0669 32.7119 32.3472 32.9869 32.6932 32.9869C33.0391 32.9869 33.3195 32.712 33.3195 32.3727V29.7112H36.0335C36.3795 29.7112 36.6598 29.4363 36.6598 29.097C36.6598 28.7578 36.3795 28.4828 36.0335 28.4828ZM5.34448 12.7169C5.34448 11.6557 6.2248 10.7924 7.3069 10.7924C8.38901 10.7924 9.26933 11.6557 9.26933 12.7169C9.26933 13.7781 8.38901 14.6414 7.3069 14.6414C6.2248 14.6414 5.34448 13.7781 5.34448 12.7169ZM6.59706 12.7168C6.59706 13.1007 6.9155 13.4129 7.3069 13.4129C7.69831 13.4129 8.01675 13.1007 8.01675 12.7168C8.01675 12.333 7.69831 12.0207 7.3069 12.0207C6.9155 12.0207 6.59706 12.333 6.59706 12.7168ZM30.0209 10.7924H11.3153C10.9694 10.7924 10.689 11.0674 10.689 11.4067C10.689 11.7459 10.9693 12.0209 11.3153 12.0209H30.0209C30.3669 12.0209 30.6472 11.7459 30.6472 11.4067C30.6472 11.0674 30.3669 10.7924 30.0209 10.7924ZM11.3153 13.4129H12.6514C12.9974 13.4129 13.2777 13.6879 13.2777 14.0272C13.2777 14.3664 12.9973 14.6414 12.6514 14.6414H11.3153C10.9693 14.6414 10.689 14.3664 10.689 14.0272C10.689 13.6879 10.9694 13.4129 11.3153 13.4129ZM20.668 13.4129H19.3319C18.986 13.4129 18.7056 13.6879 18.7056 14.0272C18.7056 14.3664 18.9859 14.6414 19.3319 14.6414H20.668C21.0139 14.6414 21.2943 14.3664 21.2943 14.0272C21.2943 13.6879 21.014 13.4129 20.668 13.4129ZM15.3236 13.4129H16.6597C17.0057 13.4129 17.286 13.6879 17.286 14.0272C17.286 14.3664 17.0056 14.6414 16.6597 14.6414H15.3236C14.9776 14.6414 14.6973 14.3664 14.6973 14.0272C14.6973 13.6879 14.9777 13.4129 15.3236 13.4129ZM7.3069 17.345C6.2248 17.345 5.34448 18.2082 5.34448 19.2694C5.34448 20.3306 6.2248 21.1939 7.3069 21.1939C8.38901 21.1939 9.26933 20.3306 9.26933 19.2694C9.26933 18.2082 8.38901 17.345 7.3069 17.345ZM7.3069 19.9655C6.9155 19.9655 6.59706 19.6533 6.59706 19.2694C6.59706 18.8856 6.9155 18.5733 7.3069 18.5733C7.69831 18.5733 8.01675 18.8856 8.01675 19.2694C8.01675 19.6533 7.69831 19.9655 7.3069 19.9655ZM11.3153 17.345H30.0209C30.3669 17.345 30.6472 17.6199 30.6472 17.9592C30.6472 18.2984 30.3669 18.5734 30.0209 18.5734H11.3153C10.9693 18.5734 10.689 18.2984 10.689 17.9592C10.689 17.6199 10.9694 17.345 11.3153 17.345ZM12.6514 19.9657H11.3153C10.9694 19.9657 10.689 20.2407 10.689 20.5799C10.689 20.9192 10.9693 21.1941 11.3153 21.1941H12.6514C12.9973 21.1941 13.2777 20.9192 13.2777 20.5799C13.2777 20.2407 12.9974 19.9657 12.6514 19.9657ZM19.3319 19.9657H20.668C21.014 19.9657 21.2943 20.2407 21.2943 20.5799C21.2943 20.9192 21.0139 21.1941 20.668 21.1941H19.3319C18.9859 21.1941 18.7056 20.9192 18.7056 20.5799C18.7056 20.2407 18.986 19.9657 19.3319 19.9657ZM16.6597 19.9657H15.3236C14.9777 19.9657 14.6973 20.2407 14.6973 20.5799C14.6973 20.9192 14.9776 21.1941 15.3236 21.1941H16.6597C17.0056 21.1941 17.286 20.9192 17.286 20.5799C17.286 20.2407 17.0057 19.9657 16.6597 19.9657ZM5.34448 25.8212C5.34448 24.7601 6.2248 23.8968 7.3069 23.8968C8.38901 23.8968 9.26933 24.7601 9.26933 25.8212C9.26933 26.8824 8.38901 27.7457 7.3069 27.7457C6.2248 27.7457 5.34448 26.8824 5.34448 25.8212ZM6.59706 25.8212C6.59706 26.205 6.9155 26.5173 7.3069 26.5173C7.69831 26.5173 8.01675 26.2051 8.01675 25.8212C8.01675 25.4373 7.69831 25.1251 7.3069 25.1251C6.9155 25.1251 6.59706 25.4373 6.59706 25.8212ZM24.0084 23.8968H11.3153C10.9694 23.8968 10.689 24.1717 10.689 24.511C10.689 24.8502 10.9693 25.1252 11.3153 25.1252H24.0084C24.3544 25.1252 24.6347 24.8502 24.6347 24.511C24.6347 24.1717 24.3544 23.8968 24.0084 23.8968ZM11.3153 26.5175H12.6514C12.9974 26.5175 13.2777 26.7925 13.2777 27.1317C13.2777 27.4709 12.9973 27.7459 12.6514 27.7459H11.3153C10.9693 27.7459 10.689 27.4708 10.689 27.1317C10.689 26.7924 10.9694 26.5175 11.3153 26.5175ZM20.668 26.5175H19.3319C18.986 26.5175 18.7056 26.7924 18.7056 27.1317C18.7056 27.4708 18.9859 27.7459 19.3319 27.7459H20.668C21.0139 27.7459 21.2943 27.4709 21.2943 27.1317C21.2943 26.7925 21.014 26.5175 20.668 26.5175ZM15.3236 26.5175H16.6597C17.0057 26.5175 17.286 26.7925 17.286 27.1317C17.286 27.4709 17.0056 27.7459 16.6597 27.7459H15.3236C14.9776 27.7459 14.6973 27.4708 14.6973 27.1317C14.6973 26.7924 14.9777 26.5175 15.3236 26.5175Z" fill="#3B3E3C"/>
</svg>
