<svg width="32" height="32" viewBox="0 0 32 32" fill="none" xmlns="http://www.w3.org/2000/svg">
<path fill-rule="evenodd" clip-rule="evenodd" d="M6 5C6 4.44772 6.44772 4 7 4H25C25.5523 4 26 4.44771 26 5V20H6V5ZM28 5V20.332C28.547 20.5301 29.0565 20.8223 29.4993 21.2229C30.4702 22.1012 31 23.3915 31 25C31 26.6085 30.4702 27.8988 29.4993 28.7771C28.5454 29.6401 27.2822 30 26 30H6C3.79086 30 2 27.7614 2 25C2 23.1493 2.8044 21.5334 4 20.6689V5C4 3.34315 5.34315 2 7 2H25C26.6569 2 28 3.34315 28 5ZM9.20029 28H26C26.9269 28 27.6638 27.7407 28.1576 27.2939C28.6344 26.8626 29 26.1529 29 25C29 23.8471 28.6344 23.1374 28.1576 22.7061C27.6638 22.2593 26.9269 22 26 22H9.20029C9.70244 22.8357 10 23.8744 10 25C10 26.1256 9.70244 27.1643 9.20029 28ZM6 28C6.71117 28 8 27.0964 8 25C8 22.9036 6.71117 22 6 22C5.28883 22 4 22.9036 4 25C4 27.0964 5.28883 28 6 28Z" fill="#2795FB"/>
<path fill-rule="evenodd" clip-rule="evenodd" d="M8 7C8 6.44772 8.44772 6 9 6H18C18.5523 6 19 6.44772 19 7C19 7.55228 18.5523 8 18 8H9C8.44772 8 8 7.55228 8 7ZM8 11C8 10.4477 8.44772 10 9 10H20C20.5523 10 21 10.4477 21 11C21 11.5523 20.5523 12 20 12H9C8.44772 12 8 11.5523 8 11ZM9 14C8.44772 14 8 14.4477 8 15C8 15.5523 8.44772 16 9 16H23C23.5523 16 24 15.5523 24 15C24 14.4477 23.5523 14 23 14H9Z" fill="#5DB07B"/>
</svg>
