<svg width="40" height="35" viewBox="0 0 40 35" fill="none" xmlns="http://www.w3.org/2000/svg">
<path fill-rule="evenodd" clip-rule="evenodd" d="M38.0028 8.2202C37.8462 8.49787 37.4896 8.59847 37.2065 8.44492C36.9233 8.2913 36.8207 7.94169 36.9774 7.66395C37.9027 6.02332 38.5071 4.37173 38.7457 2.84266C36.4506 3.18598 33.9474 4.29519 31.6136 5.97359C29.8365 7.2545 28.2463 8.7861 26.9066 10.5041L26.8931 10.5212L26.8916 10.5232C25.455 12.3495 24.3064 14.3987 23.7084 16.6435C23.6968 16.6868 23.6861 16.7299 23.6753 16.773C23.6713 16.7892 23.6673 16.8054 23.6632 16.8216L34.076 6.60968C34.3047 6.38526 34.6757 6.38526 34.9046 6.60968C35.1334 6.83402 35.1334 7.19788 34.9046 7.4223L24.4917 17.6342C24.558 17.6181 24.6243 17.6023 24.6903 17.5854C26.7413 17.0563 28.8994 15.9738 30.9158 14.4668C31.7411 13.8495 32.524 13.1764 33.2579 12.4567C34.1888 11.5438 35.0336 10.5647 35.7687 9.547C35.9558 9.28803 36.3215 9.22682 36.5856 9.41024C36.8496 9.59374 36.9121 9.95239 36.725 10.2114C35.9518 11.2819 35.064 12.3107 34.0865 13.2694C33.7733 13.5766 33.453 13.8737 33.1272 14.1606C33.1324 15.4133 33.125 16.706 33.1178 17.9594C33.0937 22.1209 33.0691 26.416 33.5117 29.4746H38.4654C38.7317 29.4746 38.9645 29.6508 39.0321 29.9033C39.0582 30.0005 39.6558 32.2985 38.5069 33.7594C37.915 34.5123 37.0007 34.8939 35.7897 34.8939H10.219C7.3585 34.8939 6.72858 30.5359 6.49944 26.7391C6.48022 26.4223 6.72663 26.1503 7.04967 26.1315C7.37295 26.113 7.65006 26.3544 7.6692 26.6712C7.956 31.4227 8.78771 33.7367 10.2117 33.7446C10.878 33.7483 11.6137 33.582 12.0298 33.0279L12.0362 33.0192C12.7589 32.0437 12.3626 30.3366 12.3301 30.2038L12.3277 30.1943C12.3269 30.1912 12.3263 30.1881 12.3258 30.1849C12.3253 30.1824 12.3249 30.1798 12.3243 30.1772C12.2417 29.8228 12.5234 29.4748 12.8947 29.4748H32.3282C31.8973 26.3441 31.9219 22.0835 31.9458 17.9536L31.9458 17.953C31.9513 17.0224 31.9568 16.0697 31.9572 15.1292C31.1089 15.7871 30.2144 16.3888 29.2781 16.9198C28.3066 17.4707 27.2888 17.9466 26.2316 18.317C25.2045 18.6768 24.1381 18.9386 23.0516 19.0467L21.2427 20.8207C21.0148 21.0443 20.6356 21.0379 20.4141 20.8207C20.1852 20.5964 20.1852 20.2325 20.4141 20.0081L22.2238 18.2333C22.2516 17.9649 22.289 17.6938 22.3378 17.42H10.219C9.89544 17.42 9.6331 17.1627 9.6331 16.8454C9.6331 16.528 9.89544 16.2707 10.219 16.2707H22.5999C22.779 15.6186 23.0111 14.9577 23.2941 14.2952H10.219C9.89544 14.2952 9.6331 14.0379 9.6331 13.7206C9.6331 13.4032 9.89544 13.1459 10.219 13.1459H23.8348C24.175 12.4826 24.5636 11.8217 24.9961 11.1704H10.219C9.89544 11.1704 9.6331 10.9131 9.6331 10.5958C9.6331 10.2784 9.89544 10.0211 10.219 10.0211H25.8124C26.8744 8.62176 28.1094 7.33074 29.4468 6.19855C30.0448 5.69225 30.6615 5.21798 31.2939 4.78179C30.8081 2.56353 30.0533 1.4839 28.9916 1.4839H5.62811C6.04538 2.02682 6.37366 2.75094 6.63186 3.62087C6.72459 3.93232 6.80389 4.24815 6.87358 4.56527C7.60542 7.89763 7.57686 12.8309 7.54717 17.9593L7.54717 17.9601L7.54714 17.9645C7.53465 20.1274 7.52174 22.3636 7.57436 24.3921C7.58256 24.7094 7.32701 24.9731 7.0035 24.9812C6.67944 24.9885 6.41108 24.7385 6.40288 24.4213C6.34971 22.3747 6.3627 20.1293 6.37528 17.9575L6.3753 17.9534C6.40006 13.6735 6.42678 9.02362 5.90288 5.7537H0.745084C0.478835 5.7537 0.246023 5.57755 0.178367 5.32502C0.152351 5.22787 -0.445303 2.92985 0.703756 1.46896C1.29571 0.716109 2.21 0.334473 3.42093 0.334473H28.9916C29.9546 0.334473 30.7533 0.799164 31.3656 1.71537C31.7641 2.31169 32.0844 3.1004 32.338 4.10993C34.6826 2.68061 37.1306 1.7939 39.3662 1.61461C39.7211 1.58619 40.027 1.886 39.9981 2.23415C39.8414 4.11368 39.1514 6.18361 38.0028 8.2202ZM1.22954 4.60419H5.68155C5.65405 4.4849 5.62522 4.36583 5.59397 4.24738C5.16968 2.63969 4.56468 1.72717 3.78984 1.52918L3.77335 1.52512L3.38976 1.48375C2.56742 1.48927 1.99274 1.71338 1.63352 2.16834C1.23227 2.67647 1.16094 3.40649 1.17172 3.92934C1.17704 4.18493 1.20204 4.41847 1.22954 4.60427V4.60419ZM37.5791 33.0576C38.1333 32.3529 38.0686 31.2331 37.9797 30.6241H13.5925C13.6914 31.4381 13.7014 32.7729 12.9479 33.7447H35.7898C36.6302 33.7447 37.2155 33.5199 37.5791 33.0576ZM18.3147 6.58568H10.219C9.8954 6.58568 9.63306 6.84295 9.63306 7.16028C9.63306 7.47762 9.8954 7.73489 10.219 7.73489H18.3146C18.6382 7.73489 18.9005 7.47762 18.9005 7.16028C18.9006 6.84295 18.6383 6.58568 18.3147 6.58568ZM29.3187 25.917H24.9846C24.661 25.917 24.3987 26.1743 24.3987 26.4916C24.3987 26.8089 24.661 27.0662 24.9846 27.0662H29.3187C29.6423 27.0662 29.9046 26.8089 29.9046 26.4916C29.9046 26.1743 29.6423 25.917 29.3187 25.917Z" fill="#3B3E3C"/>
</svg>
