<svg width="29" height="28" viewBox="0 0 29 28" fill="none" xmlns="http://www.w3.org/2000/svg">
<path fill-rule="evenodd" clip-rule="evenodd" d="M4.97739 2C4.42511 2 3.97739 2.44772 3.97739 3V18.1814C4.34462 18.0632 4.73158 18 5.13124 18H14.8235H24.0543V3C24.0543 2.44772 23.6066 2 23.0543 2H4.97739ZM1.97739 3V19.5942C1.26148 20.487 0.823547 21.6841 0.823547 23C0.823547 25.7614 2.75217 28 5.13124 28H24.5159H25.0543V27.9613C27.1793 27.6538 28.8235 25.5498 28.8235 23C28.8235 20.8677 27.6736 19.0472 26.0543 18.3283V3C26.0543 1.34315 24.7112 0 23.0543 0H4.97739C3.32054 0 1.97739 1.34315 1.97739 3ZM24.5159 20H14.8235H8.57771C9.11849 20.8357 9.43893 21.8744 9.43893 23C9.43893 24.1256 9.11849 25.1643 8.57771 26H24.5159C25.521 26 26.8235 24.947 26.8235 23C26.8235 21.053 25.521 20 24.5159 20ZM7.43893 23C7.43893 24.947 6.1364 26 5.13124 26C4.12608 26 2.82355 24.947 2.82355 23C2.82355 21.053 4.12608 20 5.13124 20C6.1364 20 7.43893 21.053 7.43893 23Z" fill="#3B3E3C"/>
</svg>
