<svg width="48" height="48" viewBox="0 0 48 48" fill="none" xmlns="http://www.w3.org/2000/svg">
<path d="M41.8941 16.6104C41.8721 15.0964 41.5921 13.5944 41.0561 12.1784C40.1181 9.7604 38.2081 7.8484 35.7901 6.9124C34.3921 6.3864 32.9141 6.1044 31.4181 6.0724C29.4941 5.9864 28.8841 5.9624 24.0001 5.9624C19.1161 5.9624 18.4901 5.9624 16.5801 6.0724C15.0861 6.1044 13.6081 6.3864 12.2101 6.9124C9.79214 7.8484 7.88014 9.7604 6.94414 12.1784C6.41814 13.5764 6.13414 15.0544 6.10614 16.5484C6.02014 18.4744 5.99414 19.0844 5.99414 23.9684C5.99414 28.8524 5.99414 29.4764 6.10614 31.3884C6.13614 32.8844 6.41814 34.3604 6.94414 35.7624C7.88214 38.1784 9.79214 40.0904 12.2121 41.0264C13.6041 41.5704 15.0821 41.8784 16.5821 41.9264C18.5081 42.0124 19.1181 42.0384 24.0021 42.0384C28.8861 42.0384 29.5121 42.0384 31.4221 41.9264C32.9161 41.8964 34.3941 41.6144 35.7941 41.0884C38.2121 40.1504 40.1221 38.2384 41.0601 35.8224C41.5861 34.4224 41.8681 32.9464 41.8981 31.4484C41.9841 29.5244 42.0101 28.9144 42.0101 24.0284C42.0061 19.1444 42.0061 18.5244 41.8941 16.6104ZM23.9881 33.2044C18.8801 33.2044 14.7421 29.0664 14.7421 23.9584C14.7421 18.8504 18.8801 14.7124 23.9881 14.7124C29.0921 14.7124 33.2341 18.8504 33.2341 23.9584C33.2341 29.0664 29.0921 33.2044 23.9881 33.2044ZM33.6021 16.5264C32.4081 16.5264 31.4461 15.5624 31.4461 14.3704C31.4461 13.1784 32.4081 12.2144 33.6021 12.2144C34.7921 12.2144 35.7561 13.1784 35.7561 14.3704C35.7561 15.5624 34.7921 16.5264 33.6021 16.5264Z" fill="#666565"/>
<path d="M23.9884 29.9635C27.3054 29.9635 29.9944 27.2746 29.9944 23.9575C29.9944 20.6405 27.3054 17.9515 23.9884 17.9515C20.6714 17.9515 17.9824 20.6405 17.9824 23.9575C17.9824 27.2746 20.6714 29.9635 23.9884 29.9635Z" fill="#666565"/>
</svg>
