<svg width="40" height="40" viewBox="0 0 40 40" fill="none" xmlns="http://www.w3.org/2000/svg">
<path d="M5.62875 0C2.51076 0 0 2.51076 0 5.62875V34.3712C0 37.4892 2.51076 40 5.62875 40H34.3712C37.4892 40 40 37.4892 40 34.3712V5.62875C40 2.51076 37.4892 0 34.3712 0H5.62875ZM20.8963 4.08752C25.4356 4.08752 29.1263 7.77967 29.1263 12.3187C29.1263 16.8575 25.4356 20.5475 20.8963 20.5475C16.3568 20.5475 12.6637 16.8575 12.6637 12.3187C12.6637 7.77967 16.3567 4.08752 20.8963 4.08752ZM20.8087 8.91003C18.97 8.95683 17.4875 10.4694 17.4875 12.3188C17.4875 14.1967 19.0171 15.725 20.8963 15.725C22.7751 15.725 24.3025 14.1967 24.3025 12.3188C24.3025 10.4401 22.775 8.91003 20.8963 8.91003C20.8669 8.91003 20.838 8.90927 20.8087 8.91003ZM14.0812 20.8275C14.5172 20.829 14.9571 20.949 15.3537 21.1988C18.7229 23.3173 23.0661 23.3187 26.4363 21.1988C27.5647 20.4882 29.0519 20.8293 29.7625 21.9575C30.4723 23.0839 30.1313 24.5731 29.0037 25.2825C27.5336 26.2065 25.918 26.8755 24.225 27.2613L28.8275 31.8638C29.7697 32.8041 29.7697 34.3322 28.8275 35.2738C27.8848 36.2158 26.3597 36.2158 25.4187 35.2738L20.8937 30.7513L16.3737 35.2738C15.9031 35.7447 15.2855 35.98 14.6687 35.98C14.0514 35.98 13.4359 35.744 12.9637 35.2738C12.0217 34.3316 12.022 32.806 12.9637 31.8638L17.5637 27.2613C15.8886 26.8794 14.2723 26.2164 12.7837 25.2825C11.6584 24.5731 11.32 23.0855 12.03 21.9575C12.4725 21.2524 13.22 20.8541 13.9937 20.8288C14.0229 20.8278 14.0521 20.8274 14.0813 20.8275H14.0812Z" fill="#1F1F1F" fill-opacity="0.73"/>
</svg>
