<svg width="40" height="40" viewBox="0 0 40 40" fill="none" xmlns="http://www.w3.org/2000/svg">
<path fill-rule="evenodd" clip-rule="evenodd" d="M40 9C40 4.02944 35.9706 0 31 0H9C4.02943 0 0 4.02944 0 9V31C0 35.9706 4.02944 40 9 40H31C35.9706 40 40 35.9706 40 31V9ZM5.71429 20C5.71429 24.9375 9.70536 28.9286 14.6429 28.9286C19.7946 28.9286 23.2143 25.3125 23.2143 20.2143C23.2143 19.6339 23.1607 19.1786 23.0714 18.7321H14.6429V21.8036H19.7232C19.5089 23.1071 18.1875 25.6518 14.6518 25.6518C11.6071 25.6518 9.125 23.125 9.125 20.0089C9.125 16.8839 11.6071 14.3661 14.6518 14.3661C16.3929 14.3661 17.5446 15.1071 18.2054 15.7411L20.625 13.4107C19.0625 11.9464 17.0536 11.0714 14.6429 11.0714C9.70536 11.0714 5.71429 15.0625 5.71429 20ZM31.6964 21.625H34.2857V19.0179H31.6964V16.4286H29.0893V19.0179H26.5V21.625H29.0893V24.2143H31.6964V21.625Z" fill="currentColor"/>
</svg>
