<svg width="40" height="40" viewBox="0 0 40 40" fill="none" xmlns="http://www.w3.org/2000/svg">
<path d="M40 20.1601V9C40 4.02944 35.9706 0 31 0H9C4.02944 0 0 4.02944 0 9V31C0 35.9706 4.02944 40 9 40H16.875C16.8767 40.0003 16.8783 39.9997 16.88 40V25.9438H11.8V20.1205H16.88V15.6827C16.88 10.6426 19.86 7.87149 24.44 7.87149C26.62 7.87149 28.9 8.25301 28.9 8.25301V13.2129H26.38C23.9 13.2129 23.12 14.759 23.12 16.3454V20.1205H28.68L27.78 25.9438H23.12V40C23.1216 39.9997 23.1233 39.9995 23.125 39.9992L31 40C35.9706 40 40 35.9706 40 31V20.1711C40 20.1674 40 20.1637 40 20.1601Z" fill="currentColor"/>
</svg>
