<svg width="1440" height="1024" viewBox="0 0 1440 1024" fill="none" xmlns="http://www.w3.org/2000/svg">
<g clip-path="url(#clip0)">
<path d="M-125.719 968.002C-110.302 977.328 -92.9829 985.829 -74.9189 995C-5.97751 1030.22 74.3983 1034.03 150.278 1036.91L513.639 1050.83C574.846 1053.14 638.34 1055.08 694.691 1031.09C727.187 1016.87 789.271 1006.97 812.057 979.738C848.519 937.128 839.46 870.495 851.691 815.288C871.682 724.968 865.336 631.248 866.852 538.764C867.725 484.897 872.487 471.217 863.263 418.123C854.038 365.028 855.457 369.413 812.057 337.623C753.702 294.91 648.763 279.623 588.263 253.623C511.139 220.479 449.015 147.472 384.904 115.657C317.736 82.3728 241.24 64.5458 166.209 71.6817C90.3554 78.9465 35.3667 113.57 -7.13388 177.124C-36.4502 220.98 -54.2747 271.534 -58.9619 324.119C-64.4351 385.947 -51.5359 448.753 -60.6836 510.194C-78.6705 630.578 -177.958 728.369 -188.982 849.602C-194.763 912.898 -166.755 943.245 -125.719 968.002Z" fill="#BDE1CA"/>
<path d="M-229 976C-209.857 984.425 -196.148 998.277 -173.719 1006.56C-88.1198 1038.38 19.4708 1035.65 113.684 1038.26L564.843 1050.83C640.839 1052.92 719.675 1054.67 789.641 1033C829.989 1020.15 865.708 1000.65 894 976.047L-229 976Z" fill="#5DB07B"/>
<path d="M401.462 344.732C401.882 355.274 400.436 365.723 399.97 376.335C399.61 380.259 399.998 384.216 401.112 387.996C403.724 395.273 410.811 399.821 417.433 403.833C421.63 406.375 426.409 410.013 425.826 414.911C425.423 416.757 424.433 418.423 423.003 419.659C421.574 420.895 419.784 421.635 417.899 421.768C414.12 421.937 410.355 421.201 406.918 419.622C399.883 417.333 393.436 413.528 388.032 408.474C377.471 397.489 377.121 380.486 377.914 365.256C378.59 352.475 379.686 338.435 386.167 327.053C396.612 308.862 401.089 335.613 401.462 344.732Z" fill="#5DB07B"/>
<path d="M401.462 344.732C401.882 355.274 400.436 365.723 399.97 376.335C399.61 380.259 399.998 384.216 401.112 387.996C403.724 395.273 410.811 399.821 417.433 403.833C421.63 406.375 426.409 410.013 425.826 414.911C425.423 416.757 424.433 418.423 423.003 419.659C421.574 420.895 419.784 421.635 417.899 421.768C414.12 421.937 410.355 421.201 406.918 419.622C399.883 417.333 393.436 413.528 388.032 408.474C377.471 397.489 377.121 380.486 377.914 365.256C378.59 352.475 379.686 338.435 386.167 327.053C396.612 308.862 401.089 335.613 401.462 344.732Z" fill="#278147"/>
<path d="M436.212 393.704C436.566 397.154 439.976 401.702 441.993 403.65C458.699 386.169 455.277 359.684 445.831 351.057C434.613 358.988 432.551 375.763 435.499 387.375L440.369 397.111L436.212 393.704Z" fill="#5DB07B"/>
<path d="M436.212 393.704C436.566 397.154 439.976 401.702 441.993 403.65C458.699 386.169 455.277 359.684 445.831 351.057C434.613 358.988 432.551 375.763 435.499 387.375L440.369 397.111L436.212 393.704Z" fill="url(#paint0_linear)"/>
<path d="M432.611 407.937C437.437 406.258 442.567 403.972 447.393 405.605C447.854 405.708 448.283 405.921 448.644 406.226C449.006 406.53 449.288 406.917 449.468 407.354C449.569 407.996 449.48 408.652 449.211 409.243L443.616 425.826C443.363 426.651 442.994 427.437 442.52 428.158C441.409 429.425 439.908 430.287 438.253 430.607C432.178 432.286 425.726 431.984 419.834 429.744C413.726 427.412 413.19 419.902 416.43 414.631C419.671 409.36 427.015 409.873 432.611 407.937Z" fill="#E4B387"/>
<path d="M443.989 377.967C443.116 378.437 443.305 382.226 443.116 385.66C442.533 396.252 442.684 402.62 440.515 412.625C438.347 422.631 431.679 431.494 430.443 441.709C435.363 431.634 439.769 422.071 442.264 411.016C442.707 408.287 446.391 377.967 443.989 377.967Z" fill="#3B3E3C"/>
<path d="M401.858 473.708C401.858 473.708 448.162 529.03 417.293 576.445C386.424 623.861 331.656 659.125 310.813 694.996C289.969 730.867 327.786 769.769 340.912 777.046C354.039 784.323 473.622 872.507 399.55 963.07H149.542C149.542 963.07 68.5217 881.02 203.563 781.92C203.563 781.92 300.018 732.686 209.741 662.764C119.465 592.842 103.261 526.278 146.068 474.314L401.858 473.708Z" fill="#5DB07B"/>
<path d="M401.858 473.708C401.858 473.708 448.162 529.03 417.293 576.445C386.424 623.861 331.656 659.125 310.813 694.996C289.969 730.867 327.786 769.769 340.912 777.046C354.039 784.323 473.622 872.507 399.55 963.07H149.542C149.542 963.07 68.5217 881.02 203.563 781.92C203.563 781.92 300.018 732.686 209.741 662.764C119.465 592.842 103.261 526.278 146.068 474.314L401.858 473.708Z" fill="url(#paint1_linear)"/>
<path d="M131.892 451.062H421.28C427.821 451.062 433.124 456.366 433.124 462.91V462.933C433.124 469.476 427.821 474.781 421.28 474.781H131.892C125.351 474.781 120.048 469.476 120.048 462.933V462.91C120.048 456.366 125.351 451.062 131.892 451.062Z" fill="#5DB07B"/>
<path d="M131.892 964.003H421.28C427.821 964.003 433.124 969.307 433.124 975.851V975.874C433.124 982.417 427.821 987.722 421.28 987.722H131.892C125.351 987.722 120.048 982.417 120.048 975.874V975.851C120.048 969.307 125.351 964.003 131.892 964.003Z" fill="#5DB07B"/>
<path d="M131.892 451.062H421.28C427.821 451.062 433.124 456.366 433.124 462.91V462.933C433.124 469.476 427.821 474.781 421.28 474.781H131.892C125.351 474.781 120.048 469.476 120.048 462.933V462.91C120.048 456.366 125.351 451.062 131.892 451.062Z" fill="#278147"/>
<path d="M131.892 964.003H421.28C427.821 964.003 433.124 969.307 433.124 975.851V975.874C433.124 982.417 427.821 987.722 421.28 987.722H131.892C125.351 987.722 120.048 982.417 120.048 975.874V975.851C120.048 969.307 125.351 964.003 131.892 964.003Z" fill="#278147"/>
<path d="M170.642 837.103C213.006 814.479 353.176 810.724 379.779 830.106C354.948 797.22 320.838 777.862 320.838 777.862C287.264 756.872 249.074 775.11 249.074 775.11C249.074 775.11 200.509 799.972 170.642 837.103Z" fill="url(#paint2_linear)"/>
<path d="M171.528 961.25H381.038L389.128 953.974C413.05 913.019 407.174 876.845 391.46 848.064C388.015 841.84 384.119 835.877 379.802 830.222C353.2 810.724 213.029 814.479 170.666 837.219C166.33 842.572 162.431 848.266 159.008 854.245C156.745 858.196 154.766 862.303 153.086 866.536C132.196 919.316 171.528 961.25 171.528 961.25Z" fill="#5DB07B"/>
<path d="M158.938 854.128C168.941 890.559 268.683 834.98 315.15 830.805C345.832 828.076 378.24 846.758 378.24 846.758C378.24 846.758 388.709 850.56 391.507 848.018C388.062 841.793 384.165 835.83 379.849 830.176C353.247 810.678 213.076 814.433 170.713 837.172C166.339 842.499 162.402 848.169 158.938 854.128Z" fill="#278147"/>
<path d="M380.268 606.229C380.268 606.229 308.504 662.764 303.865 673.702C299.225 684.641 261.897 691.031 250.24 681.305C238.582 671.58 208.972 653.038 179.642 611.08C150.311 569.122 246.766 596.503 279.174 602.59C311.582 608.678 367.142 569.145 380.268 606.229Z" fill="#5DB07B"/>
<path d="M380.269 606.229C380.269 606.229 352.477 624.467 327.786 618.987C303.096 613.506 286.892 597.716 252.945 600.748C218.998 603.78 185.051 618.38 174.233 602.591C163.415 586.801 175.002 573.997 208.972 578.265C242.942 582.533 299.249 583.116 326.247 581.297C353.246 579.478 402.628 583.746 380.269 606.229Z" fill="#5DB07B"/>
<path d="M380.269 606.229C380.269 606.229 352.477 624.467 327.786 618.987C303.096 613.506 286.892 597.716 252.945 600.748C218.998 603.78 185.051 618.38 174.233 602.591C163.415 586.801 175.002 573.997 208.972 578.265C242.942 582.533 299.249 583.116 326.247 581.297C353.246 579.478 402.628 583.746 380.269 606.229Z" fill="url(#paint3_linear)"/>
<path d="M279.92 700.267C281.893 701.564 283.499 703.347 284.583 705.444C284.973 706.089 285.224 706.807 285.321 707.554C285.417 708.301 285.356 709.06 285.143 709.783C284.813 710.575 284.251 711.248 283.531 711.715C282.811 712.181 281.967 712.418 281.109 712.395C279.646 712.255 278.253 711.696 277.099 710.785C274.767 709.269 272.203 707.334 272.553 704.978C272.902 702.622 276.539 700.943 279.664 700.01" fill="#5DB07B"/>
<path d="M266.911 721.841C267.696 722.041 268.434 722.398 269.079 722.89C269.405 723.17 269.592 723.473 269.335 723.776C268.807 724.172 268.152 724.363 267.493 724.313C266.869 724.275 266.251 724.166 265.652 723.986C264.579 723.66 263.32 723.263 263.577 722.797C263.833 722.33 265.395 721.981 266.817 721.794" fill="#5DB07B"/>
<path d="M279.454 728.674C280.24 728.875 280.977 729.232 281.622 729.724C281.949 730.004 282.112 730.33 281.879 730.61C281.35 731.006 280.695 731.197 280.037 731.146C279.411 731.121 278.792 731.011 278.195 730.82C277.122 730.517 275.863 730.12 276.097 729.63C276.33 729.141 277.938 728.814 279.361 728.628" fill="#5DB07B"/>
<path d="M259.519 760.51C260.53 760.079 261.615 759.85 262.713 759.834C263.32 759.834 263.856 759.974 263.996 760.417C263.981 760.783 263.881 761.141 263.703 761.461C263.525 761.781 263.273 762.054 262.97 762.259C262.362 762.72 261.685 763.082 260.965 763.332C259.636 763.845 258.144 764.358 257.701 763.822C257.258 763.286 258.353 761.746 259.403 760.51" fill="#5DB07B"/>
<path d="M296.544 801.978C297.547 801.55 298.624 801.32 299.715 801.302C300.344 801.302 300.881 801.465 300.997 801.885C301.114 802.305 300.764 803.098 299.995 803.727C299.382 804.194 298.697 804.557 297.966 804.8C296.661 805.313 295.145 805.826 294.726 805.29C294.306 804.754 295.378 803.214 296.404 801.978" fill="#5DB07B"/>
<path d="M396.333 330.179C396.687 323.977 395.053 317.825 391.67 312.617C388.289 307.452 383.766 303.135 378.45 299.999C375.548 297.905 372.023 296.853 368.448 297.014C365.487 297.387 355.228 286.238 352.827 288.011C346.066 293.025 347.418 311.567 341.682 317.748C340.178 326.039 339.243 334.424 338.884 342.843L335.457 406.421C334.898 416.94 334.618 428.392 340.913 436.741C356.766 430.98 372.192 424.106 387.077 416.17C388.793 415.557 390.242 414.365 391.174 412.798C392.106 411.231 392.463 409.389 392.183 407.588C392.812 391.775 392.812 375.915 392.183 360.102C391.903 351.612 395.633 338.668 396.333 330.179Z" fill="#5DB07B"/>
<path d="M396.333 330.179C396.687 323.977 395.053 317.825 391.67 312.617C388.289 307.452 383.766 303.135 378.45 299.999C375.548 297.905 372.023 296.853 368.448 297.014C365.487 297.387 355.228 286.238 352.827 288.011C346.066 293.025 347.418 311.567 341.682 317.748C340.178 326.039 339.243 334.424 338.884 342.843L335.457 406.421C334.898 416.94 334.618 428.392 340.913 436.741C356.766 430.98 372.192 424.106 387.077 416.17C388.793 415.557 390.242 414.365 391.174 412.798C392.106 411.231 392.463 409.389 392.183 407.588C392.812 391.775 392.812 375.915 392.183 360.102C391.903 351.612 395.633 338.668 396.333 330.179Z" fill="url(#paint4_linear)"/>
<path d="M409.063 282.437V284.256C409.125 286.541 408.499 288.792 407.267 290.716C404.936 293.608 400.692 293.725 397.079 293.189C394.262 292.473 391.339 292.276 388.452 292.606C385.584 293.235 382.413 304.99 379.662 305.456C374.649 306.319 364.018 300.162 360.567 297.06C360.217 296.757 364.228 287.731 364.088 287.241C363.971 286.766 363.971 286.27 364.088 285.795L369.683 259.767C370.202 256.063 371.549 252.523 373.624 249.411C375.275 247.399 377.375 245.802 379.755 244.747C387.659 241.132 399.247 242.415 405.029 249.598C408.083 253.4 408.037 260 408.526 264.665C409.15 270.567 409.33 276.508 409.063 282.437Z" fill="#FFD1A9"/>
<path d="M367.841 464.472C383.276 474.431 400.902 480.308 418.319 486.069C422.609 487.492 427.645 488.845 431.445 486.559C433.593 485.049 435.293 482.986 436.365 480.588C443.219 467.574 460.356 463.702 451.939 451.645C448.372 446.513 428.158 429.698 423.168 425.989C413.283 418.643 402.931 411.086 390.783 409.057C385.078 408.229 379.283 408.229 373.577 409.057C362.549 410.386 334.734 414.631 337.065 428.788C339.397 442.945 356.673 457.195 367.841 464.472Z" fill="#3B3E3C"/>
<path d="M363.178 340.721C363.178 350.05 362.199 359.379 365.277 368.148C369.404 379.81 380.175 387.81 390.923 394.107C397.568 398.025 404.773 401.967 408.34 408.777C411.907 415.587 409.389 426.129 401.812 427.435C398.869 427.737 395.897 427.304 393.162 426.176C378.492 421.325 364.321 415.077 350.845 407.518C345.319 404.392 339.723 400.871 336.319 395.53C333.368 390.122 331.769 384.081 331.656 377.921C330.551 364.703 330.943 351.402 332.822 338.272C334.994 327.93 339.04 318.073 344.759 309.188C363.178 284.233 363.178 326.96 363.178 340.721Z" fill="#5DB07B"/>
<path d="M363.178 340.721C363.178 350.05 362.199 359.379 365.277 368.148C369.404 379.81 380.175 387.81 390.923 394.107C397.568 398.025 404.773 401.967 408.34 408.777C411.907 415.587 409.389 426.129 401.812 427.435C398.869 427.737 395.897 427.304 393.162 426.176C378.492 421.325 364.321 415.077 350.845 407.518C345.319 404.392 339.723 400.871 336.319 395.53C333.368 390.122 331.769 384.081 331.656 377.921C330.551 364.703 330.943 351.402 332.822 338.272C334.994 327.93 339.04 318.073 344.759 309.188C363.178 284.233 363.178 326.96 363.178 340.721Z" fill="url(#paint5_linear)"/>
<path d="M464.529 505.544L468.516 581.88C459.19 581.297 454.947 570.475 452.708 561.542C446.367 536.198 440.017 510.854 433.66 485.509C431.795 478 429.883 470.186 431.328 462.583C432.354 457.195 437.204 447.843 443.662 447.26C450.54 446.653 454.154 455.493 456.532 460.81C462.757 474.781 463.76 490.524 464.529 505.544Z" fill="#E4B387"/>
<path d="M450.657 510.698L447.952 587.081C438.836 585.681 435.455 574.533 433.963 565.437C429.86 539.642 425.749 513.839 421.63 488.028C420.417 480.378 419.298 472.449 421.303 464.985C422.795 459.714 428.438 450.828 434.919 450.805C441.914 450.805 444.642 459.901 446.577 465.428C451.566 479.819 451.193 495.771 450.657 510.698Z" fill="#FFD1A9"/>
<path d="M454.527 566.37L463.2 567C464.1 566.947 465 567.08 465.846 567.389C466.692 567.697 467.466 568.176 468.12 568.796C468.829 569.89 469.179 571.178 469.123 572.481C469.356 577.145 469.402 581.81 469.123 586.288C469.169 586.472 469.169 586.664 469.123 586.848C468.99 587.005 468.82 587.126 468.629 587.199C468.437 587.272 468.23 587.296 468.027 587.267C464.71 587.239 461.453 586.373 458.561 584.748C457.331 584.173 456.271 583.289 455.483 582.183C454.768 580.851 454.407 579.357 454.434 577.845C454.201 573.95 454.108 570.032 454.247 566.183L454.527 566.37Z" fill="#5DB07B"/>
<path d="M454.714 582.066C454.732 581.738 454.828 581.418 454.994 581.133C455.213 580.905 455.504 580.76 455.819 580.721C456.133 580.683 456.451 580.755 456.719 580.924C457.236 581.293 457.693 581.742 458.071 582.253C459.569 584.022 461.672 585.169 463.97 585.472C466.309 585.417 468.649 585.557 470.964 585.891C472.635 586.544 474.151 587.537 475.418 588.807L482.972 595.337C484.744 596.853 486.679 598.836 486.259 601.144C485.93 602.155 485.313 603.049 484.485 603.715C483.658 604.382 482.654 604.793 481.596 604.899C477.777 605.317 473.913 604.838 470.311 603.5C466.952 602.6 463.65 601.494 460.426 600.188C458.734 599.584 457.225 598.556 456.043 597.203C453.455 593.728 454.317 586.148 454.714 582.066Z" fill="#3B3E3C"/>
<path d="M433.707 567.396L442.45 568.073C443.353 568.022 444.256 568.156 445.105 568.464C445.955 568.773 446.733 569.251 447.393 569.868C448.081 570.971 448.422 572.255 448.372 573.553C448.629 578.218 448.652 582.883 448.489 587.361C448.486 587.56 448.446 587.758 448.372 587.944C448.241 588.095 448.074 588.21 447.887 588.279C447.699 588.349 447.497 588.369 447.3 588.34C443.973 588.326 440.706 587.459 437.81 585.821C436.581 585.256 435.52 584.379 434.733 583.279C434.045 581.937 433.693 580.449 433.707 578.941C433.443 575.023 433.373 571.136 433.497 567.28L433.707 567.396Z" fill="#5DB07B"/>
<path d="M433.893 583.023C433.896 582.687 433.984 582.358 434.15 582.066C434.374 581.836 434.671 581.691 434.99 581.657C435.31 581.623 435.631 581.702 435.898 581.88C436.414 582.244 436.864 582.693 437.227 583.209C438.729 584.969 440.832 586.108 443.126 586.404C445.466 586.368 447.804 586.516 450.121 586.848C451.797 587.491 453.321 588.476 454.597 589.74L462.151 596.27C463.9 597.809 465.835 599.792 465.439 602.077C465.107 603.087 464.49 603.978 463.662 604.645C462.835 605.311 461.832 605.724 460.776 605.832C456.949 606.263 453.074 605.784 449.468 604.433C446.106 603.54 442.804 602.434 439.582 601.121C437.896 600.519 436.394 599.491 435.222 598.136C432.634 594.661 433.497 587.151 433.893 583.023Z" fill="#3B3E3C"/>
<path d="M426.293 415.167C431.375 415.424 436.994 415.167 440.865 418.526C441.249 418.784 441.567 419.13 441.79 419.536C442.013 419.942 442.136 420.395 442.147 420.858C442.006 421.49 441.681 422.066 441.214 422.514L429.813 435.785C429.269 436.497 428.616 437.119 427.878 437.627C426.377 438.371 424.673 438.6 423.028 438.28C416.76 437.579 410.884 434.88 406.265 430.584C401.602 426.129 403.77 418.922 408.76 415.307C413.749 411.692 420.371 414.864 426.293 415.167Z" fill="#FFD1A9"/>
<path d="M352.198 231.461C337.545 238.018 327.352 252.283 322.393 267.542C317.228 283.416 315.412 302.742 301.148 311.41C294.733 315.322 286.899 316.147 280.105 319.326C273.818 322.427 268.654 327.412 265.334 333.587C262.014 339.762 260.702 346.82 261.582 353.777C262.913 362.92 270.88 377.655 273.019 386.64C277.236 404.36 267.139 418.545 277.703 433.365C286.073 445.071 312 445.5 325 429C330.871 421.548 334 414.5 336 398.5C337.25 388.5 339.739 382.856 346.399 381.847C349.711 381.361 353.102 382.379 356.372 382.13C364.055 381.506 369.663 373.998 371.044 366.405C372.425 358.812 370.634 351.039 369.258 343.468C367.361 332.768 366.517 321.406 370.417 311.331C375.296 298.965 386.97 289.592 389.355 276.514C390.756 268.766 389.355 269.596 394.999 262.697C399.5 257.197 395.311 241.349 390.439 235.365C382.337 225.491 362.351 226.94 352.198 231.461Z" fill="#3B3E3C"/>
<path d="M411.604 240.969C411.982 242.929 411.885 244.951 411.321 246.867C410.757 248.782 409.743 250.534 408.363 251.977C405.561 254.832 402.431 257.345 399.037 259.464C395.654 261.604 392.857 264.554 390.9 268.046C390.699 268.636 390.364 269.171 389.921 269.609C389.692 269.809 389.398 269.92 389.093 269.92C388.789 269.92 388.495 269.809 388.266 269.609C388.04 269.298 387.926 268.92 387.939 268.536C387.473 262.006 388.662 255.499 388.662 248.968C388.662 244.537 387.333 238.893 389.991 234.975C395.097 227.395 409.552 233.482 411.604 240.969Z" fill="#3B3E3C"/>
<path fill-rule="evenodd" clip-rule="evenodd" d="M942.504 549.085C1013.26 568.228 1106.52 542.033 1151.3 590.342C1196.56 639.171 1112.16 682.769 1115.69 735.931C1119.04 786.255 1204.89 848.282 1170.93 885.594C1137.25 922.586 1042.74 882.258 978.477 886.661C921.347 890.575 877.106 921.161 816.922 909.849C749.736 897.221 674.878 875.445 632.879 829.904C591.27 784.786 568.345 726.107 601.701 676.476C649.771 604.954 702.303 631.711 739.341 575.778C790.857 497.98 793.165 458.106 847.763 448.339C901.959 438.644 882.835 532.942 942.504 549.085Z" fill="#5DB07B"/>
<path fill-rule="evenodd" clip-rule="evenodd" d="M-197.893 108.322C-133.905 102.575 86.4282 75.9101 48.3618 110.112C-25.1455 176.156 -55.1737 222.746 -36.9592 277.124C-19.7174 328.599 78.4383 323.31 87.696 377.422C103.492 469.754 -28.4313 503.818 -80.2761 531.852C-126.365 556.775 -144.899 521.76 -197.893 531.852C-257.051 543.119 -324.824 538.499 -372.635 506.121C-420.003 474.043 -440.034 418.144 -442.899 365.934C-445.375 320.819 -401.488 286.409 -387.074 243.023C-371.88 197.29 -398.933 136.365 -356.62 106.237C-314.619 76.3321 -251.849 113.168 -197.893 108.322Z" fill="#5DB07B"/>
</g>
<path fill-rule="evenodd" clip-rule="evenodd" d="M640.261 -595.016C766.173 -588.413 896.383 -585.82 997.679 -545.374C1097.17 -505.651 1162.76 -443.671 1187.05 -376.692C1209.49 -314.835 1851.95 -161.272 1826.3 -98.9921C1797.82 -29.8065 1439.51 12.6914 1363.61 70.678C1270.45 141.858 987.807 222.335 658.403 163.71C469.804 130.144 492.897 13.0355 361.02 -38.0993C233.449 -87.565 16.5771 -49.4582 -72.9606 -119.875C-163.475 -191.06 -121.293 -293.387 -71.0962 -377.937C-21.553 -461.385 64.4951 -544.295 204.358 -586.976C336.322 -627.247 492.471 -602.766 640.261 -595.016Z" fill="#BDE1CA"/>
<defs>
<linearGradient id="paint0_linear" x1="444.004" y1="351.057" x2="444.004" y2="403.65" gradientUnits="userSpaceOnUse">
<stop stop-color="#278147"/>
<stop offset="1" stop-color="#5DB07B"/>
</linearGradient>
<linearGradient id="paint1_linear" x1="427.901" y1="718.389" x2="123.452" y2="718.389" gradientUnits="userSpaceOnUse">
<stop offset="0.02" stop-color="white" stop-opacity="0"/>
<stop offset="0.32" stop-color="white" stop-opacity="0.39"/>
<stop offset="0.68" stop-color="white" stop-opacity="0.68"/>
<stop offset="1" stop-color="white"/>
</linearGradient>
<linearGradient id="paint2_linear" x1="-56957.1" y1="19892.6" x2="-56793" y2="22356.7" gradientUnits="userSpaceOnUse">
<stop offset="0.02" stop-color="white" stop-opacity="0"/>
<stop offset="0.32" stop-color="white" stop-opacity="0.39"/>
<stop offset="0.68" stop-color="white" stop-opacity="0.68"/>
<stop offset="1" stop-color="white"/>
</linearGradient>
<linearGradient id="paint3_linear" x1="-57381.3" y1="9682.99" x2="-57371.5" y2="8156.24" gradientUnits="userSpaceOnUse">
<stop offset="0.01"/>
<stop offset="0.13" stop-opacity="0.69"/>
<stop offset="1" stop-opacity="0"/>
</linearGradient>
<linearGradient id="paint4_linear" x1="-14836.2" y1="15232.1" x2="-12129.6" y2="15273.9" gradientUnits="userSpaceOnUse">
<stop offset="0.01"/>
<stop offset="0.13" stop-opacity="0.69"/>
<stop offset="1" stop-opacity="0"/>
</linearGradient>
<linearGradient id="paint5_linear" x1="-20373.9" y1="13370.3" x2="-15719.2" y2="13222.9" gradientUnits="userSpaceOnUse">
<stop offset="0.01"/>
<stop offset="0.13" stop-opacity="0.69"/>
<stop offset="1" stop-opacity="0"/>
</linearGradient>
<clipPath id="clip0">
<rect width="1123" height="982" transform="matrix(-1 0 0 1 894 70)" fill="white"/>
</clipPath>
</defs>
</svg>
