<svg width="958" height="882" viewBox="0 0 958 882" fill="none" xmlns="http://www.w3.org/2000/svg">
<path fill-rule="evenodd" clip-rule="evenodd" d="M664.334 179.66C749.872 230.679 887.289 211.37 938.059 289.81C988.124 367.161 931.81 458.708 895.417 536.686C862.497 607.222 816.907 674.91 741.039 711.956C669.681 746.799 581.471 732.356 497.228 731.118C412.629 729.875 325.415 742.216 249.676 704.736C169.193 664.909 116.151 594.775 75.6572 522.504C31.1479 443.066 -18.7968 354.89 8.21238 273.786C35.1511 192.894 134.825 156.63 213.271 109.273C289.497 63.2569 361.675 -11.9996 456.981 2.8725C552.316 17.7491 582.732 130.989 664.334 179.66Z" fill="#BDE1CA"/>
<path d="M482.013 882C711.219 882 897.026 859.054 897.026 830.748C897.026 802.443 711.219 779.497 482.013 779.497C252.808 779.497 67 802.443 67 830.748C67 859.054 252.808 882 482.013 882Z" fill="#5DB07B"/>
<path d="M482.013 882C711.219 882 897.026 859.054 897.026 830.748C897.026 802.443 711.219 779.497 482.013 779.497C252.808 779.497 67 802.443 67 830.748C67 859.054 252.808 882 482.013 882Z" fill="#5DB07B"/>
<path d="M254.662 330.048C246.964 324.829 238.296 321.209 229.172 319.401C220.049 317.593 210.655 317.635 201.548 319.524C198.214 320.043 195.065 321.391 192.388 323.444C186.151 328.706 187.124 338.493 185.466 346.544C183.44 356.463 176.781 364.961 174.386 374.748C172.991 382.113 172.911 389.666 174.149 397.059C177.656 426.22 184.645 454.856 194.968 482.355L166.016 863.61C166.016 863.61 195.626 868.398 255.688 873.186L262.057 510.112L254.662 330.048Z" fill="#FFD1A9"/>
<path d="M221.735 552.391L260.083 707.408V483.828L243.028 433.155L221.735 552.391Z" fill="#E4B387"/>
<path d="M723.209 333.31C730.923 328.13 739.598 324.549 748.721 322.777C757.844 321.006 767.229 321.08 776.323 322.996C779.661 323.527 782.816 324.874 785.508 326.917C791.72 332.178 790.772 341.966 792.404 350.043C794.457 359.962 801.116 368.46 803.511 378.247C804.91 385.603 804.982 393.15 803.722 400.531C800.239 429.694 793.258 458.332 782.929 485.828L811.749 861.768C811.749 861.768 779.507 867.188 721.893 872.634L715.708 513.558L723.209 333.31Z" fill="#FFD1A9"/>
<path d="M761.057 541.315L747.45 611.167L718.471 674.179L715.918 537.053L761.057 541.315Z" fill="#E4B387"/>
<path d="M740.738 205.339H227.578C215.411 205.339 205.548 215.199 205.548 227.361V534.211C205.548 546.373 215.411 556.233 227.578 556.233H740.738C752.904 556.233 762.768 546.373 762.768 534.211V227.361C762.768 215.199 752.904 205.339 740.738 205.339Z" fill="#5DB07B"/>
<path d="M740.738 205.339H227.578C215.411 205.339 205.548 215.199 205.548 227.361V534.211C205.548 546.373 215.411 556.233 227.578 556.233H740.738C752.904 556.233 762.768 546.373 762.768 534.211V227.361C762.768 215.199 752.904 205.339 740.738 205.339Z" fill="#278147"/>
<path d="M740.738 191.264H227.578C215.411 191.264 205.548 201.123 205.548 213.285V520.136C205.548 532.298 215.411 542.157 227.578 542.157H740.738C752.905 542.157 762.768 532.298 762.768 520.136V213.285C762.768 201.123 752.905 191.264 740.738 191.264Z" fill="#5DB07B"/>
<path d="M229.157 325.443C231.416 326.567 233.34 328.263 234.737 330.363C235.894 332.83 236.461 335.532 236.395 338.256L237.185 355.226C237.542 358.018 237.208 360.855 236.211 363.487C235.68 364.786 234.708 365.856 233.467 366.51C232.225 367.165 230.793 367.361 229.421 367.065C230.428 370.368 230.754 373.841 230.379 377.274C230.003 380.707 228.934 384.027 227.236 387.034C226.385 388.301 225.72 389.683 225.262 391.139C225.043 392.895 225.132 394.675 225.525 396.401C226.122 400.657 225.804 404.992 224.592 409.116C223.38 413.24 221.303 417.058 218.498 420.316C217.64 421.384 216.586 422.277 215.392 422.947C213.826 423.614 212.146 423.972 210.444 424L202.706 424.657C202.323 424.783 201.917 424.819 201.518 424.763C201.12 424.707 200.739 424.56 200.406 424.334C200.073 424.108 199.796 423.808 199.597 423.458C199.398 423.108 199.282 422.717 199.258 422.316C193.383 403.686 190.713 384.194 191.362 364.671C191.666 354.833 192.847 345.043 194.889 335.415C196.126 329.784 198.547 321.207 204.575 318.918C212.365 316.182 222.42 321.576 229.157 325.443Z" fill="#FFD1A9"/>
<path d="M737.448 325.443C735.19 326.567 733.266 328.264 731.868 330.363C730.712 332.831 730.144 335.532 730.21 338.256L729.42 355.226C729.063 358.018 729.397 360.855 730.394 363.487C730.925 364.786 731.897 365.856 733.139 366.511C734.38 367.165 735.813 367.361 737.185 367.065C736.179 370.368 735.852 373.839 736.223 377.27C736.594 380.702 737.655 384.023 739.343 387.035C740.213 388.294 740.887 389.678 741.343 391.139C741.566 392.896 741.468 394.679 741.054 396.401C740.469 400.659 740.795 404.993 742.011 409.116C743.227 413.239 745.305 417.056 748.108 420.316C748.965 421.384 750.019 422.277 751.213 422.947C752.779 423.615 754.459 423.972 756.161 424L763.978 424.763C764.361 424.888 764.767 424.924 765.166 424.868C765.565 424.812 765.945 424.665 766.278 424.439C766.611 424.213 766.888 423.913 767.087 423.564C767.286 423.214 767.402 422.823 767.426 422.421C773.302 403.791 775.972 384.3 775.322 364.777C775.022 354.937 773.833 345.145 771.769 335.52C770.558 329.89 769.137 322.839 763.163 320.55C755.293 317.682 744.186 321.576 737.448 325.443Z" fill="#FFD1A9"/>
<path d="M338.461 420.264C336.928 420.264 335.548 419.727 334.321 418.654C333.248 417.427 332.711 416.047 332.711 414.514V388.524H261.181C259.495 388.524 258.115 387.987 257.041 386.914C255.968 385.84 255.431 384.46 255.431 382.774V360.924C255.431 358.624 256.275 356.247 257.961 353.794L324.891 263.174C327.038 260.567 329.875 259.264 333.401 259.264H366.981C368.668 259.264 370.048 259.8 371.121 260.874C372.195 261.947 372.731 263.327 372.731 265.014V354.254H392.971C394.811 354.254 396.268 354.867 397.341 356.094C398.415 357.167 398.951 358.47 398.951 360.004V382.774C398.951 384.46 398.415 385.84 397.341 386.914C396.268 387.987 394.888 388.524 393.201 388.524H372.731V414.514C372.731 416.047 372.195 417.427 371.121 418.654C370.048 419.727 368.668 420.264 366.981 420.264H338.461ZM333.631 355.864V301.584L294.991 355.864H333.631ZM483.963 422.564C462.803 422.41 446.78 416.814 435.893 405.774C425.006 394.58 419.103 379.937 418.183 361.844C417.876 353.564 417.723 346.204 417.723 339.764C417.723 333.17 417.876 325.58 418.183 316.994C418.796 305.494 421.556 295.297 426.463 286.404C431.523 277.357 438.883 270.227 448.543 265.014C458.203 259.647 470.01 256.964 483.963 256.964C504.663 257.117 520.61 262.714 531.803 273.754C542.997 284.794 549.053 299.207 549.973 316.994C550.28 325.58 550.433 333.17 550.433 339.764C550.433 346.204 550.28 353.564 549.973 361.844C548.9 379.937 542.92 394.58 532.033 405.774C521.147 416.814 505.123 422.41 483.963 422.564ZM483.963 389.214C491.477 389.214 497.073 386.76 500.753 381.854C504.587 376.794 506.656 369.74 506.963 360.694C507.27 356.247 507.423 349.117 507.423 339.304C507.423 329.49 507.27 322.514 506.963 318.374C506.656 309.634 504.663 302.734 500.983 297.674C497.303 292.614 491.63 290.007 483.963 289.854C476.45 290.007 470.777 292.614 466.943 297.674C463.263 302.734 461.27 309.634 460.963 318.374C460.81 322.514 460.733 329.49 460.733 339.304C460.733 349.117 460.81 356.247 460.963 360.694C461.73 379.707 469.397 389.214 483.963 389.214ZM651.791 420.264C650.258 420.264 648.878 419.727 647.651 418.654C646.578 417.427 646.041 416.047 646.041 414.514V388.524H574.511C572.825 388.524 571.445 387.987 570.371 386.914C569.298 385.84 568.761 384.46 568.761 382.774V360.924C568.761 358.624 569.605 356.247 571.291 353.794L638.221 263.174C640.368 260.567 643.205 259.264 646.731 259.264H680.311C681.998 259.264 683.378 259.8 684.451 260.874C685.525 261.947 686.061 263.327 686.061 265.014V354.254H706.301C708.141 354.254 709.598 354.867 710.671 356.094C711.745 357.167 712.281 358.47 712.281 360.004V382.774C712.281 384.46 711.745 385.84 710.671 386.914C709.598 387.987 708.218 388.524 706.531 388.524H686.061V414.514C686.061 416.047 685.525 417.427 684.451 418.654C683.378 419.727 681.998 420.264 680.311 420.264H651.791ZM646.961 355.864V301.584L608.321 355.864H646.961Z" fill="white"/>
<path d="M278.594 489.691C274.781 489.691 271.794 488.771 269.634 486.931C267.501 485.064 266.367 482.371 266.234 478.851C266.207 478.131 266.194 476.957 266.194 475.331C266.194 473.677 266.207 472.477 266.234 471.731C266.367 468.264 267.527 465.597 269.714 463.731C271.901 461.837 274.861 460.891 278.594 460.891C280.941 460.891 283.047 461.291 284.914 462.091C286.781 462.864 288.247 463.984 289.314 465.451C290.407 466.891 290.967 468.584 290.994 470.531V470.611C290.994 470.824 290.901 471.011 290.714 471.171C290.554 471.304 290.367 471.371 290.154 471.371H284.754C284.407 471.371 284.141 471.304 283.954 471.171C283.767 471.011 283.607 470.731 283.474 470.331C283.101 468.971 282.514 468.024 281.714 467.491C280.914 466.931 279.861 466.651 278.554 466.651C275.407 466.651 273.781 468.411 273.674 471.931C273.647 472.651 273.634 473.757 273.634 475.251C273.634 476.744 273.647 477.877 273.674 478.651C273.781 482.171 275.407 483.931 278.554 483.931C279.861 483.931 280.927 483.651 281.754 483.091C282.581 482.504 283.154 481.557 283.474 480.251C283.581 479.851 283.727 479.584 283.914 479.451C284.101 479.291 284.381 479.211 284.754 479.211H290.154C290.394 479.211 290.594 479.291 290.754 479.451C290.941 479.611 291.021 479.811 290.994 480.051C290.967 481.997 290.407 483.704 289.314 485.171C288.247 486.611 286.781 487.731 284.914 488.531C283.047 489.304 280.941 489.691 278.594 489.691ZM301.04 489.291C300.773 489.291 300.533 489.197 300.32 489.011C300.133 488.797 300.04 488.557 300.04 488.291V473.731H293.96C293.693 473.731 293.453 473.637 293.24 473.451C293.053 473.237 292.96 472.997 292.96 472.731V469.491C292.96 469.197 293.053 468.957 293.24 468.771C293.453 468.584 293.693 468.491 293.96 468.491H312.76C313.053 468.491 313.293 468.584 313.48 468.771C313.667 468.957 313.76 469.197 313.76 469.491V472.731C313.76 472.997 313.667 473.237 313.48 473.451C313.293 473.637 313.053 473.731 312.76 473.731H306.68V488.291C306.68 488.557 306.587 488.797 306.4 489.011C306.213 489.197 305.973 489.291 305.68 489.291H301.04ZM317.674 496.891C317.407 496.891 317.167 496.797 316.954 496.611C316.767 496.424 316.674 496.184 316.674 495.891V469.491C316.674 469.197 316.767 468.957 316.954 468.771C317.167 468.584 317.407 468.491 317.674 468.491H322.194C322.487 468.491 322.727 468.584 322.914 468.771C323.101 468.957 323.194 469.197 323.194 469.491V470.931C324.634 469.037 326.701 468.091 329.394 468.091C332.007 468.091 334.047 468.904 335.514 470.531C336.981 472.157 337.781 474.451 337.914 477.411C337.941 477.757 337.954 478.251 337.954 478.891C337.954 479.531 337.941 480.024 337.914 480.371C337.807 483.251 337.007 485.531 335.514 487.211C334.021 488.864 331.981 489.691 329.394 489.691C326.781 489.691 324.834 488.797 323.554 487.011V495.891C323.554 496.184 323.461 496.424 323.274 496.611C323.087 496.797 322.847 496.891 322.554 496.891H317.674ZM327.234 484.331C328.487 484.331 329.381 483.957 329.914 483.211C330.474 482.464 330.794 481.437 330.874 480.131C330.927 479.597 330.954 479.184 330.954 478.891C330.954 478.597 330.927 478.184 330.874 477.651C330.794 476.344 330.474 475.317 329.914 474.571C329.381 473.824 328.487 473.451 327.234 473.451C326.007 473.451 325.101 473.837 324.514 474.611C323.954 475.357 323.634 476.331 323.554 477.531L323.514 479.011L323.554 480.531C323.607 481.624 323.941 482.531 324.554 483.251C325.167 483.971 326.061 484.331 327.234 484.331ZM348.148 489.691C346.735 489.691 345.442 489.424 344.268 488.891C343.122 488.331 342.215 487.584 341.548 486.651C340.908 485.691 340.588 484.637 340.588 483.491C340.588 481.651 341.335 480.171 342.828 479.051C344.348 477.931 346.428 477.157 349.068 476.731L354.068 475.971V475.411C354.068 474.397 353.855 473.651 353.428 473.171C353.002 472.691 352.282 472.451 351.268 472.451C350.655 472.451 350.148 472.557 349.748 472.771C349.348 472.984 348.935 473.277 348.508 473.651C348.135 473.971 347.855 474.184 347.668 474.291C347.588 474.504 347.442 474.611 347.228 474.611H342.868C342.602 474.611 342.375 474.531 342.188 474.371C342.028 474.184 341.962 473.971 341.988 473.731C342.015 473.011 342.362 472.211 343.028 471.331C343.722 470.451 344.762 469.691 346.148 469.051C347.562 468.411 349.295 468.091 351.348 468.091C354.628 468.091 357.055 468.824 358.628 470.291C360.202 471.731 360.988 473.677 360.988 476.131V488.291C360.988 488.557 360.895 488.797 360.708 489.011C360.522 489.197 360.282 489.291 359.988 489.291H355.348C355.082 489.291 354.842 489.197 354.628 489.011C354.442 488.797 354.348 488.557 354.348 488.291V486.891C353.762 487.717 352.935 488.397 351.868 488.931C350.828 489.437 349.588 489.691 348.148 489.691ZM350.028 485.131C351.255 485.131 352.242 484.731 352.988 483.931C353.762 483.131 354.148 481.957 354.148 480.411V479.851L350.748 480.451C348.348 480.877 347.148 481.717 347.148 482.971C347.148 483.637 347.428 484.171 347.988 484.571C348.548 484.944 349.228 485.131 350.028 485.131ZM366.502 489.291C366.209 489.291 365.969 489.197 365.782 489.011C365.595 488.824 365.502 488.584 365.502 488.291V469.491C365.502 469.197 365.595 468.957 365.782 468.771C365.969 468.584 366.209 468.491 366.502 468.491H371.222C371.515 468.491 371.755 468.584 371.942 468.771C372.129 468.957 372.222 469.197 372.222 469.491V476.131H379.422V469.491C379.422 469.197 379.515 468.957 379.702 468.771C379.889 468.584 380.129 468.491 380.422 468.491H385.142C385.435 468.491 385.675 468.584 385.862 468.771C386.049 468.957 386.142 469.197 386.142 469.491V488.291C386.142 488.557 386.049 488.797 385.862 489.011C385.675 489.197 385.435 489.291 385.142 489.291H380.422C380.129 489.291 379.889 489.197 379.702 489.011C379.515 488.824 379.422 488.584 379.422 488.291V481.371H372.222V488.291C372.222 488.557 372.129 488.797 371.942 489.011C371.755 489.197 371.515 489.291 371.222 489.291H366.502ZM411.21 468.491C411.477 468.491 411.703 468.584 411.89 468.771C412.077 468.957 412.17 469.184 412.17 469.451V488.291C412.17 488.557 412.077 488.797 411.89 489.011C411.703 489.197 411.463 489.291 411.17 489.291H406.45C406.183 489.291 405.943 489.197 405.73 489.011C405.543 488.797 405.45 488.557 405.45 488.291V477.091L397.33 488.651C397.037 489.077 396.663 489.291 396.21 489.291H391.97C391.703 489.291 391.477 489.197 391.29 489.011C391.103 488.824 391.01 488.597 391.01 488.331V469.491C391.01 469.197 391.103 468.957 391.29 468.771C391.477 468.584 391.717 468.491 392.01 468.491H396.73C397.023 468.491 397.263 468.584 397.45 468.771C397.637 468.957 397.73 469.197 397.73 469.491V480.651L405.81 469.131C406.103 468.704 406.477 468.491 406.93 468.491H411.21ZM433.838 494.011C433.544 494.011 433.304 493.904 433.118 493.691C432.931 493.504 432.838 493.264 432.838 492.971V489.291H417.518C417.224 489.291 416.984 489.197 416.798 489.011C416.611 488.824 416.518 488.584 416.518 488.291V469.491C416.518 469.197 416.611 468.957 416.798 468.771C416.984 468.584 417.224 468.491 417.518 468.491H422.238C422.531 468.491 422.771 468.584 422.958 468.771C423.144 468.957 423.238 469.197 423.238 469.491V484.051H430.118V469.491C430.118 469.197 430.211 468.957 430.398 468.771C430.611 468.584 430.851 468.491 431.118 468.491H435.838C436.131 468.491 436.371 468.584 436.558 468.771C436.771 468.957 436.878 469.197 436.878 469.491L436.838 484.051H438.558C438.851 484.051 439.091 484.144 439.278 484.331C439.464 484.517 439.558 484.757 439.558 485.051V492.971C439.558 493.264 439.464 493.504 439.278 493.691C439.091 493.904 438.851 494.011 438.558 494.011H433.838ZM449.008 489.691C447.594 489.691 446.301 489.424 445.128 488.891C443.981 488.331 443.074 487.584 442.408 486.651C441.768 485.691 441.448 484.637 441.448 483.491C441.448 481.651 442.194 480.171 443.688 479.051C445.208 477.931 447.288 477.157 449.928 476.731L454.928 475.971V475.411C454.928 474.397 454.714 473.651 454.288 473.171C453.861 472.691 453.141 472.451 452.128 472.451C451.514 472.451 451.008 472.557 450.608 472.771C450.208 472.984 449.794 473.277 449.368 473.651C448.994 473.971 448.714 474.184 448.528 474.291C448.448 474.504 448.301 474.611 448.088 474.611H443.728C443.461 474.611 443.234 474.531 443.048 474.371C442.888 474.184 442.821 473.971 442.848 473.731C442.874 473.011 443.221 472.211 443.888 471.331C444.581 470.451 445.621 469.691 447.008 469.051C448.421 468.411 450.154 468.091 452.208 468.091C455.488 468.091 457.914 468.824 459.488 470.291C461.061 471.731 461.848 473.677 461.848 476.131V488.291C461.848 488.557 461.754 488.797 461.568 489.011C461.381 489.197 461.141 489.291 460.848 489.291H456.208C455.941 489.291 455.701 489.197 455.488 489.011C455.301 488.797 455.208 488.557 455.208 488.291V486.891C454.621 487.717 453.794 488.397 452.728 488.931C451.688 489.437 450.448 489.691 449.008 489.691ZM450.888 485.131C452.114 485.131 453.101 484.731 453.848 483.931C454.621 483.131 455.008 481.957 455.008 480.411V479.851L451.608 480.451C449.208 480.877 448.008 481.717 448.008 482.971C448.008 483.637 448.288 484.171 448.848 484.571C449.408 484.944 450.088 485.131 450.888 485.131ZM475.877 489.291C475.584 489.291 475.344 489.197 475.157 489.011C474.97 488.824 474.877 488.584 474.877 488.291V469.491C474.877 469.197 474.97 468.957 475.157 468.771C475.344 468.584 475.584 468.491 475.877 468.491H480.597C480.89 468.491 481.13 468.584 481.317 468.771C481.504 468.957 481.597 469.197 481.597 469.491V476.131H488.797V469.491C488.797 469.197 488.89 468.957 489.077 468.771C489.264 468.584 489.504 468.491 489.797 468.491H494.517C494.81 468.491 495.05 468.584 495.237 468.771C495.424 468.957 495.517 469.197 495.517 469.491V488.291C495.517 488.557 495.424 488.797 495.237 489.011C495.05 489.197 494.81 489.291 494.517 489.291H489.797C489.504 489.291 489.264 489.197 489.077 489.011C488.89 488.824 488.797 488.584 488.797 488.291V481.371H481.597V488.291C481.597 488.557 481.504 488.797 481.317 489.011C481.13 489.197 480.89 489.291 480.597 489.291H475.877ZM509.985 489.691C506.785 489.691 504.265 488.824 502.425 487.091C500.585 485.357 499.625 482.837 499.545 479.531V478.131C499.652 474.984 500.625 472.531 502.465 470.771C504.332 468.984 506.825 468.091 509.945 468.091C512.212 468.091 514.118 468.557 515.665 469.491C517.238 470.397 518.412 471.651 519.185 473.251C519.985 474.851 520.385 476.691 520.385 478.771V479.731C520.385 479.997 520.292 480.237 520.105 480.451C519.918 480.637 519.678 480.731 519.385 480.731H506.585V481.011C506.638 482.264 506.945 483.277 507.505 484.051C508.065 484.824 508.878 485.211 509.945 485.211C510.612 485.211 511.158 485.077 511.585 484.811C512.012 484.517 512.398 484.171 512.745 483.771C512.985 483.477 513.172 483.304 513.305 483.251C513.465 483.171 513.705 483.131 514.025 483.131H518.985C519.225 483.131 519.425 483.211 519.585 483.371C519.772 483.504 519.865 483.691 519.865 483.931C519.865 484.624 519.465 485.424 518.665 486.331C517.892 487.237 516.758 488.024 515.265 488.691C513.772 489.357 512.012 489.691 509.985 489.691ZM513.345 476.771V476.691C513.345 475.384 513.038 474.357 512.425 473.611C511.838 472.837 511.012 472.451 509.945 472.451C508.905 472.451 508.078 472.837 507.465 473.611C506.878 474.357 506.585 475.384 506.585 476.691V476.771H513.345ZM533.65 489.291C533.357 489.291 533.117 489.197 532.93 489.011C532.744 488.824 532.65 488.584 532.65 488.291V469.491C532.65 469.197 532.744 468.957 532.93 468.771C533.117 468.584 533.357 468.491 533.65 468.491H538.37C538.664 468.491 538.904 468.584 539.09 468.771C539.277 468.957 539.37 469.197 539.37 469.491V476.131H546.57V469.491C546.57 469.197 546.664 468.957 546.85 468.771C547.037 468.584 547.277 468.491 547.57 468.491H552.29C552.584 468.491 552.824 468.584 553.01 468.771C553.197 468.957 553.29 469.197 553.29 469.491V488.291C553.29 488.557 553.197 488.797 553.01 489.011C552.824 489.197 552.584 489.291 552.29 489.291H547.57C547.277 489.291 547.037 489.197 546.85 489.011C546.664 488.824 546.57 488.584 546.57 488.291V481.371H539.37V488.291C539.37 488.557 539.277 488.797 539.09 489.011C538.904 489.197 538.664 489.291 538.37 489.291H533.65ZM564.398 489.691C562.985 489.691 561.692 489.424 560.518 488.891C559.372 488.331 558.465 487.584 557.798 486.651C557.158 485.691 556.838 484.637 556.838 483.491C556.838 481.651 557.585 480.171 559.078 479.051C560.598 477.931 562.678 477.157 565.318 476.731L570.318 475.971V475.411C570.318 474.397 570.105 473.651 569.678 473.171C569.252 472.691 568.532 472.451 567.518 472.451C566.905 472.451 566.398 472.557 565.998 472.771C565.598 472.984 565.185 473.277 564.758 473.651C564.385 473.971 564.105 474.184 563.918 474.291C563.838 474.504 563.692 474.611 563.478 474.611H559.118C558.852 474.611 558.625 474.531 558.438 474.371C558.278 474.184 558.212 473.971 558.238 473.731C558.265 473.011 558.612 472.211 559.278 471.331C559.972 470.451 561.012 469.691 562.398 469.051C563.812 468.411 565.545 468.091 567.598 468.091C570.878 468.091 573.305 468.824 574.878 470.291C576.452 471.731 577.238 473.677 577.238 476.131V488.291C577.238 488.557 577.145 488.797 576.958 489.011C576.772 489.197 576.532 489.291 576.238 489.291H571.598C571.332 489.291 571.092 489.197 570.878 489.011C570.692 488.797 570.598 488.557 570.598 488.291V486.891C570.012 487.717 569.185 488.397 568.118 488.931C567.078 489.437 565.838 489.691 564.398 489.691ZM566.278 485.131C567.505 485.131 568.492 484.731 569.238 483.931C570.012 483.131 570.398 481.957 570.398 480.411V479.851L566.998 480.451C564.598 480.877 563.398 481.717 563.398 482.971C563.398 483.637 563.678 484.171 564.238 484.571C564.798 484.944 565.478 485.131 566.278 485.131ZM601.952 468.491C602.219 468.491 602.445 468.584 602.632 468.771C602.819 468.957 602.912 469.184 602.912 469.451V488.291C602.912 488.557 602.819 488.797 602.632 489.011C602.445 489.197 602.205 489.291 601.912 489.291H597.192C596.925 489.291 596.685 489.197 596.472 489.011C596.285 488.797 596.192 488.557 596.192 488.291V477.091L588.072 488.651C587.779 489.077 587.405 489.291 586.952 489.291H582.712C582.445 489.291 582.219 489.197 582.032 489.011C581.845 488.824 581.752 488.597 581.752 488.331V469.491C581.752 469.197 581.845 468.957 582.032 468.771C582.219 468.584 582.459 468.491 582.752 468.491H587.472C587.765 468.491 588.005 468.584 588.192 468.771C588.379 468.957 588.472 469.197 588.472 469.491V480.651L596.552 469.131C596.845 468.704 597.219 468.491 597.672 468.491H601.952ZM592.712 465.771C590.312 465.771 588.539 465.251 587.392 464.211C586.245 463.144 585.672 461.757 585.672 460.051C585.672 459.837 585.739 459.664 585.872 459.531C586.005 459.371 586.192 459.291 586.432 459.291H589.632C589.872 459.291 590.059 459.371 590.192 459.531C590.325 459.664 590.392 459.837 590.392 460.051C590.392 461.464 591.165 462.171 592.712 462.171C594.232 462.171 594.992 461.464 594.992 460.051C594.992 459.837 595.059 459.664 595.192 459.531C595.325 459.371 595.512 459.291 595.752 459.291H598.952C599.192 459.291 599.379 459.371 599.512 459.531C599.645 459.664 599.712 459.837 599.712 460.051C599.712 461.757 599.139 463.144 597.992 464.211C596.845 465.251 595.085 465.771 592.712 465.771ZM606.82 493.691C606.553 493.691 606.313 493.597 606.1 493.411C605.913 493.224 605.82 492.984 605.82 492.691V485.051C605.82 484.757 605.913 484.517 606.1 484.331C606.313 484.144 606.553 484.051 606.82 484.051H607.22C608.207 484.024 608.887 483.291 609.26 481.851C609.66 480.411 609.86 478.171 609.86 475.131V469.491C609.86 469.197 609.953 468.957 610.14 468.771C610.353 468.584 610.593 468.491 610.86 468.491H626.58C626.873 468.491 627.113 468.584 627.3 468.771C627.513 468.957 627.62 469.197 627.62 469.491V484.011H629.3C629.593 484.011 629.833 484.104 630.02 484.291C630.207 484.477 630.3 484.717 630.3 485.011V492.691C630.3 492.984 630.207 493.224 630.02 493.411C629.833 493.597 629.593 493.691 629.3 493.691H624.58C624.313 493.691 624.073 493.597 623.86 493.411C623.673 493.224 623.58 492.984 623.58 492.691V489.291H612.58V492.691C612.58 492.984 612.487 493.224 612.3 493.411C612.113 493.597 611.873 493.691 611.58 493.691H606.82ZM620.86 484.011V473.731H616.3V475.851C616.3 479.691 615.82 482.424 614.86 484.051L620.86 484.011ZM643.11 489.691C639.91 489.691 637.39 488.824 635.55 487.091C633.71 485.357 632.75 482.837 632.67 479.531V478.131C632.777 474.984 633.75 472.531 635.59 470.771C637.457 468.984 639.95 468.091 643.07 468.091C645.337 468.091 647.243 468.557 648.79 469.491C650.363 470.397 651.537 471.651 652.31 473.251C653.11 474.851 653.51 476.691 653.51 478.771V479.731C653.51 479.997 653.417 480.237 653.23 480.451C653.043 480.637 652.803 480.731 652.51 480.731H639.71V481.011C639.763 482.264 640.07 483.277 640.63 484.051C641.19 484.824 642.003 485.211 643.07 485.211C643.737 485.211 644.283 485.077 644.71 484.811C645.137 484.517 645.523 484.171 645.87 483.771C646.11 483.477 646.297 483.304 646.43 483.251C646.59 483.171 646.83 483.131 647.15 483.131H652.11C652.35 483.131 652.55 483.211 652.71 483.371C652.897 483.504 652.99 483.691 652.99 483.931C652.99 484.624 652.59 485.424 651.79 486.331C651.017 487.237 649.883 488.024 648.39 488.691C646.897 489.357 645.137 489.691 643.11 489.691ZM646.47 476.771V476.691C646.47 475.384 646.163 474.357 645.55 473.611C644.963 472.837 644.137 472.451 643.07 472.451C642.03 472.451 641.203 472.837 640.59 473.611C640.003 474.357 639.71 475.384 639.71 476.691V476.771H646.47ZM658.26 489.291C657.967 489.291 657.727 489.197 657.54 489.011C657.353 488.824 657.26 488.584 657.26 488.291V469.491C657.26 469.197 657.353 468.957 657.54 468.771C657.727 468.584 657.967 468.491 658.26 468.491H662.98C663.273 468.491 663.513 468.584 663.7 468.771C663.887 468.957 663.98 469.197 663.98 469.491V476.131H671.18V469.491C671.18 469.197 671.273 468.957 671.46 468.771C671.647 468.584 671.887 468.491 672.18 468.491H676.9C677.193 468.491 677.433 468.584 677.62 468.771C677.807 468.957 677.9 469.197 677.9 469.491V488.291C677.9 488.557 677.807 488.797 677.62 489.011C677.433 489.197 677.193 489.291 676.9 489.291H672.18C671.887 489.291 671.647 489.197 671.46 489.011C671.273 488.824 671.18 488.584 671.18 488.291V481.371H663.98V488.291C663.98 488.557 663.887 488.797 663.7 489.011C663.513 489.197 663.273 489.291 662.98 489.291H658.26ZM689.008 489.691C687.594 489.691 686.301 489.424 685.128 488.891C683.981 488.331 683.074 487.584 682.408 486.651C681.768 485.691 681.448 484.637 681.448 483.491C681.448 481.651 682.194 480.171 683.688 479.051C685.208 477.931 687.288 477.157 689.928 476.731L694.928 475.971V475.411C694.928 474.397 694.714 473.651 694.288 473.171C693.861 472.691 693.141 472.451 692.128 472.451C691.514 472.451 691.008 472.557 690.608 472.771C690.208 472.984 689.794 473.277 689.368 473.651C688.994 473.971 688.714 474.184 688.528 474.291C688.448 474.504 688.301 474.611 688.088 474.611H683.728C683.461 474.611 683.234 474.531 683.048 474.371C682.888 474.184 682.821 473.971 682.848 473.731C682.874 473.011 683.221 472.211 683.888 471.331C684.581 470.451 685.621 469.691 687.008 469.051C688.421 468.411 690.154 468.091 692.208 468.091C695.488 468.091 697.914 468.824 699.488 470.291C701.061 471.731 701.848 473.677 701.848 476.131V488.291C701.848 488.557 701.754 488.797 701.568 489.011C701.381 489.197 701.141 489.291 700.848 489.291H696.208C695.941 489.291 695.701 489.197 695.488 489.011C695.301 488.797 695.208 488.557 695.208 488.291V486.891C694.621 487.717 693.794 488.397 692.728 488.931C691.688 489.437 690.448 489.691 689.008 489.691ZM690.888 485.131C692.114 485.131 693.101 484.731 693.848 483.931C694.621 483.131 695.008 481.957 695.008 480.411V479.851L691.608 480.451C689.208 480.877 688.008 481.717 688.008 482.971C688.008 483.637 688.288 484.171 688.848 484.571C689.408 484.944 690.088 485.131 690.888 485.131Z" fill="white"/>
</svg>
