<svg width="32" height="28" viewBox="0 0 32 28" fill="none" xmlns="http://www.w3.org/2000/svg">
<path fill-rule="evenodd" clip-rule="evenodd" d="M31.5312 15.2455C31.2723 15.2455 31.0625 15.4553 31.0625 15.7142V22.0415C31.0625 22.3572 30.8057 22.6141 30.49 22.6141H28.4054C28.1004 22.6141 27.8522 22.8622 27.8522 23.1672V26.177L22.8207 22.7112C22.7281 22.6477 22.6198 22.6141 22.5076 22.6141H13.9458C13.6301 22.6141 13.3733 22.3573 13.3733 22.0415V18.2532H15.1641C15.423 18.2532 15.6328 18.0433 15.6328 17.7845C15.6328 17.5256 15.423 17.3157 15.1641 17.3157H7.35231C7.25731 17.3157 7.16463 17.3445 7.08644 17.3984L3.39356 19.9422V17.7845C3.39356 17.5256 3.18369 17.3157 2.92481 17.3157H1.50563C1.19237 17.3157 0.9375 17.0608 0.9375 16.7476V2.04347C0.9375 1.73022 1.19237 1.47534 1.50563 1.47534H4.71225C4.97113 1.47534 5.181 1.26547 5.181 1.00659C5.181 0.747717 4.97113 0.537842 4.71225 0.537842H1.50563C0.675438 0.537779 0 1.21322 0 2.04347V16.7476C0 17.5778 0.675438 18.2532 1.50563 18.2532H2.456V20.8342C2.456 21.0083 2.55256 21.1682 2.70669 21.2492C2.77519 21.2852 2.85006 21.303 2.92469 21.303C3.018 21.303 3.11094 21.2752 3.19062 21.2202L7.49806 18.2532H12.4358V22.0415C12.4358 22.8742 13.1131 23.5516 13.9458 23.5516H22.3881L27.923 27.3641C28.0173 27.429 28.1267 27.4619 28.2366 27.4619C28.3246 27.4619 28.4129 27.4408 28.4941 27.3982C28.6765 27.3023 28.7898 27.1147 28.7898 26.9085V23.5516H30.49C31.3226 23.5516 32 22.8742 32 22.0415V15.7142C32 15.4553 31.7902 15.2455 31.5312 15.2455ZM30.4899 10.6268H26.7077V2.04347C26.7077 1.21322 26.0323 0.537842 25.2021 0.537842H6.90796C6.64908 0.537842 6.43921 0.747717 6.43921 1.00659C6.43921 1.26547 6.64908 1.47534 6.90796 1.47534H25.2021C25.5154 1.47534 25.7703 1.73022 25.7703 2.04347V16.7476C25.7703 17.0608 25.5154 17.3157 25.2021 17.3157H17.3318C17.0729 17.3157 16.8631 17.5256 16.8631 17.7845C16.8631 18.0433 17.0729 18.2532 17.3318 18.2532H25.2021C26.0323 18.2532 26.7078 17.5778 26.7078 16.7476V11.5643H30.49C30.8057 11.5643 31.0625 11.8212 31.0625 12.1369V13.5363C31.0625 13.7952 31.2723 14.005 31.5313 14.005C31.7902 14.005 32 13.7952 32 13.5363V12.1369C31.9999 11.3042 31.3226 10.6268 30.4899 10.6268ZM3.25586 3.3334H23.4605C23.7194 3.3334 23.9292 3.54328 23.9292 3.80215C23.9292 4.06103 23.7194 4.2709 23.4605 4.2709H3.25586C2.99698 4.2709 2.78711 4.06103 2.78711 3.80215C2.78711 3.54328 2.99698 3.3334 3.25586 3.3334ZM23.4605 8.9429H20.2595C20.0006 8.9429 19.7908 9.15278 19.7908 9.41165C19.7908 9.67053 20.0006 9.8804 20.2595 9.8804H23.4605C23.7195 9.8804 23.9293 9.67053 23.9293 9.41165C23.9293 9.15278 23.7195 8.9429 23.4605 8.9429ZM2.78711 9.41165C2.78711 9.15278 2.99698 8.9429 3.25586 8.9429H18.0895C18.3485 8.9429 18.5583 9.15278 18.5583 9.41165C18.5583 9.67053 18.3485 9.8804 18.0895 9.8804H3.25586C2.99698 9.8804 2.78711 9.67053 2.78711 9.41165ZM3.25586 14.5269C2.99698 14.5269 2.78711 14.7367 2.78711 14.9956C2.78711 15.2545 2.99698 15.4644 3.25586 15.4644H6.45686C6.71573 15.4644 6.92561 15.2545 6.92561 14.9956C6.92561 14.7367 6.71573 14.5269 6.45686 14.5269H3.25586ZM8.62695 14.5269H23.4606C23.7196 14.5269 23.9294 14.7367 23.9294 14.9956C23.9294 15.2545 23.7196 15.4644 23.4606 15.4644H8.62695C8.36808 15.4644 8.1582 15.2545 8.1582 14.9956C8.1582 14.7367 8.36808 14.5269 8.62695 14.5269ZM23.4605 11.7135H3.25586C2.99698 11.7135 2.78711 11.9234 2.78711 12.1822C2.78711 12.4411 2.99698 12.651 3.25586 12.651H23.4605C23.7194 12.651 23.9292 12.4411 23.9292 12.1822C23.9292 11.9234 23.7194 11.7135 23.4605 11.7135ZM21.5833 6.15817C21.8422 6.15817 22.0521 6.36805 22.0521 6.62692C22.0521 6.8858 21.8422 7.09567 21.5833 7.09567H3.25366C2.99479 7.09567 2.78491 6.8858 2.78491 6.62692C2.78491 6.36805 2.99479 6.15817 3.25366 6.15817H21.5833Z" fill="#3B3E3C"/>
</svg>
