<svg width="32" height="28" viewBox="0 0 32 28" fill="none" xmlns="http://www.w3.org/2000/svg">
<path fill-rule="evenodd" clip-rule="evenodd" d="M25.3729 9.71646C25.3061 4.83766 21.3165 0.889038 16.4221 0.889038C14.2449 0.889038 12.1474 1.68104 10.516 3.11916C9.05998 4.40259 8.06398 6.11772 7.66955 8.00078C7.64074 8.00046 7.61217 8.00021 7.58367 8.00021C3.40212 8.00028 0 11.4023 0 15.5839C0 19.7656 3.40212 23.1676 7.58374 23.1676H10.3671C10.7439 23.1676 11.0495 22.8621 11.0495 22.4852C11.0495 22.1082 10.7439 21.8027 10.3671 21.8027H7.58374C4.15462 21.8027 1.36487 19.013 1.36487 15.5839C1.36487 12.1549 4.15462 9.36515 7.58374 9.36515C7.76642 9.36515 7.95955 9.37496 8.17423 9.39515C8.53811 9.4289 8.8648 9.1704 8.91436 8.8079C9.16011 7.00665 10.0494 5.34997 11.4185 4.14303C12.8005 2.92478 14.5774 2.25391 16.422 2.25391C20.6055 2.25391 24.0088 5.65734 24.0088 9.84071C24.0088 9.99133 23.9808 10.3808 23.9808 10.3808C23.9666 10.5816 24.0417 10.7784 24.1862 10.9186C24.3305 11.0588 24.5292 11.1279 24.7298 11.108C24.9113 11.0896 25.0944 11.0805 25.274 11.0805C28.2301 11.0805 30.6351 13.4855 30.6351 16.4416C30.6351 19.3976 28.2301 21.8026 25.274 21.8026H22.2176C21.8408 21.8026 21.5352 22.1081 21.5352 22.4851C21.5352 22.862 21.8408 23.1675 22.2176 23.1675H25.274C28.9827 23.1675 32 20.1503 32 16.4416C31.9999 12.7661 29.0362 9.76958 25.3729 9.71646ZM16.4221 4.09637C13.5685 4.09637 11.1257 6.22879 10.74 9.05648C10.689 9.42989 10.9507 9.77281 11.3239 9.82486C11.7219 9.88036 12.0457 9.58307 12.0924 9.24097C12.3862 7.08617 14.2476 5.46122 16.4221 5.46122C16.799 5.46122 17.1045 5.15574 17.1045 4.77883C17.1045 4.40185 16.799 4.09637 16.4221 4.09637ZM18.6163 23.588C18.8975 23.3368 19.3289 23.3612 19.5799 23.6422C19.831 23.9233 19.8067 24.3547 19.5255 24.6058L17.0431 26.8233C16.8291 27.0145 16.5606 27.1101 16.2923 27.1101C16.0238 27.1101 15.7555 27.0145 15.5414 26.8232L13.0591 24.6057C12.778 24.3545 12.7537 23.9233 13.0049 23.6421C13.2558 23.3612 13.6874 23.3368 13.9684 23.5879L15.6099 25.0542V16.6592C15.6099 16.2823 15.9154 15.9768 16.2923 15.9768C16.6691 15.9768 16.9748 16.2823 16.9748 16.6592V25.0543L18.6163 23.588Z" fill="#3B3E3C"/>
</svg>
