<svg width="20" height="18" viewBox="0 0 20 18" fill="none" xmlns="http://www.w3.org/2000/svg">
<mask id="path-1-inside-1" fill="white">
<path fill-rule="evenodd" clip-rule="evenodd" d="M9.28354 17.6989C9.67564 18.099 10.3199 18.0991 10.712 17.6989L12.8516 15.5156C13.1617 15.1991 12.9376 14.6656 12.4945 14.6656H11.0849V7.00001C11.0849 6.44772 10.6372 6.00001 10.0849 6.00001C9.53263 6.00001 9.08491 6.44772 9.08491 7.00001V14.6656H7.501C7.05798 14.6656 6.83381 15.1991 7.14389 15.5156L9.28354 17.6989ZM10 0C13.559 0 16.507 2.67 16.944 6.112C18.695 6.538 20 8.119 20 10C20 12.206 18.206 14 16 14H14V12H16C17.103 12 18 11.103 18 10C18 8.897 17.103 8 16 8H15V7C15 4.243 12.757 2 10 2C7.894 2 6.149 3.273 5.446 5.324L5.254 5.882L4.673 5.984C3.199 6.243 2 7.596 2 9C2 10.654 3.346 12 5 12H6V14H5C2.243 14 0 11.757 0 9C0 6.82 1.609 4.792 3.757 4.15C4.85 1.611 7.244 0 10 0Z"/>
</mask>
<path fill-rule="evenodd" clip-rule="evenodd" d="M9.28354 17.6989C9.67564 18.099 10.3199 18.0991 10.712 17.6989L12.8516 15.5156C13.1617 15.1991 12.9376 14.6656 12.4945 14.6656H11.0849V7.00001C11.0849 6.44772 10.6372 6.00001 10.0849 6.00001C9.53263 6.00001 9.08491 6.44772 9.08491 7.00001V14.6656H7.501C7.05798 14.6656 6.83381 15.1991 7.14389 15.5156L9.28354 17.6989ZM10 0C13.559 0 16.507 2.67 16.944 6.112C18.695 6.538 20 8.119 20 10C20 12.206 18.206 14 16 14H14V12H16C17.103 12 18 11.103 18 10C18 8.897 17.103 8 16 8H15V7C15 4.243 12.757 2 10 2C7.894 2 6.149 3.273 5.446 5.324L5.254 5.882L4.673 5.984C3.199 6.243 2 7.596 2 9C2 10.654 3.346 12 5 12H6V14H5C2.243 14 0 11.757 0 9C0 6.82 1.609 4.792 3.757 4.15C4.85 1.611 7.244 0 10 0Z" fill="#3B3E3C"/>
<path d="M10.712 17.6989L11.4262 18.3989V18.3989L10.712 17.6989ZM9.28354 17.6989L8.56932 18.3989V18.3989L9.28354 17.6989ZM12.8516 15.5156L13.5659 16.2155V16.2155L12.8516 15.5156ZM11.0849 14.6656V15.6656H10.0849V14.6656H11.0849ZM9.08491 14.6656H10.0849V15.6656H9.08491V14.6656ZM7.14389 15.5156L6.42967 16.2155L6.42966 16.2155L7.14389 15.5156ZM16.944 6.112L16.7076 7.08366L16.0387 6.92091L15.952 6.23795L16.944 6.112ZM14 14V15H13V14H14ZM14 12H13V11H14V12ZM15 8V9H14V8H15ZM5.446 5.324L6.39197 5.64824L6.39159 5.64937L5.446 5.324ZM5.254 5.882L6.19959 6.20737L6.00772 6.76497L5.42692 6.86694L5.254 5.882ZM4.673 5.984L4.49994 4.99909L4.50008 4.99906L4.673 5.984ZM6 12V11H7V12H6ZM6 14H7V15H6V14ZM3.757 4.15L4.67551 4.5454L4.49084 4.97438L4.04337 5.10812L3.757 4.15ZM11.4262 18.3989C10.642 19.1991 9.35351 19.1991 8.56932 18.3989L9.99777 16.999L9.99777 16.999L11.4262 18.3989ZM13.5659 16.2155L11.4262 18.3989L9.99777 16.999L12.1374 14.8156L13.5659 16.2155ZM12.4945 13.6656C13.8236 13.6656 14.4961 15.2662 13.5659 16.2155L12.1374 14.8156C11.8274 15.1321 12.0515 15.6656 12.4945 15.6656V13.6656ZM11.0849 13.6656H12.4945V15.6656H11.0849V13.6656ZM12.0849 7.00001V14.6656H10.0849V7.00001H12.0849ZM10.0849 5.00001C11.1895 5.00001 12.0849 5.89544 12.0849 7.00001H10.0849V5.00001ZM8.08491 7.00001C8.08491 5.89544 8.98034 5.00001 10.0849 5.00001V7.00001H8.08491ZM8.08491 14.6656V7.00001H10.0849V14.6656H8.08491ZM7.501 13.6656H9.08491V15.6656H7.501V13.6656ZM6.42966 16.2155C5.49944 15.2662 6.17194 13.6656 7.501 13.6656V15.6656C7.94402 15.6656 8.16818 15.1321 7.85811 14.8156L6.42966 16.2155ZM8.56932 18.3989L6.42967 16.2155L7.85811 14.8156L9.99777 16.999L8.56932 18.3989ZM15.952 6.23795C15.5775 3.28886 13.0487 1 10 1V-1C14.0693 -1 17.4365 2.05114 17.936 5.98605L15.952 6.23795ZM19 10C19 8.59219 18.0222 7.40348 16.7076 7.08366L17.1804 5.14034C19.3678 5.67252 21 7.64581 21 10H19ZM16 13C17.6537 13 19 11.6537 19 10H21C21 12.7583 18.7583 15 16 15V13ZM14 13H16V15H14V13ZM15 12V14H13V12H15ZM16 13H14V11H16V13ZM19 10C19 11.6553 17.6553 13 16 13V11C16.5507 11 17 10.5507 17 10H19ZM16 7C17.6553 7 19 8.34472 19 10H17C17 9.44928 16.5507 9 16 9V7ZM15 7H16V9H15V7ZM16 7V8H14V7H16ZM10 1C13.3093 1 16 3.69071 16 7H14C14 4.79529 12.2047 3 10 3V1ZM4.50003 4.99976C5.33615 2.56038 7.45016 1 10 1V3C8.33784 3 6.96185 3.98563 6.39197 5.64824L4.50003 4.99976ZM4.30841 5.55663L4.50041 4.99864L6.39159 5.64937L6.19959 6.20737L4.30841 5.55663ZM4.50008 4.99906L5.08108 4.89706L5.42692 6.86694L4.84592 6.96894L4.50008 4.99906ZM1 9C1 7.06469 2.59431 5.33393 4.49994 4.99909L4.84606 6.96891C3.80369 7.15207 3 8.12731 3 9H1ZM5 13C2.79372 13 1 11.2063 1 9H3C3 10.1017 3.89828 11 5 11V13ZM6 13H5V11H6V13ZM5 14V12H7V14H5ZM5 13H6V15H5V13ZM1 9C1 11.2047 2.79528 13 5 13V15C1.69072 15 -1 12.3093 -1 9H1ZM4.04337 5.10812C2.28271 5.63435 1 7.29858 1 9H-1C-1 6.34142 0.935288 3.94965 3.47063 3.19188L4.04337 5.10812ZM10 1C7.65313 1 5.61443 2.36431 4.67551 4.5454L2.83849 3.7546C4.08557 0.857689 6.83487 -1 10 -1V1Z" fill="#3B3E3C" mask="url(#path-1-inside-1)"/>
</svg>
