<svg width="20" height="14" viewBox="0 0 20 14" fill="none" xmlns="http://www.w3.org/2000/svg">
    <path fill-rule="evenodd" clip-rule="evenodd" d="M10 1.90001C7.27421 1.90001 4.40959 3.50473 2.07161 7.00001C4.40959 10.4953 7.27421 12.1 10 12.1C12.7258 12.1 15.5905 10.4953 17.9284 7.00001C15.5905 3.50472 12.7258 1.90001 10 1.90001ZM10 13.9C6.35193 13.9 2.85483 11.6566 0.247559 7.49416V6.50586C2.85483 2.3434 6.35193 0.100006 10 0.100006C13.6481 0.100006 17.1452 2.34339 19.7525 6.50585C19.849 6.65302 19.9 6.82535 19.9001 7.00001C19.9 7.17466 19.849 7.347 19.7525 7.49417C17.1452 11.6566 13.6481 13.9 10 13.9ZM10 11C12.2091 11 14 9.20914 14 7C14 4.79086 12.2091 3 10 3C7.79086 3 6 4.79086 6 7C6 9.20914 7.79086 11 10 11Z" fill="#3B3E3C"/>
</svg>
