<svg width="423" height="317" viewBox="0 0 423 317" fill="none" xmlns="http://www.w3.org/2000/svg">
<path d="M152.656 36.9171C150.382 38.2803 148.402 40.1765 146.853 42.4743C141.487 51.0566 146.321 64.0361 141.023 72.679C139.728 74.8018 137.907 76.4697 136.42 78.4333C133.052 82.8836 131.497 88.7441 131.129 94.544C130.761 100.344 131.477 106.151 132.193 111.906C132.391 113.467 132.622 115.12 133.557 116.31C134.491 117.501 136.148 118.039 137.648 118.403C151.127 121.664 164.95 122.822 178.716 121.845C181.103 121.671 183.605 121.398 185.596 119.919C190.281 116.462 189.776 108.858 191.106 102.777C192.224 97.6599 194.945 93.1641 196.561 88.2134C198.436 82.5197 198.811 76.3787 199.145 70.3287C199.609 61.9891 199.547 52.3227 193.779 46.955C191.917 45.2264 189.647 44.165 187.417 43.1188C181.573 40.397 175.328 38.5092 169.6 35.7268C163.681 32.8458 158.39 33.187 152.656 36.9171Z" fill="#3B3E3C"/>
<path d="M185.173 55.2719C185.173 55.2719 195.517 62.8079 195.271 74.8397C195.026 86.8715 187.341 107.994 187.341 107.994L174.468 109.95L185.173 55.2719Z" fill="#3B3E3C"/>
<path d="M148.721 73.4827C146.989 75.0975 145.884 77.3796 144.943 79.6692C141.949 86.9773 140.239 94.8542 139.904 102.876L155.485 103.05C156.012 103.106 156.544 103.007 157.026 102.762C157.591 102.301 157.992 101.632 158.158 100.875C159.815 95.9466 161.444 90.8746 161.403 85.6206C161.356 78.9793 155.846 66.8565 148.721 73.4827Z" fill="url(#paint0_linear)"/>
<path d="M262.995 72.5881C268.45 72.4668 273.87 72.8989 279.298 73.3462C282.591 73.6116 285.912 73.8845 289.056 74.9838C291.593 75.9567 294.029 77.2275 296.324 78.7746C307.775 86.0343 318.402 94.7954 327.976 104.87C329.735 106.72 332.067 108.555 334.393 109.184C336.718 109.813 339.527 109.26 341.02 107.137C341.9 105.886 342.227 104.279 342.629 102.747C343.829 98.1984 346.38 93.3993 350.566 92.3379C354.657 91.3068 358.878 94.3621 360.856 98.4561C362.833 102.55 362.997 107.417 362.738 112.057C362.249 119.774 360.831 127.383 358.524 134.68C357.528 137.872 356.294 141.163 353.928 143.278C351.562 145.393 348.473 146.03 345.459 146.31C328.413 147.743 312.184 138.684 297.013 129.866C296.815 138.964 298.67 147.933 299.106 157.008C299.543 166.083 298.295 175.84 292.894 182.656C285.973 191.299 274.382 192.876 263.977 192.368C255.029 191.921 246.151 190.396 237.5 187.819C235.134 187.114 232.727 186.303 230.838 184.536C229.362 183.061 228.215 181.223 227.49 179.169C221.865 164.597 227.04 141.921 221.483 127.311C192.613 133.922 164.677 135.325 137.614 122.307C136.4 121.716 135.118 121.057 134.375 119.828C133.523 118.426 133.55 116.599 133.693 114.908C134.061 110.026 134.977 105.215 136.421 100.587C147.33 106.341 158.424 112.156 170.343 114.279C182.262 116.402 183.585 113.596 192.879 105.029C199.622 98.8125 215.598 90.5107 222.308 84.256C233.136 74.1802 248.88 72.9217 262.995 72.5881Z" fill="#5DB07B"/>
<path d="M262.995 72.5881C268.45 72.4668 273.87 72.8989 279.298 73.3462C282.591 73.6116 285.912 73.8845 289.056 74.9838C291.593 75.9567 294.029 77.2275 296.324 78.7746C307.775 86.0343 318.402 94.7954 327.976 104.87C329.735 106.72 332.067 108.555 334.393 109.184C336.718 109.813 339.527 109.26 341.02 107.137C341.9 105.886 342.227 104.279 342.629 102.747C343.829 98.1984 346.38 93.3993 350.566 92.3379C354.657 91.3068 358.878 94.3621 360.856 98.4561C362.833 102.55 362.997 107.417 362.738 112.057C362.249 119.774 360.831 127.383 358.524 134.68C357.528 137.872 356.294 141.163 353.928 143.278C351.562 145.393 348.473 146.03 345.459 146.31C328.413 147.743 312.184 138.683 297.013 129.866C296.815 138.964 298.67 147.933 299.106 157.008C299.543 166.083 298.295 175.84 292.894 182.656C285.973 191.299 274.382 192.876 263.977 192.368C255.029 191.921 246.151 190.396 237.5 187.819C235.134 187.114 232.727 186.303 230.838 184.536C229.362 183.061 228.215 181.223 227.49 179.169C221.865 164.597 227.04 141.921 221.483 127.311C192.613 133.922 164.677 135.325 137.614 122.307C136.4 121.716 135.118 121.057 134.375 119.828C133.523 118.426 133.55 116.599 133.693 114.908C134.061 110.026 134.977 105.215 136.421 100.587C147.33 106.341 158.424 112.156 170.343 114.279C182.262 116.402 183.585 113.596 192.879 105.029C199.622 98.8124 215.598 90.5107 222.308 84.256C233.136 74.1802 248.88 72.9217 262.995 72.5881Z" fill="#278147"/>
<path d="M393.458 238.357C408.959 237.979 421.333 251.965 413.945 265.597C400.451 291.026 377.438 306.09 353.886 312.398C330.335 318.706 306.061 317.174 282.045 315.635L129.724 305.848C109.234 304.536 88.6012 303.202 68.7249 296.75C52.5636 291.451 37.3494 283.081 23.7561 272.011C11.2771 262.029 18.5704 245.664 34.5254 246.559C38.634 246.79 42.3527 246.967 45.4188 246.894L137.423 244.619C197.881 243.149 258.317 241.668 318.73 240.177L393.458 238.357Z" fill="#5DB07B"/>
<path d="M75.0465 243.842C63.2725 245.971 62.0145 258.408 73.9436 259.332C77.3338 259.595 80.8491 259.895 84.578 260.834C88.6079 261.85 89.5299 266.198 88.6518 270.26C87.837 274.029 91.3296 277.427 95.182 277.599C110.432 278.279 120.405 278.87 135.639 278.822C139.774 278.809 142.298 280.59 145.065 283.663C146.567 285.332 149.83 287.271 152.074 287.344C214.384 289.385 276.709 288.8 339.049 285.59C343.509 285.362 348.2 285.036 351.95 282.337C355.7 279.638 357.957 273.71 355.523 269.547C353.805 266.606 350.484 265.514 347.661 263.937C344.838 262.36 342.036 259.191 342.888 255.817C344.531 249.419 356.464 251.041 356.15 244.4C356.041 242.127 354.33 240.605 352.417 239.522C351.754 239.147 351.766 238.142 352.467 237.845C353.336 237.478 353.079 236.184 352.136 236.176L200.113 234.87C172.559 234.627 144.882 234.392 117.499 238.539C104.344 240.532 89.2478 241.274 75.0465 243.842Z" fill="#278147"/>
<path d="M366.031 167.902C370.892 164.453 376.197 160.859 381.945 161.314C387.694 161.769 393.258 168.494 390.891 174.339C390.169 176.128 388.846 177.554 388.082 179.335C386.957 182.012 387.278 185.135 387.653 188.062C389.623 203.452 392.473 219.548 387.796 234.195C386.05 239.631 383.275 244.885 383.302 250.662C383.302 253.528 384.039 256.371 383.821 259.229C383.602 262.087 382.02 265.165 379.463 265.514C375.659 266.03 373.613 260.791 370.599 258.13C365.969 254.021 359.219 256.394 353.314 255.855C346.618 255.264 340.768 250.776 334.379 248.441C326.374 245.507 317.428 245.954 309.907 241.731C301.329 236.917 296.058 226.644 294.292 216.143C292.526 205.643 293.794 194.832 295.39 184.301C297.531 170.184 301.752 143.141 318.28 142.376C326.087 142.012 335.279 146.856 342.145 150.427C344.539 151.678 366.201 167.796 366.031 167.902Z" fill="white"/>
<path opacity="0.45" d="M320.959 215.764C320.857 218.395 320.823 221.109 321.641 223.573C324.28 231.42 334.698 234.612 335.162 242.974C325.902 246.765 314.434 241.776 309.933 232.004C307.567 226.848 307.07 220.935 306.606 215.173C305.638 203.08 304.458 190.98 303.694 178.873C303.258 171.822 303.878 165.628 311.686 166.651C328.657 168.88 321.423 203.687 320.959 215.764Z" fill="#828482"/>
<path d="M49.3325 173.558C44.0617 175.939 38.8455 179.396 33.1656 179.047C29.7563 178.835 26.422 177.22 22.9922 177.402C19.5624 177.584 15.7986 180.829 16.6986 184.514C17.1077 186.166 18.3215 187.387 19.1874 188.805C21.5944 192.755 21.1307 197.94 21.0353 202.709C20.857 211.899 22.3795 221.032 25.5083 229.54C27.8266 235.825 31.0382 241.807 32.0883 248.494C33.036 254.468 32.8792 262.004 37.7409 264.748C45.8823 257.334 57.7195 259.441 68.1792 258.107C80.5618 256.53 91.833 249.714 102.743 243.02C103.913 242.424 104.946 241.54 105.763 240.435C106.498 239.033 106.849 237.423 106.773 235.802C106.882 229.131 105.273 222.557 103.275 216.265C98.8161 202.254 92.4057 189.109 84.278 177.311C80.0845 171.246 78.2162 167.084 71.1862 168.001C63.7812 168.972 56.2671 170.42 49.3325 173.558Z" fill="white"/>
<path opacity="0.45" d="M65.0702 191.352C64.2724 193.301 63.4542 195.325 63.461 197.463C63.461 203.46 69.4818 207.076 71.7933 212.497C64.4224 218.562 62.0904 231.026 66.6725 239.851C68.1522 242.702 70.3137 245.461 70.1432 248.736C70.0409 250.753 69.0659 252.891 69.9319 254.665C74.4731 254.991 78.7074 252.391 82.8872 250.412C89.8559 247.084 97.3154 245.241 104.707 243.414C103.957 239.093 101.877 235.226 99.8315 231.458C92.331 217.576 84.7214 203.611 74.9913 191.549C72.7207 188.736 71.6911 183.93 69.3659 181.739C67.3953 183.93 66.2839 188.388 65.0702 191.352Z" fill="url(#paint1_linear)"/>
<path d="M333.431 249.836C334.836 251.64 336.2 253.892 335.934 256.34C335.64 259.123 333.322 260.996 331.045 261.648C328.01 262.481 324.847 261.784 321.785 261.086L296.522 255.332C295.924 255.255 295.354 255.01 294.865 254.619C294.369 254.068 294.024 253.371 293.87 252.61C292.635 248.061 292.97 240.836 296.065 237.273C298.615 234.331 302.952 234.817 306.218 234.999C311.418 235.309 316.509 236.783 321.185 239.333C325.861 241.882 330.026 245.454 333.431 249.836Z" fill="#3B3E3C"/>
<path d="M331.815 251.648C333.178 253.285 334.542 255.325 334.269 257.546C333.976 260.071 331.706 261.761 329.496 262.33C326.523 263.088 323.428 262.459 320.428 261.829L295.662 256.613C295.081 256.539 294.523 256.316 294.033 255.961C293.555 255.475 293.218 254.841 293.064 254.142C291.851 250.002 292.178 243.467 295.212 240.23C297.715 237.569 301.969 238.008 305.167 238.168C315.283 238.664 324.832 243.495 331.815 251.648Z" fill="#3B3E3C"/>
<path d="M331.815 251.648C333.178 253.285 334.542 255.325 334.269 257.546C333.976 260.071 331.706 261.761 329.496 262.33C326.523 263.088 323.428 262.459 320.428 261.829L295.662 256.613C295.081 256.539 294.523 256.316 294.033 255.961C293.555 255.475 293.218 254.841 293.064 254.142C291.851 250.002 292.178 243.467 295.212 240.23C297.715 237.569 301.969 238.008 305.167 238.168C315.283 238.664 324.832 243.495 331.815 251.648Z" fill="url(#paint2_linear)" fill-opacity="0.5"/>
<path d="M192.354 119.517C197.611 125.909 199.752 134.961 199.288 143.611C198.825 152.262 195.981 160.556 192.306 168.198C190.458 172.042 192.988 182.846 192.504 187.152C191.897 192.413 191.365 192.55 190.704 197.811C189.967 203.702 183.974 206.78 180.21 211.003C175.147 216.691 169.744 221.99 164.036 226.864C156.304 233.46 146.921 239.532 137.348 237.478C133.332 236.621 129.663 234.384 126.131 232.087C121.799 229.272 117.544 226.325 113.367 223.247C112.28 222.697 111.373 221.783 110.775 220.634C110.176 219.484 109.914 218.156 110.026 216.833C109.562 207.978 109.098 198.88 110.871 190.192C112.385 182.679 115.494 175.651 117.008 168.145C119.981 153.452 116.728 137.705 120.601 123.27C121.324 120.579 122.354 117.865 124.277 116.038C125.886 114.521 127.966 113.763 129.984 113.005C138.548 109.972 147.167 106.887 156.079 105.628C171.148 103.52 182.221 107.182 192.354 119.517Z" fill="#5DB07B"/>
<path d="M198.054 129.237C199.479 138.009 213.286 121.443 212.829 130.548C212.373 139.654 198.66 159.1 194.985 167.144C193.137 171.193 194.467 184.195 193.962 188.752C193.356 194.294 191.364 192.3 190.703 197.842C189.967 204.036 183.973 205.173 180.209 209.623C175.166 215.586 169.762 221.159 164.035 226.303C156.303 233.255 146.921 239.646 137.347 237.5C133.331 236.598 129.663 234.24 126.131 231.822C121.799 228.865 117.544 225.762 113.366 222.512C112.278 221.8 111.363 220.803 110.7 219.608C110.232 218.395 110 217.085 110.018 215.764C109.555 206.378 109.105 196.856 110.864 187.713C112.377 179.805 115.487 172.413 117 164.514C119.973 149.047 116.721 132.474 120.594 117.281C121.317 114.453 122.346 111.587 124.269 109.699C125.878 108.085 127.958 107.288 129.976 106.53C138.541 103.316 147.159 100.094 156.071 98.7669C171.147 96.4621 195.415 112.929 198.054 129.237Z" fill="#BDE1CA"/>
<path d="M139.1 143.02C139.1 143.02 148.393 174.392 156.412 179.411C164.431 184.43 169.558 183.331 169.558 183.331L171.481 196.166C171.481 196.166 151.469 203.172 146.15 196.166C140.832 189.161 139.1 143.02 139.1 143.02Z" fill="#5DB07B"/>
<path d="M139.1 143.02C139.1 143.02 148.393 174.392 156.412 179.411C164.431 184.43 169.558 183.331 169.558 183.331L171.481 196.166C171.481 196.166 151.469 203.172 146.15 196.166C140.832 189.161 139.1 143.02 139.1 143.02Z" fill="#278147"/>
<path d="M69.5495 177.463C68.554 179.859 67.5994 182.353 67.4699 184.991C67.4388 187.822 68.0584 190.614 69.27 193.103C72.2666 199.818 77.3271 205.116 83.5345 208.039C90.0327 211.072 97.2877 211.269 104.338 211.337C106.616 211.337 109.07 211.337 110.911 209.821C113.686 207.584 113.911 203.149 113.871 199.335C108.992 196.803 104.46 193.515 100.411 189.57C99.3761 188.692 98.546 187.551 97.99 186.242C97.2468 184.081 97.99 181.693 98.7537 179.525C102.868 168.397 108.85 158.242 116.38 149.601C122.326 142.778 129.669 135.954 130.338 126.47C130.569 124.231 130.159 121.967 129.165 120.003C128.053 118.009 126.199 116.69 124.296 115.681C117.655 112.126 113.475 111.132 108.511 117.243C103.547 123.354 98.5355 129.722 93.7829 136.197C84.421 148.941 75.8159 162.489 69.5495 177.463Z" fill="#5DB07B"/>
<path d="M69.5495 177.463C68.554 179.859 67.5994 182.353 67.4699 184.991C67.4388 187.822 68.0584 190.614 69.27 193.103C72.2666 199.818 77.3271 205.116 83.5345 208.039C90.0327 211.072 97.2877 211.269 104.338 211.337C106.616 211.337 109.07 211.337 110.911 209.821C113.686 207.584 113.911 203.149 113.871 199.335C108.992 196.803 104.46 193.515 100.411 189.57C99.3761 188.692 98.546 187.551 97.99 186.242C97.2468 184.081 97.99 181.693 98.7537 179.525C102.868 168.397 108.85 158.242 116.38 149.601C122.326 142.778 129.669 135.954 130.338 126.47C130.569 124.231 130.159 121.967 129.165 120.003C128.053 118.009 126.199 116.69 124.296 115.681C117.655 112.126 113.475 111.132 108.511 117.243C103.547 123.354 98.5355 129.722 93.7829 136.197C84.421 148.941 75.8159 162.489 69.5495 177.463Z" fill="#BDE1CA"/>
<path d="M102.355 152.732C99.6273 160.806 99.1841 169.571 99.1432 178.183C99.0954 187.895 99.6818 198.062 104.141 206.424C110.401 218.168 124.393 224.013 136.066 219.768C139.475 218.517 142.816 216.379 144.767 212.997C147.242 208.706 147.112 203.225 146.642 198.16C145.96 190.92 144.801 183.755 144.446 176.47C144.044 168.342 144.671 160.071 143.021 152.133C141.371 144.195 136.755 136.326 129.67 134.248C116.803 130.488 106.671 139.745 102.355 152.732Z" fill="#5DB07B"/>
<path d="M145.019 203.983C145.019 203.983 177.237 186.333 181.089 197.031C184.942 207.728 157.51 229.654 152.737 232.322C147.964 234.991 133.502 236.606 133.502 236.606C133.502 236.606 93.1016 226.439 96.47 215.749C99.8384 205.059 141.146 204.521 145.019 203.983Z" fill="#5DB07B"/>
<path d="M145.019 204.339C145.019 204.339 177.237 186.689 181.089 197.387C184.942 208.084 157.51 230.01 152.737 232.679C147.964 235.347 133.502 236.962 133.502 236.962C133.502 236.962 93.1016 226.795 96.47 216.105C99.8384 205.416 141.146 204.877 145.019 204.339Z" fill="#1E1F1E"/>
<path d="M115.439 142.777C115.439 142.777 90.2102 162.027 89.467 190.639C88.7238 219.252 102.211 219.115 108.225 221.117C114.239 223.119 136.597 200.533 136.597 200.533L128.415 189.032C128.415 189.032 112.289 198.494 110.543 194.65C106.064 184.733 115.439 142.777 115.439 142.777Z" fill="url(#paint3_linear)"/>
<path d="M110.632 138.744C110.632 138.744 85.4031 157.994 84.6599 186.606C83.9167 215.219 97.1652 210.533 103.172 212.527C109.18 214.521 131.811 196.485 131.811 196.485L123.628 184.984C123.628 184.984 107.502 194.445 105.757 190.602C101.25 180.723 110.632 138.744 110.632 138.744Z" fill="#278147"/>
<path d="M113.871 137.16C113.98 140.086 114.669 143.179 116.633 145.12C119.108 147.554 122.845 147.463 126.049 146.636C127.297 146.31 128.627 145.795 129.316 144.589C130.004 143.384 129.847 141.959 129.677 140.602C129.391 138.383 129.02 136.179 128.565 133.991C128.427 133.072 128.131 132.192 127.693 131.398C127.088 130.541 126.301 129.866 125.402 129.434C123.083 128.153 117.499 125.818 115.017 127.63C113.012 129.055 113.79 134.976 113.871 137.16Z" fill="#E4B387"/>
<path d="M103.834 116.492C103.193 116.772 102.659 117.289 102.32 117.956C101.85 119.078 102.32 120.389 102.811 121.504C103.184 122.606 103.818 123.575 104.646 124.309C105.138 124.63 105.675 124.855 106.235 124.976C106.986 125.214 107.773 125.276 108.546 125.158C108.935 125.092 109.303 124.918 109.617 124.653C109.93 124.388 110.178 124.041 110.34 123.642C110.492 123.155 110.523 122.631 110.429 122.126C109.863 118.085 107.851 114.726 103.834 116.492Z" fill="#FFD1A9"/>
<path d="M105.908 118.304C105.582 118.334 105.273 118.48 105.028 118.721C104.903 118.882 104.806 119.067 104.741 119.267C104.545 119.741 104.479 120.268 104.551 120.783C104.632 121.187 104.806 121.561 105.055 121.868C105.399 122.307 105.832 122.651 106.318 122.869C106.803 123.088 107.329 123.176 107.851 123.126C108.019 123.118 108.181 123.061 108.322 122.959C108.635 122.702 108.615 122.201 108.547 121.762C108.414 120.751 108.162 119.764 107.797 118.827C107.476 118.092 106.569 118.191 105.908 118.304Z" fill="#E4B387"/>
<path d="M174.468 109.95C173.786 112.831 171.775 115.575 169.109 115.886C166.906 116.151 164.84 114.734 163.088 113.217C161.445 111.881 160.013 110.249 158.854 108.388C155.935 103.392 156.392 96.9096 157.21 91.0188C157.667 87.7587 158.39 84.1575 160.838 82.2849C161.381 81.8299 162.034 81.5659 162.713 81.5267C163.227 81.545 163.734 81.6711 164.206 81.8982C167.581 83.3539 170.186 86.5078 171.925 90.0331C174.898 96.068 176.118 103.21 174.468 109.95Z" fill="#FFD1A9"/>
<path d="M158.321 86.159C158.321 86.159 160.401 103.763 167.001 105.871C173.602 107.978 174.979 104.514 174.979 104.514L175.156 91.557L158.321 86.159Z" fill="#E4B387"/>
<path d="M261.699 229.055C258.972 229.214 256.163 229.123 253.66 227.91C246.692 224.536 245.144 214.513 244.564 206.083C244.203 200.92 243.882 195.469 246.03 190.829C248.955 184.498 254.935 182.489 260.076 179.169C266.493 174.991 268.982 170.655 273.986 164.984C283.076 154.673 298.834 155.886 306.579 168.342C324.642 197.364 283.751 227.766 261.699 229.055Z" fill="#3B3E3C"/>
<path d="M261.699 229.055C258.972 229.214 256.163 229.123 253.66 227.91C246.692 224.536 245.144 214.513 244.564 206.083C244.203 200.92 243.882 195.469 246.03 190.829C248.955 184.498 254.935 182.489 260.076 179.169C266.493 174.991 268.982 170.655 273.986 164.984C283.076 154.673 298.834 155.886 306.579 168.342C324.642 197.364 283.751 227.766 261.699 229.055Z" fill="url(#paint4_linear)"/>
<path d="M140.464 109.032C141.357 109.396 141.76 110.549 141.862 111.602C141.958 112.664 141.855 113.737 141.56 114.752C141.264 115.767 140.782 116.703 140.144 117.501C139.911 117.836 139.603 118.098 139.25 118.259C139.073 118.334 138.88 118.349 138.696 118.302C138.511 118.254 138.343 118.147 138.214 117.994C138.086 117.788 138.004 117.552 137.975 117.304C137.736 115.696 137.109 107.645 140.464 109.032Z" fill="#FFD1A9"/>
<path d="M138.766 116.652C138.616 119.176 138.385 121.686 138.084 124.188C137.911 126.061 137.526 127.903 136.939 129.669C135.187 134.453 130.666 137.66 126.029 137.918C123.7 137.975 121.389 137.451 119.265 136.386C117.141 135.321 115.259 133.741 113.756 131.762C112.023 129.355 110.569 126.716 109.426 123.907C108.138 121.216 107.081 118.396 106.269 115.484C105.103 110.875 105.198 105.575 107.728 101.709C108.627 100.33 109.792 99.1932 111.137 98.3803C113.503 96.9626 116.258 96.6366 118.945 96.4091C120.969 96.1482 123.017 96.2069 125.027 96.5835C126.533 96.973 127.978 97.6092 129.316 98.4713C132.207 100.253 135.453 102.937 137.137 106.174C138.739 109.176 138.971 113.286 138.766 116.652Z" fill="#FFD1A9"/>
<path d="M262.395 70.9354C263.758 74.7868 265.804 78.6837 265.163 82.7474C264.577 86.3258 261.945 89.0931 259.094 90.8823C256.592 92.4592 253.68 93.5131 250.837 92.9824C247.332 92.3304 244.462 89.3129 242.852 85.7951C241.243 82.2773 240.718 78.2667 240.405 74.3319C240.103 71.7717 240.167 69.1745 240.596 66.6367C241.048 64.5389 241.931 62.5864 243.177 60.9327C244.423 59.2791 245.997 57.9694 247.776 57.1068C250.796 55.6663 256.197 55.1735 258.849 57.9635C261.611 60.8975 261.079 67.1599 262.395 70.9354Z" fill="#FFD1A9"/>
<path d="M261.202 61.7389C261.202 61.7389 257.956 73.6418 255.672 76.9853C253.387 80.3287 247.489 81.1247 247.489 81.1247L243.65 66.9625L261.202 61.7389Z" fill="#E4B387"/>
<path d="M355.482 101.079C356.177 101.161 356.88 101.051 357.528 100.761C359.683 99.7298 360.153 96.6669 360.835 94.1726C362.199 89.1992 365.349 85.1355 367.654 80.6169C369.958 76.0983 371.329 70.2909 368.942 65.8254C366.819 67.1224 364.874 68.7513 363.167 70.6624C362.437 71.4812 361.578 72.4213 360.549 72.3C359.783 72.0944 359.107 71.595 358.639 70.8899L353.669 64.9081C353.089 64.2181 352.339 63.46 351.521 63.695C350.403 64.0059 350.321 65.7875 350.75 66.9778C351.432 68.8277 352.694 70.3667 353.212 72.2849C354.078 75.4388 352.728 78.5775 351.746 81.4812C350.839 84.1726 350.3 86.9853 349.571 89.745C348.275 94.6275 350.355 100.7 355.482 101.079Z" fill="#FFD1A9"/>
<path d="M179.33 103.096C177.544 104.537 169.88 101.345 167.882 100.306C165.842 99.3113 163.99 97.8936 162.427 96.1287C161.56 95.0442 160.771 93.8857 160.068 92.6639C159.175 91.3567 158.465 89.9076 157.961 88.3652C157.668 87.3114 157.565 86.1969 157.197 85.1734C156.338 82.7853 151.742 80.109 151.742 77.2508C151.742 75.8103 151.865 74.2788 152.629 73.1189C153.392 71.9589 155.049 71.413 156.038 72.3607C155.506 70.4957 155.438 62.0196 156.263 60.291C157.143 58.5878 158.315 57.0937 159.713 55.8937C164.084 51.8831 169.791 49.404 175.43 50.056C179.128 50.4823 182.58 52.317 185.201 55.2493C188.256 58.7747 192.149 92.7397 179.33 103.096Z" fill="#FFD1A9"/>
<path d="M133.093 85.3704C131.947 83.9007 130.502 82.7569 128.879 82.0346C126.976 81.3523 124.917 81.7692 122.926 81.701C121.433 81.6555 119.953 81.3371 118.46 81.2461C115.671 81.1412 112.9 81.7868 110.383 83.1279C107.866 84.4689 105.678 86.4659 104.004 88.9489C102.367 91.459 101.228 94.327 100.663 97.3631C100.098 100.399 100.119 103.534 100.725 106.561C101.233 108.989 102.016 111.335 103.056 113.543C104.532 116.932 106.597 119.963 109.132 122.459L108.825 106.69C109.848 107.055 110.931 107.166 111.998 107.015C113.064 106.865 114.087 106.456 114.996 105.818C116.808 104.527 118.325 102.785 119.428 100.731C119.626 100.389 119.878 99.9724 120.246 99.9724C120.614 99.9724 120.928 100.496 121.099 100.928C122.462 104.195 125.19 106.561 128.169 107.887C131.149 109.214 134.436 109.616 137.654 109.821C138.384 109.866 139.222 109.859 139.7 109.245C139.979 108.8 140.129 108.271 140.129 107.728C140.961 98.729 138.711 91.6707 133.093 85.3704Z" fill="#3B3E3C"/>
<path d="M133.093 85.3704C131.947 83.9007 130.502 82.7569 128.879 82.0346C126.976 81.3523 124.917 81.7692 122.926 81.701C121.433 81.6555 119.953 81.3371 118.46 81.2461C115.671 81.1412 112.9 81.7868 110.383 83.1279C107.866 84.4689 105.678 86.4659 104.004 88.9489C102.367 91.459 101.228 94.327 100.663 97.3631C100.098 100.399 100.119 103.534 100.725 106.561C101.233 108.989 102.016 111.335 103.056 113.543C104.532 116.932 106.597 119.963 109.132 122.459L108.825 106.69C109.848 107.055 110.931 107.166 111.998 107.015C113.064 106.865 114.087 106.456 114.996 105.818C116.808 104.527 118.325 102.785 119.428 100.731C119.626 100.389 119.878 99.9724 120.246 99.9724C120.614 99.9724 120.928 100.496 121.099 100.928C122.462 104.195 125.19 106.561 128.169 107.887C131.149 109.214 134.436 109.616 137.654 109.821C138.384 109.866 139.222 109.859 139.7 109.245C139.979 108.8 140.129 108.271 140.129 107.728C140.961 98.729 138.711 91.6707 133.093 85.3704Z" fill="url(#paint5_linear)"/>
<path d="M214.637 216.833C209.073 221.595 202.97 225.795 198.64 231.943C194.311 238.092 192.142 246.947 195.579 253.748C199.881 262.269 210.218 263.604 219.001 263.915C244.762 264.824 270.761 265.507 296.085 260.184C296.524 253.626 295.775 247.037 293.883 240.806C293.718 240.114 293.405 239.476 292.969 238.949C292.076 238.024 290.692 238.191 289.478 238.312C278.841 239.668 268.066 238.168 258.058 233.937L266.608 225.946C271.497 221.398 276.72 216.212 277.695 209.207C278.991 199.843 271.688 191.163 263.499 188.547C255.78 186.083 241.461 185.863 235.625 192.414C228.383 200.556 223.01 209.677 214.637 216.833Z" fill="#3B3E3C"/>
<path d="M214.637 216.833C209.073 221.595 202.97 225.795 198.64 231.943C194.311 238.092 192.142 246.947 195.579 253.748C199.881 262.269 210.218 263.604 219.001 263.915C244.762 264.824 270.761 265.507 296.085 260.184C296.524 253.626 295.775 247.037 293.883 240.806C293.718 240.114 293.405 239.476 292.969 238.949C292.076 238.024 290.692 238.191 289.478 238.312C278.841 239.668 268.066 238.168 258.058 233.937L266.608 225.946C271.497 221.398 276.72 216.212 277.695 209.207C278.991 199.843 271.688 191.163 263.499 188.547C255.78 186.083 241.461 185.863 235.625 192.414C228.383 200.556 223.01 209.677 214.637 216.833Z" fill="url(#paint6_linear)" fill-opacity="0.5"/>
<path d="M257.676 231.291C256.719 230.803 255.87 230.089 255.187 229.199C252.564 226.272 249.774 223.537 246.834 221.011C246.048 220.235 245.116 219.663 244.107 219.335C242.239 218.881 240.411 220.04 238.707 220.988C234.278 223.458 229.396 224.756 224.442 224.779C223.234 224.696 222.02 224.793 220.835 225.067C219.58 225.553 218.4 226.251 217.337 227.137C211.991 231.033 206.009 233.727 199.731 235.067C200.7 231.996 203.441 230.169 205.814 228.244C208.401 226.16 210.742 223.722 212.782 220.988C215.06 217.956 216.976 214.483 219.703 211.89C221.981 209.745 224.722 208.319 227.422 206.909L238.802 200.996C239.87 200.346 241.042 199.934 242.252 199.783C245.048 199.654 247.284 202.269 248.955 204.764C251.984 209.3 254.556 214.191 256.626 219.351C257.431 221.344 262.715 233.316 257.676 231.291Z" fill="url(#paint7_linear)"/>
<path d="M299.638 239.244C298.745 239.196 297.859 239.439 297.088 239.942C296.418 240.612 295.957 241.501 295.772 242.482C294.019 248.903 294.183 255.757 294.408 262.466C294.369 263.539 294.551 264.607 294.94 265.59C295.45 266.502 296.152 267.262 296.985 267.804C303.403 272.55 310.877 275.227 318.58 275.537C320.496 275.613 322.623 275.446 323.98 273.937C325.337 272.429 325.494 269.813 325.214 267.584C324.791 264.198 323.754 260.943 322.167 258.016C320.523 255.021 318.334 252.444 316.521 249.578C314.809 246.864 314.236 240.973 311.823 239.161C309.409 237.349 302.57 239.062 299.638 239.244Z" fill="#3B3E3C"/>
<path d="M299.481 235.673C298.587 235.628 297.701 235.873 296.931 236.378C296.259 237.046 295.798 237.937 295.615 238.918C293.856 245.34 294.019 252.193 294.251 258.903C294.215 259.973 294.397 261.038 294.783 262.019C295.302 262.938 296.016 263.7 296.863 264.24C303.273 268.979 310.737 271.656 318.43 271.974C320.346 272.042 322.467 271.875 323.824 270.374C325.18 268.873 325.337 266.25 325.058 264.021C324.629 260.632 323.583 257.376 321.983 254.453C320.339 251.458 318.157 248.88 316.344 246.007C314.625 243.3 314.059 237.41 311.639 235.598C309.218 233.786 302.406 235.522 299.481 235.673Z" fill="url(#paint8_linear)"/>
<path d="M92.6924 208.896C86.5556 206.758 79.0552 205.34 74.5139 210.344C71.7047 213.422 70.9274 218.274 71.6774 222.58C72.6456 228.183 75.8845 233.05 79.8597 236.659C83.835 240.268 88.5262 242.724 93.2311 244.999C110.169 253.141 127.917 258.949 145.619 264.711C148.346 265.598 151.169 266.492 153.937 265.855C159.16 264.635 162.12 258.607 164.349 253.225C164.558 252.891 164.701 252.512 164.768 252.113C164.835 251.713 164.824 251.303 164.737 250.908C164.65 250.514 164.488 250.144 164.263 249.825C164.037 249.505 163.753 249.243 163.429 249.055C153.917 239.54 142.973 233.642 131.613 227.197C119.101 220.147 106.173 213.361 92.6924 208.896Z" fill="#3B3E3C"/>
<path d="M92.6924 208.896C86.5556 206.758 79.0552 205.34 74.5139 210.344C71.7047 213.422 70.9274 218.274 71.6774 222.58C72.6456 228.183 75.8845 233.05 79.8597 236.659C83.835 240.268 88.5262 242.724 93.2311 244.999C110.169 253.141 127.917 258.949 145.619 264.711C148.346 265.598 151.169 266.492 153.937 265.855C159.16 264.635 162.12 258.607 164.349 253.225C164.558 252.891 164.701 252.512 164.768 252.113C164.835 251.713 164.824 251.303 164.737 250.908C164.65 250.514 164.488 250.144 164.263 249.825C164.037 249.505 163.753 249.243 163.429 249.055C153.917 239.54 142.973 233.642 131.613 227.197C119.101 220.147 106.173 213.361 92.6924 208.896Z" fill="url(#paint9_linear)"/>
<path d="M109.596 259.237C108.403 260.419 107.209 261.731 106.739 263.429C105.975 266.174 107.421 269.244 109.535 270.859C111.648 272.474 114.355 272.906 116.946 272.959C122.797 273.065 145.039 262.004 144.419 260.397C142.994 256.742 137.73 247.508 133.713 247.031C128.334 246.379 113.299 255.582 109.596 259.237Z" fill="#5DB07B"/>
<path d="M109.596 259.237C108.403 260.419 107.209 261.731 106.739 263.429C105.975 266.174 107.421 269.244 109.535 270.859C111.648 272.474 114.355 272.906 116.946 272.959C122.797 273.065 145.039 262.004 144.419 260.397C142.994 256.742 137.73 247.508 133.713 247.031C128.334 246.379 113.299 255.582 109.596 259.237Z" fill="#3B3E3C"/>
<path d="M109.596 259.237C108.403 260.419 107.209 261.731 106.739 263.429C105.975 266.174 107.421 269.244 109.535 270.859C111.648 272.474 114.355 272.906 116.946 272.959C122.797 273.065 145.039 262.004 144.419 260.397C142.994 256.742 137.73 247.508 133.713 247.031C128.334 246.379 113.299 255.582 109.596 259.237Z" fill="#1E1F1E"/>
<path d="M129.957 249.714C128.593 250.382 127.141 251.178 126.547 252.671C126.222 253.613 126.135 254.635 126.295 255.628C126.67 258.911 128.436 262.3 131.314 263.134C133.761 263.846 136.291 262.573 138.562 261.329C141.971 259.457 145.489 257.485 147.951 254.248C148.844 253.073 149.615 251.549 149.247 250.063C148.964 249.194 148.496 248.413 147.883 247.789C145.66 245.226 143.512 243.043 140.451 244.407C136.884 245.992 133.427 247.986 129.957 249.714Z" fill="#FFD1A9"/>
<path d="M171.537 252.754C175.839 254.271 179.767 256.985 184.09 258.448C188.413 259.911 193.574 259.911 196.95 256.568C197.593 255.969 198.108 255.218 198.457 254.369C198.876 253.021 198.996 251.58 198.804 250.169C198.482 245.687 197.797 241.247 196.759 236.902C196.489 235.303 195.852 233.81 194.911 232.565C193.145 230.571 190.295 230.579 187.772 230.723L174.36 231.481C169.893 231.731 164.745 232.398 162.311 236.568C161.574 237.983 161.04 239.518 160.729 241.117C159.986 244.149 157.784 248.425 160.92 250.336C162.284 251.177 164.329 251.094 165.823 251.337C167.609 251.632 169.784 252.754 171.537 252.754Z" fill="#3B3E3C"/>
<path d="M171.537 252.754C175.839 254.271 179.767 256.985 184.09 258.448C188.413 259.911 193.574 259.911 196.95 256.568C197.593 255.969 198.108 255.218 198.457 254.369C198.876 253.021 198.996 251.58 198.804 250.169C198.482 245.687 197.797 241.247 196.759 236.902C196.489 235.303 195.852 233.81 194.911 232.565C193.145 230.571 190.295 230.579 187.772 230.723L174.36 231.481C169.893 231.731 164.745 232.398 162.311 236.568C161.574 237.983 161.04 239.518 160.729 241.117C159.986 244.149 157.784 248.425 160.92 250.336C162.284 251.177 164.329 251.094 165.823 251.337C167.609 251.632 169.784 252.754 171.537 252.754Z" fill="url(#paint10_linear)"/>
<path d="M165.495 271.329C168.462 272.115 171.507 272.482 174.557 272.421C177.632 272.254 180.796 271.276 183.128 269.191C185.46 267.106 186.803 263.793 185.985 260.927C184.921 257.182 180.85 255.317 177.121 254.142C173.486 252.997 169.279 252.163 165.849 254.142C164.367 255.104 163.04 256.334 161.922 257.781C160.82 258.931 159.878 260.257 159.126 261.716C156.747 266.901 160.879 270.283 165.495 271.329Z" fill="#3B3E3C"/>
<path d="M165.495 271.329C168.462 272.115 171.507 272.482 174.557 272.421C177.632 272.254 180.796 271.276 183.128 269.191C185.46 267.106 186.803 263.793 185.985 260.927C184.921 257.182 180.85 255.317 177.121 254.142C173.486 252.997 169.279 252.163 165.849 254.142C164.367 255.104 163.04 256.334 161.922 257.781C160.82 258.931 159.878 260.257 159.126 261.716C156.747 266.901 160.879 270.283 165.495 271.329Z" fill="url(#paint11_linear)" fill-opacity="0.5"/>
<path d="M154.162 260.996C156.064 265.059 160.442 267.265 164.553 266.947C166.701 266.78 168.911 265.939 170.302 264.112C172.818 260.798 171.304 255.939 162.89 252.914C159.501 251.693 153.521 259.638 154.162 260.996Z" fill="#FFD1A9"/>
<path d="M260.13 31.2084C260.355 30.2532 260.983 29.2448 261.869 29.2676C262.147 29.2944 262.413 29.3989 262.645 29.5712C262.876 29.7435 263.064 29.9781 263.192 30.2532C263.44 30.8088 263.582 31.4154 263.608 32.0348C263.756 33.5888 263.733 35.1571 263.54 36.705C263.49 37.8974 263.031 39.0232 262.258 39.8513C262.23 39.8909 262.194 39.9216 262.152 39.9401C262.11 39.9586 262.064 39.9643 262.02 39.9566C261.975 39.9488 261.933 39.9279 261.898 39.8961C261.863 39.8643 261.837 39.8226 261.821 39.7755C261.083 38.4924 260.581 37.0599 260.342 35.5602C260.11 34.1273 259.789 32.6489 260.13 31.2084Z" fill="#FFD1A9"/>
<path d="M222.567 42.626C222.141 42.634 221.734 42.8272 221.435 43.1643C221.223 43.4924 221.117 43.8906 221.135 44.294C221.08 47.0536 223.105 49.3356 225.267 50.7003C226.181 51.2765 227.422 51.7238 228.206 50.9429C228.991 50.162 228.738 48.767 228.343 47.6905C227.32 44.8701 225.697 42.2773 222.567 42.626Z" fill="#FFD1A9"/>
<path d="M227.163 47.7284C230.245 54.855 233.422 62.1332 238.509 67.6601C239.941 69.4538 241.782 70.7848 243.838 71.5133C245.893 72.2418 248.087 72.3407 250.189 71.7996C253.176 71.3372 256.224 70.2833 258.371 67.88C259.521 66.4905 260.43 64.8762 261.051 63.1188C265.613 51.2614 262.879 37.3418 257.451 25.9241C255.767 22.3911 253.728 18.8884 250.673 16.8263C246.364 13.8695 240.827 14.2638 235.979 15.8407C231.745 17.2205 222.342 20.7687 221.435 26.4017C220.337 33.1871 224.626 41.8755 227.163 47.7284Z" fill="#FFD1A9"/>
<path d="M216.403 29.0551C215.477 27.4813 214.814 25.7349 214.446 23.8997C214.18 22.0423 214.623 19.9498 215.966 18.8201C216.298 18.5996 216.595 18.3205 216.846 17.9938C217.073 17.5056 217.177 16.9579 217.146 16.4092C217.391 11.2235 221.237 6.94754 225.608 5.037C229.978 3.12647 234.765 3.16437 239.436 3.14921C244.107 3.13404 248.934 3.02032 253.209 0.927826C253.669 2.55098 253.657 4.29367 253.175 5.90887C254.28 5.15072 255.794 6.42441 255.944 7.87247C256.094 9.32053 255.364 10.6625 254.669 11.8907C257.396 12.6488 258.808 16.0681 259.06 19.1765C259.312 22.2849 258.821 25.4918 259.53 28.5169C259.783 29.3355 259.957 30.1819 260.049 31.0415C260.099 31.4784 260.038 31.9224 259.871 32.3222C259.705 32.722 259.44 33.0612 259.108 33.3008C257.873 28.7519 255.248 24.8777 252.664 21.1022C251.937 19.9061 251.039 18.8508 250.005 17.9786C249.483 17.5462 248.876 17.2598 248.234 17.1436C247.592 17.0275 246.934 17.0851 246.316 17.3114C245.516 17.8067 244.757 18.3774 244.045 19.0173C243.13 19.5779 242.129 19.9431 241.093 20.0938C235.256 21.2917 228.901 21.231 224.012 24.9763C223.387 25.3891 222.881 25.9914 222.553 26.7125C222.326 27.5231 222.294 28.3853 222.458 29.2144L223.473 37.9255C223.692 39.8057 224.012 41.8148 225.287 43.187C221.544 39.1688 218.946 34.0362 216.403 29.0551Z" fill="#3B3E3C"/>
<path d="M216.403 29.0551C215.477 27.4813 214.814 25.7349 214.446 23.8997C214.18 22.0423 214.623 19.9498 215.966 18.8201C216.298 18.5996 216.595 18.3205 216.846 17.9938C217.073 17.5056 217.177 16.9579 217.146 16.4092C217.391 11.2235 221.237 6.94754 225.608 5.037C229.978 3.12647 234.765 3.16437 239.436 3.14921C244.107 3.13404 248.934 3.02032 253.209 0.927826C253.669 2.55098 253.657 4.29367 253.175 5.90887C254.28 5.15072 255.794 6.42441 255.944 7.87247C256.094 9.32053 255.364 10.6625 254.669 11.8907C257.396 12.6488 258.808 16.0681 259.06 19.1765C259.312 22.2849 258.821 25.4918 259.53 28.5169C259.783 29.3355 259.957 30.1819 260.049 31.0415C260.099 31.4784 260.038 31.9224 259.871 32.3222C259.705 32.722 259.44 33.0612 259.108 33.3008C257.873 28.7519 255.248 24.8777 252.664 21.1022C251.937 19.9061 251.039 18.8508 250.005 17.9786C249.483 17.5462 248.876 17.2598 248.234 17.1436C247.592 17.0275 246.934 17.0851 246.316 17.3114C245.516 17.8067 244.757 18.3774 244.045 19.0173C243.13 19.5779 242.129 19.9431 241.093 20.0938C235.256 21.2917 228.901 21.231 224.012 24.9763C223.387 25.3891 222.881 25.9914 222.553 26.7125C222.326 27.5231 222.294 28.3853 222.458 29.2144L223.473 37.9255C223.692 39.8057 224.012 41.8148 225.287 43.187C221.544 39.1688 218.946 34.0362 216.403 29.0551Z" fill="url(#paint12_linear)"/>
<path d="M84.6881 181.443C86.5061 181.343 88.3279 181.368 90.143 181.519C91.5067 181.633 93.2455 182.171 93.4364 183.695C93.5932 184.9 92.6045 185.969 91.5749 186.348C90.5453 186.727 89.4134 186.765 88.3838 187.19C90.4247 187.064 92.452 187.627 94.2001 188.805C94.4595 188.953 94.6767 189.179 94.8274 189.457C95.1956 190.283 94.3774 191.14 93.641 191.549C92.6667 192.084 91.6358 192.482 90.5726 192.732C91.8443 192.764 93.0897 193.141 94.2001 193.831C94.6673 194.077 95.0484 194.487 95.2843 194.999C95.4046 195.475 95.3685 195.982 95.1822 196.431C94.996 196.88 94.672 197.24 94.2683 197.447C93.4476 197.838 92.5528 197.997 91.6636 197.91C92.4396 198.151 93.1619 198.569 93.7842 199.138C94.0884 199.428 94.3065 199.813 94.41 200.244C94.5134 200.674 94.4973 201.129 94.3637 201.549C93.9614 202.512 92.8705 202.785 91.9295 202.936L86.236 203.877C85.662 204.008 85.0734 204.041 84.4904 203.975C83.7405 203.832 83.0467 203.441 82.4994 202.853C80.4538 200.768 80.297 197.311 80.2833 194.233L80.2424 187.114C80.2219 183.96 81.6879 181.64 84.6881 181.443Z" fill="#FFD1A9"/>
<path d="M182.739 201.989C187.226 198.289 191.78 194.536 197.01 192.353C202.24 190.169 208.315 189.707 213.273 192.557C218.23 195.408 221.571 202.102 219.928 208.031C219.246 210.579 217.732 212.747 216.232 214.809C206.74 227.88 195.524 239.57 182.412 247.902C169.299 256.234 154.176 261.102 139.1 260.29C138.549 260.373 137.991 260.214 137.545 259.845C137.099 259.477 136.801 258.929 136.713 258.319L134.47 251.625C133.947 250.361 133.686 248.982 133.706 247.591C133.89 245.408 135.411 243.695 136.85 242.193C151.066 227.447 167.151 214.801 182.739 201.989Z" fill="#3B3E3C"/>
<path d="M182.739 201.989C187.226 198.289 191.78 194.536 197.01 192.353C202.24 190.169 208.315 189.707 213.273 192.557C218.23 195.408 221.571 202.102 219.928 208.031C219.246 210.579 217.732 212.747 216.232 214.809C206.74 227.88 195.524 239.57 182.412 247.902C169.299 256.234 154.176 261.102 139.1 260.29C138.549 260.373 137.991 260.214 137.545 259.845C137.099 259.477 136.801 258.929 136.713 258.319L134.47 251.625C133.947 250.361 133.686 248.982 133.706 247.591C133.89 245.408 135.411 243.695 136.85 242.193C151.066 227.447 167.151 214.801 182.739 201.989Z" fill="url(#paint13_linear)"/>
<path d="M256.824 146.743C262.019 147.789 267.181 145.128 271.927 142.535L283.389 136.273C284.77 135.375 286.306 134.812 287.896 134.62C289.485 134.552 291.23 135.378 291.789 137.061C292.41 138.888 291.387 140.958 289.996 142.148C288.605 143.339 286.88 143.938 285.339 144.87C280.866 147.592 278.214 152.959 274.102 156.318C271.528 158.304 268.62 159.691 265.551 160.397C257.628 162.467 248.662 161.413 242.368 155.651C238.495 152.103 231.158 137.167 238.277 133.149C241.898 131.117 244.284 136.773 246.337 139.214C249.248 142.679 252.542 145.878 256.824 146.743Z" fill="#FFD1A9"/>
<path d="M193.117 179.737C193.117 179.737 186.878 192.125 192.667 203.278C198.456 214.43 222.969 217.895 227.442 213.68C231.915 209.464 240.145 201.792 240.145 201.792C240.145 201.792 238.141 196.583 241.925 188.411C245.709 180.238 247.939 178.009 249.5 178.994C251.062 179.98 261.31 191.883 262.647 198.077C263.983 204.271 272.677 206.25 275.35 206.5C278.023 206.75 286.26 202.285 286.26 202.285C286.26 202.285 285.148 188.411 280.689 183.21C276.229 178.009 266.874 160.662 253.503 167.349C240.132 174.036 230.777 177.759 230.777 177.759L193.117 179.737Z" fill="#3B3E3C"/>
<path d="M193.117 179.737C193.117 179.737 186.878 192.125 192.667 203.278C198.456 214.43 222.969 217.895 227.442 213.68C231.915 209.464 240.145 201.792 240.145 201.792C240.145 201.792 238.141 196.583 241.925 188.411C245.709 180.238 247.939 178.009 249.5 178.994C251.062 179.98 261.31 191.883 262.647 198.077C263.983 204.271 272.677 206.25 275.35 206.5C278.023 206.75 286.26 202.285 286.26 202.285C286.26 202.285 285.148 188.411 280.689 183.21C276.229 178.009 266.874 160.662 253.503 167.349C240.132 174.036 230.777 177.759 230.777 177.759L193.117 179.737Z" fill="url(#paint14_linear)"/>
<path d="M198.422 136.636C196.656 143.619 197.468 151.11 196.172 158.221C195.367 162.679 193.745 166.924 193.11 171.413C192.476 175.901 193.015 180.958 195.92 184.165C197.679 185.947 199.856 187.141 202.2 187.607C207.443 188.896 212.959 188.016 218.039 186.09C223.119 184.165 227.838 181.238 232.522 178.327C233.767 177.652 234.9 176.75 235.877 175.658C237.725 173.384 237.984 170.003 238.025 166.909C238.113 160.738 237.725 154.498 238.802 148.441C239.559 144.142 241.052 139.942 240.923 135.552C240.807 132.768 240.043 130.064 238.706 127.707C237.368 125.349 235.503 123.418 233.293 122.103C229.345 119.828 224.844 119.76 220.562 118.835C216.969 118.077 215.155 117.493 211.637 119.373C208.47 121.062 205.657 123.471 203.381 126.445C201.105 129.419 199.415 132.891 198.422 136.636Z" fill="#5DB07B"/>
<path d="M198.422 136.636C196.656 143.619 197.468 151.11 196.172 158.221C195.367 162.679 193.745 166.924 193.11 171.413C192.476 175.901 193.015 180.958 195.92 184.165C197.679 185.947 199.856 187.141 202.2 187.607C207.443 188.896 212.959 188.016 218.039 186.09C223.119 184.165 227.838 181.238 232.522 178.327C233.767 177.652 234.9 176.75 235.877 175.658C237.725 173.384 237.984 170.003 238.025 166.909C238.113 160.738 237.725 154.498 238.802 148.441C239.559 144.142 241.052 139.942 240.923 135.552C240.807 132.768 240.043 130.064 238.706 127.707C237.368 125.349 235.503 123.418 233.293 122.103C229.345 119.828 224.844 119.76 220.562 118.835C216.969 118.077 215.155 117.493 211.637 119.373C208.47 121.062 205.657 123.471 203.381 126.445C201.105 129.419 199.415 132.891 198.422 136.636Z" fill="url(#paint15_linear)"/>
<path d="M194.692 175.378C194.447 179.76 194.645 184.946 197.911 187.41C199.346 188.366 200.977 188.901 202.65 188.964C205.909 189.282 209.192 189.026 212.38 188.206C213.539 187.91 219.609 185.465 219.609 185.465C219.289 184.919 210.184 180.404 208.411 178.721C205.554 176.068 205.684 171.178 206.482 167.137C207.28 163.096 208.411 158.714 206.802 155.006C205.193 151.299 198.408 147.933 196.881 152.967C194.836 159.608 195.074 168.403 194.692 175.378Z" fill="#FFD1A9"/>
<path d="M206.523 71.1552C205.416 72.6534 204.666 74.4365 204.341 76.3409C203.522 80.0417 203.318 83.8779 203.741 87.66C204.32 92.8458 206.032 98.2741 204.197 103.104C203.625 104.62 202.745 105.901 202.152 107.364C201.795 108.071 201.574 108.852 201.502 109.659C201.43 110.465 201.51 111.279 201.736 112.05C201.9 112.539 202.205 112.954 202.602 113.232C202.987 113.426 203.416 113.486 203.832 113.403C204.249 113.321 204.633 113.1 204.934 112.77C205.529 112.1 205.994 111.299 206.297 110.42C205.759 111.489 206.509 112.959 207.573 113.278C208.115 113.396 208.676 113.351 209.198 113.147C209.719 112.943 210.182 112.588 210.539 112.118C211.239 111.166 211.779 110.083 212.134 108.919C212.272 109.672 212.569 110.379 213 110.981C215.046 110.435 216.219 108.001 216.982 105.787C219.096 99.6615 220.392 93.058 219.71 86.5456C219.151 81.5797 212.843 63.4372 206.523 71.1552Z" fill="#3B3E3C"/>
<path d="M206.523 71.1552C205.416 72.6534 204.666 74.4365 204.341 76.3409C203.522 80.0417 203.318 83.8779 203.741 87.66C204.32 92.8458 206.032 98.2741 204.197 103.104C203.625 104.62 202.745 105.901 202.152 107.364C201.795 108.071 201.574 108.852 201.502 109.659C201.43 110.465 201.51 111.279 201.736 112.05C201.9 112.539 202.205 112.954 202.602 113.232C202.987 113.426 203.416 113.486 203.832 113.403C204.249 113.321 204.633 113.1 204.934 112.77C205.529 112.1 205.994 111.299 206.297 110.42C205.759 111.489 206.509 112.959 207.573 113.278C208.115 113.396 208.676 113.351 209.198 113.147C209.719 112.943 210.182 112.588 210.539 112.118C211.239 111.166 211.779 110.083 212.134 108.919C212.272 109.672 212.569 110.379 213 110.981C215.046 110.435 216.219 108.001 216.982 105.787C219.096 99.6615 220.392 93.058 219.71 86.5456C219.151 81.5797 212.843 63.4372 206.523 71.1552Z" fill="url(#paint16_linear)"/>
<path d="M231.506 125.386C231.615 127.994 231.86 130.693 231.131 133.24C230.401 135.787 228.253 137.849 226.658 136.735C225.987 136.133 225.466 135.35 225.144 134.461L219.559 122.262C219.165 121.516 218.914 120.687 218.823 119.828C218.748 118.312 219.334 116.113 219.355 114.68C219.355 112.27 218.864 109.017 219.355 107.599C219.846 106.182 223.023 108.972 223.835 107.834C224.646 106.697 226.126 106.727 227.196 107.311C229.433 108.532 231.124 111.345 231.642 114.718C231.758 115.476 231.922 116.166 232.065 116.902C232.31 118.168 232.392 117.524 232.133 118.896C231.658 121.017 231.447 123.201 231.506 125.386Z" fill="#FFD1A9"/>
<path d="M221.898 116.894C223.507 120.306 225.307 123.968 228.512 125.499C228.854 125.704 229.245 125.783 229.63 125.727C229.922 125.635 230.186 125.457 230.394 125.211C231.41 124.066 231.587 122.323 231.703 120.715L231.976 117.008C232.035 116.69 231.989 116.359 231.846 116.075C231.706 115.9 231.527 115.767 231.328 115.689L223.616 111.898C222.723 111.451 220.711 110.647 220.207 112.088C219.805 113.21 221.434 115.901 221.898 116.894Z" fill="#E4B387"/>
<path d="M230.313 120.48C225.885 119.054 222.048 115.944 219.472 111.693C218.745 110.553 218.171 109.302 217.767 107.979C217.366 106.433 217.164 104.833 217.167 103.225C217.035 96.7875 218.261 90.4052 220.747 84.5896C221.327 83.1192 222.106 81.7564 223.058 80.5487C225.104 78.0771 228.206 76.9702 231.2 76.4168C233.508 76.0166 235.839 75.8087 238.175 75.7951C239.493 75.68 240.818 75.8897 242.055 76.4092C242.958 76.9093 243.757 77.6144 244.4 78.4789C246.132 80.6397 246.18 83.5661 246.535 86.4774C246.923 89.5858 243.582 124.491 230.313 120.48Z" fill="#FFD1A9"/>
<path d="M251.607 81.0566C251.123 77.2203 249.63 73.6419 247.973 70.2302C247.216 68.676 246.371 67.0915 245.041 66.1286C243.967 65.4647 242.793 65.0229 241.577 64.8246L234.274 63.1264C232.221 62.5683 230.121 62.2457 228.008 62.1635C221.019 62.1635 214.528 67.8648 212.216 75.1961C209.905 82.5274 211.493 91.0186 215.626 97.2658C215.748 97.5035 215.912 97.7118 216.107 97.8784C216.303 98.045 216.526 98.1666 216.764 98.2362C217.548 98.3348 218.087 97.3871 218.38 96.5683C219.321 93.9527 219.969 91.2006 221.108 88.676C222.246 86.1513 223.992 83.8162 226.392 82.8837C227.59 82.5185 228.809 82.245 230.04 82.0649C232.093 81.5936 234.02 80.6026 235.672 79.1688C235.808 79.0072 235.975 78.8817 236.16 78.8016C236.345 78.7216 236.545 78.689 236.743 78.7063C237.097 78.8125 237.288 79.2294 237.479 79.5782C238.795 81.9891 241.714 82.6108 243.473 84.6805C244.482 85.8556 245.034 87.4023 245.812 88.7745C250.148 96.4242 252.105 85.0217 251.607 81.0566Z" fill="#3B3E3C"/>
<path d="M251.607 81.0566C251.123 77.2203 249.63 73.6419 247.973 70.2302C247.216 68.676 246.371 67.0915 245.041 66.1286C243.967 65.4647 242.793 65.0229 241.577 64.8246L234.274 63.1264C232.221 62.5683 230.121 62.2457 228.008 62.1635C221.019 62.1635 214.528 67.8648 212.216 75.1961C209.905 82.5274 211.493 91.0186 215.626 97.2658C215.748 97.5035 215.912 97.7118 216.107 97.8784C216.303 98.045 216.526 98.1666 216.764 98.2362C217.548 98.3348 218.087 97.3871 218.38 96.5683C219.321 93.9527 219.969 91.2006 221.108 88.676C222.246 86.1513 223.992 83.8162 226.392 82.8837C227.59 82.5185 228.809 82.245 230.04 82.0649C232.093 81.5936 234.02 80.6026 235.672 79.1688C235.808 79.0072 235.975 78.8817 236.16 78.8016C236.345 78.7216 236.545 78.689 236.743 78.7063C237.097 78.8125 237.288 79.2294 237.479 79.5782C238.795 81.9891 241.714 82.6108 243.473 84.6805C244.482 85.8556 245.034 87.4023 245.812 88.7745C250.148 96.4242 252.105 85.0217 251.607 81.0566Z" fill="url(#paint17_linear)"/>
<path d="M243.234 133.574C244.952 136 246.752 138.668 246.773 141.754C246.724 143.196 246.456 144.619 245.982 145.962C245.266 148.327 244.434 150.655 243.514 152.929C243.043 154.074 242.45 155.31 241.386 155.727C238.972 154.491 237.595 151.527 237.206 148.6C236.818 145.674 237.206 142.709 237.404 139.76C237.534 137.675 237.554 135.59 237.513 133.505C237.513 132.3 236.702 128.373 237.288 127.44C238.57 125.401 242.354 132.338 243.234 133.574Z" fill="#5DB07B"/>
<path d="M243.234 133.574C244.952 136 246.752 138.668 246.773 141.754C246.724 143.196 246.456 144.619 245.982 145.962C245.266 148.327 244.434 150.655 243.514 152.929C243.043 154.074 242.45 155.31 241.386 155.727C238.972 154.491 237.595 151.527 237.206 148.6C236.818 145.674 237.206 142.709 237.404 139.76C237.534 137.675 237.554 135.59 237.513 133.505C237.513 132.3 236.702 128.373 237.288 127.44C238.57 125.401 242.354 132.338 243.234 133.574Z" fill="#5DB07B"/>
<path d="M202.363 127.463C199.984 131.155 196.608 135.575 194.863 139.684C193.199 143.642 193.158 158.987 193.867 159.298C197.12 160.753 203.557 160.435 206.98 159.601C207.455 159.536 207.899 159.299 208.241 158.926C208.56 158.418 208.706 157.799 208.65 157.182C208.616 152.596 207.027 145.583 206.986 140.996C207.066 138.764 206.848 136.531 206.339 134.37C205.739 132.247 204.579 129.063 202.595 129.396L202.363 127.463Z" fill="#5DB07B"/>
<path d="M205.5 130.708C205.291 130.204 204.968 129.769 204.562 129.445C204.155 129.122 203.681 128.922 203.184 128.865C202.687 128.808 202.186 128.895 201.729 129.118C201.272 129.342 200.875 129.694 200.577 130.139C198.531 133.172 196.213 136.53 194.89 139.684C193.226 143.642 193.186 158.987 193.895 159.298C197.147 160.753 203.584 160.435 207.007 159.601C207.483 159.536 207.926 159.299 208.268 158.926C208.578 158.414 208.714 157.796 208.65 157.182C208.616 152.596 207.027 145.583 206.986 140.996C206.986 138.767 206.53 136.591 206.339 134.37C206.239 133.107 205.956 131.87 205.5 130.708Z" fill="#5DB07B"/>
<path d="M278.772 142.269C281.957 133.536 290.616 126.303 298.594 129.472C324.846 139.904 313.186 209.328 313.916 239.57C313.927 240.795 313.677 242.005 313.186 243.102C312.696 244.198 311.978 245.149 311.093 245.878C309.831 246.879 301.178 245.249 299.637 245.423C294.646 245.992 283.498 180.056 278.234 170.753C273.495 162.376 275.472 151.299 278.772 142.269Z" fill="#3B3E3C"/>
<path d="M278.772 142.269C281.957 133.536 290.616 126.303 298.594 129.472C324.846 139.904 313.186 209.328 313.916 239.57C313.927 240.795 313.677 242.005 313.186 243.102C312.696 244.198 311.978 245.149 311.093 245.878C309.831 246.879 301.178 245.249 299.637 245.423C294.646 245.992 283.498 180.056 278.234 170.753C273.495 162.376 275.472 151.299 278.772 142.269Z" fill="url(#paint18_linear)"/>
<path d="M165.734 192.429C165.638 193.596 165.809 194.908 166.634 195.628C166.944 195.871 167.284 196.062 167.643 196.197L171.052 197.713C171.259 197.841 171.489 197.916 171.725 197.93C171.962 197.944 172.198 197.899 172.416 197.796C172.689 197.599 172.811 197.235 173.023 196.962C173.643 196.166 174.816 196.325 175.655 196.818C176.369 197.246 176.982 197.857 177.441 198.6C177.823 199.222 178.164 199.987 178.805 200.184C179.135 200.243 179.474 200.193 179.779 200.041C180.084 199.889 180.343 199.641 180.523 199.328C181.887 197.349 181.151 194.422 179.903 192.338C177.996 189.187 175.168 186.867 171.898 185.772C168.345 184.544 166.027 188.736 165.734 192.429Z" fill="#FFD1A9"/>
<path d="M141.691 183.627C143.103 184.961 142.755 187.516 141.875 189.328C139.557 194.119 128.497 202.55 123.499 198.57C119.06 195.037 125.654 187.053 128.395 184.961C131.6 182.505 138.35 180.458 141.691 183.627Z" fill="#FFD1A9"/>
<path d="M245.47 209.555L264.378 234.324C265.156 235.355 265.776 236.56 266.928 236.962C268.831 237.622 275.704 239.123 275.411 238.221C268.517 216.651 263.226 196.773 253.025 182.557C251.927 181.041 250.68 179.457 248.995 178.858C246.22 177.865 243.159 179.942 241.706 182.762C236.961 192.057 239.872 202.194 245.47 209.555Z" fill="#FFD1A9"/>
<path d="M260.697 180.541C260.963 177.228 262.831 173.831 265.749 173.088C267.125 172.793 268.549 172.959 269.84 173.566C274.573 175.636 277.143 181.254 278.882 186.561C283.859 201.761 289.205 222.133 287.248 238.153C287.085 239.472 282.387 238.911 281.193 238.812C280.437 238.744 272.622 218.721 269.097 209.244C266.083 201.208 259.981 189.51 260.697 180.541Z" fill="#FFD1A9"/>
<path d="M215.912 94.3014C215.604 94.2369 215.287 94.2369 214.978 94.3014C214.752 94.372 214.541 94.4932 214.358 94.6574C214.175 94.8216 214.024 95.0255 213.914 95.2567C213.696 95.7298 213.56 96.2441 213.512 96.773C213.302 98.1025 213.492 99.4717 214.051 100.67C214.336 101.263 214.767 101.753 215.293 102.085C215.82 102.416 216.42 102.575 217.024 102.542C217.251 102.529 217.471 102.445 217.658 102.3C217.925 101.985 218.078 101.572 218.088 101.14C218.279 99.7146 218.872 97.6373 218.565 96.2119C218.292 94.9079 216.942 94.4682 215.912 94.3014Z" fill="#FFD1A9"/>
<path d="M215.694 96.015C215.453 96.0169 215.218 96.0988 215.019 96.25C214.819 96.4012 214.665 96.615 214.576 96.8641C214.493 97.1527 214.467 97.458 214.501 97.7587C214.526 98.4537 214.711 99.1299 215.04 99.7223C215.227 100.074 215.498 100.361 215.823 100.552C216.148 100.744 216.514 100.832 216.881 100.806C217 100.806 217.117 100.77 217.22 100.703C217.323 100.636 217.409 100.54 217.468 100.425C217.528 100.31 217.559 100.18 217.559 100.047C217.558 99.9144 217.527 99.7841 217.467 99.6692C217.198 99.0307 216.999 98.3587 216.874 97.6677C216.833 96.8717 216.567 96.0377 215.694 96.015Z" fill="#E4B387"/>
<path d="M157.149 73.2096C157.802 73.4244 158.479 73.5342 159.16 73.5356C161.581 73.6645 164.199 73.7252 166.19 72.2013C168.181 70.6774 169.054 67.9784 169.797 65.4462C170.541 62.914 171.366 60.1998 173.282 58.6229C175.327 56.9398 178.321 56.6972 179.732 54.3621C180.101 53.7937 180.273 53.0965 180.216 52.3985C180.034 51.5902 179.649 50.8565 179.105 50.2832C178.355 49.1618 177.366 48.2655 176.227 47.6752C175.471 47.3837 174.675 47.24 173.875 47.2506C171.393 47.2227 168.912 47.3467 166.443 47.6221C163.974 47.8799 161.458 48.259 159.256 49.5175C157.127 50.8517 155.292 52.6955 153.883 54.9155C152.517 56.761 151.481 58.8785 150.828 61.1551C150.146 63.7631 150.255 67.0762 151.98 69.1915C153.44 70.9075 155.198 72.2747 157.149 73.2096Z" fill="#3B3E3C"/>
<path d="M172.164 40.2076C174.632 40.3213 176.978 41.3751 179.228 42.482C184.267 45.0218 189.252 48.1833 192.606 53.0961C195.961 58.0089 197.379 64.9384 194.843 70.3971C193.151 66.4459 191.07 62.7157 188.638 59.275C187.245 57.381 185.641 55.6919 183.865 54.2485C182.412 53.0961 180.653 52.4972 179.774 50.7231C177.639 46.4926 176.085 42.8838 172.164 40.2076Z" fill="#3B3E3C"/>
<path d="M235.85 131.815C235.809 132.285 235.85 132.861 236.211 133.073C236.345 133.123 236.487 133.141 236.628 133.127C236.769 133.112 236.906 133.066 237.029 132.99C237.858 132.578 238.567 131.916 239.075 131.079C238.471 132.444 238.234 133.973 238.393 135.484C238.448 135.984 238.604 136.561 239.027 136.727C239.206 136.771 239.391 136.767 239.567 136.716C239.744 136.664 239.907 136.567 240.043 136.432C240.77 135.847 241.293 135 241.523 134.036C240.97 135.809 240.795 137.701 241.011 139.563C241.01 139.755 241.05 139.946 241.127 140.118C241.204 140.291 241.316 140.441 241.455 140.556C241.599 140.617 241.754 140.639 241.908 140.622C242.062 140.605 242.21 140.549 242.341 140.457C243.514 139.699 244.439 138.543 244.98 137.159C245.527 136.182 245.791 135.041 245.737 133.892C245.6 132.762 244.7 131.671 243.691 131.815C243.841 131.815 240.8 125.749 239.341 125.454C236.477 124.87 236.054 129.457 235.85 131.815Z" fill="#FFD1A9"/>
<path opacity="0.5" d="M32.239 204.817C34.6028 209.038 36.6967 213.438 38.5053 217.986C40.1612 222.434 41.2668 227.112 41.7919 231.89C42.6238 239.472 41.7919 247.728 37.7007 253.877C37.6221 254.028 37.4957 254.141 37.3461 254.195C37.0802 254.24 36.8893 253.922 36.7802 253.649C33.9255 246.629 31.0707 239.611 28.216 232.595C26.9614 229.517 25.7068 226.432 24.7181 223.24C22.2867 215.357 21.4964 206.963 22.4065 198.691C22.6793 196.197 22.802 190.867 26.075 193.384C28.5979 195.317 30.6844 201.913 32.239 204.817Z" fill="#5DB07B"/>
<path d="M32.239 204.817C34.6028 209.038 36.6967 213.438 38.5053 217.986C40.1612 222.434 41.2668 227.112 41.7919 231.89C42.6238 239.472 41.7919 247.728 37.7007 253.877C37.6221 254.028 37.4957 254.141 37.3461 254.195C37.0802 254.24 36.8893 253.922 36.7802 253.649C33.9255 246.629 31.0707 239.611 28.216 232.595C26.9614 229.517 25.7068 226.432 24.7181 223.24C22.2867 215.357 21.4964 206.963 22.4065 198.691C22.6793 196.197 22.802 190.867 26.075 193.384C28.5979 195.317 30.6844 201.913 32.239 204.817Z" fill="url(#paint19_linear)"/>
<path opacity="0.24" d="M374.499 248.16C375.447 242.095 380.166 237.607 382.095 231.822C382.76 229.642 383.193 227.382 383.384 225.09C384.411 215.8 384.505 206.412 383.664 197.099C382.423 183.384 378.638 189.479 375.29 198.797C369.598 214.588 369.316 232.153 374.499 248.16Z" fill="#5DB07B"/>
<path d="M374.499 248.16C375.447 242.095 380.166 237.607 382.095 231.822C382.76 229.642 383.193 227.382 383.384 225.09C384.411 215.8 384.505 206.412 383.664 197.099C382.423 183.384 378.638 189.479 375.29 198.797C369.598 214.588 369.316 232.153 374.499 248.16Z" fill="url(#paint20_linear)"/>
<defs>
<linearGradient id="paint0_linear" x1="5217.74" y1="8193.98" x2="5895.63" y2="8193.98" gradientUnits="userSpaceOnUse">
<stop offset="0.12" stop-color="#010101" stop-opacity="0"/>
<stop offset="0.67" stop-color="#010101" stop-opacity="0.67"/>
<stop offset="0.95" stop-color="#010101"/>
</linearGradient>
<linearGradient id="paint1_linear" x1="3845.71" y1="31258" x2="11419.4" y2="31724.2" gradientUnits="userSpaceOnUse">
<stop offset="0.12" stop-color="#010101" stop-opacity="0"/>
<stop offset="0.67" stop-color="#010101" stop-opacity="0.67"/>
<stop offset="0.95" stop-color="#010101"/>
</linearGradient>
<linearGradient id="paint2_linear" x1="20164.7" y1="12431.2" x2="20830.7" y2="10982.7" gradientUnits="userSpaceOnUse">
<stop offset="0.12" stop-color="#010101" stop-opacity="0"/>
<stop offset="0.67" stop-color="#010101" stop-opacity="0.67"/>
<stop offset="0.95" stop-color="#010101"/>
</linearGradient>
<linearGradient id="paint3_linear" x1="10607" y1="28855.5" x2="2099.51" y2="32264.5" gradientUnits="userSpaceOnUse">
<stop offset="0.12" stop-color="#010101" stop-opacity="0"/>
<stop offset="0.67" stop-color="#010101" stop-opacity="0.67"/>
<stop offset="0.95" stop-color="#010101"/>
</linearGradient>
<linearGradient id="paint4_linear" x1="29334.6" y1="24751.4" x2="29583.5" y2="29428.8" gradientUnits="userSpaceOnUse">
<stop offset="0.12" stop-color="#1E1F1E"/>
<stop offset="0.67" stop-color="#010101" stop-opacity="0.67"/>
<stop offset="0.95" stop-color="#010101"/>
</linearGradient>
<linearGradient id="paint5_linear" x1="7229.94" y1="11499.9" x2="9580.87" y2="11499.9" gradientUnits="userSpaceOnUse">
<stop offset="0.12" stop-color="#010101" stop-opacity="0"/>
<stop offset="0.67" stop-color="#010101" stop-opacity="0.67"/>
<stop offset="0.95" stop-color="#010101"/>
</linearGradient>
<linearGradient id="paint6_linear" x1="39782.5" y1="39900.7" x2="40490.5" y2="30068.6" gradientUnits="userSpaceOnUse">
<stop offset="0.12" stop-color="#010101" stop-opacity="0"/>
<stop offset="0.67" stop-color="#010101" stop-opacity="0.67"/>
<stop offset="0.95" stop-color="#010101"/>
</linearGradient>
<linearGradient id="paint7_linear" x1="19666.7" y1="15356" x2="24962.9" y2="15356" gradientUnits="userSpaceOnUse">
<stop offset="0.12" stop-color="#010101" stop-opacity="0"/>
<stop offset="0.67" stop-color="#010101" stop-opacity="0.67"/>
<stop offset="0.95" stop-color="#010101"/>
</linearGradient>
<linearGradient id="paint8_linear" x1="14655.7" y1="17977.8" x2="16072.5" y2="17977.8" gradientUnits="userSpaceOnUse">
<stop offset="0.12" stop-color="#010101" stop-opacity="0"/>
<stop offset="0.67" stop-color="#010101" stop-opacity="0.67"/>
<stop offset="0.95" stop-color="#010101"/>
</linearGradient>
<linearGradient id="paint9_linear" x1="12748.1" y1="27090" x2="25541.6" y2="27090" gradientUnits="userSpaceOnUse">
<stop offset="0.12" stop-color="#010101" stop-opacity="0"/>
<stop offset="0.67" stop-color="#010101" stop-opacity="0.67"/>
<stop offset="0.95" stop-color="#010101"/>
</linearGradient>
<linearGradient id="paint10_linear" x1="10641.2" y1="13607.4" x2="12939.8" y2="13607.4" gradientUnits="userSpaceOnUse">
<stop offset="0.12" stop-color="#1E1F1E"/>
<stop offset="0.67" stop-color="#010101" stop-opacity="0.67"/>
<stop offset="0.95" stop-color="#010101"/>
</linearGradient>
<linearGradient id="paint11_linear" x1="8710.43" y1="10035.1" x2="7850.25" y2="9405.99" gradientUnits="userSpaceOnUse">
<stop offset="0.12" stop-color="#010101" stop-opacity="0"/>
<stop offset="0.67" stop-color="#010101" stop-opacity="0.67"/>
<stop offset="0.95" stop-color="#010101"/>
</linearGradient>
<linearGradient id="paint12_linear" x1="15996.6" y1="7261.06" x2="19057.6" y2="7261.06" gradientUnits="userSpaceOnUse">
<stop offset="0.12" stop-color="#010101" stop-opacity="0"/>
<stop offset="0.67" stop-color="#010101" stop-opacity="0.67"/>
<stop offset="0.95" stop-color="#010101"/>
</linearGradient>
<linearGradient id="paint13_linear" x1="19806.5" y1="30913.5" x2="30816.6" y2="30913.5" gradientUnits="userSpaceOnUse">
<stop offset="0.12" stop-color="#010101" stop-opacity="0"/>
<stop offset="0.67" stop-color="#010101" stop-opacity="0.67"/>
<stop offset="0.95" stop-color="#010101"/>
</linearGradient>
<linearGradient id="paint14_linear" x1="223.208" y1="141.019" x2="251.983" y2="228.113" gradientUnits="userSpaceOnUse">
<stop offset="0.12" stop-color="#010101" stop-opacity="0"/>
<stop offset="0.45" stop-color="#010101" stop-opacity="0.35"/>
<stop offset="0.67" stop-color="#010101" stop-opacity="0.67"/>
<stop offset="0.95" stop-color="#010101"/>
</linearGradient>
<linearGradient id="paint15_linear" x1="15274.3" y1="24282.3" x2="18661.4" y2="24282.3" gradientUnits="userSpaceOnUse">
<stop stop-color="white" stop-opacity="0"/>
<stop offset="0.95" stop-color="white"/>
</linearGradient>
<linearGradient id="paint16_linear" x1="6212.62" y1="11694" x2="6710.22" y2="11694" gradientUnits="userSpaceOnUse">
<stop offset="0.12" stop-color="#010101" stop-opacity="0"/>
<stop offset="0.45" stop-color="#010101" stop-opacity="0.35"/>
<stop offset="0.67" stop-color="#010101" stop-opacity="0.67"/>
<stop offset="0.95" stop-color="#010101"/>
</linearGradient>
<linearGradient id="paint17_linear" x1="14018.6" y1="9026.55" x2="16428.3" y2="9026.55" gradientUnits="userSpaceOnUse">
<stop offset="0.12" stop-color="#010101" stop-opacity="0"/>
<stop offset="0.67" stop-color="#010101" stop-opacity="0.67"/>
<stop offset="0.95" stop-color="#010101"/>
</linearGradient>
<linearGradient id="paint18_linear" x1="17872.5" y1="45943.8" x2="20273.5" y2="45943.8" gradientUnits="userSpaceOnUse">
<stop offset="0.12" stop-color="#010101" stop-opacity="0"/>
<stop offset="0.67" stop-color="#010101" stop-opacity="0.67"/>
<stop offset="0.95" stop-color="#010101"/>
</linearGradient>
<linearGradient id="paint19_linear" x1="1319.99" y1="27193.5" x2="2868.18" y2="27116.9" gradientUnits="userSpaceOnUse">
<stop offset="0.12" stop-color="#010101" stop-opacity="0"/>
<stop offset="0.67" stop-color="#010101" stop-opacity="0.67"/>
<stop offset="0.95" stop-color="#010101"/>
</linearGradient>
<linearGradient id="paint20_linear" x1="7835.99" y1="24704.4" x2="9808.73" y2="24953.2" gradientUnits="userSpaceOnUse">
<stop offset="0.12" stop-color="#010101" stop-opacity="0"/>
<stop offset="0.67" stop-color="#010101" stop-opacity="0.67"/>
<stop offset="0.95" stop-color="#010101"/>
</linearGradient>
</defs>
</svg>
