<svg width="509" height="354" viewBox="0 0 509 354" fill="none" xmlns="http://www.w3.org/2000/svg">
<path d="M188.36 79.3482C185.882 80.685 183.724 82.5443 182.035 84.7976C176.185 93.2135 181.455 105.941 175.68 114.417C174.268 116.498 172.283 118.134 170.663 120.059C166.991 124.423 165.296 130.17 164.895 135.858C164.494 141.545 165.274 147.24 166.054 152.883C166.27 154.414 166.523 156.035 167.541 157.202C168.559 158.369 170.365 158.897 172.001 159.254C186.694 162.451 201.761 163.587 216.768 162.629C219.369 162.458 222.097 162.191 224.267 160.741C229.374 157.351 228.824 149.894 230.273 143.931C231.492 138.913 234.458 134.505 236.219 129.65C238.263 124.067 238.672 118.045 239.036 112.112C239.542 103.934 239.475 94.455 233.187 89.1914C231.158 87.4964 228.683 86.4555 226.252 85.4296C219.882 82.7606 213.074 80.9094 206.83 78.181C200.379 75.3559 194.611 75.6904 188.36 79.3482Z" fill="#3B3E3C"/>
<path d="M223.807 97.347C223.807 97.347 235.082 104.737 234.814 116.535C234.547 128.334 226.17 149.046 226.17 149.046L212.137 150.964L223.807 97.347Z" fill="#3B3E3C"/>
<path d="M184.071 115.205C182.183 116.788 180.979 119.026 179.954 121.271C176.69 128.438 174.826 136.162 174.461 144.028L191.445 144.199C192.02 144.254 192.599 144.156 193.124 143.917C193.741 143.464 194.178 142.809 194.358 142.065C196.164 137.233 197.941 132.259 197.896 127.107C197.844 120.595 191.839 108.707 184.071 115.205Z" fill="url(#paint0_linear)"/>
<path d="M308.636 114.327C314.582 114.208 320.491 114.632 326.408 115.071C329.998 115.331 333.618 115.599 337.044 116.677C339.81 117.631 342.466 118.877 344.967 120.394C357.45 127.513 369.034 136.104 379.47 145.983C381.388 147.797 383.93 149.597 386.464 150.214C388.999 150.831 392.061 150.288 393.689 148.206C394.648 146.98 395.004 145.403 395.443 143.902C396.751 139.441 399.531 134.735 404.095 133.694C408.554 132.683 413.155 135.679 415.311 139.694C417.466 143.708 417.644 148.481 417.362 153.031C416.829 160.598 415.284 168.06 412.769 175.216C411.683 178.346 410.338 181.572 407.759 183.646C405.18 185.721 401.813 186.345 398.527 186.62C379.946 188.025 362.256 179.141 345.718 170.495C345.502 179.416 347.524 188.211 348 197.11C348.476 206.009 347.115 215.577 341.229 222.261C333.684 230.736 321.049 232.283 309.706 231.785C299.953 231.347 290.276 229.851 280.845 227.324C278.266 226.633 275.642 225.837 273.583 224.105C271.974 222.658 270.725 220.856 269.934 218.841C263.802 204.552 269.443 182.316 263.386 167.989C231.916 174.472 201.464 175.848 171.963 163.083C170.64 162.503 169.243 161.856 168.433 160.652C167.504 159.276 167.533 157.485 167.69 155.827C168.09 151.039 169.089 146.321 170.663 141.783C182.555 147.426 194.648 153.128 207.64 155.21C220.633 157.291 222.075 154.54 232.206 146.139C239.556 140.043 256.971 131.902 264.285 125.769C276.088 115.889 293.25 114.654 308.636 114.327Z" fill="#5DB07B"/>
<path d="M308.636 114.327C314.582 114.208 320.491 114.632 326.408 115.071C329.998 115.331 333.618 115.599 337.044 116.677C339.81 117.631 342.466 118.877 344.967 120.394C357.45 127.513 369.034 136.104 379.47 145.983C381.388 147.797 383.93 149.597 386.464 150.214C388.999 150.831 392.061 150.288 393.689 148.206C394.648 146.98 395.004 145.403 395.443 143.902C396.751 139.441 399.531 134.735 404.095 133.694C408.554 132.683 413.155 135.679 415.311 139.694C417.466 143.708 417.644 148.481 417.362 153.031C416.829 160.598 415.284 168.06 412.769 175.216C411.683 178.346 410.338 181.572 407.759 183.646C405.18 185.721 401.813 186.345 398.527 186.62C379.946 188.025 362.256 179.141 345.718 170.495C345.502 179.416 347.524 188.211 348 197.11C348.476 206.009 347.115 215.577 341.229 222.261C333.684 230.736 321.049 232.283 309.706 231.785C299.953 231.347 290.276 229.851 280.845 227.324C278.266 226.633 275.642 225.837 273.583 224.105C271.974 222.658 270.725 220.856 269.934 218.841C263.802 204.552 269.443 182.316 263.386 167.989C231.916 174.472 201.464 175.848 171.963 163.083C170.64 162.503 169.243 161.856 168.433 160.652C167.504 159.276 167.533 157.484 167.69 155.827C168.09 151.039 169.089 146.321 170.663 141.783C182.555 147.426 194.648 153.128 207.64 155.21C220.633 157.291 222.075 154.54 232.206 146.139C239.556 140.043 256.971 131.902 264.285 125.769C276.088 115.889 293.25 114.654 308.636 114.327Z" fill="url(#paint1_linear)"/>
<path d="M483.052 276.176C481.597 285.876 478.243 295.193 473.182 303.594C458.472 328.529 433.387 343.302 407.714 349.487C382.042 355.673 355.581 354.171 329.403 352.662L163.364 343.064C141.028 341.778 118.537 340.469 96.8707 334.143C79.2539 328.946 62.6695 320.739 47.8519 309.884C38.1567 302.907 29.4464 294.655 21.9563 285.35C38.9103 282.689 59.6402 285.506 71.4656 285.253L171.755 283.023C237.659 281.581 303.537 280.129 369.391 278.666L483.052 276.176Z" fill="#5DB07B"/>
<path d="M103.813 282.252C91.578 284.239 90.4465 296.601 102.812 297.468C106.535 297.729 110.399 298.041 114.501 299.004C118.551 299.955 119.424 304.324 118.541 308.389C117.766 311.957 121.078 315.179 124.727 315.324C142.042 316.012 153.048 316.62 170.201 316.561C174.505 316.547 177.104 318.359 180.163 321.387C181.748 322.955 185.143 324.843 187.371 324.909C255.411 326.922 323.467 326.352 391.541 323.199C396.402 322.976 401.515 322.656 405.603 320.01C409.691 317.363 412.152 311.549 409.498 307.468C407.625 304.583 404.005 303.512 400.928 301.966C397.851 300.42 394.796 297.312 395.725 294.004C397.517 287.729 410.524 289.32 410.182 282.807C410.063 280.586 408.209 279.095 406.131 278.034C405.445 277.684 405.457 276.651 406.177 276.377C407.05 276.044 406.817 274.751 405.883 274.743L240.092 273.462C210.056 273.224 179.887 272.994 150.037 277.061C135.714 279.012 119.279 279.741 103.813 282.252Z" fill="#278147"/>
<path d="M420.952 207.794C426.252 204.411 432.034 200.887 438.3 201.333C444.566 201.779 450.631 208.373 448.052 214.105C447.264 215.86 445.822 217.258 444.989 219.005C443.763 221.629 444.112 224.692 444.521 227.562C446.669 242.654 449.776 258.437 444.677 272.801C442.774 278.131 439.749 283.283 439.779 288.948C439.779 291.759 440.582 294.546 440.344 297.349C440.106 300.152 438.382 303.17 435.594 303.512C431.447 304.018 429.217 298.881 425.932 296.271C420.885 292.242 413.527 294.569 407.09 294.041C399.791 293.461 393.414 289.06 386.449 286.77C377.723 283.893 367.972 284.332 359.773 280.191C350.423 275.47 344.677 265.396 342.752 255.099C340.827 244.802 342.21 234.201 343.949 223.874C346.283 210.031 350.884 183.513 368.901 182.762C377.411 182.405 387.43 187.155 394.915 190.657C397.524 191.884 421.138 207.69 420.952 207.794Z" fill="white"/>
<path opacity="0.45" d="M371.822 254.727C371.71 257.307 371.673 259.969 372.565 262.385C375.441 270.08 386.799 273.21 387.304 281.41C377.21 285.127 364.709 280.235 359.803 270.652C357.224 265.597 356.681 259.798 356.176 254.148C355.12 242.29 353.835 230.424 353.002 218.551C352.526 211.637 353.203 205.563 361.713 206.567C380.213 208.753 372.327 242.884 371.822 254.727Z" fill="#828482"/>
<path d="M75.732 213.34C69.9865 215.674 64.3005 219.064 58.1091 218.722C54.3927 218.514 50.7581 216.931 47.0194 217.109C43.2808 217.287 39.1779 220.469 40.159 224.083C40.605 225.703 41.928 226.9 42.872 228.29C45.4957 232.164 44.9903 237.249 44.8862 241.925C44.6919 250.937 46.3516 259.893 49.7621 268.236C52.2892 274.399 55.79 280.265 56.9347 286.822C57.9678 292.68 57.7969 300.07 63.0964 302.762C71.9711 295.491 84.8743 297.557 96.2761 296.249C109.774 294.703 122.06 288.019 133.952 281.454C135.228 280.87 136.354 280.003 137.245 278.919C138.046 277.544 138.428 275.966 138.345 274.377C138.464 267.834 136.71 261.389 134.532 255.218C129.672 241.479 122.684 228.589 113.825 217.02C109.254 211.072 107.217 206.991 99.5539 207.89C91.482 208.842 83.2911 210.262 75.732 213.34Z" fill="white"/>
<path opacity="0.45" d="M92.8867 230.788C92.0171 232.699 91.1252 234.684 91.1326 236.781C91.1326 242.661 97.6957 246.208 100.215 251.523C92.1806 257.471 89.6386 269.693 94.6334 278.347C96.2463 281.142 98.6025 283.848 98.4167 287.06C98.3052 289.038 97.2423 291.134 98.1863 292.874C103.136 293.193 107.752 290.643 112.308 288.703C119.905 285.439 128.036 283.633 136.093 281.841C135.276 277.603 133.009 273.812 130.779 270.117C122.603 256.504 114.308 242.81 103.701 230.982C101.226 228.224 100.104 223.51 97.5693 221.362C95.4213 223.51 94.2098 227.882 92.8867 230.788Z" fill="url(#paint2_linear)"/>
<path d="M385.416 288.138C386.947 289.907 388.434 292.115 388.144 294.517C387.824 297.245 385.297 299.082 382.815 299.721C379.507 300.539 376.058 299.855 372.721 299.171L345.183 293.528C344.531 293.453 343.909 293.212 343.377 292.829C342.836 292.288 342.46 291.605 342.292 290.859C340.946 286.398 341.31 279.313 344.685 275.819C347.465 272.934 352.192 273.41 355.752 273.589C361.421 273.893 366.97 275.339 372.067 277.839C377.164 280.339 381.704 283.842 385.416 288.138Z" fill="#3B3E3C"/>
<path d="M383.655 289.915C385.141 291.521 386.628 293.521 386.33 295.699C386.011 298.175 383.536 299.832 381.128 300.39C377.887 301.133 374.512 300.516 371.242 299.899L344.246 294.784C343.613 294.712 343.005 294.493 342.47 294.145C341.95 293.668 341.582 293.047 341.415 292.361C340.091 288.302 340.448 281.893 343.756 278.719C346.484 276.109 351.122 276.54 354.608 276.696C365.634 277.183 376.044 281.92 383.655 289.915Z" fill="#3B3E3C"/>
<path d="M383.655 289.915C385.141 291.521 386.628 293.521 386.33 295.699C386.011 298.175 383.536 299.832 381.128 300.39C377.887 301.133 374.512 300.516 371.242 299.899L344.246 294.784C343.613 294.712 343.005 294.493 342.47 294.145C341.95 293.668 341.582 293.047 341.415 292.361C340.091 288.302 340.448 281.893 343.756 278.719C346.484 276.109 351.122 276.54 354.608 276.696C365.634 277.183 376.044 281.92 383.655 289.915Z" fill="url(#paint3_linear)" fill-opacity="0.5"/>
<path d="M231.633 160.347C237.364 166.614 239.698 175.491 239.192 183.974C238.687 192.456 235.587 200.59 231.581 208.084C229.567 211.853 232.324 222.447 231.797 226.67C231.135 231.829 230.555 231.963 229.834 237.123C229.032 242.899 222.498 245.918 218.396 250.059C212.877 255.636 206.987 260.832 200.765 265.612C192.336 272.08 182.109 278.035 171.673 276.02C167.296 275.18 163.297 272.987 159.447 270.734C154.724 267.973 150.086 265.084 145.533 262.065C144.347 261.526 143.36 260.63 142.707 259.503C142.054 258.375 141.769 257.073 141.891 255.776C141.385 247.092 140.88 238.171 142.812 229.651C144.462 222.283 147.852 215.392 149.502 208.032C152.742 193.623 149.197 178.182 153.419 164.027C154.207 161.388 155.329 158.726 157.425 156.934C159.179 155.447 161.446 154.704 163.646 153.961C172.982 150.987 182.377 147.961 192.091 146.727C208.517 144.66 220.588 148.251 231.633 160.347Z" fill="#5DB07B"/>
<path d="M237.847 169.878C239.401 178.48 254.452 162.235 253.954 171.164C253.456 180.093 238.509 199.162 234.502 207.05C232.488 211.02 233.938 223.77 233.388 228.238C232.726 233.673 230.556 231.718 229.835 237.152C229.032 243.226 222.499 244.341 218.396 248.706C212.898 254.553 207.008 260.017 200.765 265.061C192.337 271.879 182.109 278.146 171.674 276.042C167.296 275.157 163.297 272.845 159.447 270.474C154.724 267.574 150.086 264.531 145.533 261.344C144.347 260.646 143.349 259.668 142.626 258.497C142.116 257.307 141.863 256.022 141.883 254.727C141.378 245.524 140.887 236.186 142.805 227.22C144.455 219.466 147.844 212.217 149.494 204.47C152.735 189.304 149.19 173.052 153.411 158.154C154.199 155.381 155.322 152.57 157.418 150.719C159.172 149.136 161.439 148.355 163.639 147.612C172.974 144.459 182.369 141.3 192.084 139.999C208.518 137.739 234.971 153.886 237.847 169.878Z" fill="url(#paint4_linear)"/>
<path d="M173.584 183.394C173.584 183.394 183.715 214.158 192.455 219.079C201.196 224.001 206.786 222.923 206.786 222.923L208.882 235.509C208.882 235.509 187.067 242.379 181.269 235.509C175.472 228.64 173.584 183.394 173.584 183.394Z" fill="#5DB07B"/>
<path d="M173.584 183.394C173.584 183.394 183.715 214.158 192.455 219.079C201.196 224.001 206.786 222.923 206.786 222.923L208.882 235.509C208.882 235.509 187.067 242.379 181.269 235.509C175.472 228.64 173.584 183.394 173.584 183.394Z" fill="#278147"/>
<path d="M97.77 217.168C96.6849 219.518 95.6443 221.964 95.503 224.551C95.4691 227.326 96.1446 230.065 97.4653 232.506C100.732 239.09 106.248 244.285 113.015 247.152C120.098 250.125 128.006 250.319 135.692 250.386C138.174 250.386 140.85 250.386 142.857 248.899C145.882 246.706 146.127 242.356 146.083 238.617C140.765 236.134 135.825 232.91 131.411 229.041C130.283 228.18 129.378 227.061 128.772 225.778C127.962 223.659 128.772 221.317 129.604 219.191C134.09 208.279 140.61 198.32 148.818 189.847C155.299 183.156 163.304 176.465 164.033 167.164C164.285 164.968 163.838 162.749 162.754 160.823C161.543 158.867 159.521 157.574 157.447 156.585C150.208 153.098 145.652 152.124 140.241 158.116C134.83 164.109 129.367 170.354 124.186 176.703C113.981 189.2 104.601 202.485 97.77 217.168Z" fill="#5DB07B"/>
<path d="M97.77 217.168C96.6849 219.518 95.6443 221.964 95.503 224.551C95.4691 227.326 96.1446 230.065 97.4653 232.506C100.732 239.09 106.248 244.285 113.015 247.152C120.098 250.125 128.006 250.319 135.692 250.386C138.174 250.386 140.85 250.386 142.857 248.899C145.882 246.706 146.127 242.356 146.083 238.617C140.765 236.134 135.825 232.91 131.411 229.041C130.283 228.18 129.378 227.061 128.772 225.778C127.962 223.659 128.772 221.317 129.604 219.191C134.09 208.279 140.61 198.32 148.818 189.847C155.299 183.156 163.304 176.465 164.033 167.164C164.285 164.968 163.838 162.749 162.754 160.823C161.543 158.867 159.521 157.574 157.447 156.585C150.208 153.098 145.652 152.124 140.241 158.116C134.83 164.109 129.367 170.354 124.186 176.703C113.981 189.2 104.601 202.485 97.77 217.168Z" fill="url(#paint5_linear)"/>
<path d="M133.529 192.917C130.556 200.835 130.073 209.429 130.028 217.875C129.976 227.398 130.615 237.368 135.476 245.568C142.299 257.084 157.551 262.816 170.276 258.653C173.992 257.426 177.634 255.33 179.76 252.014C182.458 247.806 182.317 242.431 181.804 237.465C181.061 230.365 179.797 223.339 179.411 216.195C178.972 208.225 179.656 200.114 177.857 192.33C176.059 184.546 171.027 176.829 163.304 174.792C149.279 171.104 138.234 180.182 133.529 192.917Z" fill="#5DB07B"/>
<path d="M180.035 243.174C180.035 243.174 215.155 225.867 219.354 236.357C223.554 246.847 193.652 268.347 188.449 270.964C183.246 273.581 167.481 275.165 167.481 275.165C167.481 275.165 123.443 265.195 127.114 254.713C130.786 244.23 175.813 243.702 180.035 243.174Z" fill="#5DB07B"/>
<path d="M180.035 243.524C180.035 243.524 215.155 226.216 219.354 236.706C223.554 247.196 193.652 268.697 188.449 271.314C183.246 273.931 167.481 275.514 167.481 275.514C167.481 275.514 123.443 265.545 127.114 255.062C130.786 244.579 175.813 244.052 180.035 243.524Z" fill="url(#paint6_linear)"/>
<path d="M147.792 183.156C147.792 183.156 120.291 202.032 119.481 230.09C118.671 258.147 133.373 258.013 139.928 259.976C146.484 261.939 170.856 239.792 170.856 239.792L161.937 228.514C161.937 228.514 144.358 237.792 142.456 234.022C137.572 224.298 147.792 183.156 147.792 183.156Z" fill="url(#paint7_linear)"/>
<path d="M142.552 179.201C142.552 179.201 115.051 198.077 114.241 226.134C113.431 254.192 127.872 249.598 134.421 251.553C140.969 253.508 165.638 235.822 165.638 235.822L156.719 224.544C156.719 224.544 139.14 233.822 137.238 230.052C132.325 220.365 142.552 179.201 142.552 179.201Z" fill="#278147"/>
<path d="M146.083 177.647C146.202 180.517 146.952 183.55 149.093 185.453C151.791 187.839 155.864 187.75 159.357 186.94C160.718 186.62 162.167 186.115 162.918 184.933C163.668 183.751 163.497 182.353 163.312 181.022C162.999 178.846 162.596 176.685 162.1 174.539C161.949 173.638 161.626 172.775 161.149 171.997C160.49 171.157 159.631 170.495 158.651 170.071C156.124 168.815 150.037 166.525 147.331 168.302C145.146 169.699 145.993 175.506 146.083 177.647Z" fill="#E4B387"/>
<path d="M135.142 157.38C134.443 157.655 133.86 158.161 133.492 158.815C132.979 159.916 133.492 161.202 134.027 162.295C134.433 163.375 135.124 164.326 136.026 165.045C136.562 165.36 137.148 165.581 137.758 165.7C138.577 165.932 139.435 165.993 140.278 165.878C140.702 165.813 141.103 165.643 141.444 165.383C141.785 165.123 142.057 164.782 142.233 164.391C142.399 163.913 142.432 163.399 142.329 162.904C141.712 158.942 139.52 155.648 135.142 157.38Z" fill="#FFD1A9"/>
<path d="M137.401 159.157C137.046 159.186 136.709 159.33 136.442 159.566C136.306 159.724 136.2 159.905 136.13 160.101C135.916 160.566 135.844 161.083 135.922 161.588C136.011 161.984 136.2 162.35 136.472 162.651C136.847 163.083 137.318 163.419 137.848 163.634C138.378 163.848 138.95 163.934 139.52 163.886C139.702 163.878 139.879 163.822 140.032 163.722C140.374 163.469 140.352 162.979 140.278 162.547C140.133 161.556 139.858 160.589 139.46 159.67C139.111 158.949 138.122 159.046 137.401 159.157Z" fill="#E4B387"/>
<path d="M212.137 150.965C211.394 153.79 209.201 156.481 206.295 156.786C203.894 157.046 201.642 155.656 199.732 154.169C197.941 152.858 196.38 151.258 195.116 149.433C191.935 144.534 192.433 138.177 193.325 132.401C193.823 129.204 194.611 125.672 197.279 123.836C197.871 123.39 198.583 123.131 199.323 123.093C199.884 123.111 200.436 123.234 200.951 123.457C204.63 124.884 207.469 127.977 209.365 131.434C212.605 137.352 213.936 144.355 212.137 150.965Z" fill="#E4B387"/>
<path d="M194.537 127.635C194.537 127.635 196.804 144.898 203.998 146.965C211.193 149.031 212.695 145.634 212.695 145.634L212.888 132.928L194.537 127.635Z" fill="#3B3E3C"/>
<path d="M307.224 267.76C304.251 267.916 301.189 267.827 298.461 266.637C290.865 263.329 289.177 253.501 288.546 245.234C288.152 240.171 287.802 234.825 290.144 230.275C293.332 224.068 299.851 222.097 305.455 218.841C312.449 214.745 315.162 210.492 320.618 204.931C330.526 194.82 347.703 196.01 356.146 208.225C375.835 236.684 331.261 266.496 307.224 267.76Z" fill="#3B3E3C"/>
<path d="M307.224 267.76C304.251 267.916 301.189 267.827 298.461 266.637C290.865 263.329 289.177 253.501 288.546 245.234C288.152 240.171 287.802 234.825 290.144 230.275C293.332 224.068 299.851 222.097 305.455 218.841C312.449 214.745 315.162 210.492 320.618 204.931C330.526 194.82 347.703 196.01 356.146 208.225C375.835 236.684 331.261 266.496 307.224 267.76Z" fill="url(#paint8_linear)"/>
<path d="M175.07 150.065C176.044 150.422 176.483 151.552 176.594 152.585C176.699 153.626 176.587 154.678 176.264 155.674C175.942 156.669 175.416 157.587 174.721 158.369C174.467 158.698 174.131 158.954 173.747 159.113C173.554 159.186 173.344 159.201 173.143 159.155C172.942 159.108 172.759 159.003 172.617 158.852C172.478 158.651 172.389 158.419 172.357 158.176C172.097 156.6 171.413 148.704 175.07 150.065Z" fill="#FFD1A9"/>
<path d="M173.219 157.537C173.056 160.012 172.803 162.473 172.476 164.926C172.287 166.763 171.868 168.569 171.228 170.302C169.317 174.993 164.389 178.137 159.335 178.39C156.796 178.446 154.277 177.933 151.962 176.888C149.647 175.844 147.595 174.294 145.956 172.353C144.068 169.993 142.482 167.406 141.236 164.651C139.833 162.012 138.68 159.247 137.795 156.392C136.524 151.871 136.628 146.675 139.386 142.883C140.366 141.532 141.636 140.417 143.102 139.619C145.681 138.229 148.684 137.91 151.613 137.686C153.82 137.431 156.052 137.488 158.243 137.857C159.884 138.239 161.46 138.863 162.918 139.709C166.069 141.456 169.607 144.088 171.443 147.262C173.19 150.206 173.442 154.236 173.219 157.537Z" fill="#FFD1A9"/>
<path d="M307.982 112.707C309.469 116.483 311.699 120.305 311 124.29C310.361 127.799 307.492 130.512 304.385 132.267C301.657 133.813 298.483 134.847 295.384 134.326C291.563 133.687 288.434 130.728 286.68 127.278C284.926 123.829 284.354 119.896 284.012 116.037C283.682 113.527 283.753 110.98 284.22 108.491C284.713 106.434 285.676 104.519 287.034 102.898C288.392 101.276 290.108 99.992 292.046 99.1461C295.339 97.7336 301.226 97.2504 304.117 99.9862C307.127 102.863 306.548 109.004 307.982 112.707Z" fill="#E4B387"/>
<path d="M306.681 103.689C306.681 103.689 303.143 115.361 300.653 118.639C298.164 121.918 291.734 122.699 291.734 122.699L287.55 108.811L306.681 103.689Z" fill="#3B3E3C"/>
<path d="M409.454 142.266C410.211 142.346 410.977 142.239 411.683 141.954C414.032 140.943 414.545 137.939 415.288 135.493C416.775 130.616 420.209 126.631 422.721 122.2C425.233 117.77 426.727 112.075 424.126 107.696C421.811 108.968 419.691 110.565 417.83 112.439C417.035 113.242 416.098 114.164 414.976 114.045C414.141 113.843 413.404 113.354 412.895 112.662L407.477 106.796C406.845 106.12 406.027 105.376 405.135 105.607C403.916 105.912 403.827 107.659 404.295 108.826C405.039 110.64 406.414 112.149 406.979 114.03C407.922 117.123 406.451 120.201 405.38 123.048C404.392 125.687 403.805 128.445 403.009 131.152C401.597 135.939 403.864 141.894 409.454 142.266Z" fill="#FFD1A9"/>
<path d="M217.437 144.244C215.489 145.656 207.135 142.526 204.957 141.508C202.733 140.532 200.715 139.142 199.011 137.411C198.066 136.348 197.206 135.212 196.439 134.014C195.467 132.732 194.692 131.311 194.143 129.798C193.823 128.765 193.712 127.672 193.31 126.669C192.374 124.327 187.364 121.702 187.364 118.9C187.364 117.487 187.498 115.985 188.33 114.848C189.163 113.71 190.969 113.175 192.047 114.104C191.467 112.275 191.393 103.964 192.292 102.269C193.251 100.598 194.529 99.1333 196.053 97.9566C200.817 94.0238 207.038 91.5927 213.185 92.2321C217.217 92.6501 220.979 94.4493 223.836 97.3247C227.166 100.782 231.41 134.088 217.437 144.244Z" fill="#FFD1A9"/>
<path d="M167.035 126.862C165.787 125.421 164.212 124.299 162.442 123.591C160.368 122.922 158.124 123.331 155.953 123.264C154.326 123.219 152.713 122.907 151.085 122.818C148.044 122.715 145.024 123.348 142.281 124.663C139.537 125.978 137.152 127.936 135.328 130.371C133.543 132.832 132.302 135.645 131.685 138.622C131.069 141.599 131.092 144.674 131.752 147.641C132.306 150.022 133.161 152.323 134.294 154.488C135.902 157.812 138.153 160.784 140.917 163.231L140.582 147.768C141.698 148.126 142.878 148.235 144.041 148.087C145.203 147.939 146.319 147.538 147.309 146.913C149.284 145.647 150.938 143.939 152.14 141.924C152.356 141.59 152.631 141.181 153.032 141.181C153.434 141.181 153.776 141.694 153.961 142.117C155.448 145.322 158.421 147.641 161.669 148.942C164.917 150.243 168.5 150.637 172.008 150.838C172.803 150.883 173.718 150.875 174.238 150.273C174.543 149.837 174.706 149.318 174.706 148.786C175.613 139.961 173.16 133.04 167.035 126.862Z" fill="#3B3E3C"/>
<path d="M167.035 126.862C165.787 125.421 164.212 124.299 162.442 123.591C160.368 122.922 158.124 123.331 155.953 123.264C154.326 123.219 152.713 122.907 151.085 122.818C148.044 122.715 145.024 123.348 142.281 124.663C139.537 125.978 137.152 127.936 135.328 130.371C133.543 132.832 132.302 135.645 131.685 138.622C131.069 141.599 131.092 144.674 131.752 147.641C132.306 150.022 133.161 152.323 134.294 154.488C135.902 157.812 138.153 160.784 140.917 163.231L140.582 147.768C141.698 148.126 142.878 148.235 144.041 148.087C145.203 147.939 146.319 147.538 147.309 146.913C149.284 145.647 150.938 143.939 152.14 141.924C152.356 141.59 152.631 141.181 153.032 141.181C153.434 141.181 153.776 141.694 153.961 142.117C155.448 145.322 158.421 147.641 161.669 148.942C164.917 150.243 168.5 150.637 172.008 150.838C172.803 150.883 173.718 150.875 174.238 150.273C174.543 149.837 174.706 149.318 174.706 148.786C175.613 139.961 173.16 133.04 167.035 126.862Z" fill="url(#paint9_linear)"/>
<path d="M255.923 255.776C249.858 260.445 243.206 264.563 238.486 270.593C233.766 276.622 231.403 285.305 235.149 291.974C239.839 300.331 251.107 301.639 260.68 301.944C288.761 302.836 317.102 303.505 344.707 298.286C345.186 291.855 344.369 285.393 342.306 279.284C342.127 278.605 341.785 277.979 341.31 277.462C340.337 276.555 338.828 276.719 337.505 276.838C325.91 278.167 314.164 276.696 303.255 272.548L312.576 264.712C317.905 260.251 323.598 255.166 324.661 248.297C326.073 239.115 318.113 230.603 309.186 228.038C300.772 225.621 285.164 225.406 278.801 231.829C270.908 239.814 265.051 248.758 255.923 255.776Z" fill="#3B3E3C"/>
<path d="M255.923 255.776C249.858 260.445 243.206 264.563 238.486 270.593C233.766 276.622 231.403 285.305 235.149 291.974C239.839 300.331 251.107 301.639 260.68 301.944C288.761 302.836 317.102 303.505 344.707 298.286C345.186 291.855 344.369 285.393 342.306 279.284C342.127 278.605 341.785 277.979 341.31 277.462C340.337 276.555 338.828 276.719 337.505 276.838C325.91 278.167 314.164 276.696 303.255 272.548L312.576 264.712C317.905 260.251 323.598 255.166 324.661 248.297C326.073 239.115 318.113 230.603 309.186 228.038C300.772 225.621 285.164 225.406 278.801 231.829C270.908 239.814 265.051 248.758 255.923 255.776Z" fill="url(#paint10_linear)" fill-opacity="0.5"/>
<path d="M302.839 269.953C301.796 269.475 300.87 268.775 300.126 267.901C297.267 265.032 294.225 262.35 291.021 259.872C290.163 259.111 289.148 258.55 288.048 258.229C286.011 257.783 284.019 258.92 282.161 259.85C277.334 262.272 272.012 263.544 266.612 263.567C265.294 263.485 263.972 263.58 262.68 263.85C261.312 264.326 260.026 265.01 258.867 265.879C253.039 269.7 246.519 272.342 239.675 273.656C240.731 270.645 243.719 268.853 246.305 266.965C249.126 264.921 251.678 262.531 253.902 259.85C256.384 256.876 258.473 253.471 261.446 250.928C263.928 248.824 266.916 247.427 269.86 246.044L282.265 240.245C283.429 239.608 284.707 239.204 286.026 239.056C289.073 238.929 291.511 241.494 293.332 243.94C296.634 248.388 299.438 253.185 301.694 258.244C302.571 260.199 308.331 271.938 302.839 269.953Z" fill="url(#paint11_linear)"/>
<path d="M348.58 277.752C347.606 277.705 346.64 277.942 345.8 278.436C345.07 279.093 344.567 279.965 344.365 280.926C342.455 287.223 342.633 293.944 342.879 300.524C342.836 301.576 343.034 302.623 343.458 303.587C344.014 304.481 344.78 305.226 345.688 305.758C352.684 310.412 360.832 313.037 369.228 313.341C371.316 313.415 373.635 313.252 375.114 311.772C376.594 310.293 376.764 307.728 376.46 305.542C375.998 302.222 374.868 299.03 373.137 296.16C371.346 293.223 368.96 290.695 366.983 287.885C365.117 285.224 364.493 279.447 361.862 277.67C359.231 275.893 351.776 277.574 348.58 277.752Z" fill="#3B3E3C"/>
<path d="M348.409 274.25C347.435 274.206 346.469 274.446 345.629 274.942C344.896 275.597 344.393 276.47 344.194 277.432C342.277 283.729 342.455 290.45 342.708 297.03C342.668 298.079 342.866 299.123 343.288 300.085C343.854 300.986 344.632 301.734 345.555 302.263C352.542 306.91 360.679 309.535 369.064 309.847C371.153 309.914 373.464 309.75 374.944 308.278C376.423 306.806 376.594 304.234 376.289 302.048C375.822 298.725 374.681 295.532 372.937 292.666C371.145 289.729 368.767 287.201 366.79 284.384C364.917 281.729 364.3 275.953 361.661 274.176C359.023 272.399 351.597 274.102 348.409 274.25Z" fill="url(#paint12_linear)"/>
<path d="M122.997 247.992C116.307 245.895 108.131 244.505 103.181 249.412C100.119 252.43 99.2714 257.188 100.089 261.411C101.144 266.905 104.675 271.678 109.008 275.217C113.342 278.756 118.455 281.164 123.584 283.395C142.047 291.379 161.394 297.074 180.689 302.724C183.662 303.594 186.74 304.472 189.757 303.847C195.451 302.65 198.677 296.74 201.107 291.461C201.335 291.134 201.491 290.763 201.563 290.371C201.636 289.979 201.625 289.577 201.53 289.19C201.435 288.803 201.259 288.441 201.013 288.127C200.767 287.814 200.457 287.556 200.104 287.372C189.735 278.042 177.805 272.258 165.423 265.939C151.784 259.025 137.691 252.371 122.997 247.992Z" fill="#3B3E3C"/>
<path d="M122.997 247.992C116.307 245.895 108.131 244.505 103.181 249.412C100.119 252.43 99.2714 257.188 100.089 261.411C101.144 266.905 104.675 271.678 109.008 275.217C113.342 278.756 118.455 281.164 123.584 283.395C142.047 291.379 161.394 297.074 180.689 302.724C183.662 303.594 186.74 304.472 189.757 303.847C195.451 302.65 198.677 296.74 201.107 291.461C201.335 291.134 201.491 290.763 201.563 290.371C201.636 289.979 201.625 289.577 201.53 289.19C201.435 288.803 201.259 288.441 201.013 288.127C200.767 287.814 200.457 287.556 200.104 287.372C189.735 278.042 177.805 272.258 165.423 265.939C151.784 259.025 137.691 252.371 122.997 247.992Z" fill="url(#paint13_linear)"/>
<path d="M141.422 297.357C140.122 298.516 138.821 299.803 138.308 301.468C137.476 304.159 139.051 307.17 141.355 308.754C143.66 310.337 146.61 310.761 149.435 310.813C155.812 310.917 180.058 300.07 179.381 298.494C177.828 294.911 172.09 285.856 167.712 285.387C161.847 284.748 145.458 293.773 141.422 297.357Z" fill="#5DB07B"/>
<path d="M141.422 297.357C140.122 298.516 138.821 299.803 138.308 301.468C137.476 304.159 139.051 307.17 141.355 308.754C143.66 310.337 146.61 310.761 149.435 310.813C155.812 310.917 180.058 300.07 179.381 298.494C177.828 294.911 172.09 285.856 167.712 285.387C161.847 284.748 145.458 293.773 141.422 297.357Z" fill="#3B3E3C"/>
<path d="M141.422 297.357C140.122 298.516 138.821 299.803 138.308 301.468C137.476 304.159 139.051 307.17 141.355 308.754C143.66 310.337 146.61 310.761 149.435 310.813C155.812 310.917 180.058 300.07 179.381 298.494C177.828 294.911 172.09 285.856 167.712 285.387C161.847 284.748 145.458 293.773 141.422 297.357Z" fill="url(#paint14_linear)"/>
<path d="M163.616 288.019C162.13 288.673 160.547 289.454 159.9 290.919C159.545 291.842 159.45 292.844 159.625 293.818C160.034 297.037 161.959 300.36 165.096 301.178C167.764 301.877 170.521 300.628 172.997 299.409C176.713 297.572 180.548 295.639 183.231 292.465C184.205 291.313 185.045 289.818 184.644 288.361C184.336 287.508 183.826 286.743 183.157 286.131C180.734 283.618 178.393 281.477 175.055 282.815C171.168 284.369 167.4 286.324 163.616 288.019Z" fill="#FFD1A9"/>
<path d="M208.941 291C213.631 292.487 217.912 295.149 222.625 296.584C227.337 298.018 232.964 298.018 236.643 294.74C237.344 294.153 237.906 293.416 238.285 292.584C238.743 291.262 238.873 289.848 238.665 288.465C238.313 284.07 237.567 279.716 236.435 275.455C236.14 273.887 235.447 272.423 234.42 271.202C232.495 269.247 229.389 269.254 226.638 269.396L212.018 270.139C207.15 270.384 201.538 271.039 198.885 275.128C198.081 276.516 197.499 278.021 197.16 279.588C196.35 282.562 193.949 286.755 197.368 288.629C198.855 289.454 201.085 289.372 202.713 289.61C204.66 289.9 207.031 291 208.941 291Z" fill="#3B3E3C"/>
<path d="M208.941 291C213.631 292.487 217.912 295.149 222.625 296.584C227.337 298.018 232.964 298.018 236.643 294.74C237.344 294.153 237.906 293.416 238.285 292.584C238.743 291.262 238.873 289.848 238.665 288.465C238.313 284.07 237.567 279.716 236.435 275.455C236.14 273.887 235.447 272.423 234.42 271.202C232.495 269.247 229.389 269.254 226.638 269.396L212.018 270.139C207.15 270.384 201.538 271.039 198.885 275.128C198.081 276.516 197.499 278.021 197.16 279.588C196.35 282.562 193.949 286.755 197.368 288.629C198.855 289.454 201.085 289.372 202.713 289.61C204.66 289.9 207.031 291 208.941 291Z" fill="url(#paint15_linear)"/>
<path d="M202.356 309.215C205.59 309.985 208.909 310.345 212.234 310.285C215.586 310.122 219.035 309.163 221.577 307.118C224.119 305.074 225.583 301.825 224.691 299.015C223.532 295.342 219.094 293.513 215.029 292.361C211.067 291.238 206.481 290.42 202.742 292.361C201.127 293.304 199.68 294.51 198.461 295.929C197.26 297.057 196.233 298.358 195.414 299.788C192.82 304.873 197.324 308.189 202.356 309.215Z" fill="#3B3E3C"/>
<path d="M202.356 309.215C205.59 309.985 208.909 310.345 212.234 310.285C215.586 310.122 219.035 309.163 221.577 307.118C224.119 305.074 225.583 301.825 224.691 299.015C223.532 295.342 219.094 293.513 215.029 292.361C211.067 291.238 206.481 290.42 202.742 292.361C201.127 293.304 199.68 294.51 198.461 295.929C197.26 297.057 196.233 298.358 195.414 299.788C192.82 304.873 197.324 308.189 202.356 309.215Z" fill="url(#paint16_linear)" fill-opacity="0.5"/>
<path d="M190.003 299.082C192.076 303.066 196.848 305.23 201.33 304.918C203.671 304.754 206.08 303.929 207.596 302.137C210.339 298.888 208.688 294.123 199.517 291.156C195.822 289.959 189.304 297.751 190.003 299.082Z" fill="#FFD1A9"/>
<path d="M305.514 73.75C305.76 72.8133 306.444 71.8245 307.41 71.8468C307.712 71.8731 308.003 71.9756 308.255 72.1446C308.507 72.3136 308.712 72.5436 308.852 72.8133C309.122 73.3581 309.276 73.953 309.305 74.5604C309.466 76.0843 309.441 77.6222 309.231 79.14C309.176 80.3093 308.676 81.4133 307.833 82.2253C307.803 82.2642 307.763 82.2943 307.718 82.3124C307.672 82.3306 307.622 82.3361 307.574 82.3286C307.525 82.321 307.479 82.3005 307.441 82.2693C307.404 82.238 307.375 82.1972 307.358 82.151C306.553 80.8928 306.005 79.488 305.745 78.0174C305.492 76.6123 305.143 75.1626 305.514 73.75Z" fill="#FFD1A9"/>
<path d="M264.568 84.9463C264.103 84.9542 263.66 85.1436 263.334 85.4742C263.103 85.7959 262.988 86.1863 263.007 86.5819C262.947 89.2881 265.155 91.5258 267.511 92.864C268.507 93.4291 269.86 93.8677 270.714 93.1019C271.569 92.3362 271.294 90.9683 270.863 89.9126C269.748 87.1469 267.979 84.6043 264.568 84.9463Z" fill="#FFD1A9"/>
<path d="M269.577 89.9497C272.937 96.9381 276.401 104.075 281.945 109.495C283.507 111.254 285.514 112.559 287.754 113.273C289.995 113.988 292.387 114.085 294.678 113.554C297.933 113.101 301.256 112.067 303.597 109.711C304.85 108.348 305.841 106.765 306.518 105.042C311.49 93.4142 308.51 79.7645 302.593 68.5681C300.758 65.1037 298.535 61.669 295.205 59.6468C290.508 56.7473 284.472 57.1339 279.188 58.6803C274.572 60.0334 264.322 63.5127 263.334 69.0365C262.137 75.6904 266.812 84.2103 269.577 89.9497Z" fill="#FFD1A9"/>
<path d="M257.848 71.6386C256.84 70.0953 256.117 68.3828 255.715 66.5832C255.425 64.7617 255.908 62.7098 257.373 61.6021C257.734 61.3858 258.058 61.1121 258.332 60.7917C258.579 60.313 258.692 59.7759 258.659 59.2379C258.926 54.1527 263.118 49.9597 267.883 48.0862C272.647 46.2127 277.865 46.2499 282.956 46.235C288.048 46.2201 293.31 46.1086 297.97 44.0567C298.471 45.6484 298.458 47.3573 297.933 48.9412C299.137 48.1977 300.787 49.4467 300.951 50.8667C301.114 52.2867 300.319 53.6026 299.561 54.807C302.534 55.5504 304.072 58.9034 304.347 61.9515C304.622 64.9996 304.087 68.1444 304.86 71.1108C305.136 71.9136 305.325 72.7435 305.425 73.5864C305.481 74.0149 305.414 74.4503 305.232 74.8423C305.051 75.2344 304.762 75.567 304.4 75.8019C303.054 71.3412 300.193 67.5422 297.376 63.8398C296.584 62.6669 295.604 61.6321 294.477 60.7768C293.908 60.3528 293.246 60.072 292.546 59.9581C291.846 59.8442 291.129 59.9006 290.456 60.1226C289.584 60.6083 288.756 61.168 287.981 61.7954C286.983 62.3452 285.892 62.7032 284.762 62.8511C278.4 64.0257 271.473 63.9662 266.143 67.6389C265.462 68.0437 264.91 68.6342 264.553 69.3414C264.306 70.1363 264.27 70.9818 264.449 71.7947L265.556 80.3369C265.794 82.1807 266.143 84.1508 267.533 85.4965C263.453 81.5562 260.621 76.5231 257.848 71.6386Z" fill="#3B3E3C"/>
<path d="M257.848 71.6386C256.84 70.0953 256.117 68.3828 255.715 66.5832C255.425 64.7617 255.908 62.7098 257.373 61.6021C257.734 61.3858 258.058 61.1121 258.332 60.7917C258.579 60.313 258.692 59.7759 258.659 59.2379C258.926 54.1527 263.118 49.9597 267.883 48.0862C272.647 46.2127 277.865 46.2499 282.956 46.235C288.048 46.2201 293.31 46.1086 297.97 44.0567C298.471 45.6484 298.458 47.3573 297.933 48.9412C299.137 48.1977 300.787 49.4467 300.951 50.8667C301.114 52.2867 300.319 53.6026 299.561 54.807C302.534 55.5504 304.072 58.9034 304.347 61.9515C304.622 64.9996 304.087 68.1444 304.86 71.1108C305.136 71.9136 305.325 72.7435 305.425 73.5864C305.481 74.0149 305.414 74.4503 305.232 74.8423C305.051 75.2344 304.762 75.567 304.4 75.8019C303.054 71.3412 300.193 67.5422 297.376 63.8398C296.584 62.6669 295.604 61.6321 294.477 60.7768C293.908 60.3528 293.246 60.072 292.546 59.9581C291.846 59.8442 291.129 59.9006 290.456 60.1226C289.584 60.6083 288.756 61.168 287.981 61.7954C286.983 62.3452 285.892 62.7032 284.762 62.8511C278.4 64.0257 271.473 63.9662 266.143 67.6389C265.462 68.0437 264.91 68.6342 264.553 69.3414C264.306 70.1363 264.27 70.9818 264.449 71.7947L265.556 80.3369C265.794 82.1807 266.143 84.1508 267.533 85.4965C263.453 81.5562 260.621 76.5231 257.848 71.6386Z" fill="url(#paint17_linear)"/>
<path d="M114.271 221.072C116.252 220.974 118.238 220.999 120.217 221.146C121.703 221.257 123.599 221.785 123.807 223.28C123.978 224.462 122.9 225.51 121.778 225.882C120.655 226.253 119.421 226.291 118.299 226.707C120.524 226.583 122.734 227.135 124.639 228.29C124.922 228.436 125.159 228.657 125.323 228.93C125.724 229.74 124.832 230.58 124.03 230.982C122.968 231.507 121.844 231.896 120.685 232.142C122.071 232.173 123.429 232.543 124.639 233.22C125.148 233.46 125.564 233.863 125.821 234.364C125.952 234.831 125.913 235.329 125.71 235.769C125.507 236.209 125.154 236.563 124.714 236.766C123.819 237.149 122.844 237.305 121.874 237.219C122.72 237.455 123.507 237.866 124.186 238.424C124.517 238.708 124.755 239.086 124.868 239.508C124.981 239.93 124.963 240.376 124.818 240.788C124.379 241.732 123.19 242 122.164 242.148L115.958 243.07C115.332 243.199 114.691 243.231 114.055 243.167C113.238 243.026 112.481 242.643 111.885 242.067C109.655 240.022 109.484 236.632 109.469 233.614L109.424 226.633C109.402 223.54 111 221.265 114.271 221.072Z" fill="#FFD1A9"/>
<path d="M221.153 241.219C226.044 237.591 231.009 233.911 236.71 231.77C242.411 229.629 249.033 229.175 254.437 231.97C259.84 234.766 263.482 241.33 261.691 247.144C260.948 249.642 259.298 251.768 257.663 253.791C247.316 266.608 235.089 278.072 220.796 286.242C206.503 294.413 190.017 299.186 173.584 298.39C172.984 298.471 172.375 298.315 171.889 297.954C171.403 297.592 171.078 297.055 170.982 296.457L168.537 289.892C167.967 288.653 167.683 287.301 167.704 285.937C167.905 283.796 169.563 282.116 171.131 280.644C186.628 266.184 204.162 253.783 221.153 241.219Z" fill="#3B3E3C"/>
<path d="M221.153 241.219C226.044 237.591 231.009 233.911 236.71 231.77C242.411 229.629 249.033 229.175 254.437 231.97C259.84 234.766 263.482 241.33 261.691 247.144C260.948 249.642 259.298 251.768 257.663 253.791C247.316 266.608 235.089 278.072 220.796 286.242C206.503 294.413 190.017 299.186 173.584 298.39C172.984 298.471 172.375 298.315 171.889 297.954C171.403 297.592 171.078 297.055 170.982 296.457L168.537 289.892C167.967 288.653 167.683 287.301 167.704 285.937C167.905 283.796 169.563 282.116 171.131 280.644C186.628 266.184 204.162 253.783 221.153 241.219Z" fill="url(#paint18_linear)"/>
<path d="M301.91 187.044C307.573 188.07 313.2 185.46 318.373 182.918L330.867 176.777C332.373 175.897 334.047 175.344 335.781 175.156C337.512 175.089 339.415 175.9 340.025 177.55C340.701 179.342 339.586 181.372 338.07 182.539C336.554 183.706 334.673 184.293 332.993 185.208C328.117 187.877 325.226 193.14 320.744 196.434C317.938 198.381 314.768 199.742 311.424 200.433C302.787 202.463 293.013 201.43 286.152 195.78C281.931 192.3 273.933 177.654 281.693 173.714C285.639 171.722 288.241 177.268 290.478 179.662C293.652 183.059 297.242 186.196 301.91 187.044Z" fill="#E4B387"/>
<path d="M232.466 219.399C232.466 219.399 225.665 231.547 231.975 242.483C238.286 253.419 265.006 256.816 269.882 252.683C274.758 248.549 283.729 241.026 283.729 241.026C283.729 241.026 281.544 235.918 285.669 227.904C289.794 219.889 292.225 217.704 293.927 218.67C295.629 219.637 306.8 231.309 308.257 237.383C309.714 243.457 319.191 245.397 322.104 245.642C325.018 245.888 333.997 241.509 333.997 241.509C333.997 241.509 332.785 227.904 327.924 222.804C323.063 217.704 312.865 200.694 298.29 207.251C283.714 213.808 273.517 217.458 273.517 217.458L232.466 219.399Z" fill="#3B3E3C"/>
<path d="M232.466 219.399C232.466 219.399 225.665 231.547 231.975 242.483C238.286 253.419 265.006 256.816 269.882 252.683C274.758 248.549 283.729 241.026 283.729 241.026C283.729 241.026 281.544 235.918 285.669 227.904C289.794 219.889 292.225 217.704 293.927 218.67C295.629 219.637 306.8 231.309 308.257 237.383C309.714 243.457 319.191 245.397 322.104 245.642C325.018 245.888 333.997 241.509 333.997 241.509C333.997 241.509 332.785 227.904 327.924 222.804C323.063 217.704 312.865 200.694 298.29 207.251C283.714 213.808 273.517 217.458 273.517 217.458L232.466 219.399Z" fill="url(#paint19_linear)"/>
<path d="M238.248 177.134C236.323 183.981 237.208 191.326 235.796 198.3C234.919 202.671 233.15 206.835 232.458 211.236C231.767 215.637 232.354 220.596 235.521 223.741C237.439 225.488 239.812 226.659 242.366 227.116C248.082 228.38 254.095 227.517 259.632 225.629C265.17 223.741 270.313 220.871 275.419 218.016C276.776 217.354 278.012 216.469 279.076 215.399C281.091 213.169 281.373 209.853 281.418 206.82C281.514 200.768 281.091 194.649 282.265 188.709C283.09 184.494 284.718 180.375 284.577 176.071C284.451 173.34 283.618 170.689 282.16 168.377C280.702 166.065 278.669 164.172 276.259 162.882C271.956 160.652 267.05 160.585 262.382 159.678C258.465 158.934 256.488 158.362 252.653 160.206C249.201 161.861 246.135 164.224 243.654 167.14C241.172 170.056 239.331 173.461 238.248 177.134Z" fill="#5DB07B"/>
<path d="M238.248 177.134C236.323 183.981 237.208 191.326 235.796 198.3C234.919 202.671 233.15 206.835 232.458 211.236C231.767 215.637 232.354 220.596 235.521 223.741C237.439 225.488 239.812 226.659 242.366 227.116C248.082 228.38 254.095 227.517 259.632 225.629C265.17 223.741 270.313 220.871 275.419 218.016C276.776 217.354 278.012 216.469 279.076 215.399C281.091 213.169 281.373 209.853 281.418 206.82C281.514 200.768 281.091 194.649 282.265 188.709C283.09 184.494 284.718 180.375 284.577 176.071C284.451 173.34 283.618 170.689 282.16 168.377C280.702 166.065 278.669 164.172 276.259 162.882C271.956 160.652 267.05 160.585 262.382 159.678C258.465 158.934 256.488 158.362 252.653 160.206C249.201 161.861 246.135 164.224 243.654 167.14C241.172 170.056 239.331 173.461 238.248 177.134Z" fill="url(#paint20_linear)"/>
<path d="M234.183 215.124C233.915 219.421 234.131 224.506 237.691 226.922C239.256 227.861 241.033 228.385 242.857 228.447C246.409 228.758 249.989 228.507 253.463 227.703C254.727 227.413 261.344 225.016 261.344 225.016C260.994 224.48 251.07 220.053 249.137 218.403C246.023 215.801 246.164 211.005 247.034 207.043C247.903 203.08 249.137 198.783 247.383 195.148C245.629 191.512 238.233 188.211 236.569 193.148C234.339 199.66 234.599 208.284 234.183 215.124Z" fill="#FFD1A9"/>
<path d="M247.078 112.922C245.872 114.391 245.055 116.14 244.7 118.007C243.807 121.637 243.586 125.398 244.046 129.107C244.678 134.192 246.543 139.515 244.544 144.251C243.92 145.738 242.961 146.994 242.314 148.429C241.925 149.122 241.684 149.888 241.606 150.679C241.528 151.47 241.615 152.268 241.861 153.024C242.04 153.503 242.372 153.911 242.805 154.184C243.225 154.374 243.692 154.432 244.146 154.351C244.6 154.27 245.018 154.054 245.347 153.73C245.996 153.073 246.502 152.288 246.833 151.425C246.246 152.474 247.064 153.916 248.223 154.228C248.814 154.344 249.426 154.299 249.994 154.099C250.563 153.9 251.068 153.551 251.456 153.091C252.219 152.158 252.809 151.095 253.196 149.953C253.346 150.693 253.67 151.386 254.139 151.976C256.369 151.44 257.648 149.054 258.48 146.883C260.784 140.876 262.197 134.4 261.453 128.014C260.844 123.145 253.969 105.354 247.078 112.922Z" fill="#3B3E3C"/>
<path d="M247.078 112.922C245.872 114.391 245.055 116.14 244.7 118.007C243.807 121.637 243.586 125.398 244.046 129.107C244.678 134.192 246.543 139.515 244.544 144.251C243.92 145.738 242.961 146.994 242.314 148.429C241.925 149.122 241.684 149.888 241.606 150.679C241.528 151.47 241.615 152.268 241.861 153.024C242.04 153.503 242.372 153.911 242.805 154.184C243.225 154.374 243.692 154.432 244.146 154.351C244.6 154.27 245.018 154.054 245.347 153.73C245.996 153.073 246.502 152.288 246.833 151.425C246.246 152.474 247.064 153.916 248.223 154.228C248.814 154.344 249.426 154.299 249.994 154.099C250.563 153.9 251.068 153.551 251.456 153.091C252.219 152.158 252.809 151.095 253.196 149.953C253.346 150.693 253.67 151.386 254.139 151.976C256.369 151.44 257.648 149.054 258.48 146.883C260.784 140.876 262.197 134.4 261.453 128.014C260.844 123.145 253.969 105.354 247.078 112.922Z" fill="url(#paint21_linear)"/>
<path d="M274.312 166.101C274.431 168.658 274.698 171.305 273.903 173.803C273.108 176.301 270.766 178.323 269.027 177.23C268.296 176.64 267.728 175.872 267.377 175L261.29 163.038C260.86 162.307 260.587 161.494 260.487 160.652C260.405 159.165 261.045 157.009 261.067 155.604C261.067 153.239 260.532 150.05 261.067 148.66C261.602 147.27 265.066 150.005 265.95 148.89C266.835 147.775 268.448 147.805 269.614 148.377C272.052 149.574 273.896 152.332 274.461 155.641C274.587 156.384 274.765 157.061 274.921 157.782C275.189 159.023 275.278 158.391 274.996 159.737C274.478 161.817 274.248 163.958 274.312 166.101Z" fill="#E4B387"/>
<path d="M263.839 157.774C265.593 161.12 267.556 164.711 271.049 166.213C271.422 166.413 271.848 166.491 272.268 166.436C272.586 166.346 272.874 166.171 273.1 165.93C274.208 164.807 274.401 163.098 274.527 161.521L274.825 157.886C274.889 157.574 274.839 157.249 274.684 156.972C274.53 156.799 274.336 156.669 274.119 156.592L265.712 152.875C264.739 152.437 262.546 151.648 261.996 153.061C261.557 154.161 263.334 156.801 263.839 157.774Z" fill="#3B3E3C"/>
<path d="M273.011 161.291C268.184 159.893 264.001 156.843 261.193 152.674C260.401 151.556 259.775 150.329 259.335 149.031C258.898 147.516 258.678 145.947 258.681 144.37C258.537 138.057 259.873 131.799 262.583 126.096C263.216 124.654 264.065 123.318 265.103 122.134C267.333 119.71 270.715 118.624 273.977 118.082C276.493 117.689 279.035 117.485 281.581 117.472C283.018 117.359 284.462 117.565 285.81 118.074C286.795 118.565 287.666 119.256 288.367 120.104C290.255 122.223 290.307 125.092 290.694 127.947C291.117 130.995 287.475 165.224 273.011 161.291Z" fill="#FFD1A9"/>
<path d="M296.224 122.632C295.696 118.87 294.068 115.361 292.262 112.015C291.437 110.491 290.515 108.937 289.066 107.993C287.895 107.342 286.616 106.909 285.29 106.714L277.33 105.049C275.091 104.502 272.802 104.186 270.499 104.105C262.88 104.105 255.804 109.696 253.285 116.885C250.765 124.074 252.497 132.401 257.001 138.527C257.134 138.76 257.313 138.964 257.526 139.127C257.739 139.291 257.983 139.41 258.242 139.478C259.097 139.575 259.684 138.646 260.004 137.843C261.03 135.278 261.736 132.579 262.977 130.103C264.218 127.628 266.121 125.338 268.737 124.423C270.043 124.065 271.372 123.797 272.714 123.62C274.951 123.158 277.052 122.186 278.853 120.781C279.001 120.622 279.183 120.499 279.385 120.42C279.587 120.342 279.804 120.31 280.02 120.327C280.407 120.431 280.615 120.84 280.823 121.182C282.257 123.546 285.439 124.156 287.356 126.185C288.456 127.338 289.058 128.854 289.906 130.2C294.633 137.701 296.766 126.52 296.224 122.632Z" fill="#3B3E3C"/>
<path d="M296.224 122.632C295.696 118.87 294.068 115.361 292.262 112.015C291.437 110.491 290.515 108.937 289.066 107.993C287.895 107.342 286.616 106.909 285.29 106.714L277.33 105.049C275.091 104.502 272.802 104.186 270.499 104.105C262.88 104.105 255.804 109.696 253.285 116.885C250.765 124.074 252.497 132.401 257.001 138.527C257.134 138.76 257.313 138.964 257.526 139.127C257.739 139.291 257.983 139.41 258.242 139.478C259.097 139.575 259.684 138.646 260.004 137.843C261.03 135.278 261.736 132.579 262.977 130.103C264.218 127.628 266.121 125.338 268.737 124.423C270.043 124.065 271.372 123.797 272.714 123.62C274.951 123.158 277.052 122.186 278.853 120.781C279.001 120.622 279.183 120.499 279.385 120.42C279.587 120.342 279.804 120.31 280.02 120.327C280.407 120.431 280.615 120.84 280.823 121.182C282.257 123.546 285.439 124.156 287.356 126.185C288.456 127.338 289.058 128.854 289.906 130.2C294.633 137.701 296.766 126.52 296.224 122.632Z" fill="url(#paint22_linear)"/>
<path d="M287.096 174.13C288.969 176.509 290.931 179.126 290.954 182.152C290.9 183.566 290.609 184.961 290.092 186.278C289.311 188.598 288.404 190.88 287.401 193.111C286.888 194.233 286.241 195.445 285.082 195.854C282.451 194.642 280.949 191.735 280.526 188.865C280.102 185.996 280.526 183.089 280.741 180.197C280.882 178.152 280.905 176.108 280.86 174.063C280.86 172.881 279.976 169.03 280.615 168.116C282.012 166.116 286.137 172.918 287.096 174.13Z" fill="#5DB07B"/>
<path d="M287.096 174.13C288.969 176.509 290.931 179.126 290.954 182.152C290.9 183.566 290.609 184.961 290.092 186.278C289.311 188.598 288.404 190.88 287.401 193.111C286.888 194.233 286.241 195.445 285.082 195.854C282.451 194.642 280.949 191.735 280.526 188.865C280.102 185.996 280.526 183.089 280.741 180.197C280.882 178.152 280.905 176.108 280.86 174.063C280.86 172.881 279.976 169.03 280.615 168.116C282.012 166.116 286.137 172.918 287.096 174.13Z" fill="#278147"/>
<path d="M242.544 168.138C239.95 171.759 236.271 176.093 234.368 180.123C232.555 184.003 232.51 199.051 233.283 199.355C236.829 200.783 243.845 200.471 247.576 199.653C248.095 199.589 248.578 199.357 248.951 198.991C249.3 198.493 249.458 197.886 249.397 197.281C249.36 192.783 247.628 185.907 247.584 181.409C247.671 179.22 247.433 177.03 246.878 174.911C246.224 172.829 244.96 169.707 242.797 170.034L242.544 168.138Z" fill="#5DB07B"/>
<path d="M245.964 171.32C245.736 170.826 245.383 170.399 244.941 170.082C244.498 169.765 243.981 169.569 243.439 169.513C242.898 169.457 242.351 169.542 241.853 169.761C241.354 169.98 240.922 170.325 240.597 170.762C238.367 173.736 235.84 177.03 234.398 180.122C232.585 184.003 232.54 199.051 233.313 199.355C236.859 200.783 243.875 200.471 247.606 199.653C248.125 199.589 248.608 199.357 248.981 198.991C249.319 198.489 249.467 197.883 249.398 197.281C249.36 192.783 247.629 185.907 247.584 181.409C247.584 179.223 247.086 177.089 246.878 174.911C246.769 173.672 246.46 172.46 245.964 171.32Z" fill="#278147"/>
<path d="M325.836 182.658C329.307 174.093 338.746 167.001 347.442 170.108C376.058 180.338 363.348 248.416 364.144 278.072C364.156 279.273 363.884 280.459 363.349 281.535C362.814 282.61 362.032 283.543 361.067 284.257C359.692 285.239 350.259 283.64 348.58 283.811C343.139 284.369 330.986 219.711 325.248 210.589C320.083 202.374 322.238 191.512 325.836 182.658Z" fill="#3B3E3C"/>
<path d="M325.836 182.658C329.307 174.093 338.746 167.001 347.442 170.108C376.058 180.338 363.348 248.416 364.144 278.072C364.156 279.273 363.884 280.459 363.349 281.535C362.814 282.61 362.032 283.543 361.067 284.257C359.692 285.239 350.259 283.64 348.58 283.811C343.139 284.369 330.986 219.711 325.248 210.589C320.083 202.374 322.238 191.512 325.836 182.658Z" fill="url(#paint23_linear)"/>
<path d="M202.616 231.844C202.512 232.989 202.698 234.275 203.597 234.981C203.935 235.22 204.305 235.408 204.697 235.539L208.413 237.026C208.639 237.152 208.89 237.225 209.147 237.239C209.405 237.253 209.662 237.208 209.9 237.108C210.197 236.914 210.331 236.558 210.561 236.29C211.238 235.509 212.516 235.665 213.431 236.149C214.209 236.568 214.877 237.167 215.378 237.896C215.794 238.505 216.166 239.256 216.864 239.45C217.225 239.507 217.594 239.458 217.926 239.309C218.259 239.16 218.541 238.917 218.737 238.61C220.224 236.669 219.421 233.799 218.061 231.755C215.983 228.665 212.9 226.391 209.335 225.317C205.463 224.112 202.936 228.224 202.616 231.844Z" fill="#FFD1A9"/>
<path d="M176.408 223.213C177.947 224.521 177.568 227.027 176.609 228.803C174.082 233.502 162.026 241.769 156.578 237.866C151.739 234.402 158.926 226.573 161.914 224.521C165.408 222.112 172.766 220.105 176.408 223.213Z" fill="#FFD1A9"/>
<path d="M289.534 248.639L310.145 272.927C310.992 273.938 311.669 275.12 312.925 275.514C314.999 276.161 322.491 277.633 322.171 276.748C314.657 255.597 308.889 236.104 297.77 222.164C296.573 220.677 295.213 219.124 293.377 218.536C290.352 217.562 287.014 219.599 285.431 222.365C280.258 231.48 283.432 241.42 289.534 248.639Z" fill="#FFD1A9"/>
<path d="M306.131 220.187C306.421 216.938 308.458 213.607 311.639 212.879C313.139 212.589 314.691 212.752 316.099 213.347C321.257 215.377 324.059 220.886 325.954 226.09C331.38 240.996 337.208 260.972 335.074 276.681C334.896 277.975 329.775 277.425 328.474 277.328C327.649 277.261 319.131 257.627 315.288 248.334C312.003 240.453 305.351 228.982 306.131 220.187Z" fill="#FFD1A9"/>
<path d="M257.313 135.62C256.977 135.556 256.632 135.556 256.295 135.62C256.048 135.689 255.818 135.808 255.619 135.969C255.42 136.13 255.255 136.33 255.136 136.556C254.898 137.02 254.749 137.525 254.697 138.043C254.469 139.347 254.675 140.69 255.284 141.865C255.595 142.446 256.065 142.927 256.639 143.252C257.212 143.577 257.866 143.733 258.525 143.701C258.773 143.688 259.012 143.605 259.216 143.463C259.507 143.155 259.674 142.75 259.684 142.326C259.892 140.928 260.539 138.891 260.205 137.493C259.907 136.214 258.436 135.783 257.313 135.62Z" fill="#FFD1A9"/>
<path d="M257.075 137.3C256.813 137.302 256.556 137.382 256.339 137.53C256.122 137.679 255.954 137.888 255.857 138.133C255.766 138.416 255.738 138.715 255.775 139.01C255.802 139.691 256.004 140.355 256.362 140.935C256.566 141.28 256.862 141.562 257.216 141.749C257.57 141.937 257.969 142.023 258.369 141.999C258.499 141.998 258.626 141.963 258.739 141.897C258.851 141.832 258.944 141.738 259.009 141.625C259.074 141.512 259.108 141.384 259.108 141.254C259.107 141.124 259.073 140.996 259.008 140.883C258.715 140.257 258.498 139.598 258.361 138.921C258.317 138.14 258.027 137.322 257.075 137.3Z" fill="#E4B387"/>
<path d="M193.258 114.937C193.97 115.148 194.708 115.255 195.451 115.257C198.089 115.383 200.944 115.443 203.114 113.948C205.284 112.454 206.236 109.807 207.046 107.324C207.856 104.841 208.755 102.179 210.844 100.633C213.074 98.9826 216.337 98.7447 217.875 96.4549C218.277 95.8975 218.464 95.2138 218.403 94.5294C218.204 93.7368 217.784 93.0173 217.191 92.4552C216.374 91.3554 215.296 90.4765 214.055 89.8977C213.231 89.6118 212.363 89.4709 211.491 89.4814C208.785 89.454 206.081 89.5756 203.389 89.8457C200.698 90.0984 197.956 90.4702 195.555 91.7043C193.234 93.0126 191.234 94.8207 189.698 96.9976C188.21 98.8073 187.08 100.884 186.368 103.116C185.625 105.674 185.744 108.923 187.624 110.997C189.215 112.679 191.132 114.02 193.258 114.937Z" fill="#3B3E3C"/>
<path d="M209.625 82.5747C212.316 82.6862 214.873 83.7196 217.325 84.805C222.818 87.2956 228.251 90.3958 231.908 95.2133C235.565 100.031 237.111 106.826 234.346 112.179C232.502 108.304 230.234 104.646 227.582 101.272C226.064 99.4151 224.316 97.7587 222.38 96.3433C220.796 95.2133 218.879 94.626 217.92 92.8863C215.593 88.7379 213.899 85.1991 209.625 82.5747Z" fill="#3B3E3C"/>
<path d="M279.047 172.406C279.002 172.866 279.047 173.431 279.441 173.64C279.587 173.688 279.742 173.706 279.895 173.692C280.049 173.678 280.197 173.632 280.332 173.558C281.236 173.154 282.008 172.505 282.562 171.684C281.904 173.023 281.646 174.522 281.819 176.004C281.878 176.494 282.049 177.059 282.51 177.223C282.705 177.266 282.906 177.262 283.099 177.212C283.291 177.161 283.469 177.066 283.618 176.933C284.41 176.36 284.98 175.53 285.231 174.584C284.628 176.323 284.437 178.178 284.673 180.004C284.672 180.192 284.715 180.379 284.799 180.548C284.883 180.717 285.005 180.864 285.156 180.977C285.314 181.037 285.483 181.059 285.651 181.042C285.818 181.026 285.98 180.97 286.123 180.881C287.401 180.137 288.409 179.004 288.999 177.647C289.595 176.688 289.883 175.57 289.824 174.443C289.675 173.335 288.694 172.264 287.594 172.406C287.758 172.406 284.443 166.458 282.852 166.168C279.73 165.596 279.27 170.093 279.047 172.406Z" fill="#FFD1A9"/>
<path opacity="0.5" d="M57.0981 243.992C59.6748 248.131 61.9573 252.446 63.9288 256.906C65.7338 261.268 66.939 265.855 67.5113 270.541C68.4181 277.975 67.5113 286.071 63.0517 292.101C62.966 292.249 62.8283 292.36 62.6652 292.413C62.3753 292.457 62.1672 292.145 62.0483 291.878C58.9365 284.993 55.8246 278.111 52.7128 271.232C51.3452 268.214 49.9775 265.188 48.8998 262.058C46.2495 254.328 45.388 246.097 46.3801 237.985C46.6774 235.539 46.8112 230.313 50.3789 232.781C53.129 234.677 55.4034 241.145 57.0981 243.992Z" fill="#5DB07B"/>
<path d="M57.0981 243.992C59.6748 248.131 61.9573 252.446 63.9288 256.906C65.7338 261.268 66.939 265.855 67.5113 270.541C68.4181 277.975 67.5113 286.071 63.0517 292.101C62.966 292.249 62.8283 292.36 62.6652 292.413C62.3753 292.457 62.1672 292.145 62.0483 291.878C58.9365 284.993 55.8246 278.111 52.7128 271.232C51.3452 268.214 49.9775 265.188 48.8998 262.058C46.2495 254.328 45.388 246.097 46.3801 237.985C46.6774 235.539 46.8112 230.313 50.3789 232.781C53.129 234.677 55.4034 241.145 57.0981 243.992Z" fill="url(#paint24_linear)"/>
<path opacity="0.24" d="M430.183 286.495C431.217 280.547 436.36 276.146 438.463 270.474C439.188 268.336 439.66 266.12 439.868 263.872C440.988 254.762 441.09 245.556 440.173 236.424C438.82 222.975 434.695 228.952 431.046 238.089C424.84 253.574 424.533 270.799 430.183 286.495Z" fill="#5DB07B"/>
<path d="M430.183 286.495C431.217 280.547 436.36 276.146 438.463 270.474C439.188 268.336 439.66 266.12 439.868 263.872C440.988 254.762 441.09 245.556 440.173 236.424C438.82 222.975 434.695 228.952 431.046 238.089C424.84 253.574 424.533 270.799 430.183 286.495Z" fill="url(#paint25_linear)"/>
<defs>
<linearGradient id="paint0_linear" x1="5709.62" y1="8078.24" x2="6448.56" y2="8078.24" gradientUnits="userSpaceOnUse">
<stop offset="0.12" stop-color="#010101" stop-opacity="0"/>
<stop offset="0.67" stop-color="#010101" stop-opacity="0.67"/>
<stop offset="0.95" stop-color="#010101"/>
</linearGradient>
<linearGradient id="paint1_linear" x1="280.176" y1="216.135" x2="296.96" y2="133.279" gradientUnits="userSpaceOnUse">
<stop stop-color="white" stop-opacity="0"/>
<stop offset="0.95" stop-color="white"/>
</linearGradient>
<linearGradient id="paint2_linear" x1="4214.02" y1="30695.1" x2="12462.5" y2="31259.4" gradientUnits="userSpaceOnUse">
<stop offset="0.12" stop-color="#010101" stop-opacity="0"/>
<stop offset="0.67" stop-color="#010101" stop-opacity="0.67"/>
<stop offset="0.95" stop-color="#010101"/>
</linearGradient>
<linearGradient id="paint3_linear" x1="22002.7" y1="12233.3" x2="22610.5" y2="10764" gradientUnits="userSpaceOnUse">
<stop offset="0.12" stop-color="#010101" stop-opacity="0"/>
<stop offset="0.67" stop-color="#010101" stop-opacity="0.67"/>
<stop offset="0.95" stop-color="#010101"/>
</linearGradient>
<linearGradient id="paint4_linear" x1="29126.5" y1="63426.7" x2="31438.5" y2="43486.7" gradientUnits="userSpaceOnUse">
<stop stop-color="white" stop-opacity="0"/>
<stop offset="0.95" stop-color="white"/>
</linearGradient>
<linearGradient id="paint5_linear" x1="16127.2" y1="37312" x2="9311.18" y2="34579.5" gradientUnits="userSpaceOnUse">
<stop stop-color="white" stop-opacity="0"/>
<stop offset="0.95" stop-color="white"/>
</linearGradient>
<linearGradient id="paint6_linear" x1="21104" y1="15955.2" x2="21424.2" y2="19570.8" gradientUnits="userSpaceOnUse">
<stop offset="0.12" stop-color="#010101" stop-opacity="0"/>
<stop offset="0.67" stop-color="#010101" stop-opacity="0.67"/>
<stop offset="0.95" stop-color="#010101"/>
</linearGradient>
<linearGradient id="paint7_linear" x1="11584.3" y1="28339.1" x2="2603.39" y2="32339.4" gradientUnits="userSpaceOnUse">
<stop offset="0.12" stop-color="#010101" stop-opacity="0"/>
<stop offset="0.67" stop-color="#010101" stop-opacity="0.67"/>
<stop offset="0.95" stop-color="#010101"/>
</linearGradient>
<linearGradient id="paint8_linear" x1="31998.5" y1="24314.6" x2="32218.1" y2="28903.7" gradientUnits="userSpaceOnUse">
<stop offset="0.12" stop-color="#1E1F1E"/>
<stop offset="0.67" stop-color="#010101" stop-opacity="0.67"/>
<stop offset="0.95" stop-color="#010101"/>
</linearGradient>
<linearGradient id="paint9_linear" x1="7903.03" y1="11320" x2="10465.7" y2="11320" gradientUnits="userSpaceOnUse">
<stop offset="0.12" stop-color="#010101" stop-opacity="0"/>
<stop offset="0.67" stop-color="#010101" stop-opacity="0.67"/>
<stop offset="0.95" stop-color="#010101"/>
</linearGradient>
<linearGradient id="paint10_linear" x1="43387.4" y1="39170.2" x2="44012.5" y2="29519.2" gradientUnits="userSpaceOnUse">
<stop offset="0.12" stop-color="#010101" stop-opacity="0"/>
<stop offset="0.67" stop-color="#010101" stop-opacity="0.67"/>
<stop offset="0.95" stop-color="#010101"/>
</linearGradient>
<linearGradient id="paint11_linear" x1="21459.8" y1="15101.4" x2="27233.1" y2="15101.4" gradientUnits="userSpaceOnUse">
<stop offset="0.12" stop-color="#010101" stop-opacity="0"/>
<stop offset="0.67" stop-color="#010101" stop-opacity="0.67"/>
<stop offset="0.95" stop-color="#010101"/>
</linearGradient>
<linearGradient id="paint12_linear" x1="15997.6" y1="17672.3" x2="17542" y2="17672.3" gradientUnits="userSpaceOnUse">
<stop offset="0.12" stop-color="#010101" stop-opacity="0"/>
<stop offset="0.67" stop-color="#010101" stop-opacity="0.67"/>
<stop offset="0.95" stop-color="#010101"/>
</linearGradient>
<linearGradient id="paint13_linear" x1="13918.2" y1="26607.8" x2="27863.8" y2="26607.8" gradientUnits="userSpaceOnUse">
<stop offset="0.12" stop-color="#010101" stop-opacity="0"/>
<stop offset="0.67" stop-color="#010101" stop-opacity="0.67"/>
<stop offset="0.95" stop-color="#010101"/>
</linearGradient>
<linearGradient id="paint14_linear" x1="7873.02" y1="12648" x2="10169.2" y2="12648" gradientUnits="userSpaceOnUse">
<stop offset="0.12" stop-color="#010101" stop-opacity="0"/>
<stop offset="0.67" stop-color="#010101" stop-opacity="0.67"/>
<stop offset="0.95" stop-color="#010101"/>
</linearGradient>
<linearGradient id="paint15_linear" x1="11621.6" y1="13386.7" x2="14127.1" y2="13386.7" gradientUnits="userSpaceOnUse">
<stop offset="0.12" stop-color="#1E1F1E"/>
<stop offset="0.67" stop-color="#010101" stop-opacity="0.67"/>
<stop offset="0.95" stop-color="#010101"/>
</linearGradient>
<linearGradient id="paint16_linear" x1="9516.87" y1="9883.63" x2="8650.39" y2="9179.2" gradientUnits="userSpaceOnUse">
<stop offset="0.12" stop-color="#010101" stop-opacity="0"/>
<stop offset="0.67" stop-color="#010101" stop-opacity="0.67"/>
<stop offset="0.95" stop-color="#010101"/>
</linearGradient>
<linearGradient id="paint17_linear" x1="17459.2" y1="7163.41" x2="20795.9" y2="7163.41" gradientUnits="userSpaceOnUse">
<stop offset="0.12" stop-color="#010101" stop-opacity="0"/>
<stop offset="0.67" stop-color="#010101" stop-opacity="0.67"/>
<stop offset="0.95" stop-color="#010101"/>
</linearGradient>
<linearGradient id="paint18_linear" x1="21612.3" y1="30357.2" x2="33613.9" y2="30357.2" gradientUnits="userSpaceOnUse">
<stop offset="0.12" stop-color="#010101" stop-opacity="0"/>
<stop offset="0.67" stop-color="#010101" stop-opacity="0.67"/>
<stop offset="0.95" stop-color="#010101"/>
</linearGradient>
<linearGradient id="paint19_linear" x1="265.266" y1="181.431" x2="291.136" y2="268.47" gradientUnits="userSpaceOnUse">
<stop offset="0.12" stop-color="#010101" stop-opacity="0"/>
<stop offset="0.45" stop-color="#010101" stop-opacity="0.35"/>
<stop offset="0.67" stop-color="#010101" stop-opacity="0.67"/>
<stop offset="0.95" stop-color="#010101"/>
</linearGradient>
<linearGradient id="paint20_linear" x1="16671.9" y1="23854.6" x2="20364" y2="23854.6" gradientUnits="userSpaceOnUse">
<stop stop-color="white" stop-opacity="0"/>
<stop offset="0.95" stop-color="white"/>
</linearGradient>
<linearGradient id="paint21_linear" x1="6794.11" y1="11510.4" x2="7336.52" y2="11510.4" gradientUnits="userSpaceOnUse">
<stop offset="0.12" stop-color="#010101" stop-opacity="0"/>
<stop offset="0.45" stop-color="#010101" stop-opacity="0.35"/>
<stop offset="0.67" stop-color="#010101" stop-opacity="0.67"/>
<stop offset="0.95" stop-color="#010101"/>
</linearGradient>
<linearGradient id="paint22_linear" x1="15303.1" y1="8894.66" x2="17929.8" y2="8894.66" gradientUnits="userSpaceOnUse">
<stop offset="0.12" stop-color="#010101" stop-opacity="0"/>
<stop offset="0.67" stop-color="#010101" stop-opacity="0.67"/>
<stop offset="0.95" stop-color="#010101"/>
</linearGradient>
<linearGradient id="paint23_linear" x1="19504.1" y1="45096" x2="22121.3" y2="45096" gradientUnits="userSpaceOnUse">
<stop offset="0.12" stop-color="#010101" stop-opacity="0"/>
<stop offset="0.67" stop-color="#010101" stop-opacity="0.67"/>
<stop offset="0.95" stop-color="#010101"/>
</linearGradient>
<linearGradient id="paint24_linear" x1="1460.83" y1="26709.4" x2="3147.47" y2="26616.6" gradientUnits="userSpaceOnUse">
<stop offset="0.12" stop-color="#010101" stop-opacity="0"/>
<stop offset="0.67" stop-color="#010101" stop-opacity="0.67"/>
<stop offset="0.95" stop-color="#010101"/>
</linearGradient>
<linearGradient id="paint25_linear" x1="8563.67" y1="24268.6" x2="10706.2" y2="24568.9" gradientUnits="userSpaceOnUse">
<stop offset="0.12" stop-color="#010101" stop-opacity="0"/>
<stop offset="0.67" stop-color="#010101" stop-opacity="0.67"/>
<stop offset="0.95" stop-color="#010101"/>
</linearGradient>
</defs>
</svg>
