<svg width="40" height="40" viewBox="0 0 40 40" fill="none" xmlns="http://www.w3.org/2000/svg">
<path fill-rule="evenodd" clip-rule="evenodd" d="M9 0C4.02944 0 0 4.02944 0 9V31C0 35.9706 4.02944 40 9 40H31C35.9706 40 40 35.9706 40 31V9C40 4.02944 35.9706 0 31 0H9ZM29.38 28.54H32.3C33.14 28.54 33.54 28.12 33.32 27.3C33.06 26.48 32.1 25.3 30.86 23.88C30.5288 23.5001 30.117 23.0965 29.7469 22.7339C29.3572 22.3519 29.0139 22.0154 28.86 21.8C28.42 21.22 28.54 21 28.86 20.5C28.8526 20.5 28.9673 20.3298 29.1616 20.0416C30.0224 18.7641 32.4463 15.167 32.74 13.78C32.94 13.16 32.74 12.7 31.86 12.7H29C28.22 12.7 27.9 13.1 27.7 13.52C27.7 13.52 26.2 17.14 24.1 19.48C23.44 20.16 23.12 20.38 22.76 20.38C22.56 20.38 22.3 20.16 22.3 19.54V13.76C22.3 13 22.08 12.68 21.46 12.68H16.88C16.42 12.68 16.14 13 16.14 13.36C16.14 13.6272 16.2945 13.8187 16.491 14.0623C16.8094 14.4568 17.2382 14.9882 17.3 16.2V20.5C17.3 21.42 17.14 21.6 16.76 21.6C15.78 21.6 13.38 18 11.94 13.8C11.66 13 11.38 12.68 10.64 12.68H7.7C6.86 12.68 6.72 13.08 6.72 13.5C6.72 14.26 7.7 18.1 11.32 23.18C13.72 26.64 17.14 28.52 20.22 28.52C22.08 28.52 22.3 28.08 22.3 27.38V24.76C22.3 23.92 22.48 23.76 23.06 23.76C23.48 23.76 24.24 24 26 25.66C26.5685 26.2402 26.9996 26.7276 27.3526 27.1269C28.2045 28.0902 28.6023 28.54 29.38 28.54Z" fill="#5DB07B"/>
</svg>
