<svg width="40" height="40" viewBox="0 0 40 40" fill="none" xmlns="http://www.w3.org/2000/svg">
<path d="M20 26C23.3137 26 26 23.3137 26 20C26 16.6863 23.3137 14 20 14C16.6863 14 14 16.6863 14 20C14 23.3137 16.6863 26 20 26Z" fill="currentColor"/>
<path fill-rule="evenodd" clip-rule="evenodd" d="M0 9C0 4.02944 4.02944 0 9 0H31C35.9706 0 40 4.02944 40 9V31C40 35.9706 35.9706 40 31 40H9C4.02944 40 0 35.9706 0 31V9ZM19.9845 30.2051C14.3114 30.2051 9.71568 25.617 9.71568 19.9534C9.71568 14.2898 14.3114 9.70174 19.9845 9.70174C25.653 9.70174 30.2532 14.2898 30.2532 19.9534C30.2532 25.617 25.653 30.2051 19.9845 30.2051ZM30.6619 11.7131C29.3359 11.7131 28.2674 10.6442 28.2674 9.32254C28.2674 8.00089 29.3359 6.93203 30.6619 6.93203C31.9836 6.93203 33.0542 8.00089 33.0542 9.32254C33.0542 10.6442 31.9836 11.7131 30.6619 11.7131Z" fill="currentColor"/>
</svg>
