<svg width="40" height="40" viewBox="0 0 40 40" fill="none" xmlns="http://www.w3.org/2000/svg">
<path d="M26.14 0H13.86C2.66 0 0 2.66 0 13.86V26.14C0 37.34 2.66 40 13.86 40H26.14C37.34 40 40 37.34 40 26.14V13.86C40 2.66 37.34 0 26.14 0ZM32.3 28.54H29.38C28.28 28.54 27.94 27.64 26 25.66C24.24 24 23.48 23.76 23.06 23.76C22.48 23.76 22.3 23.92 22.3 24.76V27.38C22.3 28.08 22.08 28.52 20.22 28.52C17.14 28.52 13.72 26.64 11.32 23.18C7.7 18.1 6.72 14.26 6.72 13.5C6.72 13.08 6.86 12.68 7.7 12.68H10.64C11.38 12.68 11.66 13 11.94 13.8C13.38 18 15.78 21.6 16.76 21.6C17.14 21.6 17.3 21.42 17.3 20.5V16.2C17.2 14.24 16.14 14.06 16.14 13.36C16.14 13 16.42 12.68 16.88 12.68H21.46C22.08 12.68 22.3 13 22.3 13.76V19.54C22.3 20.16 22.56 20.38 22.76 20.38C23.12 20.38 23.44 20.16 24.1 19.48C26.2 17.14 27.7 13.52 27.7 13.52C27.9 13.1 28.22 12.7 29 12.7H31.86C32.74 12.7 32.94 13.16 32.74 13.78C32.38 15.48 28.82 20.5 28.86 20.5C28.54 21 28.42 21.22 28.86 21.8C29.16 22.22 30.18 23.1 30.86 23.88C32.1 25.3 33.06 26.48 33.32 27.3C33.54 28.12 33.14 28.54 32.3 28.54Z" fill="#666565"/>
</svg>
