<svg width="48" height="48" viewBox="0 0 48 48" fill="none" xmlns="http://www.w3.org/2000/svg">
<path d="M30.458 4.5H18.792C8.152 4.5 5.625 7.027 5.625 17.667V29.333C5.625 39.973 8.152 42.5 18.792 42.5H30.458C41.098 42.5 43.625 39.973 43.625 29.333V17.667C43.625 7.027 41.098 4.5 30.458 4.5ZM36.31 31.613H33.536C32.491 31.613 32.168 30.758 30.325 28.877C28.653 27.3 27.931 27.072 27.532 27.072C26.981 27.072 26.81 27.224 26.81 28.022V30.511C26.81 31.176 26.601 31.594 24.834 31.594C21.908 31.594 18.659 29.808 16.379 26.521C12.94 21.695 12.009 18.047 12.009 17.325C12.009 16.926 12.142 16.546 12.94 16.546H15.733C16.436 16.546 16.702 16.85 16.968 17.61C18.336 21.6 20.616 25.02 21.547 25.02C21.908 25.02 22.06 24.849 22.06 23.975V19.89C21.965 18.028 20.958 17.857 20.958 17.192C20.958 16.85 21.224 16.546 21.661 16.546H26.012C26.601 16.546 26.81 16.85 26.81 17.572V23.063C26.81 23.652 27.057 23.861 27.247 23.861C27.589 23.861 27.893 23.652 28.52 23.006C30.515 20.783 31.94 17.344 31.94 17.344C32.13 16.945 32.434 16.565 33.175 16.565H35.892C36.728 16.565 36.918 17.002 36.728 17.591C36.386 19.206 33.004 23.975 33.042 23.975C32.738 24.45 32.624 24.659 33.042 25.21C33.327 25.609 34.296 26.445 34.942 27.186C36.12 28.535 37.032 29.656 37.279 30.435C37.488 31.214 37.108 31.613 36.31 31.613Z" fill="#666565"/>
</svg>
