<svg width="382" height="317" viewBox="0 0 382 317" fill="none" xmlns="http://www.w3.org/2000/svg">
<g clip-path="url(#clip0)">
<path d="M381.916 234.242C383.433 210.231 363.349 187.626 368.674 164.169C370.627 155.545 375.9 147.969 378.068 139.39C380.451 129.959 378.921 119.955 376.148 110.629C369.575 88.7099 356.456 69.3241 338.552 55.0702C312.759 34.6329 279.089 26.5881 246.219 24.8308C213.35 23.0734 180.467 27.0372 147.578 27.8508C126.746 28.365 105.458 27.6751 85.6017 34.0145C62.0612 41.5256 42.29 58.624 28.6253 79.211C14.9606 99.798 6.99219 123.724 2.20075 147.962C0.371408 157.341 -1.0478 167.072 1.02242 176.399C4.80479 193.322 19.1791 205.812 25.852 221.823C30.5002 232.966 31.2358 245.398 35.4544 256.716C42.5504 275.767 59.1381 290.132 77.6398 298.574C96.1416 307.016 116.564 310.185 136.771 312.437C170.31 316.175 204.066 317.617 237.801 316.753C271.654 315.881 295.247 305.252 324.763 290.523C348.799 278.54 379.95 265.419 381.916 234.242Z" fill="#BDE1CA"/>
<path d="M308.299 275.976C311.28 276.776 314.575 277.928 315.909 280.701C319.034 287.21 309.119 291.837 301.925 292.241C227.876 296.417 153.602 294.021 79.9765 285.081C71.5979 284.06 62.2494 282.4 57.3604 275.52C65.9342 264.221 82.2159 263.271 96.3624 263.271C167.03 263.388 239.507 257.211 308.299 275.976Z" fill="#278147"/>
<path d="M303.28 187.034L277.52 202.089L273.893 201.106C263.679 198.281 235.25 190.132 232.691 186.038C229.566 181.046 218.304 157.53 218.304 157.53L223.557 141.258L229.775 121.986C229.775 121.986 253.914 161.09 258.282 163.59C262.651 166.089 303.28 187.034 303.28 187.034Z" fill="#5DB07B"/>
<path d="M135.176 228.078C135.176 228.078 127.129 217.013 117.416 222.533C107.703 228.052 100.776 271.348 111.869 279.393C122.963 287.438 134.062 263.303 134.062 263.303L135.176 228.078Z" fill="#5DB07B"/>
<path d="M135.176 228.078C135.176 228.078 127.129 217.013 117.416 222.533C107.703 228.052 100.776 271.348 111.869 279.393C122.963 287.438 134.062 263.303 134.062 263.303L135.176 228.078Z" fill="#3B3E3C"/>
<path d="M164.654 289.651C164.654 289.651 129.07 262.197 127.826 257.205C126.583 252.212 121.583 240.978 127.175 233.487C132.767 225.995 144.648 227.87 144.648 227.87C144.648 227.87 170.89 259.697 164.654 289.651Z" fill="#5DB07B"/>
<path d="M164.654 289.651C164.654 289.651 129.07 262.197 127.826 257.205C126.583 252.212 121.583 240.978 127.175 233.487C132.767 225.995 144.648 227.87 144.648 227.87C144.648 227.87 170.89 259.697 164.654 289.651Z" fill="#828482"/>
<path d="M271.393 285.908C265.15 292.156 238.927 292.156 233.309 287.158C227.69 282.159 216.246 280.708 216.877 268.849L220.412 263.642L219.761 263.473L216.285 262.561L213.987 238.896L192.269 245.196L188.181 246.374L185.681 209.118C185.681 209.118 225.835 186.67 241.446 189.801C257.057 192.931 252.058 229.113 252.683 230.988C253.132 232.289 253.256 247.526 254.636 257.777C254.844 259.281 250.346 259.912 250.599 261.149C251.068 263.323 256.361 265.751 257.051 266.551C260.775 270.932 277.629 279.666 271.393 285.908Z" fill="#828482"/>
<path d="M235.047 263.303L219.742 263.479L216.266 262.568L213.968 238.902L192.25 245.203L192.048 244.994L190.941 223.086C190.941 223.086 222.561 211.156 226.747 212.828C230.933 214.501 235.047 263.303 235.047 263.303Z" fill="#3B3E3C"/>
<path d="M217.854 193.048L223.947 207.296L138.437 216.011C129.974 216.577 129.427 200.664 130.384 190.048C130.54 188.343 130.736 186.793 130.944 185.44C133.737 167.358 138.821 142.964 142.923 124.707C145.846 111.689 148.287 101.809 149.049 99.5182C151.542 92.0267 178.995 91.6166 178.995 91.6166C179.138 91.6166 179.288 91.6166 179.425 91.6166C207.529 89.8918 229.767 122.012 229.767 122.012L219.052 159.112L212.711 181.072L213.746 183.481L214.696 185.72L217.854 193.048Z" fill="#5DB07B"/>
<path d="M160.832 212.294C161.665 210.505 163.716 209.691 165.552 208.995C169.189 207.574 172.678 205.799 175.968 203.696C176.955 202.973 178.055 202.416 179.223 202.05C180.235 201.857 181.28 201.919 182.263 202.229C183.245 202.539 184.136 203.088 184.854 203.827C191.065 209.932 182.901 209.88 178.208 210.485C176.235 210.745 161.398 211.084 160.832 212.294Z" fill="url(#paint0_linear)"/>
<path d="M219.059 159.131L212.718 181.092L213.753 183.5C213.871 183.98 214.039 184.447 214.254 184.893C214.397 185.186 214.541 185.466 214.703 185.739C215.927 187.796 217.75 189.644 217.913 191.974C217.936 192.342 217.916 192.711 217.854 193.074C217.477 195.58 215.25 197.63 213.206 199.29C211.162 200.95 209.059 202.649 206.533 203.378C202.66 204.497 198.409 203.098 195.186 200.683C191.964 198.268 189.574 194.929 187.211 191.629C185.727 189.547 184.171 187.269 184.171 184.711C184.231 183.418 184.526 182.148 185.043 180.962C187.921 173.542 193.213 167.358 198.409 161.331L217.392 139.306C218.043 138.525 218.87 137.679 219.905 137.646C221.259 137.601 222.196 138.948 222.867 140.106L223.518 141.259L218.264 157.53C218.264 157.53 218.577 158.123 219.059 159.131Z" fill="#278147"/>
<path d="M273.894 201.126C263.679 198.301 235.25 190.152 232.691 186.058C229.566 181.066 218.304 157.55 218.304 157.55L223.557 141.278L240.23 170.287C242.652 174.499 245.158 178.82 248.94 181.873C251.499 183.936 254.519 185.316 257.514 186.683C260.509 188.05 280.384 194.929 273.894 201.126Z" fill="#278147"/>
<path d="M185.089 208.122C172.765 192.092 138.808 196.452 138.216 197.058C135.807 199.661 139.518 207.55 140.293 210.993C140.631 212.503 146.653 213.772 146.1 215.204L138.424 215.985C128.659 216.636 129.427 195.105 130.931 185.394C132.78 173.418 135.638 158.663 138.548 144.767C138.958 144.259 139.388 143.777 139.85 143.302C143.059 139.937 150.422 135.694 155.305 137.848C161.815 140.718 157.225 147.748 155.604 153.143C155.074 154.526 154.852 156.008 154.953 157.485C155.194 159.268 156.353 160.739 157.518 162.151C161.539 166.894 166.131 171.122 171.19 174.739C174.34 176.985 177.758 179.087 179.815 182.354C184.555 189.898 180.421 200.585 185.089 208.122Z" fill="#278147"/>
<path d="M288.032 183.123L331.494 205.675C331.494 205.675 333.447 209.06 332.262 212.295C331.077 215.529 327.054 222.129 321.097 220.964C315.141 219.799 277.753 199.785 277.753 199.785L288.032 183.123Z" fill="#5DB07B"/>
<path d="M288.032 183.123L331.494 205.675C331.494 205.675 333.447 209.06 332.262 212.295C331.077 215.529 327.054 222.129 321.097 220.964C315.141 219.799 277.753 199.785 277.753 199.785L288.032 183.123Z" fill="#3B3E3C"/>
<path d="M194.893 119.175C192.862 119.747 190.674 119.175 188.774 118.231C182.302 115.061 178.279 107.921 177.882 100.729C177.485 93.5367 180.369 86.4097 184.835 80.7536C185.675 79.6862 186.788 78.5732 188.09 78.6058C189.392 78.6383 190.408 79.6862 191.241 80.682C196.319 86.7417 204.723 96.7325 205.921 104.81C206.533 108.982 204.268 109.314 201.546 112.581C199.58 115.002 198.207 118.237 194.893 119.175Z" fill="#FFD1A9"/>
<path d="M187.862 95.4958C187.862 95.4958 187.302 115.191 191.189 118.797C195.075 122.403 198.402 115.471 198.402 115.471L207.835 105.207L187.862 95.4958Z" fill="#E4B387"/>
<path d="M244.214 101.9C241.473 104.927 238.602 107.875 235.21 110.147C228.42 114.703 219.86 116.2 211.774 115.178C205.322 114.358 198.93 111.924 194.249 107.407C188.546 101.926 185.864 93.8491 185.584 85.9281C185.304 78.007 187.224 70.2095 189.581 62.6594C191.326 57.0619 193.363 51.4775 196.612 46.5959C206.136 32.2768 224.521 26.3539 241.72 25.8332C250.255 25.5728 259.298 26.5556 266.211 31.5673C271.244 35.2122 275.436 42.3458 274.531 48.7568C273.815 53.8271 269.766 59.0796 267.982 63.9091C262.729 78.1306 254.344 90.7054 244.214 101.9Z" fill="#FFD1A9"/>
<path d="M276.693 61.7547C275.769 64.1361 274.402 66.3205 272.663 68.1918C270.751 70.1502 268.263 71.4465 265.563 71.8915C262.862 72.3364 260.09 71.9067 257.651 70.6651C254.024 68.7125 251.388 65.1458 248.159 62.5032C241.401 56.9643 231.512 56.0401 224.456 61.1039C222.444 62.5423 220.549 64.4688 218.173 64.7943C215.179 65.1978 212.256 62.9263 209.28 63.4925C206.507 63.9937 204.587 66.7469 203.181 69.4415C201.774 72.1361 200.446 75.0911 197.972 76.6011L198.871 69.2462C199.138 67.0528 199.398 64.7813 198.819 62.6594C198.239 60.5376 196.579 58.611 194.574 58.6045C192.569 58.598 190.863 60.5246 190.173 62.6334C189.483 64.7422 189.522 67.0333 189.301 69.2658C189.041 71.9994 188.35 74.7721 186.775 76.907C185.2 79.0418 187.55 83.0057 185.121 82.3743C182.517 81.6844 175.786 76.3733 174.705 73.6722C171.034 64.6381 172.251 54.146 174.184 44.5001C175.76 36.6246 177.791 28.7881 181.235 21.6741C184.679 14.5601 189.653 8.12949 196.078 4.28285C201.628 1.00765 208.061 -0.455311 214.482 0.0977539C217.073 0.305756 219.632 0.803526 222.112 1.58174C223.09 1.95334 224.112 2.20044 225.152 2.31722C226.728 2.40834 228.251 1.79652 229.774 1.3344C239.325 -1.57499 249.519 1.43854 258.731 5.47394C263.672 7.64785 268.653 10.2318 272.22 14.5861C277.37 20.8735 278.411 29.3674 278.613 37.5033C278.815 45.88 280.006 53.8076 276.693 61.7547Z" fill="#3B3E3C"/>
<path d="M286.295 136.585C269.544 125.846 238.738 133.982 216.265 155.415C201.012 169.968 193.402 187.028 194.632 200.494C194.099 200.162 193.584 199.798 193.083 199.427C176.73 187.119 182.263 159.216 205.439 137.106C228.615 114.996 260.664 107.036 277.05 119.344C282.616 123.548 285.657 129.582 286.295 136.585Z" fill="#5DB07B"/>
<path d="M286.295 136.585C269.544 125.846 238.738 133.982 216.265 155.415C201.012 169.968 193.402 187.028 194.632 200.494C194.099 200.162 193.584 199.798 193.083 199.427C176.73 187.119 182.263 159.216 205.439 137.106C228.615 114.996 260.664 107.036 277.05 119.344C282.616 123.548 285.657 129.582 286.295 136.585Z" fill="#3B3E3C"/>
<path d="M223.531 226.483C215.107 226.483 207.751 224.323 202.126 220.085C196.039 215.529 192.432 208.832 191.71 200.768C190.336 185.798 198.76 168.048 214.241 153.254C237.587 130.981 269.948 122.559 287.91 134.079C288.47 134.424 289.042 134.821 289.635 135.27C296.015 140.067 299.654 147.129 300.155 155.701C301.021 170.411 292.564 187.75 277.539 202.089C265.964 213.154 251.876 221.127 237.866 224.602C233.182 225.808 228.368 226.439 223.531 226.483ZM268.204 134.808C263.467 134.849 258.755 135.505 254.187 136.761C241.538 140.139 228.798 147.513 218.304 157.524C204.333 170.86 196.391 187.21 197.575 200.201C198.168 206.651 200.896 211.741 205.681 215.334C220.901 226.796 251.297 218.933 273.438 197.806C287.22 184.652 294.999 169.038 294.237 156.04C293.834 149.258 291.015 143.673 286.067 139.989C285.605 139.644 285.169 139.338 284.733 139.065C280.306 136.247 274.642 134.808 268.204 134.808Z" fill="#5DB07B"/>
<path opacity="0.69" d="M300.135 155.721C299.633 147.149 296.001 140.1 289.614 135.284C289.015 134.841 288.449 134.444 287.896 134.099C269.928 122.579 237.566 131.001 214.221 153.274C198.74 168.048 190.316 185.817 191.689 200.787C192.431 208.851 196.038 215.536 202.106 220.105C203.68 221.291 205.376 222.308 207.164 223.138C212.3 225.452 217.885 226.599 223.517 226.497C228.349 226.461 233.158 225.838 237.839 224.642C245.109 222.791 252.091 219.958 258.594 216.219C265.458 212.303 271.814 207.557 277.519 202.089C287.935 192.124 295.233 180.714 298.397 169.734C299.767 165.196 300.355 160.457 300.135 155.721ZM273.443 197.832C251.309 218.959 220.913 226.822 205.68 215.36C200.901 211.767 198.18 206.678 197.581 200.221C196.39 187.243 204.338 170.886 218.309 157.55C228.803 147.546 241.544 140.165 254.193 136.787C258.758 135.532 263.468 134.875 268.203 134.834C274.641 134.834 280.298 136.273 284.738 139.117C285.174 139.391 285.611 139.696 286.04 140.041C290.995 143.758 293.813 149.316 294.217 156.098C294.992 169.064 287.219 184.678 273.437 197.832H273.443Z" fill="white"/>
<path d="M293.326 187.705C292.818 189.97 292.265 192.339 290.722 194.096C288.619 196.53 285.117 197.272 282.767 199.459C282.436 199.744 282.168 200.094 281.979 200.488C281.478 201.724 282.448 203.091 283.613 203.742C284.636 204.285 285.801 204.503 286.951 204.366C288.102 204.23 289.183 203.747 290.051 202.981C289.143 203.368 288.26 203.813 287.408 204.315C287.024 204.543 286.608 204.842 286.569 205.291C286.53 205.74 287.011 206.196 287.467 206.437C288.746 207.086 290.192 207.329 291.613 207.134C293.033 206.938 294.36 206.313 295.416 205.343L293.046 206.717C292.558 207.003 292.005 207.42 292.083 207.973C292.141 208.389 292.538 208.663 292.922 208.845C294.178 209.414 295.579 209.581 296.933 209.324C298.287 209.066 299.528 208.397 300.487 207.407L295.631 210.27C296.097 210.875 296.722 211.338 297.435 211.609C298.149 211.88 298.923 211.948 299.673 211.806C301.173 211.494 302.576 210.824 303.762 209.854C306.303 208.002 308.531 205.757 310.363 203.202C312.563 200.123 314.197 196.179 312.967 192.593C311.711 188.896 307.909 186.793 304.406 185.075C301.802 183.773 299.055 182.504 296.125 182.257C294.596 182.127 294.055 182.003 293.723 183.383C293.391 184.763 293.626 186.312 293.326 187.705Z" fill="#FFD1A9"/>
<path d="M175.883 171.081L174.19 192.476C174.19 192.476 140.637 190.842 130.39 190.048C129.179 189.95 128.294 189.872 127.832 189.807C127.107 189.661 126.433 189.327 125.879 188.837C121.693 185.472 116.765 173.9 117.839 160.472C119.082 144.851 149.048 99.5182 149.048 99.5182C151.616 101.099 153.997 102.966 156.144 105.083C170.935 119.793 162.153 138.004 162.153 138.004C162.153 138.004 146.529 154.23 149.048 159.847C151.568 165.464 175.883 171.081 175.883 171.081Z" fill="#5DB07B"/>
<path d="M169.465 290.301C167.841 290.277 166.226 290.059 164.654 289.65L164.335 289.559C144.459 283.884 138.438 216.011 138.438 216.011H138.581L153.352 213.863L185.662 209.151L191.521 226.028C191.521 226.028 196.534 290.425 169.465 290.301Z" fill="#828482"/>
<path d="M136.433 206.547L136.14 206.443C136.14 206.443 136.231 206.261 136.433 206.547Z" fill="url(#paint1_linear)"/>
<path d="M172.348 289.657C171.422 290.009 170.451 290.228 169.464 290.308C167.72 290.48 165.96 290.228 164.334 289.572C162.158 288.636 160.311 287.072 159.028 285.081C153.618 277.18 144.055 259.697 140.722 231.827C139.882 224.785 139.172 219.688 138.58 215.991L153.352 213.844C155.161 218.992 160.832 235.661 161.528 244.727C162.361 255.545 155.292 275.104 164.861 280.922C174.431 286.741 172.348 289.657 172.348 289.657Z" fill="#3B3E3C"/>
<path d="M179.432 91.5906C179.314 94.1941 178.475 96.7976 176.925 98.3662C173.228 102.096 163.378 102.922 158.443 104.348C157.675 104.569 156.9 104.797 156.145 105.083C155.27 105.391 154.447 105.83 153.704 106.385C152.167 107.563 151.204 109.327 150.279 111.032C147.823 115.588 145.371 120.144 142.923 124.7L132.526 143.992C128.523 151.438 124.428 159.177 123.881 167.612C123.425 174.713 125.528 181.743 125.834 188.837C121.648 185.472 116.72 173.9 117.794 160.472C119.037 144.851 149.003 99.5182 149.003 99.5182C151.497 92.0267 178.95 91.6166 178.95 91.6166C179.145 91.6101 179.295 91.5906 179.432 91.5906Z" fill="#278147"/>
<path d="M271.393 285.908C265.15 292.156 238.927 292.156 233.309 287.158C227.691 282.159 216.246 280.708 216.878 268.849L220.413 263.642C220.413 263.642 242.547 264.826 250.58 261.149C251.049 263.323 256.342 265.751 257.032 266.551C260.775 270.932 277.63 279.666 271.393 285.908Z" fill="#3B3E3C"/>
<path d="M273.437 197.832C251.303 218.96 220.907 226.822 205.674 215.36C200.895 211.767 198.174 206.678 197.575 200.221C197.575 200.221 206.475 219.747 247.254 196.042C288.033 172.338 284.733 139.091 284.733 139.091C285.169 139.365 285.605 139.67 286.035 140.015C290.989 143.732 293.808 149.29 294.211 156.072C294.992 169.064 287.219 184.678 273.437 197.832Z" fill="#5DB07B"/>
<path d="M273.437 197.832C251.303 218.96 220.907 226.822 205.674 215.36C200.895 211.767 198.174 206.678 197.575 200.221C197.575 200.221 206.475 219.747 247.254 196.042C288.033 172.338 284.733 139.091 284.733 139.091C285.169 139.365 285.605 139.67 286.035 140.015C290.989 143.732 293.808 149.29 294.211 156.072C294.992 169.064 287.219 184.678 273.437 197.832Z" fill="#3B3E3C"/>
<g opacity="0.69">
<path opacity="0.69" d="M273.235 197.63C251.101 218.751 220.698 226.614 205.465 215.152C200.686 211.559 197.965 206.469 197.366 200.013C196.181 187.034 204.124 170.678 218.094 157.342C228.589 147.338 241.329 139.957 253.985 136.579C258.55 135.323 263.259 134.666 267.994 134.626C274.426 134.626 280.084 136.065 284.524 138.909C284.96 139.182 285.396 139.488 285.826 139.833C290.78 143.55 293.599 149.108 294.002 155.89C294.79 168.855 287.017 184.47 273.235 197.63Z" fill="url(#paint2_linear)"/>
</g>
<path d="M260.567 135.16L196.071 198.945C196.071 198.945 197.731 211.006 201.481 209.763L275.749 135.889C270.727 135.116 265.639 134.872 260.567 135.16Z" fill="url(#paint3_linear)"/>
<path d="M279.609 121.257L296.58 142.892C296.58 142.892 280.455 120.945 242.547 134.887L228.53 120.841C228.53 120.841 260.261 103.996 279.609 121.257Z" fill="#5DB07B"/>
<path d="M279.609 121.257L296.58 142.892C296.58 142.892 280.455 120.945 242.547 134.887L228.53 120.841C228.53 120.841 260.261 103.996 279.609 121.257Z" fill="#828482"/>
<path d="M187.348 161.247C188.767 163.31 188.682 166.096 187.901 168.478C187.12 170.86 185.727 172.975 184.646 175.227C183.923 176.685 183.344 178.365 183.787 179.927C184.171 180.907 184.759 181.794 185.512 182.53C188.22 185.55 191.423 188.805 195.479 188.863C196.937 188.863 199.007 188.928 199.112 190.38C199.098 190.924 198.882 191.444 198.506 191.838C197.676 192.869 196.635 193.711 195.453 194.306C194.27 194.901 192.974 195.235 191.651 195.287L198.526 195.216C198.769 195.175 199.019 195.193 199.254 195.268C199.49 195.342 199.704 195.472 199.88 195.645C199.978 195.836 200.032 196.045 200.039 196.259C200.046 196.473 200.005 196.686 199.919 196.882C199.441 198.443 198.588 199.863 197.435 201.019C196.283 202.175 194.864 203.032 193.305 203.514C194.586 203.454 195.843 203.139 197.002 202.59C198.845 204.328 197.686 208.044 195.179 208.448C196.065 207.888 197.321 207.348 198.057 208.103C198.793 208.858 198.233 210.056 197.491 210.785C194.294 213.805 188.787 212.282 185.688 209.157C182.589 206.033 180.974 201.757 178.416 198.171C177.049 196.257 175.415 194.532 174.21 192.508C166.17 178.996 179.36 169.988 187.348 161.247Z" fill="#FFD1A9"/>
</g>
<defs>
<linearGradient id="paint0_linear" x1="7798.8" y1="4591.71" x2="7466.92" y2="3681.36" gradientUnits="userSpaceOnUse">
<stop offset="0.01"/>
<stop offset="0.13" stop-opacity="0.69"/>
<stop offset="1" stop-opacity="0"/>
</linearGradient>
<linearGradient id="paint1_linear" x1="197.943" y1="270.21" x2="198.075" y2="270.21" gradientUnits="userSpaceOnUse">
<stop offset="0.01"/>
<stop offset="0.13" stop-opacity="0.69"/>
<stop offset="1" stop-opacity="0"/>
</linearGradient>
<linearGradient id="paint2_linear" x1="34806.7" y1="28440.1" x2="37419.7" y2="31389.4" gradientUnits="userSpaceOnUse">
<stop offset="0.02" stop-color="white" stop-opacity="0"/>
<stop offset="0.58" stop-color="white" stop-opacity="0.39"/>
<stop offset="0.68" stop-color="white" stop-opacity="0.68"/>
<stop offset="1" stop-color="white"/>
</linearGradient>
<linearGradient id="paint3_linear" x1="28152.4" y1="23361.2" x2="30801.5" y2="29473.9" gradientUnits="userSpaceOnUse">
<stop offset="0.02" stop-color="white" stop-opacity="0"/>
<stop offset="0.58" stop-color="white" stop-opacity="0.39"/>
<stop offset="0.68" stop-color="white" stop-opacity="0.68"/>
<stop offset="1" stop-color="white"/>
</linearGradient>
<clipPath id="clip0">
<rect width="382" height="317" fill="white"/>
</clipPath>
</defs>
</svg>
