<svg width="504" height="438" viewBox="0 0 504 438" fill="none" xmlns="http://www.w3.org/2000/svg">
<path fill-rule="evenodd" clip-rule="evenodd" d="M279.195 415.701C230.973 407.7 202.876 372.268 163.52 347.892C127.905 325.832 63.7826 308.888 38.5747 278.277C9.08266 242.465 4.57618 208.99 13.2235 165.385C22.2767 119.733 56.6494 78.0951 101.926 51.344C145.422 25.6448 204.159 13.1926 256.715 13.1789C306.047 13.166 355.793 17.8196 398.408 37.9827C443.051 59.1058 461.422 91.435 477.7 132.478C493.751 172.949 499.463 236.223 487.889 278.277C475.692 322.594 467.321 357.561 427.515 388.705C387.117 420.313 332.444 424.537 279.195 415.701Z" fill="rgba(39, 149, 251, 0.3)"/>
<path d="M462.432 267.294C462.436 269.321 462.037 271.327 461.26 273.188C460.483 275.05 459.343 276.726 457.913 278.115C455.463 280.517 452.302 281.999 448.937 282.32C448.309 282.375 447.677 282.375 447.049 282.32L341.655 280.13C337.614 280.085 333.75 278.414 330.885 275.472C328.02 272.531 326.379 268.552 326.313 264.381C326.306 262.354 326.699 260.347 327.469 258.483C328.239 256.619 329.369 254.936 330.791 253.538C333.717 250.667 337.617 249.094 341.655 249.157H345.241C344.499 246.471 344.121 243.693 344.116 240.9C344.11 236.908 344.894 232.956 346.419 229.288C347.944 225.619 350.178 222.311 352.985 219.565C355.463 217.12 358.335 215.14 361.473 213.717C365.539 211.888 369.94 210.991 374.374 211.088L383.328 211.285C388.899 211.403 394.337 213.062 399.073 216.091C403.81 219.12 407.672 223.406 410.255 228.502C412.837 227.234 415.672 226.611 418.53 226.684H420.843C425.64 226.735 430.229 228.715 433.633 232.205C437.037 235.694 438.988 240.417 439.07 245.368V246.266C439.069 247.973 438.826 249.67 438.349 251.304L447.07 251.479C451.12 251.536 454.989 253.219 457.857 256.171C460.725 259.124 462.366 263.113 462.432 267.294Z" fill="white"/>
<path d="M448.937 282.321C448.309 282.376 447.677 282.376 447.049 282.321L341.655 280.13C337.614 280.085 333.75 278.414 330.885 275.473C328.02 272.531 326.379 268.552 326.313 264.381C326.306 262.354 326.699 260.348 327.469 258.483C328.239 256.619 329.369 254.936 330.791 253.539C326.547 280.415 353.813 276.56 353.813 276.56H422.286L448.937 282.321Z" fill="#2795FB
"/>
<path d="M352.968 252.399L345.308 249.398C344.566 246.712 344.188 243.933 344.183 241.14C344.177 237.148 344.961 233.197 346.486 229.529C348.011 225.86 350.246 222.552 353.053 219.806C355.53 217.36 358.402 215.381 361.54 213.958C340.343 232.707 352.968 252.399 352.968 252.399Z" fill="url(#paint0_linear)"/>
<path d="M392.498 273.69C392.534 302.875 383.332 331.272 366.293 354.56L366.017 354.954C347.346 380.357 320.536 398.08 290.374 404.96C260.212 411.84 228.664 407.428 201.363 392.512C174.061 377.595 152.786 353.147 141.335 323.532C129.885 293.917 129.005 261.064 138.854 230.842C148.702 200.619 168.637 174.995 195.099 158.545C221.56 142.095 252.825 135.891 283.308 141.04C313.792 146.19 341.51 162.358 361.511 186.657C381.513 210.956 392.496 241.804 392.498 273.69Z" fill="#D5F39C"/>
<path d="M220.372 207.562C213.221 210.606 205.328 211.329 197.986 213.826C190.645 216.323 183.282 221.361 181.393 229.159C180.417 233.08 180.926 237.439 179.059 240.987C176.577 245.762 170.763 247.558 167.24 251.501C160.535 259.124 164.949 272.201 173.139 278.093C181.33 283.985 191.79 284.883 201.594 286.613C204.276 286.834 206.833 287.88 208.935 289.614C214.643 295.244 208.32 305.429 210.739 313.183C212.097 317.564 216.107 320.565 217.932 324.77C221.433 332.787 216.128 341.636 212.627 349.653C206.312 364.279 205.742 380.863 211.036 395.915C210.792 396.278 210.522 396.622 210.23 396.944C196.265 390.619 183.477 381.827 172.439 370.966C161.681 355.392 153.172 338.417 154.063 319.754C154.551 309.635 157.819 299.865 158.434 289.789C159.453 273.427 153.724 255.663 161.49 241.381C165.734 233.474 174.009 224.8 169.383 217.134C161.214 218.36 152.408 218.557 144.918 215.622C154.109 195.857 167.842 178.71 184.921 165.677C201.999 152.643 221.906 144.117 242.907 140.842C250.97 164.63 244.562 197.048 220.372 207.562Z" fill="#9CD039"/>
<path d="M392.498 273.69C392.507 282.194 391.733 290.68 390.185 299.033C386.726 301.937 383.484 305.108 380.488 308.517C370.197 320.959 367.969 338.219 366.293 354.516C366.293 354.866 366.293 355.217 366.187 355.545C366.187 355.326 366.187 355.129 366.017 354.91C365.198 350.725 363.431 346.799 360.861 343.454C357.933 340.191 352.734 338.57 349.169 341.132C347.472 336.752 345.767 332.407 344.056 328.1C333.446 328.1 322.497 328.1 312.524 324.223C302.551 320.346 294.297 312.92 286.319 305.67C287.366 293.107 287.139 280.465 285.64 267.951C316.632 264.479 345.299 249.343 366.166 225.435C347.504 224.475 329.001 229.403 313.118 239.563C309.723 241.754 306.286 244.207 302.318 244.557C299.804 244.622 297.296 244.267 294.891 243.506L269.238 236.781C266.034 219.74 277.471 202.633 292.175 194.2C303.209 187.892 316.598 189.118 327.187 183.598C334.443 179.831 336.565 173.238 342.91 168.397H343.037C358.449 180.952 370.906 196.948 379.472 215.184C388.039 233.42 392.492 253.423 392.498 273.69Z" fill="#9CD039
"/>
<path d="M302.574 246.463C301.81 249.048 301.089 252.07 302.574 254.239C303.304 255.166 304.265 255.87 305.354 256.276C306.621 256.9 308.031 257.151 309.428 257.001C310.825 256.85 312.154 256.303 313.269 255.422C314.433 254.106 315.258 252.509 315.666 250.778C317.65 244.493 319.071 238.034 319.91 231.481C320.07 230.878 320.07 230.243 319.91 229.641C319.579 229.009 319.047 228.514 318.404 228.239C315.03 226.377 309.746 224.887 307.794 229.005C305.396 234.306 304.272 240.855 302.574 246.463Z" fill="#FFD1A9"/>
<path d="M312.781 249.464C313.494 249.363 314.219 249.43 314.903 249.661C315.369 249.927 315.774 250.293 316.091 250.734L323.412 259.211C324.834 260.854 326.319 263.11 325.322 265.059C324.97 265.602 324.506 266.056 323.963 266.39C323.419 266.723 322.811 266.927 322.181 266.987C318.636 267.322 315.071 266.6 311.911 264.906C309.662 263.898 307.434 262.716 305.249 261.62C303.625 260.859 302.205 259.702 301.111 258.247C299.435 255.619 298.989 249.31 301.917 247.295C303.424 246.309 304.739 247.01 306.161 247.689C308.193 248.832 310.467 249.442 312.781 249.464Z" fill="#5DB07B"/>
<path d="M343.144 275.332C343.201 275.82 343.151 276.314 342.996 276.778C342.743 277.228 342.376 277.599 341.935 277.851C340.543 278.841 338.912 279.409 337.224 279.494C336.381 279.527 335.543 279.358 334.773 279.001C334.004 278.644 333.325 278.108 332.79 277.435C332.009 276.16 331.535 274.71 331.41 273.208C330.789 269.976 330.483 266.689 330.498 263.395C330.461 263.201 330.465 263.001 330.51 262.81C330.556 262.618 330.641 262.439 330.76 262.285C330.879 262.13 331.029 262.005 331.2 261.916C331.371 261.828 331.559 261.779 331.75 261.774C334.381 261.204 339.622 259.78 340.959 263.11C342.321 267.036 343.059 271.163 343.144 275.332Z" fill="#FFD1A9"/>
<path d="M354.285 275.004C356.546 275.13 358.78 275.573 360.926 276.319C361.993 276.7 362.973 277.302 363.805 278.09C364.637 278.877 365.304 279.833 365.764 280.897C366.193 281.938 366.246 283.104 365.913 284.182C365.18 285.782 363.893 287.04 362.306 287.709C354.764 291.846 346.256 293.734 337.734 293.163C335.548 293.254 333.411 292.469 331.772 290.972C330.588 289.164 330.035 286.993 330.202 284.817L329.905 274.522C331.825 274.611 333.699 275.158 335.379 276.121C338.519 277.217 339.75 274.588 342.339 273.931C345.713 273.121 350.848 274.654 354.285 275.004Z" fill="#5DB07B"/>
<path d="M312.781 249.464C313.494 249.363 314.219 249.43 314.903 249.661C315.369 249.927 315.774 250.293 316.091 250.734L323.412 259.211C324.834 260.854 326.319 263.11 325.322 265.059C324.97 265.602 324.506 266.056 323.963 266.39C323.419 266.723 322.811 266.927 322.181 266.987C318.636 267.322 315.071 266.6 311.911 264.906C309.662 263.898 307.434 262.716 305.249 261.62C303.625 260.859 302.205 259.702 301.111 258.247C299.435 255.619 298.989 249.31 301.917 247.295C303.424 246.309 304.739 247.01 306.161 247.689C308.193 248.832 310.467 249.442 312.781 249.464Z" fill="#3B3E3C"/>
<path d="M354.285 275.004C356.546 275.13 358.78 275.573 360.926 276.319C361.993 276.7 362.973 277.302 363.805 278.09C364.637 278.877 365.304 279.833 365.764 280.897C366.193 281.938 366.246 283.104 365.913 284.182C365.18 285.782 363.893 287.04 362.306 287.709C354.764 291.846 346.256 293.734 337.734 293.163C335.548 293.254 333.411 292.469 331.772 290.972C330.588 289.164 330.035 286.993 330.202 284.817L329.905 274.522C331.825 274.611 333.699 275.158 335.379 276.121C338.519 277.217 339.75 274.588 342.339 273.931C345.713 273.121 350.848 274.654 354.285 275.004Z" fill="#3B3E3C"/>
<path d="M233.399 163.468C228.834 163.059 224.241 163.133 219.691 163.687C219.096 163.719 218.519 163.907 218.015 164.235C217.725 164.517 217.493 164.856 217.333 165.232C217.172 165.608 217.087 166.014 217.081 166.425C216.445 172.777 221.325 178.297 226.587 181.649C240.825 190.761 258.776 190.41 274.499 196.368C276 196.778 277.332 197.677 278.298 198.931C278.953 200.29 279.274 201.794 279.231 203.312C279.932 211.876 284.536 219.586 286.064 228.02C287.592 236.453 285.958 245.28 287.21 253.779C292.366 248.106 301.15 247.208 306.307 241.6C311.144 236.431 312.099 228.72 312.821 221.58L314.773 201.998C315.135 200.585 314.985 199.085 314.352 197.779C313.72 196.473 312.647 195.449 311.335 194.901C288.122 179.414 260.919 165.921 233.399 163.468Z" fill="url(#paint1_linear)" fill-opacity="0.5"/>
<path d="M327.27 161.497C329.415 161.942 331.403 162.979 333.021 164.498C334.68 166.883 335.435 169.813 335.143 172.734C335.092 193.518 331.286 214.11 323.918 233.452C323.849 234.132 323.619 234.784 323.249 235.351C322.879 235.918 322.381 236.383 321.796 236.705C321.212 237.027 320.561 237.197 319.898 237.199C319.236 237.2 318.584 237.035 317.998 236.716C313.585 235.487 309.237 234.024 304.969 232.335L310.741 192.908C311.016 191.814 310.957 190.658 310.571 189.6C310.145 188.85 309.548 188.218 308.831 187.76C302.248 182.817 295.295 178.423 288.037 174.618C282.244 171.595 275.602 168.047 274.032 161.651C273.707 160.558 273.641 159.4 273.84 158.275C274.039 157.151 274.498 156.092 275.178 155.189C276.096 154.258 277.176 153.515 278.361 152.999C282.202 151.049 287.039 148.618 291.453 149.012C294.996 149.385 296.355 151.487 299.304 153.043C307.494 157.248 318.38 158.825 327.27 161.497Z" fill="#3B3E3C"/>
<path d="M287.849 98.786C290.692 106.869 292.093 115.433 294.596 123.603C295.145 125.769 296.128 127.791 297.482 129.539C299.282 131.322 301.463 132.642 303.848 133.394C307.172 134.723 310.553 135.884 313.99 136.877C316.282 137.512 319.019 138.608 319.274 141.017C319.328 141.821 319.166 142.624 318.807 143.339C317.92 144.971 316.644 146.341 315.098 147.319C313.553 148.296 311.791 148.849 309.98 148.924C306.365 149.024 302.765 148.415 299.371 147.128C296.28 146.482 293.444 144.904 291.223 142.594C289.96 140.673 289.073 138.515 288.613 136.242C285.13 123.482 280.299 111.156 274.205 99.4869C272.382 96.4053 270.956 93.0918 269.961 89.6301C268.561 83.5846 268.54 69.2593 274.587 74.5163C279.467 78.7657 285.706 92.7843 287.849 98.786Z" fill="#FFD1A9"/>
<path d="M264.698 160.731C268.275 159.3 271.756 157.624 275.117 155.715C287.848 148.443 277.43 144.872 273.186 136.133C270.151 129.934 271.382 122.508 272.952 115.784C275.732 103.956 279.445 91.6893 276.772 79.883C276.438 77.9669 275.714 76.1454 274.65 74.5384C273.871 73.5414 272.973 72.6508 271.976 71.888C269.289 69.4914 266.195 67.6275 262.852 66.3901C256.487 64.1997 249.272 65.7986 243.225 68.9309C219.46 81.241 214.388 112.323 215.343 137.184C215.598 144.084 216.638 151.378 220.945 156.657C225.252 161.936 231.342 163.951 237.581 164.739C246.801 165.712 256.113 164.336 264.698 160.731Z" fill="white"/>
<path d="M229.264 146.668C229.455 149.002 230.183 151.254 231.386 153.239C233.508 156.328 237.412 157.467 240.998 158.365L257.145 162.483C259.113 163.099 261.158 163.416 263.214 163.425C267.627 163.206 271.426 160.293 274.927 157.489C275.821 156.857 276.598 156.063 277.218 155.145C268.306 154.269 259.416 153.349 250.546 152.013C245.326 151.224 239.81 150.129 235.969 146.427C233.985 144.404 232.475 141.939 231.555 139.221C230.919 137.534 230.622 133.241 228.776 132.869C228.311 137.469 228.475 142.115 229.264 146.668Z" fill="#828482"/>
<path d="M261.133 85.6432C261.131 86.3339 260.864 86.9956 260.39 87.4832C259.949 87.7513 259.434 87.8593 258.926 87.7898C257.263 87.7094 255.637 87.262 254.155 86.4778C252.674 85.6936 251.373 84.5908 250.34 83.2437C249.306 81.8966 248.564 80.3365 248.164 78.6685C247.764 77.0005 247.715 75.2634 248.02 73.5741C248.402 71.3837 249.314 69.4999 249.887 67.4409C251.012 63.323 250.821 58.6793 253.346 55.2842C255.532 60.4476 258.026 65.466 260.815 70.3104C261.527 71.2737 262.023 72.389 262.265 73.575C262.508 74.7611 262.49 75.988 262.215 77.1663L261.133 85.6432Z" fill="#FFD1A9"/>
<path d="M262.383 75.0418L261.429 81.6131C261.429 81.6131 250.501 76.0275 251.923 65.6669C253.344 55.3063 262.383 75.0418 262.383 75.0418Z" fill="#E4B387"/>
<path d="M275.156 68.6457C274.595 70.7508 273.407 72.6206 271.761 73.9903C270.975 74.5399 270.097 74.9336 269.172 75.1512C265.923 75.802 262.557 75.3749 259.558 73.9309C256.558 72.4869 254.078 70.1002 252.473 67.1125C250.959 64.086 250.096 60.7582 249.943 57.356C249.789 53.9539 250.348 50.5576 251.581 47.3988C252.591 43.9344 254.877 41.0168 257.947 39.2724C259.626 38.589 261.442 38.3454 263.234 38.5633C265.026 38.7811 266.738 39.4537 268.217 40.5209C272.236 43.4178 275.343 47.47 277.15 52.1739C278.699 56.9709 276.747 64.0678 275.156 68.6457Z" fill="#FFD1A9"/>
<path d="M323.132 189.03C325.851 192.605 328 196.606 329.497 200.88C337.842 221.655 343.266 243.554 345.602 265.914C338.789 266.79 331.897 266.79 325.084 265.914C324.55 250.129 322.193 234.466 318.06 219.258C317.33 215.985 316.075 212.861 314.347 210.014C311.313 205.48 306.326 202.852 301.616 200.399C290.593 194.869 279.073 190.468 267.22 187.256C262.212 185.832 257.162 184.518 252.239 182.875C248.102 181.43 236.495 176.129 233.143 173.259C231.386 171.884 229.916 170.157 228.822 168.181C227.728 166.205 227.032 164.021 226.777 161.76C226.777 162.899 259.114 165.177 261.427 164.914C269.215 164.06 278.402 159.46 286.084 162.724C292.088 165.264 297.584 170.565 303.059 174.223C309.7 178.516 317.806 182.678 323.132 189.03Z" fill="#828482"/>
<path d="M287.697 187.344L248.23 167.433L294.509 147.172L333.997 164.98L287.697 187.344Z" fill="#BDE1CA"/>
<path d="M290.668 194.889C284.211 194.991 259.666 176.473 248.201 167.202L288.184 186.429L333.258 165.279C334.748 168.971 334.872 171.945 334.748 172.97C336.536 180.763 328.374 181.857 324.069 181.43C318.027 177.542 307.182 171.714 312.149 179.507C318.358 189.249 298.739 194.761 290.668 194.889Z" fill="#3B3E3C"/>
<path d="M227.584 93.8569C227.584 94.6235 227.393 95.3682 227.308 96.0473C226.141 107.262 227.202 118.258 227.605 129.407C227.86 136.307 228.73 149.449 235.838 152.976C249.121 159.547 274.753 157.05 274.753 157.05C277.725 156.558 280.763 156.685 283.687 157.422C285.278 157.926 286.742 158.781 288.291 159.394C293.893 161.584 300.152 160.489 306.051 159.394C307.068 159.269 308.049 158.934 308.937 158.408C309.966 157.464 310.595 156.14 310.686 154.722C310.777 153.304 310.324 151.906 309.425 150.829C307.51 148.752 305.02 147.337 302.296 146.777C294.846 144.267 286.867 143.948 279.252 145.857C278.279 146.196 277.287 146.473 276.281 146.689C275.103 146.887 273.91 146.975 272.716 146.952H263.677C253.28 146.952 243.477 147.084 241.907 134.533C241.327 129.884 241.213 125.187 241.567 120.514C242.183 112.081 244.326 103.714 243.88 95.2806C243.853 92.6061 243.205 89.9772 241.992 87.6142C241.376 86.4409 240.48 85.4502 239.387 84.7369C238.295 84.0236 237.044 83.6115 235.753 83.54C234.417 83.643 233.129 84.1004 232.013 84.8678C230.898 85.6353 229.994 86.6869 229.388 87.9209C228.448 89.7726 227.837 91.783 227.584 93.8569Z" fill="#FFD1A9"/>
<path d="M350.25 124.808L295.081 153.787L287.697 187.344L333.997 164.98L350.25 124.808Z" fill="#86B9CC"/>
<path d="M277.871 56.5544C277.811 54.469 277.062 52.4675 275.75 50.8812C275.083 50.0828 274.295 49.4021 273.415 48.866C272.185 48.1213 271.888 48.0556 271.081 49.2603C270.042 50.8155 269.702 52.6335 268.747 54.2544C267.702 56.0522 266.245 57.5567 264.504 58.6352C262.546 59.8889 260.27 60.507 257.968 60.4095C257.054 60.2668 256.124 60.2668 255.21 60.4095C254.903 60.4694 254.612 60.5987 254.359 60.788C254.106 60.9774 253.896 61.2221 253.746 61.5047C253.527 62.324 253.448 63.1764 253.512 64.0236C253.321 66.2141 251.221 67.7692 250.054 69.6749C248.886 71.5805 248.547 74.4062 247.147 76.4433C246.887 76.852 246.528 77.184 246.107 77.407C245.11 77.8451 243.985 77.2756 242.945 77.0785C239.868 76.5309 237.386 79.4879 234.755 81.2841C229.471 84.8763 222.554 83.9563 216.316 82.883C214.406 82.6446 212.544 82.0976 210.799 81.2621C208.914 80.1138 207.24 78.6307 205.855 76.8813C203.542 74.2528 201.25 71.5806 198.98 68.9083C198.136 68.0527 197.465 67.0327 197.006 65.9074C196.764 65.1227 196.698 64.2909 196.815 63.476C197.022 61.9549 197.459 60.4767 198.11 59.0952C199.765 55.262 201.696 51.1002 205.43 49.3698C209.165 47.6394 213.578 48.9317 217.695 48.4937C218.196 48.4925 218.685 48.3319 219.095 48.0337C219.423 47.6516 219.656 47.1931 219.774 46.6975C221.493 40.8053 223.636 34.4093 228.771 31.3647C232.728 29.4026 237.188 28.7963 241.502 29.6343C245.774 30.4674 250.132 30.7251 254.467 30.4009C256.589 30.0504 258.711 29.3276 260.833 28.8895C265.795 27.7514 270.989 28.5307 275.431 31.0799C277.624 32.4268 279.458 34.3148 280.769 36.5743C282.08 38.8338 282.827 41.3941 282.943 44.0252C282.858 45.0528 282.858 46.0861 282.943 47.1137C283.091 48.0775 283.494 49.0194 283.643 49.9831C283.73 50.8162 283.645 51.6588 283.394 52.4555C283.143 53.2522 282.731 53.9851 282.186 54.6058C281.641 55.2265 280.974 55.721 280.231 56.0569C279.487 56.3927 278.683 56.5623 277.871 56.5544Z" fill="#3B3E3C"/>
<path d="M225.654 100.078C225 106.277 224.929 112.527 225.442 118.74C225.416 119.28 225.549 119.814 225.824 120.274C226.275 120.783 226.897 121.097 227.563 121.15C231 121.81 234.486 122.155 237.982 122.179C238.472 122.341 238.991 122.389 239.502 122.32C240.012 122.251 240.502 122.067 240.936 121.781C241.369 121.494 241.736 121.112 242.011 120.662C242.285 120.213 242.46 119.706 242.523 119.178C244.432 110.943 246.321 102.707 247.764 94.3611C248.337 91.0098 248.74 87.2423 246.788 84.5262C243.966 80.5835 236.348 80.1454 232.677 83.0148C228.242 86.5414 226.354 94.7773 225.654 100.078Z" fill="white"/>
<path d="M285.705 89.5647L291.71 104.416C292.007 104.993 292.125 105.65 292.049 106.299C291.897 106.832 291.603 107.31 291.201 107.679C288.267 110.881 284.785 113.495 280.931 115.39C277.377 112.112 274.491 108.135 272.443 103.693C270.449 98.414 270.894 92.5437 271.488 86.9143C271.849 83.344 271.722 71.8662 277.599 76.3128C281.695 79.3574 283.859 84.9868 285.705 89.5647Z" fill="white"/>
<path d="M177.086 228.874C177.088 230.898 176.69 232.902 175.916 234.763C175.143 236.623 174.01 238.301 172.587 239.695C170.135 242.093 166.975 243.574 163.612 243.9C162.983 243.933 162.352 243.933 161.723 243.9L56.3293 241.71C52.2831 241.665 48.4136 239.991 45.5445 237.046C42.6753 234.1 41.0329 230.115 40.9668 225.939C40.9649 223.914 41.3628 221.911 42.1362 220.05C42.9097 218.19 44.0424 216.512 45.4652 215.118C46.9079 213.686 48.6102 212.562 50.4744 211.81C52.3387 211.059 54.3283 210.694 56.3293 210.737H59.9152C59.1635 208.046 58.7849 205.259 58.7906 202.458C58.7835 198.465 59.5665 194.514 61.0917 190.845C62.6169 187.176 64.8521 183.868 67.6601 181.123C70.1342 178.679 73.0077 176.707 76.1477 175.297C80.2127 173.466 84.6147 172.569 89.0487 172.668L98.0031 172.865C103.539 172.972 108.948 174.598 113.673 177.578C118.398 180.558 122.269 184.783 124.887 189.819C127.476 188.572 130.306 187.95 133.163 188.001H135.476C140.271 188.063 144.854 190.051 148.253 193.543C151.652 197.035 153.599 201.757 153.681 206.707V207.605C153.69 209.304 153.454 210.994 152.981 212.621L161.702 212.818C165.799 212.859 169.715 214.569 172.597 217.576C175.478 220.583 177.092 224.644 177.086 228.874Z" fill="white"/>
<path d="M163.612 243.901C162.983 243.934 162.352 243.934 161.723 243.901L56.3293 241.71C52.2831 241.665 48.4136 239.992 45.5445 237.046C42.6753 234.101 41.0329 230.116 40.9668 225.939C40.9649 223.915 41.3628 221.911 42.1362 220.051C42.9097 218.19 44.0424 216.512 45.4652 215.119C41.3275 241.973 68.4877 238.14 68.4877 238.14H136.961L163.612 243.901Z" fill="url(#paint2_linear)"/>
<path d="M67.5515 213.979L59.9127 210.978C59.161 208.287 58.7824 205.5 58.7882 202.699C58.781 198.706 59.564 194.755 61.0892 191.086C62.6144 187.417 64.8496 184.109 67.6576 181.364C70.1318 178.92 73.0052 176.948 76.1452 175.538C54.99 194.287 67.5515 213.979 67.5515 213.979Z" fill="#2795FB
"/>
<path d="M455.094 101.568C455.096 103.594 454.696 105.6 453.918 107.461C453.141 109.321 452.003 110.998 450.574 112.388C448.114 114.787 444.947 116.267 441.578 116.594C440.949 116.649 440.317 116.649 439.689 116.594L334.316 114.403C330.305 114.348 326.47 112.69 323.617 109.778C320.765 106.866 319.116 102.926 319.017 98.7858C318.995 96.7408 319.382 94.713 320.152 92.8288C320.922 90.9445 322.06 89.2442 323.495 87.8338C326.43 84.9628 330.337 83.3906 334.38 83.453H337.945C337.203 80.767 336.825 77.9881 336.82 75.1952C336.814 71.2031 337.598 67.2519 339.123 63.5834C340.648 59.9149 342.883 56.6064 345.69 53.8606C348.164 51.4119 351.037 49.4322 354.177 48.0122C358.242 46.1792 362.644 45.2822 367.078 45.3837L376.033 45.5809C381.569 45.6864 386.977 47.3154 391.699 50.2996C396.422 53.2838 400.287 57.515 402.896 62.5565C405.479 61.2912 408.313 60.6685 411.171 60.7385H413.484C418.281 60.7891 422.869 62.7698 426.273 66.2592C429.677 69.7485 431.628 74.4713 431.711 79.4227V80.3207C431.709 82.0273 431.466 83.7246 430.989 85.3587L439.71 85.5339C443.8 85.5856 447.707 87.2964 450.585 90.2965C453.464 93.2965 455.083 97.3451 455.094 101.568Z" fill="white"/>
<path d="M441.599 116.595C440.97 116.65 440.339 116.65 439.71 116.595L334.338 114.404C330.322 114.354 326.482 112.699 323.625 109.786C320.768 106.874 319.116 102.931 319.017 98.7865C318.995 96.7415 319.382 94.7137 320.152 92.8294C320.922 90.9452 322.06 89.2449 323.495 87.8345C319.251 114.711 346.517 110.856 346.517 110.856H414.99L441.599 116.595Z" fill="url(#paint3_linear)"/>
<path d="M345.566 86.6731L337.906 83.6722C337.165 80.9862 336.786 78.2074 336.782 75.4144C336.776 71.4224 337.559 67.4711 339.085 63.8026C340.61 60.1341 342.844 56.8257 345.651 54.0798C348.126 51.6312 350.999 49.6515 354.139 48.2314C333.005 66.9813 345.566 86.6731 345.566 86.6731Z" fill="#2795FB
"/>
<path d="M255.358 60.4536C255.051 60.5136 254.761 60.6429 254.508 60.8322C254.254 61.0215 254.045 61.2662 253.894 61.5488C253.675 62.3681 253.596 63.2205 253.661 64.0678C253.47 66.2582 251.369 67.8134 250.202 69.7191C249.035 71.6247 248.695 74.4503 247.295 76.4874C247.035 76.8961 246.677 77.2282 246.255 77.4512C245.258 77.8893 244.133 77.3198 243.094 77.1226C240.017 76.575 237.534 79.5321 234.903 81.3282C229.62 84.9205 222.702 84.0005 216.464 82.9272C214.501 82.6908 212.588 82.1287 210.799 81.2625C208.914 80.1141 207.24 78.6311 205.855 76.8817C203.542 74.2532 201.25 71.5809 198.98 68.9086C198.136 68.053 197.465 67.033 197.006 65.9078C196.764 65.123 196.698 64.2913 196.815 63.4764C197.805 62.8597 198.833 62.3109 199.892 61.8336C203.145 60.0315 206.947 59.5998 210.502 60.6289C213.345 61.7679 215.361 64.3745 217.801 66.2363C221.204 68.6959 225.343 69.8261 229.479 69.4248C233.615 69.0236 237.478 67.117 240.378 64.0459C241.447 62.5916 242.703 61.2947 244.112 60.1908C246.637 58.767 251.772 58.9861 255.358 60.4536Z" fill="url(#paint4_linear)"/>
<defs>
<linearGradient id="paint0_linear" x1="3145.26" y1="6005.96" x2="4179.22" y2="5788.74" gradientUnits="userSpaceOnUse">
<stop offset="0.01"/>
<stop offset="0.13" stop-opacity="0.69"/>
<stop offset="0.25" stop-opacity="0.32"/>
<stop offset="1" stop-opacity="0"/>
</linearGradient>
<linearGradient id="paint1_linear" x1="-91702.3" y1="7994.86" x2="-97944.2" y2="17350.1" gradientUnits="userSpaceOnUse">
<stop offset="0.01"/>
<stop offset="0.13" stop-opacity="0.69"/>
<stop offset="0.25" stop-opacity="0.32"/>
<stop offset="1" stop-opacity="0"/>
</linearGradient>
<linearGradient id="paint2_linear" x1="8859.14" y1="4955.29" x2="8828.25" y2="3264.23" gradientUnits="userSpaceOnUse">
<stop offset="0.01"/>
<stop offset="0.13" stop-opacity="0.69"/>
<stop offset="0.25" stop-opacity="0.32"/>
<stop offset="1" stop-opacity="0"/>
</linearGradient>
<linearGradient id="paint3_linear" x1="25193.4" y1="3153.2" x2="25162.5" y2="1462.73" gradientUnits="userSpaceOnUse">
<stop offset="0.01"/>
<stop offset="0.13" stop-opacity="0.69"/>
<stop offset="0.25" stop-opacity="0.32"/>
<stop offset="1" stop-opacity="0"/>
</linearGradient>
<linearGradient id="paint4_linear" x1="9214.04" y1="2041.35" x2="7935.55" y2="-275.334" gradientUnits="userSpaceOnUse">
<stop offset="0.01"/>
<stop offset="0.13" stop-opacity="0.69"/>
<stop offset="0.25" stop-opacity="0.32"/>
<stop offset="1" stop-opacity="0"/>
</linearGradient>
</defs>
</svg>
