<svg width="39" height="40" viewBox="0 0 39 40" fill="none" xmlns="http://www.w3.org/2000/svg">
<path fill-rule="evenodd" clip-rule="evenodd" d="M31.812 10.188C26.1198 4.49574 16.8802 4.49574 11.188 10.188C5.49582 15.8802 5.49582 25.1197 11.188 30.8119C16.8802 36.5041 26.1198 36.5041 31.812 30.8119C37.5042 25.1197 37.5042 15.8802 31.812 10.188ZM26.656 17.4063C27.2255 16.8368 27.2255 15.9135 26.656 15.3439C26.0865 14.7744 25.1631 14.7744 24.5936 15.3439L21.5 18.4375L18.4064 15.3439C17.8369 14.7744 16.9135 14.7744 16.344 15.3439C15.7745 15.9135 15.7745 16.8368 16.344 17.4063L19.4376 20.4999L16.344 23.5935C15.7745 24.163 15.7745 25.0864 16.344 25.6559C16.9135 26.2254 17.8369 26.2254 18.4064 25.6559L21.5 22.5623L24.5936 25.6559C25.1631 26.2254 26.0865 26.2254 26.656 25.6559C27.2255 25.0864 27.2255 24.163 26.656 23.5935L23.5624 20.4999L26.656 17.4063ZM13.2504 12.2503C8.70284 16.7979 8.70284 24.2019 13.2504 28.7495C17.798 33.2971 25.202 33.2971 29.7496 28.7495C34.2972 24.2019 34.2972 16.7979 29.7496 12.2503C25.202 7.70276 17.798 7.70276 13.2504 12.2503Z" fill="#278147"/>
</svg>
