<svg width="30" height="32" viewBox="0 0 30 32" fill="none" xmlns="http://www.w3.org/2000/svg">
<path d="M24.3117 21.5048C22.6402 21.5048 21.1499 22.2912 20.1883 23.5125L10.5575 17.9523C10.8005 17.3484 10.9356 16.6899 10.9356 16C10.9356 15.3102 10.8005 14.6517 10.5575 14.0478L20.1883 8.48755C21.15 9.70879 22.6402 10.4953 24.3117 10.4953C27.2052 10.4953 29.5593 8.14117 29.5593 5.24768C29.5593 2.35412 27.2053 0 24.3117 0C21.4181 0 19.0641 2.35406 19.0641 5.24755C19.0641 5.93743 19.1993 6.59605 19.4423 7.20005L9.81166 12.7603C8.84997 11.5389 7.3596 10.7524 5.68804 10.7524C2.79449 10.7524 0.44043 13.1065 0.44043 16C0.44043 18.8935 2.79449 21.2476 5.68804 21.2476C7.3596 21.2476 8.84997 20.461 9.81166 19.2397L19.4423 24.8C19.1993 25.404 19.0641 26.0625 19.0641 26.7524C19.0641 29.646 21.4181 32 24.3117 32C27.2052 32 29.5593 29.6459 29.5593 26.7524C29.5593 23.859 27.2053 21.5048 24.3117 21.5048ZM24.3117 1.488C26.3847 1.488 28.0714 3.17456 28.0714 5.24755C28.0714 7.32061 26.3848 9.00723 24.3117 9.00723C22.2386 9.00723 20.552 7.32061 20.552 5.24755C20.5521 3.17449 22.2387 1.488 24.3117 1.488ZM5.68804 19.7596C3.61498 19.7596 1.92836 18.073 1.92836 16C1.92836 13.9269 3.61492 12.2403 5.68804 12.2403C7.7611 12.2403 9.44772 13.9269 9.44772 16C9.44772 18.073 7.7611 19.7596 5.68804 19.7596ZM24.3117 30.5119C22.2386 30.5119 20.552 28.8254 20.552 26.7524C20.552 24.6793 22.2386 22.9927 24.3117 22.9927C26.3847 22.9927 28.0714 24.6793 28.0714 26.7524C28.0714 28.8254 26.3847 30.5119 24.3117 30.5119Z" fill="#3B3E3C"/>
</svg>
