<svg width="22" height="23" viewBox="0 0 22 23" fill="none" xmlns="http://www.w3.org/2000/svg">
<path fill-rule="evenodd" clip-rule="evenodd" d="M18 6.5C19.1046 6.5 20 5.60457 20 4.5C20 3.39543 19.1046 2.5 18 2.5C16.8954 2.5 16 3.39543 16 4.5C16 5.60457 16.8954 6.5 18 6.5ZM18 8.5C20.2091 8.5 22 6.70914 22 4.5C22 2.29086 20.2091 0.5 18 0.5C15.7909 0.5 14 2.29086 14 4.5C14 4.78742 14.0303 5.06777 14.0879 5.33801L7.01694 8.8735C6.28363 8.03189 5.20393 7.5 4 7.5C1.79086 7.5 0 9.29086 0 11.5C0 13.7091 1.79086 15.5 4 15.5C5.20393 15.5 6.28363 14.9681 7.01694 14.1265L14.0879 17.662C14.0303 17.9322 14 18.2126 14 18.5C14 20.7091 15.7909 22.5 18 22.5C20.2091 22.5 22 20.7091 22 18.5C22 16.2909 20.2091 14.5 18 14.5C16.7961 14.5 15.7164 15.0319 14.9831 15.8735L7.91208 12.338C7.96969 12.0678 8 11.7874 8 11.5C8 11.2126 7.96968 10.9322 7.91208 10.662L14.9831 7.1265C15.7164 7.96811 16.7961 8.5 18 8.5ZM4 13.5C5.10457 13.5 6 12.6046 6 11.5C6 10.3954 5.10457 9.5 4 9.5C2.89543 9.5 2 10.3954 2 11.5C2 12.6046 2.89543 13.5 4 13.5ZM20 18.5C20 19.6046 19.1046 20.5 18 20.5C16.8954 20.5 16 19.6046 16 18.5C16 17.3954 16.8954 16.5 18 16.5C19.1046 16.5 20 17.3954 20 18.5Z" fill="#3B3E3C"/>
</svg>
