<svg width="23" height="22" viewBox="0 0 23 22" fill="none" xmlns="http://www.w3.org/2000/svg">
<path fill-rule="evenodd" clip-rule="evenodd" d="M18.0039 6C19.1085 6 20.0039 5.10457 20.0039 4C20.0039 2.89543 19.1085 2 18.0039 2C16.8993 2 16.0039 2.89543 16.0039 4C16.0039 5.10457 16.8993 6 18.0039 6ZM18.0039 8C20.213 8 22.0039 6.20914 22.0039 4C22.0039 1.79086 20.213 0 18.0039 0C15.7948 0 14.0039 1.79086 14.0039 4C14.0039 4.28742 14.0342 4.56777 14.0918 4.83801L7.02085 8.3735C6.28754 7.53189 5.20784 7 4.00391 7C1.79477 7 0.00390625 8.79086 0.00390625 11C0.00390625 13.2091 1.79477 15 4.00391 15C5.20784 15 6.28754 14.4681 7.02085 13.6265L14.0918 17.162C14.0342 17.4322 14.0039 17.7126 14.0039 18C14.0039 20.2091 15.7948 22 18.0039 22C20.213 22 22.0039 20.2091 22.0039 18C22.0039 15.7909 20.213 14 18.0039 14C16.8 14 15.7203 14.5319 14.987 15.3735L7.91598 11.838C7.97359 11.5678 8.00391 11.2874 8.00391 11C8.00391 10.7126 7.97359 10.4322 7.91598 10.162L14.987 6.6265C15.7203 7.46811 16.8 8 18.0039 8ZM4.00391 13C5.10848 13 6.00391 12.1046 6.00391 11C6.00391 9.89543 5.10848 9 4.00391 9C2.89934 9 2.00391 9.89543 2.00391 11C2.00391 12.1046 2.89934 13 4.00391 13ZM20.0039 18C20.0039 19.1046 19.1085 20 18.0039 20C16.8993 20 16.0039 19.1046 16.0039 18C16.0039 16.8954 16.8993 16 18.0039 16C19.1085 16 20.0039 16.8954 20.0039 18Z" fill="#3B3E3C"/>
</svg>
