<svg width="22" height="25" viewBox="0 0 22 25" fill="none" xmlns="http://www.w3.org/2000/svg">
<path fill-rule="evenodd" clip-rule="evenodd" d="M19 18V11.3333C19 7.24 16.8267 3.81333 13 2.90667V2C13 0.893333 12.1067 0 11 0C9.89337 0 9.00004 0.893333 9.00004 2V2.90667C5.18671 3.81333 3.00004 7.22667 3.00004 11.3333V18L0.333374 20.6667V22H21.6667V20.6667L19 18ZM10.9999 25C12.6499 25 13.9999 24.1 13.9999 23H7.99988C7.99988 24.1 9.34988 25 10.9999 25ZM4.99988 20H16.9999V11.4286C16.9999 7.88571 14.7349 5 10.9999 5C7.26488 5 4.99988 7.88571 4.99988 11.4286V20Z" fill="#3B3E3C"/>
</svg>
