<svg width="24" height="24" viewBox="0 0 24 24" fill="none" xmlns="http://www.w3.org/2000/svg">
<path fill-rule="evenodd" clip-rule="evenodd" d="M6.5001 4.89998C5.06416 4.89998 3.9001 6.06404 3.9001 7.49998C3.9001 8.93592 5.06416 10.1 6.5001 10.1C7.93604 10.1 9.1001 8.93592 9.1001 7.49998C9.1001 6.06404 7.93604 4.89998 6.5001 4.89998ZM6.5001 3.09998C8.62171 3.09998 10.3926 4.60158 10.808 6.59998H19.0001C19.4972 6.59998 19.9001 7.00292 19.9001 7.49998C19.9001 7.99703 19.4972 8.39998 19.0001 8.39998H10.808C10.3926 10.3984 8.62171 11.9 6.5001 11.9C4.07004 11.9 2.1001 9.93003 2.1001 7.49998C2.1001 5.06992 4.07004 3.09998 6.5001 3.09998ZM5.0001 15.6C4.50304 15.6 4.1001 16.0029 4.1001 16.5C4.1001 16.997 4.50304 17.4 5.0001 17.4H13.1922C13.6076 19.3984 15.3785 20.9 17.5001 20.9C19.9301 20.9 21.9001 18.93 21.9001 16.5C21.9001 14.0699 19.9301 12.1 17.5001 12.1C15.3785 12.1 13.6076 13.6016 13.1922 15.6H5.0001ZM14.9001 16.5C14.9001 17.9359 16.0642 19.1 17.5001 19.1C18.936 19.1 20.1001 17.9359 20.1001 16.5C20.1001 15.064 18.936 13.9 17.5001 13.9C16.0642 13.9 14.9001 15.064 14.9001 16.5Z" fill="#828482" fill-opacity="0.3"/>
</svg>
