<svg width="40" height="40" viewBox="0 0 40 40" fill="none" xmlns="http://www.w3.org/2000/svg">
<path d="M7.30375 0C3.25779 0 0 3.25779 0 7.30375V32.6962C0 36.7422 3.25779 40 7.30375 40H21.0662V24.3625H16.9312V18.7325H21.0662V13.9225C21.0662 10.1435 23.5094 6.67375 29.1375 6.67375C31.4162 6.67375 33.1012 6.89251 33.1012 6.89251L32.9687 12.15C32.9687 12.15 31.2502 12.1338 29.3749 12.1338C27.3454 12.1338 27.0199 13.0689 27.0199 14.6213V18.7325H33.1299L32.8637 24.3625H27.0199V40H32.6962C36.7421 40 39.9999 36.7422 39.9999 32.6963V7.30379C39.9999 3.25783 36.7421 3.99999e-05 32.6962 3.99999e-05H7.30371L7.30375 0Z" fill="#1F1F1F" fill-opacity="0.73"/>
</svg>
