<svg width="133" height="133" viewBox="0 0 133 133" fill="none" xmlns="http://www.w3.org/2000/svg">
<path d="M66.5 -2.90681e-06C103.227 -4.51219e-06 133 29.7731 133 66.5C133 103.227 103.227 133 66.5 133C29.7731 133 -1.30142e-06 103.227 -2.90681e-06 66.5C-4.51219e-06 29.7731 29.7731 -1.30142e-06 66.5 -2.90681e-06ZM66.5 126.256C99.5025 126.256 126.256 99.5025 126.256 66.5C126.256 33.4975 99.5025 6.74363 66.5 6.74363C33.4975 6.74364 6.74363 33.4975 6.74363 66.5C6.74364 99.5025 33.4975 126.256 66.5 126.256Z" fill="#EFEFEF"/>
<path d="M66.5 -2.90681e-06C50.5423 -2.20927e-06 35.1166 5.7383 23.0386 16.1675C10.9605 26.5968 3.03549 41.0215 0.709943 56.8088C-1.6156 72.5962 1.81343 88.6934 10.3712 102.162C18.9289 115.631 32.0447 125.574 47.3246 130.175C62.6045 134.777 79.0296 133.73 93.6019 127.227C108.174 120.723 119.922 109.196 126.701 94.7502C133.48 80.304 134.838 63.9018 130.528 48.5373C126.218 33.1727 116.526 19.8705 103.222 11.0585L99.498 16.6808C111.453 24.5991 120.162 36.5524 124.035 50.3588C127.908 64.1653 126.688 78.9042 120.596 91.8854C114.505 104.867 103.948 115.225 90.8535 121.069C77.759 126.913 62.9995 127.853 49.2691 123.718C35.5387 119.583 23.753 110.649 16.0631 98.5459C8.37317 86.4428 5.29187 71.978 7.38159 57.7916C9.4713 43.6052 16.5927 30.6433 27.4459 21.2717C38.2992 11.9 52.1605 6.74363 66.5 6.74363L66.5 -2.90681e-06Z" fill="#C4C4C4"/>
</svg>
