<svg width="24" height="24" viewBox="0 0 24 24" fill="none" xmlns="http://www.w3.org/2000/svg">
<path fill-rule="evenodd" clip-rule="evenodd" d="M6 5C6 3.90694 6.72555 3 7.6 3H20.4C21.2745 3 22 3.90694 22 5V17C22 18.0931 21.2745 19 20.4 19H7.6C6.72555 19 6 18.0931 6 17V5ZM8.6 5C8.04772 5 7.6 5.44772 7.6 6V16C7.6 16.5523 8.04772 17 8.6 17H19.4C19.9523 17 20.4 16.5523 20.4 16V6C20.4 5.44772 19.9523 5 19.4 5H8.6ZM4 9C4 8.44772 3.55228 8 3 8C2.44772 8 2 8.44772 2 9V20C2 21.6569 3.34315 23 5 23H17C17.5523 23 18 22.5523 18 22C18 21.4477 17.5523 21 17 21H5C4.44772 21 4 20.5523 4 20V9Z" fill="#3B3E3C"/>
<path d="M19 15H9L11.0153 11.3724C11.2152 11.0126 11.7401 11.035 11.9086 11.4105L12.8462 13.5L15.067 9.73428C15.2609 9.40537 15.7371 9.4065 15.9295 9.73634L19 15Z" fill="#2795FB"/>
</svg>
