<svg width="24" height="24" viewBox="0 0 24 24" fill="none" xmlns="http://www.w3.org/2000/svg">
<path fill-rule="evenodd" clip-rule="evenodd" d="M8 2H20C21.1 2 22 2.9 22 4V16C22 17.1 21.1 18 20 18H8C6.9 18 6 17.1 6 16V4C6 2.9 6.9 2 8 2ZM3 6C3.55228 6 4 6.44772 4 7V19C4 19.5523 4.44772 20 5 20H17C17.5523 20 18 20.4477 18 21C18 21.5523 17.5523 22 17 22H4C2.9 22 2 21.1 2 20V7C2 6.44772 2.44772 6 3 6ZM20 15C20 15.5523 19.5523 16 19 16H9C8.44771 16 8 15.5523 8 15V5C8 4.44772 8.44772 4 9 4H19C19.5523 4 20 4.44772 20 5V15ZM14 14C13.4477 14 13 13.5523 13 13V11H11C10.4477 11 10 10.5523 10 10C10 9.44772 10.4477 9 11 9H13V7C13 6.44772 13.4477 6 14 6C14.5523 6 15 6.44772 15 7V9H17C17.5523 9 18 9.44772 18 10C18 10.5523 17.5523 11 17 11H15V13C15 13.5523 14.5523 14 14 14Z" fill="#3B3E3C"/>
</svg>
