<svg width="325" height="253" viewBox="0 0 325 253" fill="none" xmlns="http://www.w3.org/2000/svg">
<g clip-path="url(#clip0)">
<path d="M76.27 31.0728C65.8478 46.7831 59.0931 64.9799 46.5521 79.0663C35.2471 91.7557 19.7298 100.481 9.92813 114.371C-3.57129 133.49 -3.27365 161.275 10.6394 180.097C16.3298 187.788 23.9118 193.936 29.6022 201.658C39.646 215.225 44.0651 233.784 58.4322 242.676C65.1214 246.817 73.1121 248.224 80.906 249.283C107.294 252.899 133.988 253.736 160.551 251.78C180.568 250.302 200.62 247.24 220.617 248.97C233.708 250.105 246.662 253.298 259.804 252.975C272.945 252.652 286.954 248.032 294.228 237.088C304.01 222.371 298.35 202.848 299.328 185.206C300.907 156.862 320.279 132.25 324.319 104.168C329.914 65.2321 300.443 24.5869 261.69 17.7934C241.048 14.1772 219.583 19.0845 199.011 15.1102C186.243 12.6339 174.383 6.82888 161.892 3.22785C131.034 -5.66377 94.3197 3.87845 76.27 31.0728Z" fill="#BDE1CA"/>
<path d="M89.3303 118.314C86.3691 126.384 82.0357 133.949 79.4277 142.14C76.8196 150.33 76.1335 159.706 80.3357 167.216C84.1091 173.959 91.1917 178.165 95.9034 184.288C103.793 194.546 104.056 208.547 104.01 221.483C104.01 227.455 104.333 234.238 108.898 238.081C114.952 243.125 125.298 240.396 130.686 246.151C131.73 247.266 132.553 248.673 133.935 249.313C135.317 249.954 136.866 249.686 138.334 249.414L213.186 235.6C220.753 234.208 229.793 231.434 231.427 223.935C232.108 220.803 231.225 217.565 230.353 214.478L217.085 167.67C214.276 157.754 211.451 147.758 210.643 137.485C210.094 130.469 210.492 123.363 209.433 116.418C208.257 109.029 205.489 101.984 201.32 95.7702C197.152 89.5567 191.682 84.3235 185.289 80.4331C176.36 75.0769 166.019 72.5955 155.763 70.7849C138.959 67.8244 119.406 66.5787 103.748 74.6936C87.9682 82.859 94.844 103.275 89.3303 118.314Z" fill="url(#paint0_linear)"/>
<path d="M101.246 115.415L91.8172 73.6195C91.5158 72.2797 91.4837 70.8934 91.7228 69.5411C91.9618 68.1888 92.4673 66.8975 93.2098 65.7422C93.9524 64.5868 94.9171 63.5906 96.0481 62.8113C97.1791 62.0319 98.4537 61.4851 99.7978 61.2025L200.186 40.0906C201.53 39.8077 202.917 39.7947 204.266 40.0524C205.616 40.31 206.9 40.8332 208.046 41.5916C209.191 42.3499 210.174 43.3282 210.938 44.4697C211.701 45.6112 212.231 46.893 212.495 48.2408L221.439 93.8992L237.582 108.339C239.395 109.959 240.67 112.096 241.234 114.461C241.799 116.827 241.626 119.308 240.74 121.573L240.235 122.864L95.7621 152.61L91.9131 146.119C91.165 144.858 90.729 143.437 90.6413 141.974C90.5535 140.511 90.8166 139.048 91.4086 137.707L101.246 115.415Z" fill="#2795FB"/>
<path d="M101.246 115.415L91.8172 73.6195C91.5158 72.2797 91.4837 70.8934 91.7228 69.5411C91.9618 68.1888 92.4673 66.8974 93.2098 65.7421C93.9524 64.5868 94.9171 63.5906 96.0481 62.8112C97.1791 62.0319 98.4537 61.4851 99.7979 61.2025L200.186 40.0906C201.53 39.8077 202.917 39.7947 204.266 40.0524C205.616 40.31 206.9 40.8332 208.046 41.5916C209.191 42.3499 210.174 43.3282 210.938 44.4697C211.702 45.6112 212.231 46.893 212.495 48.2408L221.439 93.8992L237.582 108.339C239.395 109.959 240.67 112.096 241.234 114.461C241.799 116.827 241.626 119.308 240.74 121.573L240.235 122.864L95.7621 152.61L91.9131 146.119C91.165 144.858 90.729 143.437 90.6413 141.974C90.5535 140.511 90.8166 139.048 91.4086 137.707L101.246 115.415Z" fill="url(#paint1_linear)"/>
<path d="M240.74 121.558L240.235 122.849L95.7621 152.625L91.8827 146.119C91.137 144.856 90.7023 143.433 90.6146 141.969C90.5269 140.504 90.7886 139.04 91.3783 137.697L100.181 117.846L221.358 93.637L221.403 93.9295L237.546 108.359C239.356 109.975 240.63 112.103 241.201 114.461C241.771 116.818 241.61 119.294 240.74 121.558Z" fill="url(#paint2_linear)"/>
<path d="M112.601 181.575L95.7672 152.61L240.23 122.864L236.704 154.955L112.601 181.575Z" fill="#2795FB"/>
<path d="M112.601 181.575L95.7672 152.61L240.23 122.864L236.704 154.955L112.601 181.575Z" fill="url(#paint3_linear)"/>
<path d="M158.432 97.8129C171.122 97.8129 181.41 87.5275 181.41 74.8399C181.41 62.1523 171.122 51.8669 158.432 51.8669C145.741 51.8669 135.453 62.1523 135.453 74.8399C135.453 87.5275 145.741 97.8129 158.432 97.8129Z" fill="#2795FB"/>
<path d="M158.432 97.8127C171.122 97.8127 181.41 87.5274 181.41 74.8398C181.41 62.1522 171.122 51.8668 158.432 51.8668C145.741 51.8668 135.453 62.1522 135.453 74.8398C135.453 87.5274 145.741 97.8127 158.432 97.8127Z" fill="url(#paint4_linear)"/>
<path d="M158.245 92.9661C168.238 92.9661 176.34 84.8665 176.34 74.8752C176.34 64.8839 168.238 56.7843 158.245 56.7843C148.251 56.7843 140.15 64.8839 140.15 74.8752C140.15 84.8665 148.251 92.9661 158.245 92.9661Z" fill="#BDE1CA"/>
<path d="M158.391 82.4001C162.871 82.4001 166.503 78.7691 166.503 74.2902C166.503 69.8112 162.871 66.1803 158.391 66.1803C153.911 66.1803 150.279 69.8112 150.279 74.2902C150.279 78.7691 153.911 82.4001 158.391 82.4001Z" fill="white"/>
<path d="M155.485 76.3327C157.603 76.3327 159.319 74.6166 159.319 72.4997C159.319 70.3827 157.603 68.6666 155.485 68.6666C153.368 68.6666 151.651 70.3827 151.651 72.4997C151.651 74.6166 153.368 76.3327 155.485 76.3327Z" fill="url(#paint5_linear)"/>
<path d="M119.452 108.576C124.965 108.576 129.435 104.107 129.435 98.5945C129.435 93.0822 124.965 88.6135 119.452 88.6135C113.938 88.6135 109.468 93.0822 109.468 98.5945C109.468 104.107 113.938 108.576 119.452 108.576Z" fill="#2795FB"/>
<path d="M123.823 69.3229L106.438 72.4657C104.111 72.8865 102.565 75.1141 102.986 77.4412L103.447 79.9922C103.868 82.3193 106.096 83.8646 108.424 83.4438L125.808 80.3009C128.136 79.8801 129.682 77.6525 129.261 75.3254L128.799 72.7745C128.378 70.4474 126.15 68.9021 123.823 69.3229Z" fill="#2795FB"/>
<path d="M202.783 49.7458L187.194 52.3483C185.501 52.6309 184.358 54.2319 184.641 55.9243L186.833 69.0522C187.116 70.7446 188.717 71.8875 190.41 71.6049L205.999 69.0024C207.692 68.7198 208.835 67.1187 208.552 65.4264L206.36 52.2984C206.077 50.606 204.476 49.4632 202.783 49.7458Z" fill="#2795FB"/>
<path d="M196.624 69.1408C201.246 69.1408 204.993 65.3947 204.993 60.7737C204.993 56.1527 201.246 52.4066 196.624 52.4066C192.002 52.4066 188.255 56.1527 188.255 60.7737C188.255 65.3947 192.002 69.1408 196.624 69.1408Z" fill="#BDE1CA"/>
<path d="M203.869 86.7525C207.084 86.7525 209.69 84.1467 209.69 80.9323C209.69 77.718 207.084 75.1122 203.869 75.1122C200.653 75.1122 198.047 77.718 198.047 80.9323C198.047 84.1467 200.653 86.7525 203.869 86.7525Z" fill="url(#paint6_linear)"/>
<path d="M130.313 55.2462L134.081 47.1716L170.1 39.7375L176.708 45.4114L130.313 55.2462Z" fill="#278147"/>
<path d="M91.903 146.119L240.427 114.249L240.23 122.864L95.7671 152.61L91.903 146.119Z" fill="url(#paint7_linear)"/>
<path d="M110.644 159.459L231.029 131.866L228.678 144.783L115.657 170.436L110.644 159.459Z" fill="#278147"/>
<path d="M117.797 169.959C117.797 169.959 132.956 210.539 137.658 250.463L256.282 222.28C256.282 222.28 245.688 159.459 228.678 144.782L117.797 169.959Z" fill="white"/>
<path d="M224.267 145.776C224.267 145.776 242.667 175.922 244.831 206.151L143.737 227.44C143.737 227.44 131.325 173.383 123.052 168.756L224.267 145.776Z" fill="#2795FB"/>
<path d="M224.273 145.781C224.273 145.781 242.667 175.922 244.831 206.151L143.736 227.44C143.736 227.44 131.323 173.386 123.05 168.758L224.273 145.781Z" fill="#3B3E3C"/>
<path d="M211.254 213.142C208.999 213.802 206.86 214.186 204.565 214.7C204.312 212.895 203.177 204.85 202.925 203.045C202.819 202.278 202.733 201.416 203.203 200.805C203.502 200.468 203.882 200.213 204.307 200.064C205.212 199.613 206.195 199.339 207.203 199.257C207.995 199.257 208.111 199.933 208.288 200.578C208.852 202.666 210.336 211.17 211.254 213.142Z" fill="#FFD1A9"/>
<path d="M174.892 173.091C174.584 175.653 175.205 178.226 175.795 180.737C176.805 184.806 177.588 188.928 178.141 193.084C178.408 195.323 178.565 197.623 179.306 199.731C180.048 201.839 181.47 203.872 183.559 204.729C185.037 205.334 186.692 205.304 188.276 205.132C189.883 204.944 191.48 204.67 193.058 204.31C194.776 204 196.447 203.466 198.027 202.722C199.619 201.968 200.898 200.681 201.644 199.085C202.269 197.603 202.244 195.933 202.148 194.324C201.716 186.742 200.113 179.271 197.396 172.178C197.076 171.246 196.635 170.359 196.085 169.541C195.199 168.465 194.136 167.549 192.942 166.832C191.741 166.015 190.5 165.183 189.078 164.891C187.947 164.713 186.794 164.741 185.672 164.971C180.734 165.788 175.578 167.362 174.892 173.091Z" fill="#828482"/>
<path d="M174.892 173.091C174.584 175.653 175.205 178.226 175.795 180.737C176.805 184.806 177.588 188.928 178.141 193.084C178.408 195.323 178.565 197.623 179.306 199.731C180.048 201.839 181.47 203.872 183.559 204.729C185.037 205.334 186.692 205.304 188.276 205.132C189.883 204.944 191.48 204.67 193.058 204.31C194.776 204 196.447 203.466 198.027 202.722C199.619 201.968 200.898 200.681 201.644 199.085C202.269 197.603 202.244 195.933 202.148 194.324C201.716 186.742 200.113 179.271 197.396 172.178C197.076 171.246 196.635 170.359 196.085 169.541C195.199 168.465 194.136 167.549 192.942 166.832C191.741 166.015 190.5 165.183 189.078 164.891C187.947 164.713 186.794 164.741 185.672 164.971C180.734 165.788 175.578 167.362 174.892 173.091Z" fill="url(#paint8_linear)"/>
<path d="M198.168 186.346L197.891 187.521C197.519 186.653 197.276 185.736 197.169 184.797L196.614 181.353C196.434 179.837 196.066 178.35 195.52 176.925C194.962 175.489 193.895 174.31 192.523 173.611C190.737 172.809 188.664 173.203 186.757 173.611C184.992 174.004 183.105 174.484 181.919 175.85C181.311 176.641 180.844 177.532 180.542 178.483C180.105 179.454 179.83 180.49 179.73 181.549C179.729 182.271 179.812 182.99 179.977 183.693C180.704 187.309 181.682 190.94 181.45 194.617C181.296 195.824 181.247 197.043 181.304 198.258C181.303 198.363 181.323 198.467 181.363 198.564C181.403 198.661 181.462 198.749 181.536 198.823C181.686 198.919 181.863 198.963 182.04 198.949C183.467 198.967 184.894 198.901 186.313 198.753L193.931 198.127C194.79 198.101 195.641 197.943 196.453 197.658C196.998 197.436 197.492 197.098 198.042 196.872C199.833 196.125 200.635 194.91 199.929 193.033C199.17 190.853 198.581 188.617 198.168 186.346Z" fill="#828482"/>
<path d="M181.768 196.553C179.753 197.604 178.02 199.121 176.712 200.979C175.404 202.836 174.56 204.98 174.251 207.23C176.955 208.239 180.002 209.566 180.809 212.329C180.905 212.672 182.323 219.183 182.656 219.33C182.855 219.388 183.067 219.388 183.266 219.33C190.803 218.028 198.271 216.403 205.669 214.453C205.387 212.94 203.778 205.294 203.495 203.771C203.442 203.552 203.442 203.324 203.495 203.105C203.6 202.858 203.776 202.648 204 202.5C205.428 201.342 206.946 200.3 208.54 199.383C207.448 197.71 206.135 196.193 204.635 194.874C203.243 193.648 196.907 191.732 187.569 193.865C185.41 194.365 183.695 195.57 181.768 196.553Z" fill="white"/>
<path d="M185.526 192.862C185.148 194.632 184.714 196.549 185.496 198.183C186.338 199.948 188.548 200.851 190.46 200.427C191.415 200.182 192.296 199.706 193.024 199.041C193.752 198.376 194.306 197.543 194.637 196.614C195.076 195.599 195.105 194.453 194.718 193.417C194.4 192.711 193.825 192.146 193.487 191.45C192.775 190.002 193.164 188.151 192.266 186.81C191.539 185.72 190.142 185.297 188.835 185.211C188.051 185.139 187.263 185.284 186.555 185.63C185.269 186.346 185.269 187.385 185.617 188.58C185.943 189.993 185.911 191.464 185.526 192.862Z" fill="#FFD1A9"/>
<path d="M186.964 192.423C187.685 193.097 188.626 193.487 189.612 193.523C190.21 193.559 190.806 193.422 191.328 193.129C191.669 192.906 191.964 192.618 192.195 192.282C192.571 191.751 192.832 191.147 192.961 190.51C193.091 189.873 193.086 189.215 192.947 188.58C192.874 188.138 192.649 187.735 192.311 187.44C192.033 187.259 191.714 187.15 191.383 187.122C190.502 187.023 189.61 187.122 188.772 187.411C187.934 187.701 187.172 188.174 186.54 188.797C185.41 189.886 185.905 191.404 186.964 192.423Z" fill="#E4B387"/>
<path d="M182.146 188.242C183.619 189.896 185.572 191.202 187.736 191.394C188.973 191.477 190.208 191.208 191.299 190.62C192.391 190.033 193.294 189.149 193.905 188.07C194.41 187.092 194.772 186.045 194.98 184.964C195.575 182.625 195.68 180.188 195.287 177.807C194.818 175.447 193.547 173.182 191.554 171.942C190.087 171.084 188.399 170.677 186.702 170.771C184.448 170.779 182.27 171.587 180.557 173.051C179.531 173.987 178.792 175.196 178.428 176.536C178.07 177.888 178.393 178.826 178.625 180.112C179.185 183.178 180.053 185.892 182.146 188.242Z" fill="#FFD1A9"/>
<path d="M177.641 180.581C177.655 180.715 177.71 180.842 177.798 180.944C177.892 181.01 178.001 181.052 178.115 181.067C178.229 181.082 178.345 181.069 178.454 181.03C179.7 180.784 180.928 180.458 182.131 180.051C182.148 179.266 182.08 178.482 181.929 177.711C182.326 178.301 182.624 178.952 182.812 179.638C184.633 179.072 186.486 178.617 188.361 178.276C187.974 177.646 187.755 176.927 187.726 176.188C187.925 176.846 188.249 177.458 188.679 177.994C188.762 178.108 188.873 178.198 189.002 178.256C189.127 178.277 189.255 178.271 189.378 178.239C189.5 178.207 189.615 178.149 189.713 178.069C190.915 177.357 192.269 176.941 193.663 176.854L193.542 175.951C193.924 176.375 194.262 176.836 194.551 177.328C194.763 177.092 195.021 176.9 195.309 176.766C195.596 176.632 195.908 176.557 196.226 176.546L195.045 173.576C194.846 172.82 194.466 172.123 193.939 171.545C193.412 170.967 192.753 170.525 192.019 170.257C191.077 169.737 190.082 169.318 189.052 169.006C187.285 168.576 185.429 168.701 183.735 169.364C182.052 170.035 180.531 171.058 179.276 172.365C178.795 172.815 178.405 173.353 178.126 173.949C177.868 174.554 177.979 175.134 177.863 175.749C177.52 177.404 177.278 178.897 177.641 180.581Z" fill="#828482"/>
<path d="M177.641 180.581C177.655 180.715 177.71 180.842 177.798 180.944C177.892 181.01 178.001 181.052 178.115 181.067C178.229 181.082 178.345 181.069 178.454 181.03C179.7 180.784 180.928 180.458 182.131 180.051C182.148 179.266 182.08 178.482 181.929 177.711C182.326 178.301 182.624 178.952 182.812 179.638C184.633 179.072 186.486 178.617 188.361 178.276C187.974 177.646 187.755 176.927 187.726 176.188C187.925 176.846 188.249 177.458 188.679 177.994C188.762 178.108 188.873 178.198 189.002 178.256C189.127 178.277 189.255 178.271 189.378 178.239C189.5 178.207 189.615 178.149 189.713 178.069C190.915 177.357 192.269 176.941 193.663 176.854L193.542 175.951C193.924 176.375 194.262 176.836 194.551 177.328C194.763 177.092 195.021 176.9 195.309 176.766C195.596 176.632 195.908 176.557 196.226 176.546L195.045 173.576C194.846 172.82 194.466 172.123 193.939 171.545C193.412 170.967 192.753 170.525 192.019 170.257C191.077 169.737 190.082 169.318 189.052 169.006C187.285 168.576 185.429 168.701 183.735 169.364C182.052 170.035 180.531 171.058 179.276 172.365C178.795 172.815 178.405 173.353 178.126 173.949C177.868 174.554 177.979 175.134 177.863 175.749C177.52 177.404 177.278 178.897 177.641 180.581Z" fill="url(#paint9_linear)"/>
<path d="M180.421 215.663C180.093 217.423 178.832 219.143 177.061 219.426C174.791 219.784 172.884 217.797 171.547 215.925C167.9 210.832 166.387 203.428 163.537 200.699C162.497 199.691 161.675 195.948 162.891 195.151C163.506 194.748 163.648 194.244 163.774 193.517C163.801 193.3 163.766 193.08 163.673 192.882C163.128 191.51 161.917 188.822 162.159 188.721C162.402 188.62 162.664 188.217 162.83 188.338C164.006 189.175 165.03 191.404 165.776 192.64C165.358 191.006 166.664 186.174 167.532 187.622C167.678 187.859 167.436 193.759 168.349 194.329C168.612 194.491 168.934 194.541 169.187 194.728C169.762 195.156 169.691 196.014 169.61 196.745C169.247 200.81 171.477 204.603 173.646 208.078C173.591 207.478 174.494 207.372 175.069 207.573C176.516 208.032 178.978 208.976 179.866 210.307C180.754 211.638 180.693 214.206 180.421 215.663Z" fill="#FFD1A9"/>
</g>
<defs>
<linearGradient id="paint0_linear" x1="93.825" y1="232.962" x2="366.613" y2="-76.6527" gradientUnits="userSpaceOnUse">
<stop stop-color="#010101" stop-opacity="0"/>
<stop offset="0.95" stop-color="#010101"/>
</linearGradient>
<linearGradient id="paint1_linear" x1="165.716" y1="117.008" x2="163.76" y2="53.2086" gradientUnits="userSpaceOnUse">
<stop stop-color="white" stop-opacity="0"/>
<stop offset="0.95" stop-color="white"/>
</linearGradient>
<linearGradient id="paint2_linear" x1="61255.1" y1="16472.9" x2="40665" y2="-3285.24" gradientUnits="userSpaceOnUse">
<stop stop-color="white" stop-opacity="0"/>
<stop offset="0.95" stop-color="white"/>
</linearGradient>
<linearGradient id="paint3_linear" x1="47836.4" y1="12447.5" x2="47975.5" y2="20933.9" gradientUnits="userSpaceOnUse">
<stop stop-color="#010101" stop-opacity="0"/>
<stop offset="0.95" stop-color="#010101"/>
</linearGradient>
<linearGradient id="paint4_linear" x1="12475.2" y1="6869.78" x2="16661.9" y2="6869.78" gradientUnits="userSpaceOnUse">
<stop stop-color="#010101" stop-opacity="0"/>
<stop offset="0.95" stop-color="#010101"/>
</linearGradient>
<linearGradient id="paint5_linear" x1="2475.08" y1="1092.78" x2="2596.03" y2="1328.99" gradientUnits="userSpaceOnUse">
<stop stop-color="white" stop-opacity="0"/>
<stop offset="0.95" stop-color="white"/>
</linearGradient>
<linearGradient id="paint6_linear" x1="4768.98" y1="1943.03" x2="5037.7" y2="1943.03" gradientUnits="userSpaceOnUse">
<stop stop-color="#010101" stop-opacity="0"/>
<stop offset="0.95" stop-color="#010101"/>
</linearGradient>
<linearGradient id="paint7_linear" x1="27150" y1="10262.9" x2="70876.9" y2="10262.9" gradientUnits="userSpaceOnUse">
<stop stop-color="white" stop-opacity="0"/>
<stop offset="0.95" stop-color="white"/>
</linearGradient>
<linearGradient id="paint8_linear" x1="10081.5" y1="15218" x2="11568.5" y2="15218" gradientUnits="userSpaceOnUse">
<stop stop-color="#010101" stop-opacity="0"/>
<stop offset="0.95" stop-color="#010101"/>
</linearGradient>
<linearGradient id="paint9_linear" x1="7063.26" y1="4503.95" x2="7760.18" y2="4503.95" gradientUnits="userSpaceOnUse">
<stop stop-color="#010101" stop-opacity="0"/>
<stop offset="0.95" stop-color="#010101"/>
</linearGradient>
<clipPath id="clip0">
<rect width="325" height="253" fill="white"/>
</clipPath>
</defs>
</svg>
