<svg width="20" height="21" viewBox="0 0 20 21" fill="none" xmlns="http://www.w3.org/2000/svg">
<path fill-rule="evenodd" clip-rule="evenodd" d="M17 2.5C17.5523 2.5 18 2.94772 18 3.5V13.5C18 14.0523 17.5523 14.5 17 14.5H15.5C14.6716 14.5 14 15.1716 14 16V18.365L9.77925 14.8477C9.50968 14.623 9.16988 14.5 8.81898 14.5H3C2.44772 14.5 2 14.0523 2 13.5V3.5C2 2.94772 2.44772 2.5 3 2.5H10H17ZM20 3.5C20 1.84315 18.6569 0.5 17 0.5H10H3C1.34315 0.5 0 1.84315 0 3.5V13.5C0 15.1569 1.34315 16.5 3 16.5H8.63795L13.5397 20.5848C14.5167 21.399 16 20.7042 16 19.4325V16.5H17C18.6569 16.5 20 15.1569 20 13.5V3.5ZM4 10.5C4 9.94771 4.44772 9.5 5 9.5H12C12.5523 9.5 13 9.94771 13 10.5C13 11.0523 12.5523 11.5 12 11.5H5C4.44772 11.5 4 11.0523 4 10.5ZM5 5.5C4.44772 5.5 4 5.94772 4 6.5C4 7.05228 4.44772 7.5 5 7.5H15C15.5523 7.5 16 7.05228 16 6.5C16 5.94772 15.5523 5.5 15 5.5H5Z" fill="#3B3E3C"/>
</svg>
