<svg width="31" height="31" viewBox="0 0 31 31" fill="none" xmlns="http://www.w3.org/2000/svg">
<path fill-rule="evenodd" clip-rule="evenodd" d="M15.5001 0.916626C7.45008 0.916626 0.916748 7.44996 0.916748 15.5C0.916748 23.55 7.45008 30.0833 15.5001 30.0833C23.5501 30.0833 30.0834 23.55 30.0834 15.5C30.0834 7.44996 23.5501 0.916626 15.5001 0.916626ZM16.9584 9.66663C16.9584 8.86121 16.3055 8.20829 15.5001 8.20829C14.6947 8.20829 14.0417 8.86121 14.0417 9.66663V14.0416H9.66675C8.86133 14.0416 8.20841 14.6945 8.20841 15.5C8.20841 16.3054 8.86133 16.9583 9.66675 16.9583H14.0417V21.3333C14.0417 22.1387 14.6947 22.7916 15.5001 22.7916C16.3055 22.7916 16.9584 22.1387 16.9584 21.3333V16.9583H21.3334C22.1388 16.9583 22.7917 16.3054 22.7917 15.5C22.7917 14.6945 22.1388 14.0416 21.3334 14.0416H16.9584V9.66663ZM3.83341 15.5C3.83341 21.9312 9.06883 27.1666 15.5001 27.1666C21.9313 27.1666 27.1667 21.9312 27.1667 15.5C27.1667 9.06871 21.9313 3.83329 15.5001 3.83329C9.06883 3.83329 3.83341 9.06871 3.83341 15.5Z" fill="#3B3E3C"/>
</svg>
