<svg width="20" height="21" viewBox="0 0 20 21" fill="none" xmlns="http://www.w3.org/2000/svg">
<path fill-rule="evenodd" clip-rule="evenodd" d="M10 0.0740967C4.48 0.0740967 0 4.72002 0 10.4445C0 16.1689 4.48 20.8148 10 20.8148C15.52 20.8148 20 16.1689 20 10.4445C20 4.72002 15.52 0.0740967 10 0.0740967ZM11 6.25928C11 5.707 10.5523 5.25928 10 5.25928C9.44771 5.25928 9 5.707 9 6.25928V9.40743H6.03704C5.4643 9.40743 5 9.87173 5 10.4445C5 11.0172 5.4643 11.4815 6.03704 11.4815H9V14.6297C9 15.1819 9.44771 15.6297 10 15.6297C10.5523 15.6297 11 15.1819 11 14.6297V11.4815H13.963C14.5357 11.4815 15 11.0172 15 10.4445C15 9.87173 14.5357 9.40743 13.963 9.40743H11V6.25928ZM2 10.4445C2 15.0178 5.59 18.7408 10 18.7408C14.41 18.7408 18 15.0178 18 10.4445C18 5.87113 14.41 2.14817 10 2.14817C5.59 2.14817 2 5.87113 2 10.4445Z" fill="#3B3E3C"/>
</svg>
