<svg width="31" height="31" viewBox="0 0 31 31" fill="none" xmlns="http://www.w3.org/2000/svg">
<path fill-rule="evenodd" clip-rule="evenodd" d="M15.5001 0.916748C7.45008 0.916748 0.916748 7.45008 0.916748 15.5001C0.916748 23.5501 7.45008 30.0834 15.5001 30.0834C23.5501 30.0834 30.0834 23.5501 30.0834 15.5001C30.0834 7.45008 23.5501 0.916748 15.5001 0.916748ZM16.9584 9.66675C16.9584 8.86133 16.3055 8.20841 15.5001 8.20841C14.6947 8.20841 14.0417 8.86133 14.0417 9.66675V14.0417H9.66675C8.86133 14.0417 8.20841 14.6947 8.20841 15.5001C8.20841 16.3055 8.86133 16.9584 9.66675 16.9584H14.0417V21.3334C14.0417 22.1388 14.6947 22.7917 15.5001 22.7917C16.3055 22.7917 16.9584 22.1388 16.9584 21.3334V16.9584H21.3334C22.1388 16.9584 22.7917 16.3055 22.7917 15.5001C22.7917 14.6947 22.1388 14.0417 21.3334 14.0417H16.9584V9.66675ZM3.83341 15.5001C3.83341 21.9313 9.06883 27.1667 15.5001 27.1667C21.9313 27.1667 27.1667 21.9313 27.1667 15.5001C27.1667 9.06883 21.9313 3.83341 15.5001 3.83341C9.06883 3.83341 3.83341 9.06883 3.83341 15.5001Z" fill="#5DB07B"/>
</svg>
