<svg width="24" height="24" viewBox="0 0 24 24" fill="none" xmlns="http://www.w3.org/2000/svg">
<path d="M1.69542 19.4542C1.86731 19.548 5.95233 21.75 10.125 21.75C10.5382 21.75 10.9607 21.7308 11.3873 21.6938L11.1342 22.7906C11.1199 22.8526 11.1216 22.9172 11.1391 22.9783C11.1567 23.0395 11.1895 23.0951 11.2345 23.1401C11.2794 23.1851 11.3351 23.2179 11.3962 23.2354C11.4574 23.253 11.522 23.2546 11.5839 23.2403L15.0311 22.4448C15.0341 22.4442 15.0369 22.4431 15.0398 22.4423C15.0473 22.4405 15.0547 22.4384 15.062 22.4361C15.0667 22.4345 15.0714 22.4328 15.0761 22.431C15.0828 22.4286 15.0894 22.426 15.096 22.4232C15.1012 22.4209 15.1062 22.4185 15.1113 22.416C15.1163 22.4136 15.1227 22.4103 15.1283 22.4072C15.1338 22.4041 15.1393 22.4009 15.1448 22.3975C15.1502 22.3941 15.1541 22.3915 15.1588 22.3881C15.1647 22.3841 15.1704 22.3798 15.176 22.3755C15.18 22.3724 15.1839 22.3692 15.1878 22.3661C15.1937 22.3611 15.1993 22.356 15.2048 22.3507C15.207 22.3485 15.2095 22.3467 15.2117 22.3445L21.5758 15.9807L21.841 15.7156C22.2611 15.2932 22.4965 14.7215 22.4957 14.1258C22.4949 13.5302 22.2579 12.9591 21.8367 12.5379C21.4155 12.1167 20.8445 11.8797 20.2488 11.8789C19.6531 11.8781 19.0814 12.1135 18.6591 12.5335L18.394 12.7985L17.5013 13.6913C16.7896 12.3201 15.7922 11.1762 14.595 10.367C13.8519 9.86417 13.029 9.49073 12.1613 9.26251C13.0631 8.80486 13.7846 8.05675 14.2092 7.13884C14.6338 6.22094 14.7368 5.18676 14.5016 4.20312C14.2664 3.21949 13.7068 2.34376 12.9129 1.71719C12.119 1.09063 11.1372 0.749759 10.1258 0.749573C9.11446 0.749387 8.13252 1.08989 7.3384 1.71617C6.54429 2.34244 5.98429 3.21797 5.74874 4.20151C5.51319 5.18506 5.61583 6.21928 6.0401 7.13734C6.46437 8.0554 7.18553 8.80378 8.08725 9.26176C6.53288 9.66957 5.12686 10.5465 4.0087 11.8292C2.39095 13.6847 1.5 16.2758 1.5 19.125C1.5 19.1924 1.51815 19.2585 1.55254 19.3164C1.58692 19.3743 1.63628 19.4219 1.69542 19.4542ZM12 22.3747L12.5084 20.1716L14.2031 21.8663L12 22.3747ZM19.1894 13.0641C19.3285 12.9239 19.4939 12.8126 19.6761 12.7365C19.8583 12.6604 20.0537 12.621 20.2512 12.6207C20.4487 12.6203 20.6443 12.6589 20.8268 12.7343C21.0093 12.8097 21.1751 12.9204 21.3147 13.06C21.4544 13.1996 21.5651 13.3655 21.6405 13.548C21.7158 13.7305 21.7545 13.9261 21.7541 14.1236C21.7537 14.321 21.7143 14.5165 21.6382 14.6987C21.5621 14.8809 21.4508 15.0463 21.3106 15.1854L19.1894 13.0641ZM18.659 13.5942L20.7803 15.7156L14.9467 21.5492L12.8253 19.4279L18.659 13.5942ZM6.375 5.25001C6.375 4.50833 6.59493 3.7833 7.00699 3.16662C7.41904 2.54993 8.00471 2.06929 8.68994 1.78546C9.37516 1.50163 10.1292 1.42737 10.8566 1.57206C11.584 1.71676 12.2522 2.07391 12.7767 2.59836C13.3011 3.1228 13.6583 3.79099 13.8029 4.51842C13.9476 5.24585 13.8734 5.99985 13.5895 6.68507C13.3057 7.37029 12.8251 7.95596 12.2084 8.36802C11.5917 8.78007 10.8667 9.00001 10.125 9.00001C9.13078 8.99888 8.17761 8.60343 7.4746 7.90041C6.77158 7.19739 6.37613 6.24422 6.375 5.25001ZM4.57402 12.3218C6.01978 10.6634 7.99116 9.75001 10.125 9.75001C13.035 9.75001 15.5711 11.429 16.9426 14.25L12.0301 19.1625C12.0279 19.1647 12.0261 19.1672 12.024 19.1693C12.0188 19.1747 12.0137 19.1802 12.0088 19.186C12.0058 19.1896 12.003 19.1932 12.0001 19.1969C11.9954 19.2029 11.9907 19.2089 11.9865 19.2152C11.9839 19.2191 11.9813 19.223 11.9788 19.227C11.9749 19.2333 11.971 19.2396 11.9674 19.2461C11.9649 19.2506 11.9627 19.2552 11.9603 19.2597C11.9573 19.2659 11.9542 19.2721 11.9514 19.2785C11.9491 19.2839 11.947 19.2893 11.945 19.2948C11.9429 19.3003 11.9406 19.3065 11.9386 19.3125C11.9367 19.3185 11.9348 19.3254 11.9331 19.3319C11.9321 19.3357 11.9308 19.3394 11.9299 19.3433L11.5653 20.9229C11.0869 20.9734 10.6061 20.9991 10.125 21C6.64744 21 3.11283 19.3321 2.25202 18.8979C2.29753 16.3201 3.11798 13.9922 4.57402 12.3218Z" fill="black"/>
</svg>
