<svg width="48" height="48" viewBox="0 0 48 48" fill="none" xmlns="http://www.w3.org/2000/svg">
<path d="M39.3214 4.5H8.67857C6.37165 4.5 4.5 6.37165 4.5 8.67857V39.3214C4.5 41.6283 6.37165 43.5 8.67857 43.5H39.3214C41.6283 43.5 43.5 41.6283 43.5 39.3214V8.67857C43.5 6.37165 41.6283 4.5 39.3214 4.5ZM18.7768 32.7054C13.9627 32.7054 10.0714 28.8141 10.0714 24C10.0714 19.1859 13.9627 15.2946 18.7768 15.2946C21.1272 15.2946 23.0859 16.1478 24.6094 17.5754L22.2502 19.8475C21.606 19.2295 20.483 18.5069 18.7855 18.5069C15.817 18.5069 13.3969 20.9618 13.3969 24.0087C13.3969 27.0469 15.817 29.5105 18.7855 29.5105C22.2328 29.5105 23.5212 27.0295 23.7301 25.7585H18.7768V22.7638H26.9946C27.0817 23.1991 27.1339 23.6431 27.1339 24.2089C27.1339 29.1797 23.7998 32.7054 18.7768 32.7054ZM37.9286 25.5844H35.404V28.1089H32.8621V25.5844H30.3375V23.0424H32.8621V20.5179H35.404V23.0424H37.9286V25.5844Z" fill="#666565"/>
</svg>
