<svg width="48" height="48" viewBox="0 0 48 48" fill="none" xmlns="http://www.w3.org/2000/svg">
<path d="M41.8941 16.6109C41.8721 15.0969 41.5921 13.5949 41.0561 12.1789C40.1181 9.76089 38.2081 7.84889 35.7901 6.91289C34.3921 6.38689 32.9141 6.10489 31.4181 6.07289C29.4941 5.98689 28.8841 5.96289 24.0001 5.96289C19.1161 5.96289 18.4901 5.96289 16.5801 6.07289C15.0861 6.10489 13.6081 6.38689 12.2101 6.91289C9.79214 7.84889 7.88014 9.76089 6.94414 12.1789C6.41814 13.5769 6.13414 15.0549 6.10614 16.5489C6.02014 18.4749 5.99414 19.0849 5.99414 23.9689C5.99414 28.8529 5.99414 29.4769 6.10614 31.3889C6.13614 32.8849 6.41814 34.3609 6.94414 35.7629C7.88214 38.1789 9.79214 40.0909 12.2121 41.0269C13.6041 41.5709 15.0821 41.8789 16.5821 41.9269C18.5081 42.0129 19.1181 42.0389 24.0021 42.0389C28.8861 42.0389 29.5121 42.0389 31.4221 41.9269C32.9161 41.8969 34.3941 41.6149 35.7941 41.0889C38.2121 40.1509 40.1221 38.2389 41.0601 35.8229C41.5861 34.4229 41.8681 32.9469 41.8981 31.4489C41.9841 29.5249 42.0101 28.9149 42.0101 24.0289C42.0061 19.1449 42.0061 18.5249 41.8941 16.6109ZM23.9881 33.2049C18.8801 33.2049 14.7421 29.0669 14.7421 23.9589C14.7421 18.8509 18.8801 14.7129 23.9881 14.7129C29.0921 14.7129 33.2341 18.8509 33.2341 23.9589C33.2341 29.0669 29.0921 33.2049 23.9881 33.2049ZM33.6021 16.5269C32.4081 16.5269 31.4461 15.5629 31.4461 14.3709C31.4461 13.1789 32.4081 12.2149 33.6021 12.2149C34.7921 12.2149 35.7561 13.1789 35.7561 14.3709C35.7561 15.5629 34.7921 16.5269 33.6021 16.5269Z" fill="#666565"/>
<path d="M23.9879 29.9632C27.305 29.9632 29.9939 27.2742 29.9939 23.9572C29.9939 20.6402 27.305 17.9512 23.9879 17.9512C20.6709 17.9512 17.9819 20.6402 17.9819 23.9572C17.9819 27.2742 20.6709 29.9632 23.9879 29.9632Z" fill="#666565"/>
</svg>
