<svg width="48" height="48" viewBox="0 0 48 48" fill="none" xmlns="http://www.w3.org/2000/svg">
<circle cx="24" cy="24" r="24" fill="white"/>
<mask id="mask0" mask-type="alpha" maskUnits="userSpaceOnUse" x="0" y="0" width="48" height="48">
<circle cx="24" cy="24" r="24" fill="#FFD1A9"/>
</mask>
<g mask="url(#mask0)">
<path fill-rule="evenodd" clip-rule="evenodd" d="M23.9999 7.92203C18.611 7.92203 14.2423 12.2906 14.2423 17.6796V18.1466C13.2534 18.3126 12.4999 19.1726 12.4999 20.2086V22.2758C12.4999 23.3527 13.3141 24.2395 14.3605 24.3542C14.867 27.5864 16.9602 30.2924 19.8181 31.65V34.7271C12.4974 34.7689 6.57568 40.7164 6.57568 48.047H41.4242C41.4242 40.7164 35.5025 34.7689 28.1817 34.7271V31.65C31.0396 30.2924 33.1329 27.5864 33.6394 24.3542C34.6858 24.2395 35.4999 23.3527 35.4999 22.2758V20.2086C35.4999 19.1726 34.7464 18.3126 33.7575 18.1466V17.6796C33.7575 12.2906 29.3889 7.92203 23.9999 7.92203Z" fill="#D0C6AC"/>
<mask id="mask1" mask-type="alpha" maskUnits="userSpaceOnUse" x="6" y="7" width="36" height="42">
<path fill-rule="evenodd" clip-rule="evenodd" d="M23.9999 7.92203C18.611 7.92203 14.2423 12.2906 14.2423 17.6796V18.1466C13.2534 18.3126 12.4999 19.1726 12.4999 20.2086V22.2758C12.4999 23.3527 13.3141 24.2395 14.3605 24.3542C14.867 27.5864 16.9602 30.2924 19.8181 31.65V34.7271C12.4974 34.7689 6.57568 40.7164 6.57568 48.047H41.4242C41.4242 40.7164 35.5025 34.7689 28.1817 34.7271V31.65C31.0396 30.2924 33.1329 27.5864 33.6394 24.3542C34.6858 24.2395 35.4999 23.3527 35.4999 22.2758V20.2086C35.4999 19.1726 34.7464 18.3126 33.7575 18.1466V17.6796C33.7575 12.2906 29.3889 7.92203 23.9999 7.92203Z" fill="white"/>
</mask>
<g mask="url(#mask1)">
<rect x="1" y="7.92203" width="46" height="40.125" fill="#FFD1A9"/>
<path fill-rule="evenodd" clip-rule="evenodd" d="M14.2424 22.8315V24.147C14.2424 29.536 18.611 33.9046 24 33.9046C29.389 33.9046 33.7576 29.536 33.7576 24.147V22.8315C33.7576 28.2204 29.389 32.589 24 32.589C18.611 32.589 14.2424 28.2204 14.2424 22.8315Z" fill="#3B3E3C"/>
</g>
<path fill-rule="evenodd" clip-rule="evenodd" d="M19.8181 32.1074C16.6642 32.4404 14.2423 33.3559 14.2423 35.7262C14.2423 35.811 14.2455 35.8951 14.2516 35.9783C9.71669 38.1028 6.57568 42.7081 6.57568 48.047H41.4242C41.4242 42.7081 38.2832 38.1028 33.7483 35.9783C33.7544 35.8951 33.7575 35.811 33.7575 35.7262C33.7575 33.3559 31.3356 32.4404 28.1817 32.1074V34.9851C28.1817 37.2947 26.3095 39.1669 23.9999 39.1669C21.6904 39.1669 19.8181 37.2947 19.8181 34.9851V32.1074Z" fill="#828482"/>
<mask id="mask2" mask-type="alpha" maskUnits="userSpaceOnUse" x="6" y="32" width="36" height="17">
<path fill-rule="evenodd" clip-rule="evenodd" d="M19.8181 32.1074C16.6642 32.4404 14.2423 33.3559 14.2423 35.7262C14.2423 35.811 14.2455 35.8951 14.2516 35.9783C9.71669 38.1028 6.57568 42.7081 6.57568 48.047H41.4242C41.4242 42.7081 38.2832 38.1028 33.7483 35.9783C33.7544 35.8951 33.7575 35.811 33.7575 35.7262C33.7575 33.3559 31.3356 32.4404 28.1817 32.1074V34.9851C28.1817 37.2947 26.3095 39.1669 23.9999 39.1669C21.6904 39.1669 19.8181 37.2947 19.8181 34.9851V32.1074Z" fill="white"/>
</mask>
<g mask="url(#mask2)">
<rect x="1" y="29.9579" width="46" height="18.0891" fill="#5DB07B"/>
<path fill-rule="evenodd" clip-rule="evenodd" d="M17.553 39.5205C17.937 39.7359 18.3452 39.9334 18.7727 40.1107V48.0471H17.553V39.5205ZM30.4469 39.5205C30.0629 39.7359 29.6547 39.9334 29.2272 40.1107V46.1216C29.2272 46.4584 29.5003 46.7315 29.8371 46.7315C30.1739 46.7315 30.4469 46.4584 30.4469 46.1216V39.5205Z" fill="#F2F2F2"/>
<path fill-rule="evenodd" clip-rule="evenodd" d="M33.7575 35.0684C33.7575 38.4218 28.9099 41.1403 24 41.1403C19.09 41.1403 14.2424 38.4218 14.2424 35.0684C14.2424 33.5274 15.2661 32.6013 16.849 32.0504C14.2266 32.5185 12.4128 33.4512 12.4128 35.2708C12.4128 38.5124 18.1694 41.1403 24 41.1403C29.8305 41.1403 35.5871 38.5124 35.5871 35.2708C35.5871 33.4512 33.7734 32.5185 31.1509 32.0504C32.7339 32.6013 33.7575 33.5274 33.7575 35.0684Z" fill="#3B3E3C"/>
</g>
<path fill-rule="evenodd" clip-rule="evenodd" d="M19.6439 26.6047C19.8896 28.1871 21.7457 29.4646 24 29.4646C26.2596 29.4646 28.1202 28.1792 28.3561 26.4617C28.3737 26.396 28.3169 26.1757 27.9773 26.1757C24.4946 26.1757 21.8637 26.1757 20.0227 26.1757C19.7107 26.1757 19.6213 26.3796 19.6439 26.6047Z" fill="#3B3E3C"/>
<mask id="mask3" mask-type="alpha" maskUnits="userSpaceOnUse" x="19" y="26" width="10" height="4">
<path fill-rule="evenodd" clip-rule="evenodd" d="M19.6439 26.6047C19.8896 28.1871 21.7457 29.4646 24 29.4646C26.2596 29.4646 28.1202 28.1792 28.3561 26.4617C28.3737 26.396 28.3169 26.1757 27.9773 26.1757C24.4946 26.1757 21.8637 26.1757 20.0227 26.1757C19.7107 26.1757 19.6213 26.3796 19.6439 26.6047Z" fill="white"/>
</mask>
<g mask="url(#mask3)">
<rect x="21.3865" y="24.3667" width="5.40152" height="2.63115" rx="1.31557" fill="#F2F2F2"/>
</g>
<path fill-rule="evenodd" clip-rule="evenodd" d="M26.0906 27.9132C26.0908 27.9096 26.0908 27.906 26.0908 27.9023C26.0908 27.5845 25.5838 27.3268 24.9583 27.3268C24.6079 27.3268 24.2948 27.4076 24.087 27.5346C23.8793 27.4076 23.5661 27.3268 23.2158 27.3268C22.5903 27.3268 22.0833 27.5845 22.0833 27.9023L22.0835 27.9132L22.0833 27.9237V29.2697C22.0833 30.3764 22.9804 31.2735 24.087 31.2735C25.1937 31.2735 26.0908 30.3764 26.0908 29.2697V27.9237C26.0908 27.9202 26.0908 27.9167 26.0906 27.9132Z" fill="#F46E84"/>
<path fill-rule="evenodd" clip-rule="evenodd" d="M21.9092 23.3801C21.9092 24.1066 22.8453 24.6956 24.0001 24.6956C25.1549 24.6956 26.091 24.1066 26.091 23.3801" fill="#3B3E3C"/>
<rect x="14.2424" y="16.8022" width="19.5152" height="7.23565" fill="#FFD1A9"/>
<path fill-rule="evenodd" clip-rule="evenodd" d="M17.0582 20.4936C17.3799 19.8689 18.1044 19.4333 18.9465 19.4333C19.7857 19.4333 20.508 19.8658 20.8314 20.487C20.9275 20.6715 20.7908 20.8225 20.6529 20.7106C20.2258 20.3641 19.6193 20.1477 18.9465 20.1477C18.2948 20.1477 17.7052 20.3508 17.2808 20.6785C17.1255 20.7983 16.9641 20.6763 17.0582 20.4936Z" fill="#3B3E3C"/>
<path fill-rule="evenodd" clip-rule="evenodd" d="M27.1644 20.4936C27.4861 19.8689 28.2106 19.4333 29.0527 19.4333C29.8919 19.4333 30.6142 19.8658 30.9376 20.487C31.0337 20.6715 30.897 20.8225 30.7591 20.7106C30.332 20.3641 29.7255 20.1477 29.0527 20.1477C28.401 20.1477 27.8114 20.3508 27.387 20.6785C27.2317 20.7983 27.0703 20.6763 27.1644 20.4936Z" fill="#3B3E3C"/>
<path d="M16.9661 18.3083C17.6482 17.4024 19.5183 16.8944 21.1292 17.2678C21.3161 17.3111 21.5048 17.2032 21.5507 17.0268C21.5966 16.8504 21.4823 16.6723 21.2954 16.6289C19.4246 16.1954 17.2591 16.7836 16.398 17.9272C16.2865 18.0753 16.3233 18.2806 16.4801 18.3858C16.637 18.4911 16.8546 18.4563 16.9661 18.3083Z" fill="#3B3E3C"/>
<path d="M31.0342 18.3083C30.352 17.4024 28.4819 16.8944 26.871 17.2678C26.6841 17.3111 26.4954 17.2032 26.4495 17.0268C26.4036 16.8504 26.5179 16.6723 26.7048 16.6289C28.5756 16.1954 30.7411 16.7836 31.6023 17.9272C31.7138 18.0753 31.677 18.2806 31.5201 18.3858C31.3632 18.4911 31.1457 18.4563 31.0342 18.3083Z" fill="#3B3E3C"/>
<mask id="mask4" mask-type="alpha" maskUnits="userSpaceOnUse" x="1" y="2" width="46" height="47">
<rect x="1" y="2.00195" width="46" height="46.0451" fill="white"/>
</mask>
<g mask="url(#mask4)">
<path fill-rule="evenodd" clip-rule="evenodd" d="M32.2156 8.56673C31.7347 8.10299 31.1764 7.70938 30.6333 7.31466C30.5135 7.22765 30.3917 7.14274 30.2746 7.05241C30.248 7.03189 29.9752 6.8475 29.9425 6.77963C29.864 6.61637 29.9095 6.74349 29.9203 6.54867C29.934 6.30232 30.4663 5.60651 30.0691 5.44695C29.8944 5.37677 29.5827 5.56353 29.4151 5.62522C29.0873 5.74594 28.7554 5.84889 28.4165 5.93767C28.5789 5.63233 28.8885 5.02111 28.3066 5.1847C27.8533 5.31216 27.4309 5.63984 26.9754 5.794C27.1261 5.56083 27.7288 4.83832 27.1842 4.79793C27.0147 4.78535 26.5215 5.08539 26.3391 5.14939C25.7925 5.34112 25.2342 5.46505 24.6604 5.56265C22.7092 5.89452 20.4276 5.7999 18.6224 6.63828C17.2306 7.28459 15.8564 8.28744 15.0524 9.56445C14.2775 10.7953 13.9877 12.1424 13.8255 13.5529C13.7065 14.588 13.6968 15.658 13.7525 16.6969C13.7706 17.0373 13.8112 18.6063 14.3351 18.1311C14.5962 17.8944 14.5943 16.9384 14.66 16.6148C14.7908 15.9709 14.9168 15.3242 15.1349 14.701C15.5193 13.6027 15.9728 12.4328 16.9305 11.6763C17.545 11.1909 17.9766 10.5349 18.5647 10.0452C18.8289 9.82532 18.6273 9.84822 19.0521 9.87707C19.3374 9.89644 19.624 9.90383 19.9099 9.91089C20.5714 9.92711 21.2338 9.92298 21.8954 9.92518C23.2278 9.92971 24.554 9.94747 25.8851 9.88165C26.4767 9.85241 27.0698 9.83657 27.6598 9.78493C27.9894 9.75607 28.5742 9.55673 28.8454 9.70907C29.0937 9.84844 29.3516 10.3035 29.5298 10.4899C29.951 10.9304 30.4532 11.2668 30.9457 11.6279C31.9728 12.381 32.4913 13.3269 32.8032 14.5037C33.1139 15.6762 33.0268 16.764 33.4115 17.9179C33.4791 18.1208 33.6581 18.4705 33.8788 18.157C33.9197 18.0988 33.9091 17.7788 33.9091 17.5947C33.9091 16.8514 34.1086 16.2938 34.106 15.5456C34.0963 13.271 34.0183 10.305 32.2156 8.56673Z" fill="#3B3E3C"/>
<mask id="mask5" mask-type="alpha" maskUnits="userSpaceOnUse" x="13" y="4" width="22" height="15">
<path fill-rule="evenodd" clip-rule="evenodd" d="M32.2156 8.56673C31.7347 8.10299 31.1764 7.70938 30.6333 7.31466C30.5135 7.22765 30.3917 7.14274 30.2746 7.05241C30.248 7.03189 29.9752 6.8475 29.9425 6.77963C29.864 6.61637 29.9095 6.74349 29.9203 6.54867C29.934 6.30232 30.4663 5.60651 30.0691 5.44695C29.8944 5.37677 29.5827 5.56353 29.4151 5.62522C29.0873 5.74594 28.7554 5.84889 28.4165 5.93767C28.5789 5.63233 28.8885 5.02111 28.3066 5.1847C27.8533 5.31216 27.4309 5.63984 26.9754 5.794C27.1261 5.56083 27.7288 4.83832 27.1842 4.79793C27.0147 4.78535 26.5215 5.08539 26.3391 5.14939C25.7925 5.34112 25.2342 5.46505 24.6604 5.56265C22.7092 5.89452 20.4276 5.7999 18.6224 6.63828C17.2306 7.28459 15.8564 8.28744 15.0524 9.56445C14.2775 10.7953 13.9877 12.1424 13.8255 13.5529C13.7065 14.588 13.6968 15.658 13.7525 16.6969C13.7706 17.0373 13.8112 18.6063 14.3351 18.1311C14.5962 17.8944 14.5943 16.9384 14.66 16.6148C14.7908 15.9709 14.9168 15.3242 15.1349 14.701C15.5193 13.6027 15.9728 12.4328 16.9305 11.6763C17.545 11.1909 17.9766 10.5349 18.5647 10.0452C18.8289 9.82532 18.6273 9.84822 19.0521 9.87707C19.3374 9.89644 19.624 9.90383 19.9099 9.91089C20.5714 9.92711 21.2338 9.92298 21.8954 9.92518C23.2278 9.92971 24.554 9.94747 25.8851 9.88165C26.4767 9.85241 27.0698 9.83657 27.6598 9.78493C27.9894 9.75607 28.5742 9.55673 28.8454 9.70907C29.0937 9.84844 29.3516 10.3035 29.5298 10.4899C29.951 10.9304 30.4532 11.2668 30.9457 11.6279C31.9728 12.381 32.4913 13.3269 32.8032 14.5037C33.1139 15.6762 33.0268 16.764 33.4115 17.9179C33.4791 18.1208 33.6581 18.4705 33.8788 18.157C33.9197 18.0988 33.9091 17.7788 33.9091 17.5947C33.9091 16.8514 34.1086 16.2938 34.106 15.5456C34.0963 13.271 34.0183 10.305 32.2156 8.56673Z" fill="white"/>
</mask>
<g mask="url(#mask5)">
<rect x="1" y="2.00195" width="46" height="46.0451" fill="#3B3E3C"/>
</g>
</g>
</g>
</svg>
