<svg width="48" height="48" viewBox="0 0 48 48" fill="none" xmlns="http://www.w3.org/2000/svg">
<circle cx="24" cy="24" r="24" fill="white"/>
<mask id="mask0" mask-type="alpha" maskUnits="userSpaceOnUse" x="0" y="0" width="48" height="48">
<circle cx="24" cy="24" r="24" fill="#FFD1A9"/>
</mask>
<g mask="url(#mask0)">
<path fill-rule="evenodd" clip-rule="evenodd" d="M23.9999 7.92203C18.611 7.92203 14.2423 12.2907 14.2423 17.6796V18.1466C13.2534 18.3125 12.4999 19.1726 12.4999 20.2086V22.2758C12.4999 23.3527 13.3141 24.2395 14.3605 24.3542C14.867 27.5864 16.9602 30.2924 19.8181 31.65V34.7271C12.4974 34.7689 6.57568 40.7164 6.57568 48.047H41.4242C41.4242 40.7164 35.5025 34.7689 28.1817 34.7271V31.65C31.0396 30.2924 33.1329 27.5864 33.6394 24.3542C34.6858 24.2395 35.4999 23.3527 35.4999 22.2758V20.2086C35.4999 19.1726 34.7464 18.3125 33.7575 18.1466V17.6796C33.7575 12.2906 29.3889 7.92203 23.9999 7.92203Z" fill="#D0C6AC"/>
<mask id="mask1" mask-type="alpha" maskUnits="userSpaceOnUse" x="6" y="7" width="36" height="42">
<path fill-rule="evenodd" clip-rule="evenodd" d="M23.9999 7.92203C18.611 7.92203 14.2423 12.2907 14.2423 17.6796V18.1466C13.2534 18.3125 12.4999 19.1726 12.4999 20.2086V22.2758C12.4999 23.3527 13.3141 24.2395 14.3605 24.3542C14.867 27.5864 16.9602 30.2924 19.8181 31.65V34.7271C12.4974 34.7689 6.57568 40.7164 6.57568 48.047H41.4242C41.4242 40.7164 35.5025 34.7689 28.1817 34.7271V31.65C31.0396 30.2924 33.1329 27.5864 33.6394 24.3542C34.6858 24.2395 35.4999 23.3527 35.4999 22.2758V20.2086C35.4999 19.1726 34.7464 18.3125 33.7575 18.1466V17.6796C33.7575 12.2906 29.3889 7.92203 23.9999 7.92203Z" fill="white"/>
</mask>
<g mask="url(#mask1)">
<rect x="1" y="7.92203" width="46" height="40.125" fill="#FFD1A9"/>
<path fill-rule="evenodd" clip-rule="evenodd" d="M14.2424 22.8315V24.147C14.2424 29.536 18.611 33.9046 24 33.9046C29.389 33.9046 33.7576 29.536 33.7576 24.147V22.8315C33.7576 28.2204 29.389 32.589 24 32.589C18.611 32.589 14.2424 28.2204 14.2424 22.8315Z" fill="#3B3E3C"/>
</g>
<path fill-rule="evenodd" clip-rule="evenodd" d="M19.8181 32.1074C16.6642 32.4404 14.2423 33.3559 14.2423 35.7262C14.2423 35.811 14.2455 35.8951 14.2516 35.9783C9.71669 38.1028 6.57568 42.7081 6.57568 48.047H41.4242C41.4242 42.7081 38.2832 38.1028 33.7483 35.9783C33.7544 35.8951 33.7575 35.811 33.7575 35.7262C33.7575 33.3559 31.3356 32.4404 28.1817 32.1074V34.9851C28.1817 37.2947 26.3095 39.1669 23.9999 39.1669C21.6904 39.1669 19.8181 37.2947 19.8181 34.9851V32.1074Z" fill="#828482"/>
<mask id="mask2" mask-type="alpha" maskUnits="userSpaceOnUse" x="6" y="32" width="36" height="17">
<path fill-rule="evenodd" clip-rule="evenodd" d="M19.8181 32.1074C16.6642 32.4404 14.2423 33.3559 14.2423 35.7262C14.2423 35.811 14.2455 35.8951 14.2516 35.9783C9.71669 38.1028 6.57568 42.7081 6.57568 48.047H41.4242C41.4242 42.7081 38.2832 38.1028 33.7483 35.9783C33.7544 35.8951 33.7575 35.811 33.7575 35.7262C33.7575 33.3559 31.3356 32.4404 28.1817 32.1074V34.9851C28.1817 37.2947 26.3095 39.1669 23.9999 39.1669C21.6904 39.1669 19.8181 37.2947 19.8181 34.9851V32.1074Z" fill="white"/>
</mask>
<g mask="url(#mask2)">
<rect x="1" y="29.9579" width="46" height="18.0891" fill="#2795FB"/>
<path fill-rule="evenodd" clip-rule="evenodd" d="M17.553 39.5205C17.937 39.7359 18.3452 39.9334 18.7727 40.1107V48.0471H17.553V39.5205ZM30.4469 39.5205C30.0629 39.7359 29.6547 39.9334 29.2272 40.1107V46.1216C29.2272 46.4585 29.5003 46.7315 29.8371 46.7315C30.1739 46.7315 30.4469 46.4585 30.4469 46.1216V39.5205Z" fill="#F2F2F2"/>
<path fill-rule="evenodd" clip-rule="evenodd" d="M33.7575 35.0684C33.7575 38.4218 28.9099 41.1403 24 41.1403C19.09 41.1403 14.2424 38.4218 14.2424 35.0684C14.2424 33.5274 15.2661 32.6013 16.8491 32.0504C14.2266 32.5185 12.4128 33.4512 12.4128 35.2708C12.4128 38.5124 18.1694 41.1403 24 41.1403C29.8305 41.1403 35.5871 38.5124 35.5871 35.2708C35.5871 33.4512 33.7733 32.5185 31.1508 32.0504C32.7339 32.6013 33.7575 33.5274 33.7575 35.0684Z" fill="#3B3E3C"/>
</g>
<path fill-rule="evenodd" clip-rule="evenodd" d="M19.6439 26.6046C19.8896 28.187 21.7457 29.4646 24 29.4646C26.2596 29.4646 28.1202 28.1791 28.3561 26.4616C28.3737 26.3959 28.3169 26.1756 27.9773 26.1756C24.4946 26.1756 21.8637 26.1756 20.0227 26.1756C19.7107 26.1756 19.6213 26.3796 19.6439 26.6046Z" fill="#3B3E3C"/>
<mask id="mask3" mask-type="alpha" maskUnits="userSpaceOnUse" x="19" y="26" width="10" height="4">
<path fill-rule="evenodd" clip-rule="evenodd" d="M19.6439 26.6046C19.8896 28.187 21.7457 29.4646 24 29.4646C26.2596 29.4646 28.1202 28.1791 28.3561 26.4616C28.3737 26.3959 28.3169 26.1756 27.9773 26.1756C24.4946 26.1756 21.8637 26.1756 20.0227 26.1756C19.7107 26.1756 19.6213 26.3796 19.6439 26.6046Z" fill="white"/>
</mask>
<g mask="url(#mask3)">
<rect x="21.3865" y="24.3667" width="5.40152" height="2.63115" rx="1.31557" fill="#F2F2F2"/>
</g>
<path fill-rule="evenodd" clip-rule="evenodd" d="M26.0906 27.9132C26.0908 27.9096 26.0908 27.906 26.0908 27.9023C26.0908 27.5844 25.5838 27.3268 24.9583 27.3268C24.6079 27.3268 24.2948 27.4076 24.087 27.5345C23.8793 27.4076 23.5661 27.3268 23.2158 27.3268C22.5903 27.3268 22.0833 27.5844 22.0833 27.9023L22.0835 27.9132L22.0833 27.9236V29.2697C22.0833 30.3763 22.9804 31.2735 24.087 31.2735C25.1937 31.2735 26.0908 30.3763 26.0908 29.2697V27.9236C26.0908 27.9201 26.0908 27.9167 26.0906 27.9132Z" fill="#F46E84"/>
<path fill-rule="evenodd" clip-rule="evenodd" d="M21.9092 23.38C21.9092 24.1066 22.8453 24.6956 24.0001 24.6956C25.1549 24.6956 26.091 24.1066 26.091 23.38" fill="#3B3E3C"/>
<rect x="14.2424" y="16.8022" width="19.5152" height="7.23566" fill="#FFD1A9"/>
<path fill-rule="evenodd" clip-rule="evenodd" d="M17.0582 20.4936C17.3799 19.8689 18.1044 19.4333 18.9465 19.4333C19.7857 19.4333 20.508 19.8658 20.8314 20.487C20.9275 20.6715 20.7908 20.8225 20.6529 20.7106C20.2258 20.3641 19.6193 20.1476 18.9465 20.1476C18.2948 20.1476 17.7052 20.3507 17.2808 20.6785C17.1255 20.7983 16.9641 20.6763 17.0582 20.4936Z" fill="#3B3E3C"/>
<path fill-rule="evenodd" clip-rule="evenodd" d="M27.1644 20.4936C27.4861 19.8689 28.2106 19.4333 29.0527 19.4333C29.8919 19.4333 30.6142 19.8658 30.9376 20.487C31.0337 20.6715 30.897 20.8225 30.7591 20.7106C30.332 20.3641 29.7255 20.1476 29.0527 20.1476C28.401 20.1476 27.8114 20.3507 27.387 20.6785C27.2317 20.7983 27.0703 20.6763 27.1644 20.4936Z" fill="#3B3E3C"/>
<path d="M16.9661 18.3082C17.6482 17.4024 19.5183 16.8944 21.1292 17.2677C21.3161 17.311 21.5048 17.2032 21.5507 17.0268C21.5966 16.8504 21.4823 16.6722 21.2954 16.6289C19.4246 16.1953 17.2591 16.7836 16.398 17.9272C16.2865 18.0753 16.3233 18.2806 16.4801 18.3858C16.637 18.491 16.8546 18.4563 16.9661 18.3082Z" fill="#3B3E3C"/>
<path d="M31.0342 18.3082C30.352 17.4024 28.4819 16.8944 26.871 17.2677C26.6841 17.311 26.4954 17.2032 26.4495 17.0268C26.4036 16.8504 26.5179 16.6722 26.7048 16.6289C28.5756 16.1953 30.7411 16.7836 31.6023 17.9272C31.7138 18.0753 31.677 18.2806 31.5201 18.3858C31.3632 18.491 31.1457 18.4563 31.0342 18.3082Z" fill="#3B3E3C"/>
<mask id="mask4" mask-type="alpha" maskUnits="userSpaceOnUse" x="1" y="2" width="46" height="47">
<rect x="1" y="2.00195" width="46" height="46.0451" fill="white"/>
</mask>
<g mask="url(#mask4)">
<path fill-rule="evenodd" clip-rule="evenodd" d="M31.7967 8.22726C33.4567 9.39504 34.8915 11.283 34.9608 13.2961C34.9913 14.2017 34.8532 15.1424 34.6608 16.0285C34.5728 16.4336 34.3804 16.7951 34.1888 17.1552C34.0029 17.5044 33.8177 17.8524 33.7291 18.2376C33.2713 16.7699 31.9719 15.9403 30.6792 15.1149C29.9903 14.6751 29.3033 14.2364 28.7466 13.7031C28.9236 14.0205 29.1483 14.3107 29.3722 14.6C29.5884 14.8793 29.804 15.1578 29.9754 15.4591C28.3642 14.5274 26.803 13.1767 26.1365 11.4639C26.0132 12.3515 25.6632 13.1724 25.0722 13.8756C24.5475 14.4999 23.7511 15.1699 22.9298 15.4117C23.3528 14.506 23.7144 13.567 24.0463 12.6283C23.7354 13.0091 22.788 14.4844 22.3715 15.133C22.3173 15.2174 22.2721 15.2878 22.2385 15.34C21.9499 15.7875 21.6263 16.2145 21.2789 16.6232C21.1163 16.8145 20.9429 16.9994 20.7682 17.1809C20.6665 17.2866 20.5628 17.3906 20.4568 17.4925C20.4497 17.4993 20.4339 17.5153 20.4139 17.5355C20.3282 17.6221 20.1664 17.7855 20.2979 17.625C19.9741 18.0114 19.5223 18.3254 19.0938 18.6233C19.0113 18.6807 18.9296 18.7374 18.8498 18.794C18.3528 19.1467 17.8114 19.4466 17.2484 19.6947C16.012 20.2394 14.7424 20.4408 13.3954 20.2207C13.5527 20.2373 13.8051 20.154 14.0104 20.0863C14.0915 20.0595 14.1653 20.0352 14.2229 20.0204C14.5382 19.9394 14.8282 19.8367 15.1138 19.6876C15.6842 19.3898 16.2202 19.0347 16.7127 18.6321C16.475 18.7276 16.2597 18.8661 16.0432 19.0054C15.8301 19.1426 15.6157 19.2806 15.3773 19.3792C14.9788 19.5441 14.585 19.6301 14.152 19.6696C13.2004 19.7566 12.0619 19.5512 11.2385 19.0796C10.2815 18.5317 9.75009 17.5913 9.49799 16.5905C9.20518 15.4284 9.38713 14.1172 10.0778 13.1249C10.1012 13.4773 10.8507 13.6289 11.4571 13.5405C12.1147 13.4447 12.6681 12.4684 13.3586 11.2504C14.4351 9.35137 15.8447 6.86482 18.5011 6.21175C21.9792 5.35657 24.4619 6.84888 24.6728 6.97756C24.8843 7.10651 24.9857 7.08098 25.1834 7.03118C25.2198 7.022 25.2595 7.012 25.3038 7.00198C26.4095 6.75191 27.6138 6.63868 28.7372 6.84954C29.8419 7.05697 30.901 7.59713 31.7967 8.22726ZM13.3594 20.2147C13.3714 20.2168 13.3834 20.2188 13.3954 20.2207C13.3827 20.2194 13.3707 20.2174 13.3594 20.2147ZM14.5918 27.687C14.7594 27.3865 14.9189 27.0825 15.0725 26.776C16.0186 28.9141 17.7104 30.6487 19.818 31.6499V33.1827C19.4066 33.3129 18.9634 33.4216 18.4718 33.5049C16.9014 33.7709 12.4909 32.9247 10.5534 31.5346C10.4056 31.4284 10.4805 31.2192 10.6702 31.207C12.7019 31.0758 13.7416 29.2115 14.5741 27.7187L14.5918 27.687ZM28.1817 32.1043V31.6499C29.3724 31.0843 30.4305 30.2845 31.2963 29.3101C31.4219 29.7293 31.6085 30.1306 31.9375 30.3995C32.1676 30.5876 32.5448 30.5848 32.868 30.5825C32.9415 30.5819 33.0121 30.5814 33.0776 30.5831C33.369 30.591 33.6607 30.5919 33.9516 30.58C34.0978 30.574 34.163 30.7468 34.0447 30.8263C34.0221 30.8416 33.9994 30.8561 33.9767 30.8695C33.7936 30.9772 33.6038 31.0765 33.4105 31.1675C32.9707 31.3744 32.5066 31.5365 32.0197 31.6171C31.6858 31.6724 31.3548 31.6828 31.0345 31.6461C31.1192 31.7645 31.2169 31.8723 31.3305 31.9653C31.5761 32.1664 31.9787 32.1634 32.3236 32.1609C32.402 32.1603 32.4774 32.1597 32.5473 32.1616C32.8582 32.17 33.1695 32.171 33.48 32.1583C33.6361 32.1519 33.7056 32.3365 33.5794 32.4215C33.5552 32.4378 33.531 32.4533 33.5068 32.4676C33.3114 32.5827 33.1088 32.6889 32.9025 32.7861C32.4332 33.0072 31.9379 33.1805 31.4183 33.2667C30.46 33.4255 29.5244 33.2375 28.7707 32.6569C28.5587 32.4935 28.3607 32.3073 28.1817 32.1043Z" fill="#3B3E3C"/>
<mask id="mask5" mask-type="alpha" maskUnits="userSpaceOnUse" x="9" y="5" width="26" height="29">
<path fill-rule="evenodd" clip-rule="evenodd" d="M31.7967 8.22726C33.4567 9.39504 34.8915 11.283 34.9608 13.2961C34.9913 14.2017 34.8532 15.1424 34.6608 16.0285C34.5728 16.4336 34.3804 16.7951 34.1888 17.1552C34.0029 17.5044 33.8177 17.8524 33.7291 18.2376C33.2713 16.7699 31.9719 15.9403 30.6792 15.1149C29.9903 14.6751 29.3033 14.2364 28.7466 13.7031C28.9236 14.0205 29.1483 14.3107 29.3722 14.6C29.5884 14.8793 29.804 15.1578 29.9754 15.4591C28.3642 14.5274 26.803 13.1767 26.1365 11.4639C26.0132 12.3515 25.6632 13.1724 25.0722 13.8756C24.5475 14.4999 23.7511 15.1699 22.9298 15.4117C23.3528 14.506 23.7144 13.567 24.0463 12.6283C23.7354 13.0091 22.788 14.4844 22.3715 15.133C22.3173 15.2174 22.2721 15.2878 22.2385 15.34C21.9499 15.7875 21.6263 16.2145 21.2789 16.6232C21.1163 16.8145 20.9429 16.9994 20.7682 17.1809C20.6665 17.2866 20.5628 17.3906 20.4568 17.4925C20.4497 17.4993 20.4339 17.5153 20.4139 17.5355C20.3282 17.6221 20.1664 17.7855 20.2979 17.625C19.9741 18.0114 19.5223 18.3254 19.0938 18.6233C19.0113 18.6807 18.9296 18.7374 18.8498 18.794C18.3528 19.1467 17.8114 19.4466 17.2484 19.6947C16.012 20.2394 14.7424 20.4408 13.3954 20.2207C13.5527 20.2373 13.8051 20.154 14.0104 20.0863C14.0915 20.0595 14.1653 20.0352 14.2229 20.0204C14.5382 19.9394 14.8282 19.8367 15.1138 19.6876C15.6842 19.3898 16.2202 19.0347 16.7127 18.6321C16.475 18.7276 16.2597 18.8661 16.0432 19.0054C15.8301 19.1426 15.6157 19.2806 15.3773 19.3792C14.9788 19.5441 14.585 19.6301 14.152 19.6696C13.2004 19.7566 12.0619 19.5512 11.2385 19.0796C10.2815 18.5317 9.75009 17.5913 9.49799 16.5905C9.20518 15.4284 9.38713 14.1172 10.0778 13.1249C10.1012 13.4773 10.8507 13.6289 11.4571 13.5405C12.1147 13.4447 12.6681 12.4684 13.3586 11.2504C14.4351 9.35137 15.8447 6.86482 18.5011 6.21175C21.9792 5.35657 24.4619 6.84888 24.6728 6.97756C24.8843 7.10651 24.9857 7.08098 25.1834 7.03118C25.2198 7.022 25.2595 7.012 25.3038 7.00198C26.4095 6.75191 27.6138 6.63868 28.7372 6.84954C29.8419 7.05697 30.901 7.59713 31.7967 8.22726ZM13.3594 20.2147C13.3714 20.2168 13.3834 20.2188 13.3954 20.2207C13.3827 20.2194 13.3707 20.2174 13.3594 20.2147ZM14.5918 27.687C14.7594 27.3865 14.9189 27.0825 15.0725 26.776C16.0186 28.9141 17.7104 30.6487 19.818 31.6499V33.1827C19.4066 33.3129 18.9634 33.4216 18.4718 33.5049C16.9014 33.7709 12.4909 32.9247 10.5534 31.5346C10.4056 31.4284 10.4805 31.2192 10.6702 31.207C12.7019 31.0758 13.7416 29.2115 14.5741 27.7187L14.5918 27.687ZM28.1817 32.1043V31.6499C29.3724 31.0843 30.4305 30.2845 31.2963 29.3101C31.4219 29.7293 31.6085 30.1306 31.9375 30.3995C32.1676 30.5876 32.5448 30.5848 32.868 30.5825H32.8682C32.9416 30.5819 33.0122 30.5814 33.0776 30.5831C33.369 30.591 33.6607 30.5919 33.9516 30.58C34.0978 30.574 34.163 30.7468 34.0447 30.8263C34.0221 30.8416 33.9994 30.8561 33.9767 30.8695C33.7936 30.9772 33.6038 31.0765 33.4105 31.1675C32.9707 31.3744 32.5066 31.5365 32.0197 31.6171C31.6858 31.6724 31.3548 31.6828 31.0345 31.6461C31.1192 31.7645 31.2169 31.8723 31.3305 31.9653C31.5761 32.1664 31.9787 32.1634 32.3236 32.1609C32.402 32.1603 32.4774 32.1597 32.5473 32.1616C32.8582 32.17 33.1695 32.171 33.48 32.1583C33.6361 32.1519 33.7056 32.3365 33.5794 32.4215C33.5552 32.4378 33.531 32.4533 33.5068 32.4676C33.3114 32.5827 33.1088 32.6889 32.9025 32.7861C32.4332 33.0072 31.9379 33.1805 31.4183 33.2667C30.46 33.4255 29.5244 33.2375 28.7707 32.6569C28.5587 32.4935 28.3607 32.3074 28.1817 32.1043Z" fill="white"/>
</mask>
<g mask="url(#mask5)">
<rect x="0.999756" y="2.00195" width="46" height="46.0451" fill="#3B3E3C"/>
</g>
<path fill-rule="evenodd" clip-rule="evenodd" d="M15.0725 26.776C14.919 27.0825 14.7594 27.3866 14.5919 27.687L14.5741 27.7187C13.7416 29.2116 12.7019 31.0758 10.6703 31.207C10.4805 31.2193 10.4056 31.4285 10.5534 31.5346C12.491 32.9247 16.9015 33.7709 18.4718 33.5049C18.9635 33.4216 19.4067 33.3129 19.8181 33.1827V31.65C17.7104 30.6487 16.0186 28.9141 15.0725 26.776ZM28.1817 31.65V32.1044C28.3607 32.3074 28.5587 32.4936 28.7708 32.6569C29.5244 33.2375 30.46 33.4255 31.4183 33.2667C31.9379 33.1805 32.4332 33.0073 32.9025 32.7862C33.1089 32.6889 33.3114 32.5827 33.5068 32.4676C33.5311 32.4534 33.5552 32.4379 33.5794 32.4216C33.7056 32.3365 33.6361 32.1519 33.4801 32.1583C33.1695 32.171 32.8583 32.17 32.5473 32.1616C32.4774 32.1598 32.402 32.1603 32.3236 32.1609C31.9787 32.1635 31.5762 32.1664 31.3305 31.9654C31.2169 31.8724 31.1192 31.7646 31.0345 31.6461C31.3549 31.6828 31.6859 31.6724 32.0198 31.6171C32.5066 31.5365 32.9708 31.3744 33.4105 31.1675C33.6038 31.0765 33.7936 30.9772 33.9767 30.8695C33.9994 30.8561 34.0221 30.8416 34.0447 30.8264C34.163 30.7468 34.0979 30.574 33.9517 30.58C33.6607 30.5919 33.369 30.591 33.0777 30.5832C33.0122 30.5814 32.9415 30.5819 32.8681 30.5825C32.5449 30.5849 32.1677 30.5877 31.9375 30.3995C31.6085 30.1306 31.4219 29.7293 31.2963 29.3101C30.4305 30.2845 29.3725 31.0843 28.1817 31.65Z" fill="#3B3E3C"/>
</g>
</g>
</svg>
