<svg width="36" height="42" viewBox="0 0 36 42" fill="none" xmlns="http://www.w3.org/2000/svg">
    <mask id="path-1-inside-1" fill="white">
    <path d="M36 34V36H0V34L4 30V18C4 11.8 8.06 6.34 14 4.58C14 4.38 14 4.2 14 4C14 2.93913 14.4214 1.92172 15.1716 1.17157C15.9217 0.421427 16.9391 0 18 0C19.0609 0 20.0783 0.421427 20.8284 1.17157C21.5786 1.92172 22 2.93913 22 4C22 4.2 22 4.38 22 4.58C27.94 6.34 32 11.8 32 18V30L36 34ZM22 38C22 39.0609 21.5786 40.0783 20.8284 40.8284C20.0783 41.5786 19.0609 42 18 42C16.9391 42 15.9217 41.5786 15.1716 40.8284C14.4214 40.0783 14 39.0609 14 38"/>
    </mask>
    <path d="M36 34H37V33.5858L36.7071 33.2929L36 34ZM36 36V37H37V36H36ZM0 36H-1V37H0V36ZM0 34L-0.707107 33.2929L-1 33.5858V34H0ZM4 30L4.70711 30.7071L5 30.4142V30H4ZM14 4.58L14.2841 5.5388L15 5.32668V4.58H14ZM18 0V-1V0ZM22 4.58H21V5.32668L21.7159 5.5388L22 4.58ZM32 30H31V30.4142L31.2929 30.7071L32 30ZM35 34V36H37V34H35ZM36 35H0V37H36V35ZM1 36V34H-1V36H1ZM0.707107 34.7071L4.70711 30.7071L3.29289 29.2929L-0.707107 33.2929L0.707107 34.7071ZM5 30V18H3V30H5ZM5 18C5 12.2408 8.77073 7.17239 14.2841 5.5388L13.7159 3.6212C7.34927 5.50761 3 11.3592 3 18H5ZM15 4.58C15 4.57961 15 4.57922 15 4.57883C15 4.57844 15 4.57805 15 4.57766C15 4.57727 15 4.57688 15 4.57649C15 4.5761 15 4.57571 15 4.57532C15 4.57493 15 4.57454 15 4.57415C15 4.57376 15 4.57337 15 4.57298C15 4.57259 15 4.5722 15 4.57181C15 4.57142 15 4.57103 15 4.57064C15 4.57025 15 4.56986 15 4.56947C15 4.56908 15 4.56869 15 4.5683C15 4.56791 15 4.56753 15 4.56714C15 4.56675 15 4.56636 15 4.56597C15 4.56558 15 4.56519 15 4.5648C15 4.56441 15 4.56403 15 4.56364C15 4.56325 15 4.56286 15 4.56247C15 4.56208 15 4.5617 15 4.56131C15 4.56092 15 4.56053 15 4.56014C15 4.55975 15 4.55937 15 4.55898C15 4.55859 15 4.5582 15 4.55782C15 4.55743 15 4.55704 15 4.55665C15 4.55626 15 4.55588 15 4.55549C15 4.5551 15 4.55471 15 4.55433C15 4.55394 15 4.55355 15 4.55316C15 4.55278 15 4.55239 15 4.552C15 4.55162 15 4.55123 15 4.55084C15 4.55045 15 4.55007 15 4.54968C15 4.54929 15 4.54891 15 4.54852C15 4.54813 15 4.54775 15 4.54736C15 4.54697 15 4.54659 15 4.5462C15 4.54581 15 4.54543 15 4.54504C15 4.54466 15 4.54427 15 4.54388C15 4.5435 15 4.54311 15 4.54272C15 4.54234 15 4.54195 15 4.54157C15 4.54118 15 4.54079 15 4.54041C15 4.54002 15 4.53964 15 4.53925C15 4.53887 15 4.53848 15 4.53809C15 4.53771 15 4.53732 15 4.53694C15 4.53655 15 4.53617 15 4.53578C15 4.5354 15 4.53501 15 4.53463C15 4.53424 15 4.53386 15 4.53347C15 4.53309 15 4.5327 15 4.53232C15 4.53193 15 4.53155 15 4.53116C15 4.53078 15 4.53039 15 4.53001C15 4.52962 15 4.52924 15 4.52886C15 4.52847 15 4.52809 15 4.5277C15 4.52732 15 4.52693 15 4.52655C15 4.52616 15 4.52578 15 4.5254C15 4.52501 15 4.52463 15 4.52424C15 4.52386 15 4.52348 15 4.52309C15 4.52271 15 4.52233 15 4.52194C15 4.52156 15 4.52117 15 4.52079C15 4.52041 15 4.52002 15 4.51964C15 4.51926 15 4.51887 15 4.51849C15 4.51811 15 4.51772 15 4.51734C15 4.51696 15 4.51657 15 4.51619C15 4.51581 15 4.51542 15 4.51504C15 4.51466 15 4.51427 15 4.51389C15 4.51351 15 4.51313 15 4.51274C15 4.51236 15 4.51198 15 4.51159C15 4.51121 15 4.51083 15 4.51045C15 4.51006 15 4.50968 15 4.5093C15 4.50892 15 4.50853 15 4.50815C15 4.50777 15 4.50739 15 4.50701C15 4.50662 15 4.50624 15 4.50586C15 4.50548 15 4.5051 15 4.50471C15 4.50433 15 4.50395 15 4.50357C15 4.50319 15 4.5028 15 4.50242C15 4.50204 15 4.50166 15 4.50128C15 4.5009 15 4.50051 15 4.50013C15 4.49975 15 4.49937 15 4.49899C15 4.49861 15 4.49823 15 4.49784C15 4.49746 15 4.49708 15 4.4967C15 4.49632 15 4.49594 15 4.49556C15 4.49518 15 4.49479 15 4.49441C15 4.49403 15 4.49365 15 4.49327C15 4.49289 15 4.49251 15 4.49213C15 4.49175 15 4.49137 15 4.49099C15 4.49061 15 4.49023 15 4.48984C15 4.48946 15 4.48908 15 4.4887C15 4.48832 15 4.48794 15 4.48756C15 4.48718 15 4.4868 15 4.48642C15 4.48604 15 4.48566 15 4.48528C15 4.4849 15 4.48452 15 4.48414C15 4.48376 15 4.48338 15 4.483C15 4.48262 15 4.48224 15 4.48186C15 4.48148 15 4.4811 15 4.48072C15 4.48034 15 4.47996 15 4.47958C15 4.4792 15 4.47882 15 4.47844C15 4.47807 15 4.47769 15 4.47731C15 4.47693 15 4.47655 15 4.47617C15 4.47579 15 4.47541 15 4.47503C15 4.47465 15 4.47427 15 4.47389C15 4.47351 15 4.47313 15 4.47276C15 4.47238 15 4.472 15 4.47162C15 4.47124 15 4.47086 15 4.47048C15 4.4701 15 4.46972 15 4.46935C15 4.46897 15 4.46859 15 4.46821C15 4.46783 15 4.46745 15 4.46707C15 4.4667 15 4.46632 15 4.46594C15 4.46556 15 4.46518 15 4.4648C15 4.46443 15 4.46405 15 4.46367C15 4.46329 15 4.46291 15 4.46253C15 4.46216 15 4.46178 15 4.4614C15 4.46102 15 4.46064 15 4.46027C15 4.45989 15 4.45951 15 4.45913C15 4.45875 15 4.45838 15 4.458C15 4.45762 15 4.45724 15 4.45686C15 4.45649 15 4.45611 15 4.45573C15 4.45535 15 4.45498 15 4.4546C15 4.45422 15 4.45384 15 4.45347C15 4.45309 15 4.45271 15 4.45233C15 4.45196 15 4.45158 15 4.4512C15 4.45083 15 4.45045 15 4.45007C15 4.44969 15 4.44932 15 4.44894C15 4.44856 15 4.44818 15 4.44781C15 4.44743 15 4.44705 15 4.44668C15 4.4463 15 4.44592 15 4.44555C15 4.44517 15 4.44479 15 4.44442C15 4.44404 15 4.44366 15 4.44329C15 4.44291 15 4.44253 15 4.44216C15 4.44178 15 4.4414 15 4.44103C15 4.44065 15 4.44027 15 4.4399C15 4.43952 15 4.43914 15 4.43877C15 4.43839 15 4.43801 15 4.43764C15 4.43726 15 4.43689 15 4.43651C15 4.43613 15 4.43576 15 4.43538C15 4.43501 15 4.43463 15 4.43425C15 4.43388 15 4.4335 15 4.43313C15 4.43275 15 4.43237 15 4.432C15 4.43162 15 4.43125 15 4.43087C15 4.43049 15 4.43012 15 4.42974C15 4.42937 15 4.42899 15 4.42862C15 4.42824 15 4.42786 15 4.42749C15 4.42711 15 4.42674 15 4.42636C15 4.42599 15 4.42561 15 4.42523C15 4.42486 15 4.42448 15 4.42411C15 4.42373 15 4.42336 15 4.42298C15 4.42261 15 4.42223 15 4.42186C15 4.42148 15 4.42111 15 4.42073C15 4.42036 15 4.41998 15 4.41961C15 4.41923 15 4.41886 15 4.41848C15 4.41811 15 4.41773 15 4.41736C15 4.41698 15 4.41661 15 4.41623C15 4.41586 15 4.41548 15 4.41511C15 4.41473 15 4.41436 15 4.41398C15 4.41361 15 4.41323 15 4.41286C15 4.41248 15 4.41211 15 4.41173C15 4.41136 15 4.41098 15 4.41061C15 4.41024 15 4.40986 15 4.40949C15 4.40911 15 4.40874 15 4.40836C15 4.40799 15 4.40761 15 4.40724C15 4.40687 15 4.40649 15 4.40612C15 4.40574 15 4.40537 15 4.40499C15 4.40462 15 4.40424 15 4.40387C15 4.4035 15 4.40312 15 4.40275C15 4.40237 15 4.402 15 4.40163C15 4.40125 15 4.40088 15 4.4005C15 4.40013 15 4.39976 15 4.39938C15 4.39901 15 4.39863 15 4.39826C15 4.39789 15 4.39751 15 4.39714C15 4.39676 15 4.39639 15 4.39602C15 4.39564 15 4.39527 15 4.3949C15 4.39452 15 4.39415 15 4.39377C15 4.3934 15 4.39303 15 4.39265C15 4.39228 15 4.39191 15 4.39153C15 4.39116 15 4.39079 15 4.39041C15 4.39004 15 4.38967 15 4.38929C15 4.38892 15 4.38855 15 4.38817C15 4.3878 15 4.38742 15 4.38705C15 4.38668 15 4.3863 15 4.38593C15 4.38556 15 4.38519 15 4.38481C15 4.38444 15 4.38407 15 4.38369C15 4.38332 15 4.38295 15 4.38257C15 4.3822 15 4.38183 15 4.38145C15 4.38108 15 4.38071 15 4.38033C15 4.37996 15 4.37959 15 4.37922C15 4.37884 15 4.37847 15 4.3781C15 4.37772 15 4.37735 15 4.37698C15 4.3766 15 4.37623 15 4.37586C15 4.37549 15 4.37511 15 4.37474C15 4.37437 15 4.37399 15 4.37362C15 4.37325 15 4.37288 15 4.3725C15 4.37213 15 4.37176 15 4.37139C15 4.37101 15 4.37064 15 4.37027C15 4.36989 15 4.36952 15 4.36915C15 4.36878 15 4.3684 15 4.36803C15 4.36766 15 4.36729 15 4.36691C15 4.36654 15 4.36617 15 4.3658C15 4.36542 15 4.36505 15 4.36468C15 4.36431 15 4.36393 15 4.36356C15 4.36319 15 4.36282 15 4.36244C15 4.36207 15 4.3617 15 4.36133C15 4.36096 15 4.36058 15 4.36021C15 4.35984 15 4.35947 15 4.35909C15 4.35872 15 4.35835 15 4.35798C15 4.35761 15 4.35723 15 4.35686C15 4.35649 15 4.35612 15 4.35574C15 4.35537 15 4.355 15 4.35463C15 4.35426 15 4.35388 15 4.35351C15 4.35314 15 4.35277 15 4.3524C15 4.35202 15 4.35165 15 4.35128C15 4.35091 15 4.35054 15 4.35016C15 4.34979 15 4.34942 15 4.34905C15 4.34868 15 4.3483 15 4.34793C15 4.34756 15 4.34719 15 4.34682C15 4.34645 15 4.34607 15 4.3457C15 4.34533 15 4.34496 15 4.34459C15 4.34421 15 4.34384 15 4.34347C15 4.3431 15 4.34273 15 4.34236C15 4.34198 15 4.34161 15 4.34124C15 4.34087 15 4.3405 15 4.34012C15 4.33975 15 4.33938 15 4.33901C15 4.33864 15 4.33827 15 4.33789C15 4.33752 15 4.33715 15 4.33678C15 4.33641 15 4.33604 15 4.33567C15 4.33529 15 4.33492 15 4.33455C15 4.33418 15 4.33381 15 4.33344C15 4.33306 15 4.33269 15 4.33232C15 4.33195 15 4.33158 15 4.33121C15 4.33083 15 4.33046 15 4.33009C15 4.32972 15 4.32935 15 4.32898C15 4.32861 15 4.32823 15 4.32786C15 4.32749 15 4.32712 15 4.32675C15 4.32638 15 4.32601 15 4.32563C15 4.32526 15 4.32489 15 4.32452C15 4.32415 15 4.32378 15 4.32341C15 4.32304 15 4.32266 15 4.32229C15 4.32192 15 4.32155 15 4.32118C15 4.32081 15 4.32044 15 4.32006C15 4.31969 15 4.31932 15 4.31895C15 4.31858 15 4.31821 15 4.31784C15 4.31747 15 4.31709 15 4.31672C15 4.31635 15 4.31598 15 4.31561C15 4.31524 15 4.31487 15 4.3145C15 4.31412 15 4.31375 15 4.31338C15 4.31301 15 4.31264 15 4.31227C15 4.3119 15 4.31153 15 4.31115C15 4.31078 15 4.31041 15 4.31004C15 4.30967 15 4.3093 15 4.30893C15 4.30856 15 4.30818 15 4.30781C15 4.30744 15 4.30707 15 4.3067C15 4.30633 15 4.30596 15 4.30559C15 4.30522 15 4.30484 15 4.30447C15 4.3041 15 4.30373 15 4.30336C15 4.30299 15 4.30262 15 4.30225C15 4.30188 15 4.3015 15 4.30113C15 4.30076 15 4.30039 15 4.30002C15 4.29965 15 4.29928 15 4.29891C15 4.29854 15 4.29816 15 4.29779C15 4.29742 15 4.29705 15 4.29668C15 4.29631 15 4.29594 15 4.29557C15 4.2952 15 4.29482 15 4.29445C15 4.29408 15 4.29371 15 4.29334C15 4.29297 15 4.2926 15 4.29223C15 4.29186 15 4.29148 15 4.29111C15 4.29074 15 4.29037 15 4.29C15 4.28963 15 4.28926 15 4.28889C15 4.28852 15 4.28814 15 4.28777C15 4.2874 15 4.28703 15 4.28666C15 4.28629 15 4.28592 15 4.28555C15 4.28518 15 4.2848 15 4.28443C15 4.28406 15 4.28369 15 4.28332C15 4.28295 15 4.28258 15 4.28221C15 4.28184 15 4.28146 15 4.28109C15 4.28072 15 4.28035 15 4.27998C15 4.27961 15 4.27924 15 4.27887C15 4.2785 15 4.27812 15 4.27775C15 4.27738 15 4.27701 15 4.27664C15 4.27627 15 4.2759 15 4.27553C15 4.27516 15 4.27478 15 4.27441C15 4.27404 15 4.27367 15 4.2733C15 4.27293 15 4.27256 15 4.27219C15 4.27182 15 4.27144 15 4.27107C15 4.2707 15 4.27033 15 4.26996C15 4.26959 15 4.26922 15 4.26885C15 4.26847 15 4.2681 15 4.26773C15 4.26736 15 4.26699 15 4.26662C15 4.26625 15 4.26588 15 4.2655C15 4.26513 15 4.26476 15 4.26439C15 4.26402 15 4.26365 15 4.26328C15 4.26291 15 4.26253 15 4.26216C15 4.26179 15 4.26142 15 4.26105C15 4.26068 15 4.26031 15 4.25994C15 4.25956 15 4.25919 15 4.25882C15 4.25845 15 4.25808 15 4.25771C15 4.25734 15 4.25696 15 4.25659C15 4.25622 15 4.25585 15 4.25548C15 4.25511 15 4.25474 15 4.25436C15 4.25399 15 4.25362 15 4.25325C15 4.25288 15 4.25251 15 4.25214C15 4.25177 15 4.25139 15 4.25102C15 4.25065 15 4.25028 15 4.24991C15 4.24954 15 4.24917 15 4.24879C15 4.24842 15 4.24805 15 4.24768C15 4.24731 15 4.24694 15 4.24656C15 4.24619 15 4.24582 15 4.24545C15 4.24508 15 4.24471 15 4.24433C15 4.24396 15 4.24359 15 4.24322C15 4.24285 15 4.24248 15 4.24211C15 4.24173 15 4.24136 15 4.24099C15 4.24062 15 4.24025 15 4.23988C15 4.2395 15 4.23913 15 4.23876C15 4.23839 15 4.23802 15 4.23764C15 4.23727 15 4.2369 15 4.23653C15 4.23616 15 4.23579 15 4.23541C15 4.23504 15 4.23467 15 4.2343C15 4.23393 15 4.23355 15 4.23318C15 4.23281 15 4.23244 15 4.23207C15 4.2317 15 4.23132 15 4.23095C15 4.23058 15 4.23021 15 4.22984C15 4.22946 15 4.22909 15 4.22872C15 4.22835 15 4.22798 15 4.2276C15 4.22723 15 4.22686 15 4.22649C15 4.22612 15 4.22574 15 4.22537C15 4.225 15 4.22463 15 4.22426C15 4.22388 15 4.22351 15 4.22314C15 4.22277 15 4.22239 15 4.22202C15 4.22165 15 4.22128 15 4.22091C15 4.22053 15 4.22016 15 4.21979C15 4.21942 15 4.21904 15 4.21867C15 4.2183 15 4.21793 15 4.21756C15 4.21718 15 4.21681 15 4.21644C15 4.21607 15 4.21569 15 4.21532C15 4.21495 15 4.21458 15 4.2142C15 4.21383 15 4.21346 15 4.21309C15 4.21271 15 4.21234 15 4.21197C15 4.2116 15 4.21122 15 4.21085C15 4.21048 15 4.2101 15 4.20973C15 4.20936 15 4.20899 15 4.20861C15 4.20824 15 4.20787 15 4.2075C15 4.20712 15 4.20675 15 4.20638C15 4.20601 15 4.20563 15 4.20526C15 4.20489 15 4.20451 15 4.20414C15 4.20377 15 4.2034 15 4.20302C15 4.20265 15 4.20228 15 4.2019C15 4.20153 15 4.20116 15 4.20078C15 4.20041 15 4.20004 15 4.19967C15 4.19929 15 4.19892 15 4.19855C15 4.19817 15 4.1978 15 4.19743C15 4.19705 15 4.19668 15 4.19631C15 4.19593 15 4.19556 15 4.19519C15 4.19481 15 4.19444 15 4.19407C15 4.1937 15 4.19332 15 4.19295C15 4.19257 15 4.1922 15 4.19183C15 4.19145 15 4.19108 15 4.19071C15 4.19033 15 4.18996 15 4.18959C15 4.18921 15 4.18884 15 4.18847C15 4.18809 15 4.18772 15 4.18735C15 4.18697 15 4.1866 15 4.18622C15 4.18585 15 4.18548 15 4.1851C15 4.18473 15 4.18436 15 4.18398C15 4.18361 15 4.18324 15 4.18286C15 4.18249 15 4.18211 15 4.18174C15 4.18137 15 4.18099 15 4.18062C15 4.18024 15 4.17987 15 4.1795C15 4.17912 15 4.17875 15 4.17837C15 4.178 15 4.17763 15 4.17725C15 4.17688 15 4.1765 15 4.17613C15 4.17576 15 4.17538 15 4.17501C15 4.17463 15 4.17426 15 4.17388C15 4.17351 15 4.17313 15 4.17276C15 4.17239 15 4.17201 15 4.17164C15 4.17126 15 4.17089 15 4.17051C15 4.17014 15 4.16976 15 4.16939C15 4.16902 15 4.16864 15 4.16827C15 4.16789 15 4.16752 15 4.16714C15 4.16677 15 4.16639 15 4.16602C15 4.16564 15 4.16527 15 4.16489C15 4.16452 15 4.16414 15 4.16377C15 4.16339 15 4.16302 15 4.16264C15 4.16227 15 4.16189 15 4.16152C15 4.16114 15 4.16077 15 4.16039C15 4.16002 15 4.15964 15 4.15927C15 4.15889 15 4.15852 15 4.15814C15 4.15777 15 4.15739 15 4.15702C15 4.15664 15 4.15627 15 4.15589C15 4.15552 15 4.15514 15 4.15477C15 4.15439 15 4.15401 15 4.15364C15 4.15326 15 4.15289 15 4.15251C15 4.15214 15 4.15176 15 4.15138C15 4.15101 15 4.15063 15 4.15026C15 4.14988 15 4.14951 15 4.14913C15 4.14875 15 4.14838 15 4.148C15 4.14763 15 4.14725 15 4.14687C15 4.1465 15 4.14612 15 4.14575C15 4.14537 15 4.14499 15 4.14462C15 4.14424 15 4.14387 15 4.14349C15 4.14311 15 4.14274 15 4.14236C15 4.14198 15 4.14161 15 4.14123C15 4.14086 15 4.14048 15 4.1401C15 4.13973 15 4.13935 15 4.13897C15 4.1386 15 4.13822 15 4.13784C15 4.13747 15 4.13709 15 4.13671C15 4.13634 15 4.13596 15 4.13558C15 4.13521 15 4.13483 15 4.13445C15 4.13408 15 4.1337 15 4.13332C15 4.13295 15 4.13257 15 4.13219C15 4.13181 15 4.13144 15 4.13106C15 4.13068 15 4.13031 15 4.12993C15 4.12955 15 4.12917 15 4.1288C15 4.12842 15 4.12804 15 4.12767C15 4.12729 15 4.12691 15 4.12653C15 4.12616 15 4.12578 15 4.1254C15 4.12502 15 4.12465 15 4.12427C15 4.12389 15 4.12351 15 4.12314C15 4.12276 15 4.12238 15 4.122C15 4.12162 15 4.12125 15 4.12087C15 4.12049 15 4.12011 15 4.11973C15 4.11936 15 4.11898 15 4.1186C15 4.11822 15 4.11784 15 4.11747C15 4.11709 15 4.11671 15 4.11633C15 4.11595 15 4.11557 15 4.1152C15 4.11482 15 4.11444 15 4.11406C15 4.11368 15 4.1133 15 4.11293C15 4.11255 15 4.11217 15 4.11179C15 4.11141 15 4.11103 15 4.11065C15 4.11028 15 4.1099 15 4.10952C15 4.10914 15 4.10876 15 4.10838C15 4.108 15 4.10762 15 4.10724C15 4.10687 15 4.10649 15 4.10611C15 4.10573 15 4.10535 15 4.10497C15 4.10459 15 4.10421 15 4.10383C15 4.10345 15 4.10307 15 4.10269C15 4.10231 15 4.10193 15 4.10156C15 4.10118 15 4.1008 15 4.10042C15 4.10004 15 4.09966 15 4.09928C15 4.0989 15 4.09852 15 4.09814C15 4.09776 15 4.09738 15 4.097C15 4.09662 15 4.09624 15 4.09586C15 4.09548 15 4.0951 15 4.09472C15 4.09434 15 4.09396 15 4.09358C15 4.0932 15 4.09282 15 4.09244C15 4.09206 15 4.09168 15 4.0913C15 4.09092 15 4.09054 15 4.09016C15 4.08977 15 4.08939 15 4.08901C15 4.08863 15 4.08825 15 4.08787C15 4.08749 15 4.08711 15 4.08673C15 4.08635 15 4.08597 15 4.08559C15 4.08521 15 4.08482 15 4.08444C15 4.08406 15 4.08368 15 4.0833C15 4.08292 15 4.08254 15 4.08216C15 4.08177 15 4.08139 15 4.08101C15 4.08063 15 4.08025 15 4.07987C15 4.07949 15 4.0791 15 4.07872C15 4.07834 15 4.07796 15 4.07758C15 4.0772 15 4.07681 15 4.07643C15 4.07605 15 4.07567 15 4.07529C15 4.0749 15 4.07452 15 4.07414C15 4.07376 15 4.07338 15 4.07299C15 4.07261 15 4.07223 15 4.07185C15 4.07147 15 4.07108 15 4.0707C15 4.07032 15 4.06994 15 4.06955C15 4.06917 15 4.06879 15 4.06841C15 4.06802 15 4.06764 15 4.06726C15 4.06687 15 4.06649 15 4.06611C15 4.06573 15 4.06534 15 4.06496C15 4.06458 15 4.06419 15 4.06381C15 4.06343 15 4.06304 15 4.06266C15 4.06228 15 4.06189 15 4.06151C15 4.06113 15 4.06074 15 4.06036C15 4.05998 15 4.05959 15 4.05921C15 4.05883 15 4.05844 15 4.05806C15 4.05767 15 4.05729 15 4.05691C15 4.05652 15 4.05614 15 4.05576C15 4.05537 15 4.05499 15 4.0546C15 4.05422 15 4.05384 15 4.05345C15 4.05307 15 4.05268 15 4.0523C15 4.05191 15 4.05153 15 4.05114C15 4.05076 15 4.05038 15 4.04999C15 4.04961 15 4.04922 15 4.04884C15 4.04845 15 4.04807 15 4.04768C15 4.0473 15 4.04691 15 4.04653C15 4.04614 15 4.04576 15 4.04537C15 4.04499 15 4.0446 15 4.04422C15 4.04383 15 4.04345 15 4.04306C15 4.04268 15 4.04229 15 4.0419C15 4.04152 15 4.04113 15 4.04075C15 4.04036 15 4.03998 15 4.03959C15 4.03921 15 4.03882 15 4.03843C15 4.03805 15 4.03766 15 4.03728C15 4.03689 15 4.0365 15 4.03612C15 4.03573 15 4.03534 15 4.03496C15 4.03457 15 4.03419 15 4.0338C15 4.03341 15 4.03303 15 4.03264C15 4.03225 15 4.03187 15 4.03148C15 4.03109 15 4.03071 15 4.03032C15 4.02993 15 4.02955 15 4.02916C15 4.02877 15 4.02838 15 4.028C15 4.02761 15 4.02722 15 4.02684C15 4.02645 15 4.02606 15 4.02567C15 4.02529 15 4.0249 15 4.02451C15 4.02412 15 4.02374 15 4.02335C15 4.02296 15 4.02257 15 4.02218C15 4.0218 15 4.02141 15 4.02102C15 4.02063 15 4.02025 15 4.01986C15 4.01947 15 4.01908 15 4.01869C15 4.0183 15 4.01792 15 4.01753C15 4.01714 15 4.01675 15 4.01636C15 4.01597 15 4.01558 15 4.0152C15 4.01481 15 4.01442 15 4.01403C15 4.01364 15 4.01325 15 4.01286C15 4.01247 15 4.01209 15 4.0117C15 4.01131 15 4.01092 15 4.01053C15 4.01014 15 4.00975 15 4.00936C15 4.00897 15 4.00858 15 4.00819C15 4.0078 15 4.00741 15 4.00702C15 4.00663 15 4.00624 15 4.00585C15 4.00546 15 4.00507 15 4.00468C15 4.00429 15 4.0039 15 4.00351C15 4.00312 15 4.00273 15 4.00234C15 4.00195 15 4.00156 15 4.00117C15 4.00078 15 4.00039 15 4H13C13 4.00039 13 4.00078 13 4.00117C13 4.00156 13 4.00195 13 4.00234C13 4.00273 13 4.00312 13 4.00351C13 4.0039 13 4.00429 13 4.00468C13 4.00507 13 4.00546 13 4.00585C13 4.00624 13 4.00663 13 4.00702C13 4.00741 13 4.0078 13 4.00819C13 4.00858 13 4.00897 13 4.00936C13 4.00975 13 4.01014 13 4.01053C13 4.01092 13 4.01131 13 4.0117C13 4.01209 13 4.01247 13 4.01286C13 4.01325 13 4.01364 13 4.01403C13 4.01442 13 4.01481 13 4.0152C13 4.01558 13 4.01597 13 4.01636C13 4.01675 13 4.01714 13 4.01753C13 4.01792 13 4.0183 13 4.01869C13 4.01908 13 4.01947 13 4.01986C13 4.02025 13 4.02063 13 4.02102C13 4.02141 13 4.0218 13 4.02218C13 4.02257 13 4.02296 13 4.02335C13 4.02374 13 4.02412 13 4.02451C13 4.0249 13 4.02529 13 4.02567C13 4.02606 13 4.02645 13 4.02684C13 4.02722 13 4.02761 13 4.028C13 4.02838 13 4.02877 13 4.02916C13 4.02955 13 4.02993 13 4.03032C13 4.03071 13 4.03109 13 4.03148C13 4.03187 13 4.03225 13 4.03264C13 4.03303 13 4.03341 13 4.0338C13 4.03419 13 4.03457 13 4.03496C13 4.03534 13 4.03573 13 4.03612C13 4.0365 13 4.03689 13 4.03728C13 4.03766 13 4.03805 13 4.03843C13 4.03882 13 4.03921 13 4.03959C13 4.03998 13 4.04036 13 4.04075C13 4.04113 13 4.04152 13 4.0419C13 4.04229 13 4.04268 13 4.04306C13 4.04345 13 4.04383 13 4.04422C13 4.0446 13 4.04499 13 4.04537C13 4.04576 13 4.04614 13 4.04653C13 4.04691 13 4.0473 13 4.04768C13 4.04807 13 4.04845 13 4.04884C13 4.04922 13 4.04961 13 4.04999C13 4.05038 13 4.05076 13 4.05114C13 4.05153 13 4.05191 13 4.0523C13 4.05268 13 4.05307 13 4.05345C13 4.05384 13 4.05422 13 4.0546C13 4.05499 13 4.05537 13 4.05576C13 4.05614 13 4.05652 13 4.05691C13 4.05729 13 4.05767 13 4.05806C13 4.05844 13 4.05883 13 4.05921C13 4.05959 13 4.05998 13 4.06036C13 4.06074 13 4.06113 13 4.06151C13 4.06189 13 4.06228 13 4.06266C13 4.06304 13 4.06343 13 4.06381C13 4.06419 13 4.06458 13 4.06496C13 4.06534 13 4.06573 13 4.06611C13 4.06649 13 4.06687 13 4.06726C13 4.06764 13 4.06802 13 4.06841C13 4.06879 13 4.06917 13 4.06955C13 4.06994 13 4.07032 13 4.0707C13 4.07108 13 4.07147 13 4.07185C13 4.07223 13 4.07261 13 4.07299C13 4.07338 13 4.07376 13 4.07414C13 4.07452 13 4.0749 13 4.07529C13 4.07567 13 4.07605 13 4.07643C13 4.07681 13 4.0772 13 4.07758C13 4.07796 13 4.07834 13 4.07872C13 4.0791 13 4.07949 13 4.07987C13 4.08025 13 4.08063 13 4.08101C13 4.08139 13 4.08177 13 4.08216C13 4.08254 13 4.08292 13 4.0833C13 4.08368 13 4.08406 13 4.08444C13 4.08482 13 4.08521 13 4.08559C13 4.08597 13 4.08635 13 4.08673C13 4.08711 13 4.08749 13 4.08787C13 4.08825 13 4.08863 13 4.08901C13 4.08939 13 4.08977 13 4.09016C13 4.09054 13 4.09092 13 4.0913C13 4.09168 13 4.09206 13 4.09244C13 4.09282 13 4.0932 13 4.09358C13 4.09396 13 4.09434 13 4.09472C13 4.0951 13 4.09548 13 4.09586C13 4.09624 13 4.09662 13 4.097C13 4.09738 13 4.09776 13 4.09814C13 4.09852 13 4.0989 13 4.09928C13 4.09966 13 4.10004 13 4.10042C13 4.1008 13 4.10118 13 4.10156C13 4.10193 13 4.10231 13 4.10269C13 4.10307 13 4.10345 13 4.10383C13 4.10421 13 4.10459 13 4.10497C13 4.10535 13 4.10573 13 4.10611C13 4.10649 13 4.10687 13 4.10724C13 4.10762 13 4.108 13 4.10838C13 4.10876 13 4.10914 13 4.10952C13 4.1099 13 4.11028 13 4.11065C13 4.11103 13 4.11141 13 4.11179C13 4.11217 13 4.11255 13 4.11293C13 4.1133 13 4.11368 13 4.11406C13 4.11444 13 4.11482 13 4.1152C13 4.11557 13 4.11595 13 4.11633C13 4.11671 13 4.11709 13 4.11747C13 4.11784 13 4.11822 13 4.1186C13 4.11898 13 4.11936 13 4.11973C13 4.12011 13 4.12049 13 4.12087C13 4.12125 13 4.12162 13 4.122C13 4.12238 13 4.12276 13 4.12314C13 4.12351 13 4.12389 13 4.12427C13 4.12465 13 4.12502 13 4.1254C13 4.12578 13 4.12616 13 4.12653C13 4.12691 13 4.12729 13 4.12767C13 4.12804 13 4.12842 13 4.1288C13 4.12917 13 4.12955 13 4.12993C13 4.13031 13 4.13068 13 4.13106C13 4.13144 13 4.13181 13 4.13219C13 4.13257 13 4.13295 13 4.13332C13 4.1337 13 4.13408 13 4.13445C13 4.13483 13 4.13521 13 4.13558C13 4.13596 13 4.13634 13 4.13671C13 4.13709 13 4.13747 13 4.13784C13 4.13822 13 4.1386 13 4.13897C13 4.13935 13 4.13973 13 4.1401C13 4.14048 13 4.14086 13 4.14123C13 4.14161 13 4.14198 13 4.14236C13 4.14274 13 4.14311 13 4.14349C13 4.14387 13 4.14424 13 4.14462C13 4.14499 13 4.14537 13 4.14575C13 4.14612 13 4.1465 13 4.14687C13 4.14725 13 4.14763 13 4.148C13 4.14838 13 4.14875 13 4.14913C13 4.14951 13 4.14988 13 4.15026C13 4.15063 13 4.15101 13 4.15138C13 4.15176 13 4.15214 13 4.15251C13 4.15289 13 4.15326 13 4.15364C13 4.15401 13 4.15439 13 4.15477C13 4.15514 13 4.15552 13 4.15589C13 4.15627 13 4.15664 13 4.15702C13 4.15739 13 4.15777 13 4.15814C13 4.15852 13 4.15889 13 4.15927C13 4.15964 13 4.16002 13 4.16039C13 4.16077 13 4.16114 13 4.16152C13 4.16189 13 4.16227 13 4.16264C13 4.16302 13 4.16339 13 4.16377C13 4.16414 13 4.16452 13 4.16489C13 4.16527 13 4.16564 13 4.16602C13 4.16639 13 4.16677 13 4.16714C13 4.16752 13 4.16789 13 4.16827C13 4.16864 13 4.16902 13 4.16939C13 4.16976 13 4.17014 13 4.17051C13 4.17089 13 4.17126 13 4.17164C13 4.17201 13 4.17239 13 4.17276C13 4.17313 13 4.17351 13 4.17388C13 4.17426 13 4.17463 13 4.17501C13 4.17538 13 4.17576 13 4.17613C13 4.1765 13 4.17688 13 4.17725C13 4.17763 13 4.178 13 4.17837C13 4.17875 13 4.17912 13 4.1795C13 4.17987 13 4.18024 13 4.18062C13 4.18099 13 4.18137 13 4.18174C13 4.18211 13 4.18249 13 4.18286C13 4.18324 13 4.18361 13 4.18398C13 4.18436 13 4.18473 13 4.1851C13 4.18548 13 4.18585 13 4.18622C13 4.1866 13 4.18697 13 4.18735C13 4.18772 13 4.18809 13 4.18847C13 4.18884 13 4.18921 13 4.18959C13 4.18996 13 4.19033 13 4.19071C13 4.19108 13 4.19145 13 4.19183C13 4.1922 13 4.19257 13 4.19295C13 4.19332 13 4.1937 13 4.19407C13 4.19444 13 4.19481 13 4.19519C13 4.19556 13 4.19593 13 4.19631C13 4.19668 13 4.19705 13 4.19743C13 4.1978 13 4.19817 13 4.19855C13 4.19892 13 4.19929 13 4.19967C13 4.20004 13 4.20041 13 4.20078C13 4.20116 13 4.20153 13 4.2019C13 4.20228 13 4.20265 13 4.20302C13 4.2034 13 4.20377 13 4.20414C13 4.20451 13 4.20489 13 4.20526C13 4.20563 13 4.20601 13 4.20638C13 4.20675 13 4.20712 13 4.2075C13 4.20787 13 4.20824 13 4.20861C13 4.20899 13 4.20936 13 4.20973C13 4.2101 13 4.21048 13 4.21085C13 4.21122 13 4.2116 13 4.21197C13 4.21234 13 4.21271 13 4.21309C13 4.21346 13 4.21383 13 4.2142C13 4.21458 13 4.21495 13 4.21532C13 4.21569 13 4.21607 13 4.21644C13 4.21681 13 4.21718 13 4.21756C13 4.21793 13 4.2183 13 4.21867C13 4.21904 13 4.21942 13 4.21979C13 4.22016 13 4.22053 13 4.22091C13 4.22128 13 4.22165 13 4.22202C13 4.22239 13 4.22277 13 4.22314C13 4.22351 13 4.22388 13 4.22426C13 4.22463 13 4.225 13 4.22537C13 4.22574 13 4.22612 13 4.22649C13 4.22686 13 4.22723 13 4.2276C13 4.22798 13 4.22835 13 4.22872C13 4.22909 13 4.22946 13 4.22984C13 4.23021 13 4.23058 13 4.23095C13 4.23132 13 4.2317 13 4.23207C13 4.23244 13 4.23281 13 4.23318C13 4.23355 13 4.23393 13 4.2343C13 4.23467 13 4.23504 13 4.23541C13 4.23579 13 4.23616 13 4.23653C13 4.2369 13 4.23727 13 4.23764C13 4.23802 13 4.23839 13 4.23876C13 4.23913 13 4.2395 13 4.23988C13 4.24025 13 4.24062 13 4.24099C13 4.24136 13 4.24173 13 4.24211C13 4.24248 13 4.24285 13 4.24322C13 4.24359 13 4.24396 13 4.24433C13 4.24471 13 4.24508 13 4.24545C13 4.24582 13 4.24619 13 4.24656C13 4.24694 13 4.24731 13 4.24768C13 4.24805 13 4.24842 13 4.24879C13 4.24917 13 4.24954 13 4.24991C13 4.25028 13 4.25065 13 4.25102C13 4.25139 13 4.25177 13 4.25214C13 4.25251 13 4.25288 13 4.25325C13 4.25362 13 4.25399 13 4.25436C13 4.25474 13 4.25511 13 4.25548C13 4.25585 13 4.25622 13 4.25659C13 4.25696 13 4.25734 13 4.25771C13 4.25808 13 4.25845 13 4.25882C13 4.25919 13 4.25956 13 4.25994C13 4.26031 13 4.26068 13 4.26105C13 4.26142 13 4.26179 13 4.26216C13 4.26253 13 4.26291 13 4.26328C13 4.26365 13 4.26402 13 4.26439C13 4.26476 13 4.26513 13 4.2655C13 4.26588 13 4.26625 13 4.26662C13 4.26699 13 4.26736 13 4.26773C13 4.2681 13 4.26847 13 4.26885C13 4.26922 13 4.26959 13 4.26996C13 4.27033 13 4.2707 13 4.27107C13 4.27144 13 4.27182 13 4.27219C13 4.27256 13 4.27293 13 4.2733C13 4.27367 13 4.27404 13 4.27441C13 4.27478 13 4.27516 13 4.27553C13 4.2759 13 4.27627 13 4.27664C13 4.27701 13 4.27738 13 4.27775C13 4.27812 13 4.2785 13 4.27887C13 4.27924 13 4.27961 13 4.27998C13 4.28035 13 4.28072 13 4.28109C13 4.28146 13 4.28184 13 4.28221C13 4.28258 13 4.28295 13 4.28332C13 4.28369 13 4.28406 13 4.28443C13 4.2848 13 4.28518 13 4.28555C13 4.28592 13 4.28629 13 4.28666C13 4.28703 13 4.2874 13 4.28777C13 4.28814 13 4.28852 13 4.28889C13 4.28926 13 4.28963 13 4.29C13 4.29037 13 4.29074 13 4.29111C13 4.29148 13 4.29186 13 4.29223C13 4.2926 13 4.29297 13 4.29334C13 4.29371 13 4.29408 13 4.29445C13 4.29482 13 4.2952 13 4.29557C13 4.29594 13 4.29631 13 4.29668C13 4.29705 13 4.29742 13 4.29779C13 4.29816 13 4.29854 13 4.29891C13 4.29928 13 4.29965 13 4.30002C13 4.30039 13 4.30076 13 4.30113C13 4.3015 13 4.30188 13 4.30225C13 4.30262 13 4.30299 13 4.30336C13 4.30373 13 4.3041 13 4.30447C13 4.30484 13 4.30522 13 4.30559C13 4.30596 13 4.30633 13 4.3067C13 4.30707 13 4.30744 13 4.30781C13 4.30818 13 4.30856 13 4.30893C13 4.3093 13 4.30967 13 4.31004C13 4.31041 13 4.31078 13 4.31115C13 4.31153 13 4.3119 13 4.31227C13 4.31264 13 4.31301 13 4.31338C13 4.31375 13 4.31412 13 4.3145C13 4.31487 13 4.31524 13 4.31561C13 4.31598 13 4.31635 13 4.31672C13 4.31709 13 4.31747 13 4.31784C13 4.31821 13 4.31858 13 4.31895C13 4.31932 13 4.31969 13 4.32006C13 4.32044 13 4.32081 13 4.32118C13 4.32155 13 4.32192 13 4.32229C13 4.32266 13 4.32304 13 4.32341C13 4.32378 13 4.32415 13 4.32452C13 4.32489 13 4.32526 13 4.32563C13 4.32601 13 4.32638 13 4.32675C13 4.32712 13 4.32749 13 4.32786C13 4.32823 13 4.32861 13 4.32898C13 4.32935 13 4.32972 13 4.33009C13 4.33046 13 4.33083 13 4.33121C13 4.33158 13 4.33195 13 4.33232C13 4.33269 13 4.33306 13 4.33344C13 4.33381 13 4.33418 13 4.33455C13 4.33492 13 4.33529 13 4.33567C13 4.33604 13 4.33641 13 4.33678C13 4.33715 13 4.33752 13 4.33789C13 4.33827 13 4.33864 13 4.33901C13 4.33938 13 4.33975 13 4.34012C13 4.3405 13 4.34087 13 4.34124C13 4.34161 13 4.34198 13 4.34236C13 4.34273 13 4.3431 13 4.34347C13 4.34384 13 4.34421 13 4.34459C13 4.34496 13 4.34533 13 4.3457C13 4.34607 13 4.34645 13 4.34682C13 4.34719 13 4.34756 13 4.34793C13 4.3483 13 4.34868 13 4.34905C13 4.34942 13 4.34979 13 4.35016C13 4.35054 13 4.35091 13 4.35128C13 4.35165 13 4.35202 13 4.3524C13 4.35277 13 4.35314 13 4.35351C13 4.35388 13 4.35426 13 4.35463C13 4.355 13 4.35537 13 4.35574C13 4.35612 13 4.35649 13 4.35686C13 4.35723 13 4.35761 13 4.35798C13 4.35835 13 4.35872 13 4.35909C13 4.35947 13 4.35984 13 4.36021C13 4.36058 13 4.36096 13 4.36133C13 4.3617 13 4.36207 13 4.36244C13 4.36282 13 4.36319 13 4.36356C13 4.36393 13 4.36431 13 4.36468C13 4.36505 13 4.36542 13 4.3658C13 4.36617 13 4.36654 13 4.36691C13 4.36729 13 4.36766 13 4.36803C13 4.3684 13 4.36878 13 4.36915C13 4.36952 13 4.36989 13 4.37027C13 4.37064 13 4.37101 13 4.37139C13 4.37176 13 4.37213 13 4.3725C13 4.37288 13 4.37325 13 4.37362C13 4.37399 13 4.37437 13 4.37474C13 4.37511 13 4.37549 13 4.37586C13 4.37623 13 4.3766 13 4.37698C13 4.37735 13 4.37772 13 4.3781C13 4.37847 13 4.37884 13 4.37922C13 4.37959 13 4.37996 13 4.38033C13 4.38071 13 4.38108 13 4.38145C13 4.38183 13 4.3822 13 4.38257C13 4.38295 13 4.38332 13 4.38369C13 4.38407 13 4.38444 13 4.38481C13 4.38519 13 4.38556 13 4.38593C13 4.3863 13 4.38668 13 4.38705C13 4.38742 13 4.3878 13 4.38817C13 4.38855 13 4.38892 13 4.38929C13 4.38967 13 4.39004 13 4.39041C13 4.39079 13 4.39116 13 4.39153C13 4.39191 13 4.39228 13 4.39265C13 4.39303 13 4.3934 13 4.39377C13 4.39415 13 4.39452 13 4.3949C13 4.39527 13 4.39564 13 4.39602C13 4.39639 13 4.39676 13 4.39714C13 4.39751 13 4.39789 13 4.39826C13 4.39863 13 4.39901 13 4.39938C13 4.39976 13 4.40013 13 4.4005C13 4.40088 13 4.40125 13 4.40163C13 4.402 13 4.40237 13 4.40275C13 4.40312 13 4.4035 13 4.40387C13 4.40424 13 4.40462 13 4.40499C13 4.40537 13 4.40574 13 4.40612C13 4.40649 13 4.40687 13 4.40724C13 4.40761 13 4.40799 13 4.40836C13 4.40874 13 4.40911 13 4.40949C13 4.40986 13 4.41024 13 4.41061C13 4.41098 13 4.41136 13 4.41173C13 4.41211 13 4.41248 13 4.41286C13 4.41323 13 4.41361 13 4.41398C13 4.41436 13 4.41473 13 4.41511C13 4.41548 13 4.41586 13 4.41623C13 4.41661 13 4.41698 13 4.41736C13 4.41773 13 4.41811 13 4.41848C13 4.41886 13 4.41923 13 4.41961C13 4.41998 13 4.42036 13 4.42073C13 4.42111 13 4.42148 13 4.42186C13 4.42223 13 4.42261 13 4.42298C13 4.42336 13 4.42373 13 4.42411C13 4.42448 13 4.42486 13 4.42523C13 4.42561 13 4.42599 13 4.42636C13 4.42674 13 4.42711 13 4.42749C13 4.42786 13 4.42824 13 4.42862C13 4.42899 13 4.42937 13 4.42974C13 4.43012 13 4.43049 13 4.43087C13 4.43125 13 4.43162 13 4.432C13 4.43237 13 4.43275 13 4.43313C13 4.4335 13 4.43388 13 4.43425C13 4.43463 13 4.43501 13 4.43538C13 4.43576 13 4.43613 13 4.43651C13 4.43689 13 4.43726 13 4.43764C13 4.43801 13 4.43839 13 4.43877C13 4.43914 13 4.43952 13 4.4399C13 4.44027 13 4.44065 13 4.44103C13 4.4414 13 4.44178 13 4.44216C13 4.44253 13 4.44291 13 4.44329C13 4.44366 13 4.44404 13 4.44442C13 4.44479 13 4.44517 13 4.44555C13 4.44592 13 4.4463 13 4.44668C13 4.44705 13 4.44743 13 4.44781C13 4.44818 13 4.44856 13 4.44894C13 4.44932 13 4.44969 13 4.45007C13 4.45045 13 4.45083 13 4.4512C13 4.45158 13 4.45196 13 4.45233C13 4.45271 13 4.45309 13 4.45347C13 4.45384 13 4.45422 13 4.4546C13 4.45498 13 4.45535 13 4.45573C13 4.45611 13 4.45649 13 4.45686C13 4.45724 13 4.45762 13 4.458C13 4.45838 13 4.45875 13 4.45913C13 4.45951 13 4.45989 13 4.46027C13 4.46064 13 4.46102 13 4.4614C13 4.46178 13 4.46216 13 4.46253C13 4.46291 13 4.46329 13 4.46367C13 4.46405 13 4.46443 13 4.4648C13 4.46518 13 4.46556 13 4.46594C13 4.46632 13 4.4667 13 4.46707C13 4.46745 13 4.46783 13 4.46821C13 4.46859 13 4.46897 13 4.46935C13 4.46972 13 4.4701 13 4.47048C13 4.47086 13 4.47124 13 4.47162C13 4.472 13 4.47238 13 4.47276C13 4.47313 13 4.47351 13 4.47389C13 4.47427 13 4.47465 13 4.47503C13 4.47541 13 4.47579 13 4.47617C13 4.47655 13 4.47693 13 4.47731C13 4.47769 13 4.47807 13 4.47844C13 4.47882 13 4.4792 13 4.47958C13 4.47996 13 4.48034 13 4.48072C13 4.4811 13 4.48148 13 4.48186C13 4.48224 13 4.48262 13 4.483C13 4.48338 13 4.48376 13 4.48414C13 4.48452 13 4.4849 13 4.48528C13 4.48566 13 4.48604 13 4.48642C13 4.4868 13 4.48718 13 4.48756C13 4.48794 13 4.48832 13 4.4887C13 4.48908 13 4.48946 13 4.48984C13 4.49023 13 4.49061 13 4.49099C13 4.49137 13 4.49175 13 4.49213C13 4.49251 13 4.49289 13 4.49327C13 4.49365 13 4.49403 13 4.49441C13 4.49479 13 4.49518 13 4.49556C13 4.49594 13 4.49632 13 4.4967C13 4.49708 13 4.49746 13 4.49784C13 4.49823 13 4.49861 13 4.49899C13 4.49937 13 4.49975 13 4.50013C13 4.50051 13 4.5009 13 4.50128C13 4.50166 13 4.50204 13 4.50242C13 4.5028 13 4.50319 13 4.50357C13 4.50395 13 4.50433 13 4.50471C13 4.5051 13 4.50548 13 4.50586C13 4.50624 13 4.50662 13 4.50701C13 4.50739 13 4.50777 13 4.50815C13 4.50853 13 4.50892 13 4.5093C13 4.50968 13 4.51006 13 4.51045C13 4.51083 13 4.51121 13 4.51159C13 4.51198 13 4.51236 13 4.51274C13 4.51313 13 4.51351 13 4.51389C13 4.51427 13 4.51466 13 4.51504C13 4.51542 13 4.51581 13 4.51619C13 4.51657 13 4.51696 13 4.51734C13 4.51772 13 4.51811 13 4.51849C13 4.51887 13 4.51926 13 4.51964C13 4.52002 13 4.52041 13 4.52079C13 4.52117 13 4.52156 13 4.52194C13 4.52233 13 4.52271 13 4.52309C13 4.52348 13 4.52386 13 4.52424C13 4.52463 13 4.52501 13 4.5254C13 4.52578 13 4.52616 13 4.52655C13 4.52693 13 4.52732 13 4.5277C13 4.52809 13 4.52847 13 4.52886C13 4.52924 13 4.52962 13 4.53001C13 4.53039 13 4.53078 13 4.53116C13 4.53155 13 4.53193 13 4.53232C13 4.5327 13 4.53309 13 4.53347C13 4.53386 13 4.53424 13 4.53463C13 4.53501 13 4.5354 13 4.53578C13 4.53617 13 4.53655 13 4.53694C13 4.53732 13 4.53771 13 4.53809C13 4.53848 13 4.53887 13 4.53925C13 4.53964 13 4.54002 13 4.54041C13 4.54079 13 4.54118 13 4.54157C13 4.54195 13 4.54234 13 4.54272C13 4.54311 13 4.5435 13 4.54388C13 4.54427 13 4.54466 13 4.54504C13 4.54543 13 4.54581 13 4.5462C13 4.54659 13 4.54697 13 4.54736C13 4.54775 13 4.54813 13 4.54852C13 4.54891 13 4.54929 13 4.54968C13 4.55007 13 4.55045 13 4.55084C13 4.55123 13 4.55162 13 4.552C13 4.55239 13 4.55278 13 4.55316C13 4.55355 13 4.55394 13 4.55433C13 4.55471 13 4.5551 13 4.55549C13 4.55588 13 4.55626 13 4.55665C13 4.55704 13 4.55743 13 4.55782C13 4.5582 13 4.55859 13 4.55898C13 4.55937 13 4.55975 13 4.56014C13 4.56053 13 4.56092 13 4.56131C13 4.5617 13 4.56208 13 4.56247C13 4.56286 13 4.56325 13 4.56364C13 4.56403 13 4.56441 13 4.5648C13 4.56519 13 4.56558 13 4.56597C13 4.56636 13 4.56675 13 4.56714C13 4.56753 13 4.56791 13 4.5683C13 4.56869 13 4.56908 13 4.56947C13 4.56986 13 4.57025 13 4.57064C13 4.57103 13 4.57142 13 4.57181C13 4.5722 13 4.57259 13 4.57298C13 4.57337 13 4.57376 13 4.57415C13 4.57454 13 4.57493 13 4.57532C13 4.57571 13 4.5761 13 4.57649C13 4.57688 13 4.57727 13 4.57766C13 4.57805 13 4.57844 13 4.57883C13 4.57922 13 4.57961 13 4.58H15ZM15 4C15 3.20435 15.3161 2.44129 15.8787 1.87868L14.4645 0.464466C13.5268 1.40215 13 2.67392 13 4H15ZM15.8787 1.87868C16.4413 1.31607 17.2044 1 18 1V-1C16.6739 -1 15.4021 -0.473216 14.4645 0.464466L15.8787 1.87868ZM18 1C18.7956 1 19.5587 1.31607 20.1213 1.87868L21.5355 0.464466C20.5979 -0.473216 19.3261 -1 18 -1V1ZM20.1213 1.87868C20.6839 2.44129 21 3.20435 21 4H23C23 2.67392 22.4732 1.40215 21.5355 0.464466L20.1213 1.87868ZM21 4C21 4.00039 21 4.00078 21 4.00117C21 4.00156 21 4.00195 21 4.00234C21 4.00273 21 4.00312 21 4.00351C21 4.0039 21 4.00429 21 4.00468C21 4.00507 21 4.00546 21 4.00585C21 4.00624 21 4.00663 21 4.00702C21 4.00741 21 4.0078 21 4.00819C21 4.00858 21 4.00897 21 4.00936C21 4.00975 21 4.01014 21 4.01053C21 4.01092 21 4.01131 21 4.0117C21 4.01209 21 4.01247 21 4.01286C21 4.01325 21 4.01364 21 4.01403C21 4.01442 21 4.01481 21 4.0152C21 4.01558 21 4.01597 21 4.01636C21 4.01675 21 4.01714 21 4.01753C21 4.01792 21 4.0183 21 4.01869C21 4.01908 21 4.01947 21 4.01986C21 4.02025 21 4.02063 21 4.02102C21 4.02141 21 4.0218 21 4.02218C21 4.02257 21 4.02296 21 4.02335C21 4.02374 21 4.02412 21 4.02451C21 4.0249 21 4.02529 21 4.02567C21 4.02606 21 4.02645 21 4.02684C21 4.02722 21 4.02761 21 4.028C21 4.02838 21 4.02877 21 4.02916C21 4.02955 21 4.02993 21 4.03032C21 4.03071 21 4.03109 21 4.03148C21 4.03187 21 4.03225 21 4.03264C21 4.03303 21 4.03341 21 4.0338C21 4.03419 21 4.03457 21 4.03496C21 4.03534 21 4.03573 21 4.03612C21 4.0365 21 4.03689 21 4.03728C21 4.03766 21 4.03805 21 4.03843C21 4.03882 21 4.03921 21 4.03959C21 4.03998 21 4.04036 21 4.04075C21 4.04113 21 4.04152 21 4.0419C21 4.04229 21 4.04268 21 4.04306C21 4.04345 21 4.04383 21 4.04422C21 4.0446 21 4.04499 21 4.04537C21 4.04576 21 4.04614 21 4.04653C21 4.04691 21 4.0473 21 4.04768C21 4.04807 21 4.04845 21 4.04884C21 4.04922 21 4.04961 21 4.04999C21 4.05038 21 4.05076 21 4.05114C21 4.05153 21 4.05191 21 4.0523C21 4.05268 21 4.05307 21 4.05345C21 4.05384 21 4.05422 21 4.0546C21 4.05499 21 4.05537 21 4.05576C21 4.05614 21 4.05652 21 4.05691C21 4.05729 21 4.05767 21 4.05806C21 4.05844 21 4.05883 21 4.05921C21 4.05959 21 4.05998 21 4.06036C21 4.06074 21 4.06113 21 4.06151C21 4.06189 21 4.06228 21 4.06266C21 4.06304 21 4.06343 21 4.06381C21 4.06419 21 4.06458 21 4.06496C21 4.06534 21 4.06573 21 4.06611C21 4.06649 21 4.06687 21 4.06726C21 4.06764 21 4.06802 21 4.06841C21 4.06879 21 4.06917 21 4.06955C21 4.06994 21 4.07032 21 4.0707C21 4.07108 21 4.07147 21 4.07185C21 4.07223 21 4.07261 21 4.07299C21 4.07338 21 4.07376 21 4.07414C21 4.07452 21 4.0749 21 4.07529C21 4.07567 21 4.07605 21 4.07643C21 4.07681 21 4.0772 21 4.07758C21 4.07796 21 4.07834 21 4.07872C21 4.0791 21 4.07949 21 4.07987C21 4.08025 21 4.08063 21 4.08101C21 4.08139 21 4.08177 21 4.08216C21 4.08254 21 4.08292 21 4.0833C21 4.08368 21 4.08406 21 4.08444C21 4.08482 21 4.08521 21 4.08559C21 4.08597 21 4.08635 21 4.08673C21 4.08711 21 4.08749 21 4.08787C21 4.08825 21 4.08863 21 4.08901C21 4.08939 21 4.08977 21 4.09016C21 4.09054 21 4.09092 21 4.0913C21 4.09168 21 4.09206 21 4.09244C21 4.09282 21 4.0932 21 4.09358C21 4.09396 21 4.09434 21 4.09472C21 4.0951 21 4.09548 21 4.09586C21 4.09624 21 4.09662 21 4.097C21 4.09738 21 4.09776 21 4.09814C21 4.09852 21 4.0989 21 4.09928C21 4.09966 21 4.10004 21 4.10042C21 4.1008 21 4.10118 21 4.10156C21 4.10193 21 4.10231 21 4.10269C21 4.10307 21 4.10345 21 4.10383C21 4.10421 21 4.10459 21 4.10497C21 4.10535 21 4.10573 21 4.10611C21 4.10649 21 4.10687 21 4.10724C21 4.10762 21 4.108 21 4.10838C21 4.10876 21 4.10914 21 4.10952C21 4.1099 21 4.11028 21 4.11065C21 4.11103 21 4.11141 21 4.11179C21 4.11217 21 4.11255 21 4.11293C21 4.1133 21 4.11368 21 4.11406C21 4.11444 21 4.11482 21 4.1152C21 4.11557 21 4.11595 21 4.11633C21 4.11671 21 4.11709 21 4.11747C21 4.11784 21 4.11822 21 4.1186C21 4.11898 21 4.11936 21 4.11973C21 4.12011 21 4.12049 21 4.12087C21 4.12125 21 4.12162 21 4.122C21 4.12238 21 4.12276 21 4.12314C21 4.12351 21 4.12389 21 4.12427C21 4.12465 21 4.12502 21 4.1254C21 4.12578 21 4.12616 21 4.12653C21 4.12691 21 4.12729 21 4.12767C21 4.12804 21 4.12842 21 4.1288C21 4.12917 21 4.12955 21 4.12993C21 4.13031 21 4.13068 21 4.13106C21 4.13144 21 4.13181 21 4.13219C21 4.13257 21 4.13295 21 4.13332C21 4.1337 21 4.13408 21 4.13445C21 4.13483 21 4.13521 21 4.13558C21 4.13596 21 4.13634 21 4.13671C21 4.13709 21 4.13747 21 4.13784C21 4.13822 21 4.1386 21 4.13897C21 4.13935 21 4.13973 21 4.1401C21 4.14048 21 4.14086 21 4.14123C21 4.14161 21 4.14198 21 4.14236C21 4.14274 21 4.14311 21 4.14349C21 4.14387 21 4.14424 21 4.14462C21 4.14499 21 4.14537 21 4.14575C21 4.14612 21 4.1465 21 4.14687C21 4.14725 21 4.14763 21 4.148C21 4.14838 21 4.14875 21 4.14913C21 4.14951 21 4.14988 21 4.15026C21 4.15063 21 4.15101 21 4.15138C21 4.15176 21 4.15214 21 4.15251C21 4.15289 21 4.15326 21 4.15364C21 4.15401 21 4.15439 21 4.15477C21 4.15514 21 4.15552 21 4.15589C21 4.15627 21 4.15664 21 4.15702C21 4.15739 21 4.15777 21 4.15814C21 4.15852 21 4.15889 21 4.15927C21 4.15964 21 4.16002 21 4.16039C21 4.16077 21 4.16114 21 4.16152C21 4.16189 21 4.16227 21 4.16264C21 4.16302 21 4.16339 21 4.16377C21 4.16414 21 4.16452 21 4.16489C21 4.16527 21 4.16564 21 4.16602C21 4.16639 21 4.16677 21 4.16714C21 4.16752 21 4.16789 21 4.16827C21 4.16864 21 4.16902 21 4.16939C21 4.16976 21 4.17014 21 4.17051C21 4.17089 21 4.17126 21 4.17164C21 4.17201 21 4.17239 21 4.17276C21 4.17313 21 4.17351 21 4.17388C21 4.17426 21 4.17463 21 4.17501C21 4.17538 21 4.17576 21 4.17613C21 4.1765 21 4.17688 21 4.17725C21 4.17763 21 4.178 21 4.17837C21 4.17875 21 4.17912 21 4.1795C21 4.17987 21 4.18024 21 4.18062C21 4.18099 21 4.18137 21 4.18174C21 4.18211 21 4.18249 21 4.18286C21 4.18324 21 4.18361 21 4.18398C21 4.18436 21 4.18473 21 4.1851C21 4.18548 21 4.18585 21 4.18622C21 4.1866 21 4.18697 21 4.18735C21 4.18772 21 4.18809 21 4.18847C21 4.18884 21 4.18921 21 4.18959C21 4.18996 21 4.19033 21 4.19071C21 4.19108 21 4.19145 21 4.19183C21 4.1922 21 4.19257 21 4.19295C21 4.19332 21 4.1937 21 4.19407C21 4.19444 21 4.19481 21 4.19519C21 4.19556 21 4.19593 21 4.19631C21 4.19668 21 4.19705 21 4.19743C21 4.1978 21 4.19817 21 4.19855C21 4.19892 21 4.19929 21 4.19967C21 4.20004 21 4.20041 21 4.20078C21 4.20116 21 4.20153 21 4.2019C21 4.20228 21 4.20265 21 4.20302C21 4.2034 21 4.20377 21 4.20414C21 4.20451 21 4.20489 21 4.20526C21 4.20563 21 4.20601 21 4.20638C21 4.20675 21 4.20712 21 4.2075C21 4.20787 21 4.20824 21 4.20861C21 4.20899 21 4.20936 21 4.20973C21 4.2101 21 4.21048 21 4.21085C21 4.21122 21 4.2116 21 4.21197C21 4.21234 21 4.21271 21 4.21309C21 4.21346 21 4.21383 21 4.2142C21 4.21458 21 4.21495 21 4.21532C21 4.21569 21 4.21607 21 4.21644C21 4.21681 21 4.21718 21 4.21756C21 4.21793 21 4.2183 21 4.21867C21 4.21904 21 4.21942 21 4.21979C21 4.22016 21 4.22053 21 4.22091C21 4.22128 21 4.22165 21 4.22202C21 4.22239 21 4.22277 21 4.22314C21 4.22351 21 4.22388 21 4.22426C21 4.22463 21 4.225 21 4.22537C21 4.22574 21 4.22612 21 4.22649C21 4.22686 21 4.22723 21 4.2276C21 4.22798 21 4.22835 21 4.22872C21 4.22909 21 4.22946 21 4.22984C21 4.23021 21 4.23058 21 4.23095C21 4.23132 21 4.2317 21 4.23207C21 4.23244 21 4.23281 21 4.23318C21 4.23355 21 4.23393 21 4.2343C21 4.23467 21 4.23504 21 4.23541C21 4.23579 21 4.23616 21 4.23653C21 4.2369 21 4.23727 21 4.23764C21 4.23802 21 4.23839 21 4.23876C21 4.23913 21 4.2395 21 4.23988C21 4.24025 21 4.24062 21 4.24099C21 4.24136 21 4.24173 21 4.24211C21 4.24248 21 4.24285 21 4.24322C21 4.24359 21 4.24396 21 4.24433C21 4.24471 21 4.24508 21 4.24545C21 4.24582 21 4.24619 21 4.24656C21 4.24694 21 4.24731 21 4.24768C21 4.24805 21 4.24842 21 4.24879C21 4.24917 21 4.24954 21 4.24991C21 4.25028 21 4.25065 21 4.25102C21 4.25139 21 4.25177 21 4.25214C21 4.25251 21 4.25288 21 4.25325C21 4.25362 21 4.25399 21 4.25436C21 4.25474 21 4.25511 21 4.25548C21 4.25585 21 4.25622 21 4.25659C21 4.25696 21 4.25734 21 4.25771C21 4.25808 21 4.25845 21 4.25882C21 4.25919 21 4.25956 21 4.25994C21 4.26031 21 4.26068 21 4.26105C21 4.26142 21 4.26179 21 4.26216C21 4.26253 21 4.26291 21 4.26328C21 4.26365 21 4.26402 21 4.26439C21 4.26476 21 4.26513 21 4.2655C21 4.26588 21 4.26625 21 4.26662C21 4.26699 21 4.26736 21 4.26773C21 4.2681 21 4.26847 21 4.26885C21 4.26922 21 4.26959 21 4.26996C21 4.27033 21 4.2707 21 4.27107C21 4.27144 21 4.27182 21 4.27219C21 4.27256 21 4.27293 21 4.2733C21 4.27367 21 4.27404 21 4.27441C21 4.27478 21 4.27516 21 4.27553C21 4.2759 21 4.27627 21 4.27664C21 4.27701 21 4.27738 21 4.27775C21 4.27812 21 4.2785 21 4.27887C21 4.27924 21 4.27961 21 4.27998C21 4.28035 21 4.28072 21 4.28109C21 4.28146 21 4.28184 21 4.28221C21 4.28258 21 4.28295 21 4.28332C21 4.28369 21 4.28406 21 4.28443C21 4.2848 21 4.28518 21 4.28555C21 4.28592 21 4.28629 21 4.28666C21 4.28703 21 4.2874 21 4.28777C21 4.28814 21 4.28852 21 4.28889C21 4.28926 21 4.28963 21 4.29C21 4.29037 21 4.29074 21 4.29111C21 4.29148 21 4.29186 21 4.29223C21 4.2926 21 4.29297 21 4.29334C21 4.29371 21 4.29408 21 4.29445C21 4.29482 21 4.2952 21 4.29557C21 4.29594 21 4.29631 21 4.29668C21 4.29705 21 4.29742 21 4.29779C21 4.29816 21 4.29854 21 4.29891C21 4.29928 21 4.29965 21 4.30002C21 4.30039 21 4.30076 21 4.30113C21 4.3015 21 4.30188 21 4.30225C21 4.30262 21 4.30299 21 4.30336C21 4.30373 21 4.3041 21 4.30447C21 4.30484 21 4.30522 21 4.30559C21 4.30596 21 4.30633 21 4.3067C21 4.30707 21 4.30744 21 4.30781C21 4.30818 21 4.30856 21 4.30893C21 4.3093 21 4.30967 21 4.31004C21 4.31041 21 4.31078 21 4.31115C21 4.31153 21 4.3119 21 4.31227C21 4.31264 21 4.31301 21 4.31338C21 4.31375 21 4.31412 21 4.3145C21 4.31487 21 4.31524 21 4.31561C21 4.31598 21 4.31635 21 4.31672C21 4.31709 21 4.31747 21 4.31784C21 4.31821 21 4.31858 21 4.31895C21 4.31932 21 4.31969 21 4.32006C21 4.32044 21 4.32081 21 4.32118C21 4.32155 21 4.32192 21 4.32229C21 4.32266 21 4.32304 21 4.32341C21 4.32378 21 4.32415 21 4.32452C21 4.32489 21 4.32526 21 4.32563C21 4.32601 21 4.32638 21 4.32675C21 4.32712 21 4.32749 21 4.32786C21 4.32823 21 4.32861 21 4.32898C21 4.32935 21 4.32972 21 4.33009C21 4.33046 21 4.33083 21 4.33121C21 4.33158 21 4.33195 21 4.33232C21 4.33269 21 4.33306 21 4.33344C21 4.33381 21 4.33418 21 4.33455C21 4.33492 21 4.33529 21 4.33567C21 4.33604 21 4.33641 21 4.33678C21 4.33715 21 4.33752 21 4.33789C21 4.33827 21 4.33864 21 4.33901C21 4.33938 21 4.33975 21 4.34012C21 4.3405 21 4.34087 21 4.34124C21 4.34161 21 4.34198 21 4.34236C21 4.34273 21 4.3431 21 4.34347C21 4.34384 21 4.34421 21 4.34459C21 4.34496 21 4.34533 21 4.3457C21 4.34607 21 4.34645 21 4.34682C21 4.34719 21 4.34756 21 4.34793C21 4.3483 21 4.34868 21 4.34905C21 4.34942 21 4.34979 21 4.35016C21 4.35054 21 4.35091 21 4.35128C21 4.35165 21 4.35202 21 4.3524C21 4.35277 21 4.35314 21 4.35351C21 4.35388 21 4.35426 21 4.35463C21 4.355 21 4.35537 21 4.35574C21 4.35612 21 4.35649 21 4.35686C21 4.35723 21 4.35761 21 4.35798C21 4.35835 21 4.35872 21 4.35909C21 4.35947 21 4.35984 21 4.36021C21 4.36058 21 4.36096 21 4.36133C21 4.3617 21 4.36207 21 4.36244C21 4.36282 21 4.36319 21 4.36356C21 4.36393 21 4.36431 21 4.36468C21 4.36505 21 4.36542 21 4.3658C21 4.36617 21 4.36654 21 4.36691C21 4.36729 21 4.36766 21 4.36803C21 4.3684 21 4.36878 21 4.36915C21 4.36952 21 4.36989 21 4.37027C21 4.37064 21 4.37101 21 4.37139C21 4.37176 21 4.37213 21 4.3725C21 4.37288 21 4.37325 21 4.37362C21 4.37399 21 4.37437 21 4.37474C21 4.37511 21 4.37549 21 4.37586C21 4.37623 21 4.3766 21 4.37698C21 4.37735 21 4.37772 21 4.3781C21 4.37847 21 4.37884 21 4.37922C21 4.37959 21 4.37996 21 4.38033C21 4.38071 21 4.38108 21 4.38145C21 4.38183 21 4.3822 21 4.38257C21 4.38295 21 4.38332 21 4.38369C21 4.38407 21 4.38444 21 4.38481C21 4.38519 21 4.38556 21 4.38593C21 4.3863 21 4.38668 21 4.38705C21 4.38742 21 4.3878 21 4.38817C21 4.38855 21 4.38892 21 4.38929C21 4.38967 21 4.39004 21 4.39041C21 4.39079 21 4.39116 21 4.39153C21 4.39191 21 4.39228 21 4.39265C21 4.39303 21 4.3934 21 4.39377C21 4.39415 21 4.39452 21 4.3949C21 4.39527 21 4.39564 21 4.39602C21 4.39639 21 4.39676 21 4.39714C21 4.39751 21 4.39789 21 4.39826C21 4.39863 21 4.39901 21 4.39938C21 4.39976 21 4.40013 21 4.4005C21 4.40088 21 4.40125 21 4.40163C21 4.402 21 4.40237 21 4.40275C21 4.40312 21 4.4035 21 4.40387C21 4.40424 21 4.40462 21 4.40499C21 4.40537 21 4.40574 21 4.40612C21 4.40649 21 4.40687 21 4.40724C21 4.40761 21 4.40799 21 4.40836C21 4.40874 21 4.40911 21 4.40949C21 4.40986 21 4.41024 21 4.41061C21 4.41098 21 4.41136 21 4.41173C21 4.41211 21 4.41248 21 4.41286C21 4.41323 21 4.41361 21 4.41398C21 4.41436 21 4.41473 21 4.41511C21 4.41548 21 4.41586 21 4.41623C21 4.41661 21 4.41698 21 4.41736C21 4.41773 21 4.41811 21 4.41848C21 4.41886 21 4.41923 21 4.41961C21 4.41998 21 4.42036 21 4.42073C21 4.42111 21 4.42148 21 4.42186C21 4.42223 21 4.42261 21 4.42298C21 4.42336 21 4.42373 21 4.42411C21 4.42448 21 4.42486 21 4.42523C21 4.42561 21 4.42599 21 4.42636C21 4.42674 21 4.42711 21 4.42749C21 4.42786 21 4.42824 21 4.42862C21 4.42899 21 4.42937 21 4.42974C21 4.43012 21 4.43049 21 4.43087C21 4.43125 21 4.43162 21 4.432C21 4.43237 21 4.43275 21 4.43313C21 4.4335 21 4.43388 21 4.43425C21 4.43463 21 4.43501 21 4.43538C21 4.43576 21 4.43613 21 4.43651C21 4.43689 21 4.43726 21 4.43764C21 4.43801 21 4.43839 21 4.43877C21 4.43914 21 4.43952 21 4.4399C21 4.44027 21 4.44065 21 4.44103C21 4.4414 21 4.44178 21 4.44216C21 4.44253 21 4.44291 21 4.44329C21 4.44366 21 4.44404 21 4.44442C21 4.44479 21 4.44517 21 4.44555C21 4.44592 21 4.4463 21 4.44668C21 4.44705 21 4.44743 21 4.44781C21 4.44818 21 4.44856 21 4.44894C21 4.44932 21 4.44969 21 4.45007C21 4.45045 21 4.45083 21 4.4512C21 4.45158 21 4.45196 21 4.45233C21 4.45271 21 4.45309 21 4.45347C21 4.45384 21 4.45422 21 4.4546C21 4.45498 21 4.45535 21 4.45573C21 4.45611 21 4.45649 21 4.45686C21 4.45724 21 4.45762 21 4.458C21 4.45838 21 4.45875 21 4.45913C21 4.45951 21 4.45989 21 4.46027C21 4.46064 21 4.46102 21 4.4614C21 4.46178 21 4.46216 21 4.46253C21 4.46291 21 4.46329 21 4.46367C21 4.46405 21 4.46443 21 4.4648C21 4.46518 21 4.46556 21 4.46594C21 4.46632 21 4.4667 21 4.46707C21 4.46745 21 4.46783 21 4.46821C21 4.46859 21 4.46897 21 4.46935C21 4.46972 21 4.4701 21 4.47048C21 4.47086 21 4.47124 21 4.47162C21 4.472 21 4.47238 21 4.47276C21 4.47313 21 4.47351 21 4.47389C21 4.47427 21 4.47465 21 4.47503C21 4.47541 21 4.47579 21 4.47617C21 4.47655 21 4.47693 21 4.47731C21 4.47769 21 4.47807 21 4.47844C21 4.47882 21 4.4792 21 4.47958C21 4.47996 21 4.48034 21 4.48072C21 4.4811 21 4.48148 21 4.48186C21 4.48224 21 4.48262 21 4.483C21 4.48338 21 4.48376 21 4.48414C21 4.48452 21 4.4849 21 4.48528C21 4.48566 21 4.48604 21 4.48642C21 4.4868 21 4.48718 21 4.48756C21 4.48794 21 4.48832 21 4.4887C21 4.48908 21 4.48946 21 4.48984C21 4.49023 21 4.49061 21 4.49099C21 4.49137 21 4.49175 21 4.49213C21 4.49251 21 4.49289 21 4.49327C21 4.49365 21 4.49403 21 4.49441C21 4.49479 21 4.49518 21 4.49556C21 4.49594 21 4.49632 21 4.4967C21 4.49708 21 4.49746 21 4.49784C21 4.49823 21 4.49861 21 4.49899C21 4.49937 21 4.49975 21 4.50013C21 4.50051 21 4.5009 21 4.50128C21 4.50166 21 4.50204 21 4.50242C21 4.5028 21 4.50319 21 4.50357C21 4.50395 21 4.50433 21 4.50471C21 4.5051 21 4.50548 21 4.50586C21 4.50624 21 4.50662 21 4.50701C21 4.50739 21 4.50777 21 4.50815C21 4.50853 21 4.50892 21 4.5093C21 4.50968 21 4.51006 21 4.51045C21 4.51083 21 4.51121 21 4.51159C21 4.51198 21 4.51236 21 4.51274C21 4.51313 21 4.51351 21 4.51389C21 4.51427 21 4.51466 21 4.51504C21 4.51542 21 4.51581 21 4.51619C21 4.51657 21 4.51696 21 4.51734C21 4.51772 21 4.51811 21 4.51849C21 4.51887 21 4.51926 21 4.51964C21 4.52002 21 4.52041 21 4.52079C21 4.52117 21 4.52156 21 4.52194C21 4.52233 21 4.52271 21 4.52309C21 4.52348 21 4.52386 21 4.52424C21 4.52463 21 4.52501 21 4.5254C21 4.52578 21 4.52616 21 4.52655C21 4.52693 21 4.52732 21 4.5277C21 4.52809 21 4.52847 21 4.52886C21 4.52924 21 4.52962 21 4.53001C21 4.53039 21 4.53078 21 4.53116C21 4.53155 21 4.53193 21 4.53232C21 4.5327 21 4.53309 21 4.53347C21 4.53386 21 4.53424 21 4.53463C21 4.53501 21 4.5354 21 4.53578C21 4.53617 21 4.53655 21 4.53694C21 4.53732 21 4.53771 21 4.53809C21 4.53848 21 4.53887 21 4.53925C21 4.53964 21 4.54002 21 4.54041C21 4.54079 21 4.54118 21 4.54157C21 4.54195 21 4.54234 21 4.54272C21 4.54311 21 4.5435 21 4.54388C21 4.54427 21 4.54466 21 4.54504C21 4.54543 21 4.54581 21 4.5462C21 4.54659 21 4.54697 21 4.54736C21 4.54775 21 4.54813 21 4.54852C21 4.54891 21 4.54929 21 4.54968C21 4.55007 21 4.55045 21 4.55084C21 4.55123 21 4.55162 21 4.552C21 4.55239 21 4.55278 21 4.55316C21 4.55355 21 4.55394 21 4.55433C21 4.55471 21 4.5551 21 4.55549C21 4.55588 21 4.55626 21 4.55665C21 4.55704 21 4.55743 21 4.55782C21 4.5582 21 4.55859 21 4.55898C21 4.55937 21 4.55975 21 4.56014C21 4.56053 21 4.56092 21 4.56131C21 4.5617 21 4.56208 21 4.56247C21 4.56286 21 4.56325 21 4.56364C21 4.56403 21 4.56441 21 4.5648C21 4.56519 21 4.56558 21 4.56597C21 4.56636 21 4.56675 21 4.56714C21 4.56753 21 4.56791 21 4.5683C21 4.56869 21 4.56908 21 4.56947C21 4.56986 21 4.57025 21 4.57064C21 4.57103 21 4.57142 21 4.57181C21 4.5722 21 4.57259 21 4.57298C21 4.57337 21 4.57376 21 4.57415C21 4.57454 21 4.57493 21 4.57532C21 4.57571 21 4.5761 21 4.57649C21 4.57688 21 4.57727 21 4.57766C21 4.57805 21 4.57844 21 4.57883C21 4.57922 21 4.57961 21 4.58H23C23 4.57961 23 4.57922 23 4.57883C23 4.57844 23 4.57805 23 4.57766C23 4.57727 23 4.57688 23 4.57649C23 4.5761 23 4.57571 23 4.57532C23 4.57493 23 4.57454 23 4.57415C23 4.57376 23 4.57337 23 4.57298C23 4.57259 23 4.5722 23 4.57181C23 4.57142 23 4.57103 23 4.57064C23 4.57025 23 4.56986 23 4.56947C23 4.56908 23 4.56869 23 4.5683C23 4.56791 23 4.56753 23 4.56714C23 4.56675 23 4.56636 23 4.56597C23 4.56558 23 4.56519 23 4.5648C23 4.56441 23 4.56403 23 4.56364C23 4.56325 23 4.56286 23 4.56247C23 4.56208 23 4.5617 23 4.56131C23 4.56092 23 4.56053 23 4.56014C23 4.55975 23 4.55937 23 4.55898C23 4.55859 23 4.5582 23 4.55782C23 4.55743 23 4.55704 23 4.55665C23 4.55626 23 4.55588 23 4.55549C23 4.5551 23 4.55471 23 4.55433C23 4.55394 23 4.55355 23 4.55316C23 4.55278 23 4.55239 23 4.552C23 4.55162 23 4.55123 23 4.55084C23 4.55045 23 4.55007 23 4.54968C23 4.54929 23 4.54891 23 4.54852C23 4.54813 23 4.54775 23 4.54736C23 4.54697 23 4.54659 23 4.5462C23 4.54581 23 4.54543 23 4.54504C23 4.54466 23 4.54427 23 4.54388C23 4.5435 23 4.54311 23 4.54272C23 4.54234 23 4.54195 23 4.54157C23 4.54118 23 4.54079 23 4.54041C23 4.54002 23 4.53964 23 4.53925C23 4.53887 23 4.53848 23 4.53809C23 4.53771 23 4.53732 23 4.53694C23 4.53655 23 4.53617 23 4.53578C23 4.5354 23 4.53501 23 4.53463C23 4.53424 23 4.53386 23 4.53347C23 4.53309 23 4.5327 23 4.53232C23 4.53193 23 4.53155 23 4.53116C23 4.53078 23 4.53039 23 4.53001C23 4.52962 23 4.52924 23 4.52886C23 4.52847 23 4.52809 23 4.5277C23 4.52732 23 4.52693 23 4.52655C23 4.52616 23 4.52578 23 4.5254C23 4.52501 23 4.52463 23 4.52424C23 4.52386 23 4.52348 23 4.52309C23 4.52271 23 4.52233 23 4.52194C23 4.52156 23 4.52117 23 4.52079C23 4.52041 23 4.52002 23 4.51964C23 4.51926 23 4.51887 23 4.51849C23 4.51811 23 4.51772 23 4.51734C23 4.51696 23 4.51657 23 4.51619C23 4.51581 23 4.51542 23 4.51504C23 4.51466 23 4.51427 23 4.51389C23 4.51351 23 4.51313 23 4.51274C23 4.51236 23 4.51198 23 4.51159C23 4.51121 23 4.51083 23 4.51045C23 4.51006 23 4.50968 23 4.5093C23 4.50892 23 4.50853 23 4.50815C23 4.50777 23 4.50739 23 4.50701C23 4.50662 23 4.50624 23 4.50586C23 4.50548 23 4.5051 23 4.50471C23 4.50433 23 4.50395 23 4.50357C23 4.50319 23 4.5028 23 4.50242C23 4.50204 23 4.50166 23 4.50128C23 4.5009 23 4.50051 23 4.50013C23 4.49975 23 4.49937 23 4.49899C23 4.49861 23 4.49823 23 4.49784C23 4.49746 23 4.49708 23 4.4967C23 4.49632 23 4.49594 23 4.49556C23 4.49518 23 4.49479 23 4.49441C23 4.49403 23 4.49365 23 4.49327C23 4.49289 23 4.49251 23 4.49213C23 4.49175 23 4.49137 23 4.49099C23 4.49061 23 4.49023 23 4.48984C23 4.48946 23 4.48908 23 4.4887C23 4.48832 23 4.48794 23 4.48756C23 4.48718 23 4.4868 23 4.48642C23 4.48604 23 4.48566 23 4.48528C23 4.4849 23 4.48452 23 4.48414C23 4.48376 23 4.48338 23 4.483C23 4.48262 23 4.48224 23 4.48186C23 4.48148 23 4.4811 23 4.48072C23 4.48034 23 4.47996 23 4.47958C23 4.4792 23 4.47882 23 4.47844C23 4.47807 23 4.47769 23 4.47731C23 4.47693 23 4.47655 23 4.47617C23 4.47579 23 4.47541 23 4.47503C23 4.47465 23 4.47427 23 4.47389C23 4.47351 23 4.47313 23 4.47276C23 4.47238 23 4.472 23 4.47162C23 4.47124 23 4.47086 23 4.47048C23 4.4701 23 4.46972 23 4.46935C23 4.46897 23 4.46859 23 4.46821C23 4.46783 23 4.46745 23 4.46707C23 4.4667 23 4.46632 23 4.46594C23 4.46556 23 4.46518 23 4.4648C23 4.46443 23 4.46405 23 4.46367C23 4.46329 23 4.46291 23 4.46253C23 4.46216 23 4.46178 23 4.4614C23 4.46102 23 4.46064 23 4.46027C23 4.45989 23 4.45951 23 4.45913C23 4.45875 23 4.45838 23 4.458C23 4.45762 23 4.45724 23 4.45686C23 4.45649 23 4.45611 23 4.45573C23 4.45535 23 4.45498 23 4.4546C23 4.45422 23 4.45384 23 4.45347C23 4.45309 23 4.45271 23 4.45233C23 4.45196 23 4.45158 23 4.4512C23 4.45083 23 4.45045 23 4.45007C23 4.44969 23 4.44932 23 4.44894C23 4.44856 23 4.44818 23 4.44781C23 4.44743 23 4.44705 23 4.44668C23 4.4463 23 4.44592 23 4.44555C23 4.44517 23 4.44479 23 4.44442C23 4.44404 23 4.44366 23 4.44329C23 4.44291 23 4.44253 23 4.44216C23 4.44178 23 4.4414 23 4.44103C23 4.44065 23 4.44027 23 4.4399C23 4.43952 23 4.43914 23 4.43877C23 4.43839 23 4.43801 23 4.43764C23 4.43726 23 4.43689 23 4.43651C23 4.43613 23 4.43576 23 4.43538C23 4.43501 23 4.43463 23 4.43425C23 4.43388 23 4.4335 23 4.43313C23 4.43275 23 4.43237 23 4.432C23 4.43162 23 4.43125 23 4.43087C23 4.43049 23 4.43012 23 4.42974C23 4.42937 23 4.42899 23 4.42862C23 4.42824 23 4.42786 23 4.42749C23 4.42711 23 4.42674 23 4.42636C23 4.42599 23 4.42561 23 4.42523C23 4.42486 23 4.42448 23 4.42411C23 4.42373 23 4.42336 23 4.42298C23 4.42261 23 4.42223 23 4.42186C23 4.42148 23 4.42111 23 4.42073C23 4.42036 23 4.41998 23 4.41961C23 4.41923 23 4.41886 23 4.41848C23 4.41811 23 4.41773 23 4.41736C23 4.41698 23 4.41661 23 4.41623C23 4.41586 23 4.41548 23 4.41511C23 4.41473 23 4.41436 23 4.41398C23 4.41361 23 4.41323 23 4.41286C23 4.41248 23 4.41211 23 4.41173C23 4.41136 23 4.41098 23 4.41061C23 4.41024 23 4.40986 23 4.40949C23 4.40911 23 4.40874 23 4.40836C23 4.40799 23 4.40761 23 4.40724C23 4.40687 23 4.40649 23 4.40612C23 4.40574 23 4.40537 23 4.40499C23 4.40462 23 4.40424 23 4.40387C23 4.4035 23 4.40312 23 4.40275C23 4.40237 23 4.402 23 4.40163C23 4.40125 23 4.40088 23 4.4005C23 4.40013 23 4.39976 23 4.39938C23 4.39901 23 4.39863 23 4.39826C23 4.39789 23 4.39751 23 4.39714C23 4.39676 23 4.39639 23 4.39602C23 4.39564 23 4.39527 23 4.3949C23 4.39452 23 4.39415 23 4.39377C23 4.3934 23 4.39303 23 4.39265C23 4.39228 23 4.39191 23 4.39153C23 4.39116 23 4.39079 23 4.39041C23 4.39004 23 4.38967 23 4.38929C23 4.38892 23 4.38855 23 4.38817C23 4.3878 23 4.38742 23 4.38705C23 4.38668 23 4.3863 23 4.38593C23 4.38556 23 4.38519 23 4.38481C23 4.38444 23 4.38407 23 4.38369C23 4.38332 23 4.38295 23 4.38257C23 4.3822 23 4.38183 23 4.38145C23 4.38108 23 4.38071 23 4.38033C23 4.37996 23 4.37959 23 4.37922C23 4.37884 23 4.37847 23 4.3781C23 4.37772 23 4.37735 23 4.37698C23 4.3766 23 4.37623 23 4.37586C23 4.37549 23 4.37511 23 4.37474C23 4.37437 23 4.37399 23 4.37362C23 4.37325 23 4.37288 23 4.3725C23 4.37213 23 4.37176 23 4.37139C23 4.37101 23 4.37064 23 4.37027C23 4.36989 23 4.36952 23 4.36915C23 4.36878 23 4.3684 23 4.36803C23 4.36766 23 4.36729 23 4.36691C23 4.36654 23 4.36617 23 4.3658C23 4.36542 23 4.36505 23 4.36468C23 4.36431 23 4.36393 23 4.36356C23 4.36319 23 4.36282 23 4.36244C23 4.36207 23 4.3617 23 4.36133C23 4.36096 23 4.36058 23 4.36021C23 4.35984 23 4.35947 23 4.35909C23 4.35872 23 4.35835 23 4.35798C23 4.35761 23 4.35723 23 4.35686C23 4.35649 23 4.35612 23 4.35574C23 4.35537 23 4.355 23 4.35463C23 4.35426 23 4.35388 23 4.35351C23 4.35314 23 4.35277 23 4.3524C23 4.35202 23 4.35165 23 4.35128C23 4.35091 23 4.35054 23 4.35016C23 4.34979 23 4.34942 23 4.34905C23 4.34868 23 4.3483 23 4.34793C23 4.34756 23 4.34719 23 4.34682C23 4.34645 23 4.34607 23 4.3457C23 4.34533 23 4.34496 23 4.34459C23 4.34421 23 4.34384 23 4.34347C23 4.3431 23 4.34273 23 4.34236C23 4.34198 23 4.34161 23 4.34124C23 4.34087 23 4.3405 23 4.34012C23 4.33975 23 4.33938 23 4.33901C23 4.33864 23 4.33827 23 4.33789C23 4.33752 23 4.33715 23 4.33678C23 4.33641 23 4.33604 23 4.33567C23 4.33529 23 4.33492 23 4.33455C23 4.33418 23 4.33381 23 4.33344C23 4.33306 23 4.33269 23 4.33232C23 4.33195 23 4.33158 23 4.33121C23 4.33083 23 4.33046 23 4.33009C23 4.32972 23 4.32935 23 4.32898C23 4.32861 23 4.32823 23 4.32786C23 4.32749 23 4.32712 23 4.32675C23 4.32638 23 4.32601 23 4.32563C23 4.32526 23 4.32489 23 4.32452C23 4.32415 23 4.32378 23 4.32341C23 4.32304 23 4.32266 23 4.32229C23 4.32192 23 4.32155 23 4.32118C23 4.32081 23 4.32044 23 4.32006C23 4.31969 23 4.31932 23 4.31895C23 4.31858 23 4.31821 23 4.31784C23 4.31747 23 4.31709 23 4.31672C23 4.31635 23 4.31598 23 4.31561C23 4.31524 23 4.31487 23 4.3145C23 4.31412 23 4.31375 23 4.31338C23 4.31301 23 4.31264 23 4.31227C23 4.3119 23 4.31153 23 4.31115C23 4.31078 23 4.31041 23 4.31004C23 4.30967 23 4.3093 23 4.30893C23 4.30856 23 4.30818 23 4.30781C23 4.30744 23 4.30707 23 4.3067C23 4.30633 23 4.30596 23 4.30559C23 4.30522 23 4.30484 23 4.30447C23 4.3041 23 4.30373 23 4.30336C23 4.30299 23 4.30262 23 4.30225C23 4.30188 23 4.3015 23 4.30113C23 4.30076 23 4.30039 23 4.30002C23 4.29965 23 4.29928 23 4.29891C23 4.29854 23 4.29816 23 4.29779C23 4.29742 23 4.29705 23 4.29668C23 4.29631 23 4.29594 23 4.29557C23 4.2952 23 4.29482 23 4.29445C23 4.29408 23 4.29371 23 4.29334C23 4.29297 23 4.2926 23 4.29223C23 4.29186 23 4.29148 23 4.29111C23 4.29074 23 4.29037 23 4.29C23 4.28963 23 4.28926 23 4.28889C23 4.28852 23 4.28814 23 4.28777C23 4.2874 23 4.28703 23 4.28666C23 4.28629 23 4.28592 23 4.28555C23 4.28518 23 4.2848 23 4.28443C23 4.28406 23 4.28369 23 4.28332C23 4.28295 23 4.28258 23 4.28221C23 4.28184 23 4.28146 23 4.28109C23 4.28072 23 4.28035 23 4.27998C23 4.27961 23 4.27924 23 4.27887C23 4.2785 23 4.27812 23 4.27775C23 4.27738 23 4.27701 23 4.27664C23 4.27627 23 4.2759 23 4.27553C23 4.27516 23 4.27478 23 4.27441C23 4.27404 23 4.27367 23 4.2733C23 4.27293 23 4.27256 23 4.27219C23 4.27182 23 4.27144 23 4.27107C23 4.2707 23 4.27033 23 4.26996C23 4.26959 23 4.26922 23 4.26885C23 4.26847 23 4.2681 23 4.26773C23 4.26736 23 4.26699 23 4.26662C23 4.26625 23 4.26588 23 4.2655C23 4.26513 23 4.26476 23 4.26439C23 4.26402 23 4.26365 23 4.26328C23 4.26291 23 4.26253 23 4.26216C23 4.26179 23 4.26142 23 4.26105C23 4.26068 23 4.26031 23 4.25994C23 4.25956 23 4.25919 23 4.25882C23 4.25845 23 4.25808 23 4.25771C23 4.25734 23 4.25696 23 4.25659C23 4.25622 23 4.25585 23 4.25548C23 4.25511 23 4.25474 23 4.25436C23 4.25399 23 4.25362 23 4.25325C23 4.25288 23 4.25251 23 4.25214C23 4.25177 23 4.25139 23 4.25102C23 4.25065 23 4.25028 23 4.24991C23 4.24954 23 4.24917 23 4.24879C23 4.24842 23 4.24805 23 4.24768C23 4.24731 23 4.24694 23 4.24656C23 4.24619 23 4.24582 23 4.24545C23 4.24508 23 4.24471 23 4.24433C23 4.24396 23 4.24359 23 4.24322C23 4.24285 23 4.24248 23 4.24211C23 4.24173 23 4.24136 23 4.24099C23 4.24062 23 4.24025 23 4.23988C23 4.2395 23 4.23913 23 4.23876C23 4.23839 23 4.23802 23 4.23764C23 4.23727 23 4.2369 23 4.23653C23 4.23616 23 4.23579 23 4.23541C23 4.23504 23 4.23467 23 4.2343C23 4.23393 23 4.23355 23 4.23318C23 4.23281 23 4.23244 23 4.23207C23 4.2317 23 4.23132 23 4.23095C23 4.23058 23 4.23021 23 4.22984C23 4.22946 23 4.22909 23 4.22872C23 4.22835 23 4.22798 23 4.2276C23 4.22723 23 4.22686 23 4.22649C23 4.22612 23 4.22574 23 4.22537C23 4.225 23 4.22463 23 4.22426C23 4.22388 23 4.22351 23 4.22314C23 4.22277 23 4.22239 23 4.22202C23 4.22165 23 4.22128 23 4.22091C23 4.22053 23 4.22016 23 4.21979C23 4.21942 23 4.21904 23 4.21867C23 4.2183 23 4.21793 23 4.21756C23 4.21718 23 4.21681 23 4.21644C23 4.21607 23 4.21569 23 4.21532C23 4.21495 23 4.21458 23 4.2142C23 4.21383 23 4.21346 23 4.21309C23 4.21271 23 4.21234 23 4.21197C23 4.2116 23 4.21122 23 4.21085C23 4.21048 23 4.2101 23 4.20973C23 4.20936 23 4.20899 23 4.20861C23 4.20824 23 4.20787 23 4.2075C23 4.20712 23 4.20675 23 4.20638C23 4.20601 23 4.20563 23 4.20526C23 4.20489 23 4.20451 23 4.20414C23 4.20377 23 4.2034 23 4.20302C23 4.20265 23 4.20228 23 4.2019C23 4.20153 23 4.20116 23 4.20078C23 4.20041 23 4.20004 23 4.19967C23 4.19929 23 4.19892 23 4.19855C23 4.19817 23 4.1978 23 4.19743C23 4.19705 23 4.19668 23 4.19631C23 4.19593 23 4.19556 23 4.19519C23 4.19481 23 4.19444 23 4.19407C23 4.1937 23 4.19332 23 4.19295C23 4.19257 23 4.1922 23 4.19183C23 4.19145 23 4.19108 23 4.19071C23 4.19033 23 4.18996 23 4.18959C23 4.18921 23 4.18884 23 4.18847C23 4.18809 23 4.18772 23 4.18735C23 4.18697 23 4.1866 23 4.18622C23 4.18585 23 4.18548 23 4.1851C23 4.18473 23 4.18436 23 4.18398C23 4.18361 23 4.18324 23 4.18286C23 4.18249 23 4.18211 23 4.18174C23 4.18137 23 4.18099 23 4.18062C23 4.18024 23 4.17987 23 4.1795C23 4.17912 23 4.17875 23 4.17837C23 4.178 23 4.17763 23 4.17725C23 4.17688 23 4.1765 23 4.17613C23 4.17576 23 4.17538 23 4.17501C23 4.17463 23 4.17426 23 4.17388C23 4.17351 23 4.17313 23 4.17276C23 4.17239 23 4.17201 23 4.17164C23 4.17126 23 4.17089 23 4.17051C23 4.17014 23 4.16976 23 4.16939C23 4.16902 23 4.16864 23 4.16827C23 4.16789 23 4.16752 23 4.16714C23 4.16677 23 4.16639 23 4.16602C23 4.16564 23 4.16527 23 4.16489C23 4.16452 23 4.16414 23 4.16377C23 4.16339 23 4.16302 23 4.16264C23 4.16227 23 4.16189 23 4.16152C23 4.16114 23 4.16077 23 4.16039C23 4.16002 23 4.15964 23 4.15927C23 4.15889 23 4.15852 23 4.15814C23 4.15777 23 4.15739 23 4.15702C23 4.15664 23 4.15627 23 4.15589C23 4.15552 23 4.15514 23 4.15477C23 4.15439 23 4.15401 23 4.15364C23 4.15326 23 4.15289 23 4.15251C23 4.15214 23 4.15176 23 4.15138C23 4.15101 23 4.15063 23 4.15026C23 4.14988 23 4.14951 23 4.14913C23 4.14875 23 4.14838 23 4.148C23 4.14763 23 4.14725 23 4.14687C23 4.1465 23 4.14612 23 4.14575C23 4.14537 23 4.14499 23 4.14462C23 4.14424 23 4.14387 23 4.14349C23 4.14311 23 4.14274 23 4.14236C23 4.14198 23 4.14161 23 4.14123C23 4.14086 23 4.14048 23 4.1401C23 4.13973 23 4.13935 23 4.13897C23 4.1386 23 4.13822 23 4.13784C23 4.13747 23 4.13709 23 4.13671C23 4.13634 23 4.13596 23 4.13558C23 4.13521 23 4.13483 23 4.13445C23 4.13408 23 4.1337 23 4.13332C23 4.13295 23 4.13257 23 4.13219C23 4.13181 23 4.13144 23 4.13106C23 4.13068 23 4.13031 23 4.12993C23 4.12955 23 4.12917 23 4.1288C23 4.12842 23 4.12804 23 4.12767C23 4.12729 23 4.12691 23 4.12653C23 4.12616 23 4.12578 23 4.1254C23 4.12502 23 4.12465 23 4.12427C23 4.12389 23 4.12351 23 4.12314C23 4.12276 23 4.12238 23 4.122C23 4.12162 23 4.12125 23 4.12087C23 4.12049 23 4.12011 23 4.11973C23 4.11936 23 4.11898 23 4.1186C23 4.11822 23 4.11784 23 4.11747C23 4.11709 23 4.11671 23 4.11633C23 4.11595 23 4.11557 23 4.1152C23 4.11482 23 4.11444 23 4.11406C23 4.11368 23 4.1133 23 4.11293C23 4.11255 23 4.11217 23 4.11179C23 4.11141 23 4.11103 23 4.11065C23 4.11028 23 4.1099 23 4.10952C23 4.10914 23 4.10876 23 4.10838C23 4.108 23 4.10762 23 4.10724C23 4.10687 23 4.10649 23 4.10611C23 4.10573 23 4.10535 23 4.10497C23 4.10459 23 4.10421 23 4.10383C23 4.10345 23 4.10307 23 4.10269C23 4.10231 23 4.10193 23 4.10156C23 4.10118 23 4.1008 23 4.10042C23 4.10004 23 4.09966 23 4.09928C23 4.0989 23 4.09852 23 4.09814C23 4.09776 23 4.09738 23 4.097C23 4.09662 23 4.09624 23 4.09586C23 4.09548 23 4.0951 23 4.09472C23 4.09434 23 4.09396 23 4.09358C23 4.0932 23 4.09282 23 4.09244C23 4.09206 23 4.09168 23 4.0913C23 4.09092 23 4.09054 23 4.09016C23 4.08977 23 4.08939 23 4.08901C23 4.08863 23 4.08825 23 4.08787C23 4.08749 23 4.08711 23 4.08673C23 4.08635 23 4.08597 23 4.08559C23 4.08521 23 4.08482 23 4.08444C23 4.08406 23 4.08368 23 4.0833C23 4.08292 23 4.08254 23 4.08216C23 4.08177 23 4.08139 23 4.08101C23 4.08063 23 4.08025 23 4.07987C23 4.07949 23 4.0791 23 4.07872C23 4.07834 23 4.07796 23 4.07758C23 4.0772 23 4.07681 23 4.07643C23 4.07605 23 4.07567 23 4.07529C23 4.0749 23 4.07452 23 4.07414C23 4.07376 23 4.07338 23 4.07299C23 4.07261 23 4.07223 23 4.07185C23 4.07147 23 4.07108 23 4.0707C23 4.07032 23 4.06994 23 4.06955C23 4.06917 23 4.06879 23 4.06841C23 4.06802 23 4.06764 23 4.06726C23 4.06687 23 4.06649 23 4.06611C23 4.06573 23 4.06534 23 4.06496C23 4.06458 23 4.06419 23 4.06381C23 4.06343 23 4.06304 23 4.06266C23 4.06228 23 4.06189 23 4.06151C23 4.06113 23 4.06074 23 4.06036C23 4.05998 23 4.05959 23 4.05921C23 4.05883 23 4.05844 23 4.05806C23 4.05767 23 4.05729 23 4.05691C23 4.05652 23 4.05614 23 4.05576C23 4.05537 23 4.05499 23 4.0546C23 4.05422 23 4.05384 23 4.05345C23 4.05307 23 4.05268 23 4.0523C23 4.05191 23 4.05153 23 4.05114C23 4.05076 23 4.05038 23 4.04999C23 4.04961 23 4.04922 23 4.04884C23 4.04845 23 4.04807 23 4.04768C23 4.0473 23 4.04691 23 4.04653C23 4.04614 23 4.04576 23 4.04537C23 4.04499 23 4.0446 23 4.04422C23 4.04383 23 4.04345 23 4.04306C23 4.04268 23 4.04229 23 4.0419C23 4.04152 23 4.04113 23 4.04075C23 4.04036 23 4.03998 23 4.03959C23 4.03921 23 4.03882 23 4.03843C23 4.03805 23 4.03766 23 4.03728C23 4.03689 23 4.0365 23 4.03612C23 4.03573 23 4.03534 23 4.03496C23 4.03457 23 4.03419 23 4.0338C23 4.03341 23 4.03303 23 4.03264C23 4.03225 23 4.03187 23 4.03148C23 4.03109 23 4.03071 23 4.03032C23 4.02993 23 4.02955 23 4.02916C23 4.02877 23 4.02838 23 4.028C23 4.02761 23 4.02722 23 4.02684C23 4.02645 23 4.02606 23 4.02567C23 4.02529 23 4.0249 23 4.02451C23 4.02412 23 4.02374 23 4.02335C23 4.02296 23 4.02257 23 4.02218C23 4.0218 23 4.02141 23 4.02102C23 4.02063 23 4.02025 23 4.01986C23 4.01947 23 4.01908 23 4.01869C23 4.0183 23 4.01792 23 4.01753C23 4.01714 23 4.01675 23 4.01636C23 4.01597 23 4.01558 23 4.0152C23 4.01481 23 4.01442 23 4.01403C23 4.01364 23 4.01325 23 4.01286C23 4.01247 23 4.01209 23 4.0117C23 4.01131 23 4.01092 23 4.01053C23 4.01014 23 4.00975 23 4.00936C23 4.00897 23 4.00858 23 4.00819C23 4.0078 23 4.00741 23 4.00702C23 4.00663 23 4.00624 23 4.00585C23 4.00546 23 4.00507 23 4.00468C23 4.00429 23 4.0039 23 4.00351C23 4.00312 23 4.00273 23 4.00234C23 4.00195 23 4.00156 23 4.00117C23 4.00078 23 4.00039 23 4H21ZM21.7159 5.5388C27.2293 7.17239 31 12.2408 31 18H33C33 11.3592 28.6507 5.50761 22.2841 3.6212L21.7159 5.5388ZM31 18V30H33V18H31ZM31.2929 30.7071L35.2929 34.7071L36.7071 33.2929L32.7071 29.2929L31.2929 30.7071ZM21 38C21 38.7957 20.6839 39.5587 20.1213 40.1213L21.5355 41.5355C22.4732 40.5979 23 39.3261 23 38H21ZM20.1213 40.1213C19.5587 40.6839 18.7956 41 18 41V43C19.3261 43 20.5979 42.4732 21.5355 41.5355L20.1213 40.1213ZM18 41C17.2044 41 16.4413 40.6839 15.8787 40.1213L14.4645 41.5355C15.4021 42.4732 16.6739 43 18 43V41ZM15.8787 40.1213C15.3161 39.5587 15 38.7957 15 38H13C13 39.3261 13.5268 40.5979 14.4645 41.5355L15.8787 40.1213Z" fill="black" mask="url(#path-1-inside-1)"/>
</svg>
