<svg width="32" height="32" viewBox="0 0 32 32" fill="none" xmlns="http://www.w3.org/2000/svg">
<g clip-path="url(#clip0)">
<path d="M27.6803 23.6283C27.0038 23.0098 26.6157 22.1329 26.6157 21.2224V15C26.6157 14.6548 26.3359 14.375 25.9907 14.375C25.6455 14.375 25.3657 14.6548 25.3657 15V21.2224C25.3657 22.483 25.902 23.6962 26.837 24.5509C27.173 24.8581 27.3657 25.2952 27.3657 25.7502C27.3657 26.6461 26.6368 27.3751 25.7408 27.3751H6.2406C5.34466 27.3751 4.61573 26.6461 4.61573 25.7502C4.61573 25.2952 4.80841 24.8582 5.14448 24.5509C6.07948 23.6962 6.61573 22.483 6.61573 21.2224V14C6.61573 8.83058 10.8214 4.62495 15.9907 4.62495C17.4125 4.62495 18.8129 4.94826 20.0811 5.5632C19.6403 6.27133 19.3847 7.1062 19.3847 7.99995C19.3847 10.5502 21.4594 12.625 24.0097 12.625C26.56 12.625 28.6347 10.5502 28.6347 7.99995C28.6347 5.4497 26.56 3.37494 24.0097 3.37494C22.8145 3.37494 21.7237 3.8307 20.902 4.57751C19.9704 4.09157 18.9709 3.74795 17.9389 3.55601C18.1691 3.19663 18.3033 2.77001 18.3033 2.31244C18.3033 1.03738 17.2659 0 15.9907 0C14.7156 0 13.6782 1.03738 13.6782 2.31244C13.6782 2.76951 13.8121 3.19563 14.0418 3.55482C9.1108 4.47263 5.36573 8.80689 5.36573 14V21.2224C5.36573 22.1329 4.97773 23.0098 4.3011 23.6283C3.70666 24.1717 3.36572 24.9451 3.36572 25.7501C3.36572 27.3353 4.65541 28.625 6.2406 28.625H12.0399C12.3409 30.5347 13.9977 32 15.9907 32C17.9838 32 19.6406 30.5347 19.9416 28.625H25.7409C27.3261 28.625 28.6158 27.3353 28.6158 25.7501C28.6158 24.9451 28.2748 24.1717 27.6803 23.6283ZM24.0096 4.62495C25.8706 4.62495 27.3846 6.13901 27.3846 7.99995C27.3846 9.8609 25.8706 11.375 24.0096 11.375C22.1486 11.375 20.6346 9.8609 20.6346 7.99995C20.6346 6.13901 22.1486 4.62495 24.0096 4.62495ZM15.9907 1.24994C16.5766 1.24994 17.0533 1.72657 17.0533 2.31238C17.0533 2.89826 16.5766 3.37488 15.9907 3.37488C15.4049 3.37488 14.9282 2.89826 14.9282 2.31238C14.9282 1.72657 15.4049 1.24994 15.9907 1.24994ZM15.9907 30.75C14.6894 30.75 13.5971 29.8411 13.3132 28.625H18.6683C18.3844 29.8411 17.2921 30.75 15.9907 30.75Z" fill="#3B3E3C"/>
<path d="M8.99072 13.3619C8.64554 13.3619 8.36572 13.6418 8.36572 13.9869V13.9999C8.36572 14.3451 8.64554 14.6249 8.99072 14.6249C9.33591 14.6249 9.61572 14.3451 9.61572 13.9999V13.9869C9.61572 13.6418 9.33591 13.3619 8.99072 13.3619Z" fill="#3B3E3C"/>
<path d="M15.9904 6.37494C12.9235 6.37494 10.1673 8.19919 8.96879 11.0226C8.83392 11.3403 8.98217 11.7072 9.29986 11.8421C9.37954 11.8759 9.46236 11.892 9.54379 11.892C9.78704 11.892 10.0184 11.749 10.1194 11.511C11.1215 9.15032 13.426 7.62494 15.9904 7.62494C16.3356 7.62494 16.6154 7.34507 16.6154 6.99994C16.6154 6.65481 16.3356 6.37494 15.9904 6.37494Z" fill="#3B3E3C"/>
<path d="M24.2299 5.97461C23.9964 5.87811 23.7276 5.93136 23.5488 6.11011L22.83 6.82886C22.586 7.07292 22.586 7.46867 22.83 7.7128C22.9759 7.85861 23.1761 7.91749 23.3657 7.8888V9.0208C23.3657 9.36593 23.6455 9.6458 23.9907 9.6458C24.3359 9.6458 24.6157 9.36593 24.6157 9.0208V6.55205C24.6157 6.29923 24.4634 6.07136 24.2299 5.97461Z" fill="#3B3E3C"/>
</g>
<defs>
<clipPath id="clip0">
<rect width="32" height="32" fill="white"/>
</clipPath>
</defs>
</svg>
