<svg width="32" height="32" viewBox="0 0 32 32" fill="none" xmlns="http://www.w3.org/2000/svg">
<g clip-path="url(#clip0)">
<path d="M27.6798 23.6283C27.0033 23.0098 26.6152 22.1329 26.6152 21.2224V15C26.6152 14.6548 26.3354 14.375 25.9902 14.375C25.645 14.375 25.3652 14.6548 25.3652 15V21.2224C25.3652 22.483 25.9015 23.6962 26.8365 24.5509C27.1725 24.8581 27.3652 25.2952 27.3652 25.7502C27.3652 26.6461 26.6363 27.3751 25.7403 27.3751H6.24012C5.34418 27.3751 4.61524 26.6461 4.61524 25.7502C4.61524 25.2952 4.80792 24.8582 5.14399 24.5509C6.07899 23.6962 6.61524 22.483 6.61524 21.2224V14C6.61524 8.83058 10.8209 4.62495 15.9903 4.62495C17.412 4.62495 18.8124 4.94826 20.0806 5.5632C19.6398 6.27133 19.3842 7.1062 19.3842 7.99995C19.3842 10.5502 21.459 12.625 24.0092 12.625C26.5595 12.625 28.6342 10.5502 28.6342 7.99995C28.6342 5.4497 26.5595 3.37494 24.0092 3.37494C22.814 3.37494 21.7232 3.8307 20.9015 4.57751C19.9699 4.09157 18.9705 3.74795 17.9384 3.55601C18.1686 3.19663 18.3028 2.77001 18.3028 2.31244C18.3028 1.03738 17.2654 0 15.9903 0C14.7151 0 13.6778 1.03738 13.6778 2.31244C13.6778 2.76951 13.8116 3.19563 14.0413 3.55482C9.11031 4.47263 5.36524 8.80689 5.36524 14V21.2224C5.36524 22.1329 4.97724 23.0098 4.30061 23.6283C3.70617 24.1717 3.36523 24.9451 3.36523 25.7501C3.36523 27.3353 4.65492 28.625 6.24012 28.625H12.0394C12.3404 30.5347 13.9973 32 15.9903 32C17.9833 32 19.6401 30.5347 19.9411 28.625H25.7404C27.3256 28.625 28.6153 27.3353 28.6153 25.7501C28.6153 24.9451 28.2744 24.1717 27.6798 23.6283ZM24.0092 4.62495C25.8702 4.62495 27.3842 6.13901 27.3842 7.99995C27.3842 9.8609 25.8702 11.375 24.0092 11.375C22.1481 11.375 20.6341 9.8609 20.6341 7.99995C20.6341 6.13901 22.1481 4.62495 24.0092 4.62495ZM15.9903 1.24994C16.5761 1.24994 17.0528 1.72657 17.0528 2.31238C17.0528 2.89826 16.5761 3.37488 15.9903 3.37488C15.4044 3.37488 14.9278 2.89826 14.9278 2.31238C14.9278 1.72657 15.4044 1.24994 15.9903 1.24994ZM15.9903 30.75C14.6889 30.75 13.5966 29.8411 13.3128 28.625H18.6678C18.3839 29.8411 17.2916 30.75 15.9903 30.75Z" fill="#383330"/>
<path d="M8.99024 13.362C8.64505 13.362 8.36523 13.6418 8.36523 13.987V14C8.36523 14.3451 8.64505 14.625 8.99024 14.625C9.33542 14.625 9.61524 14.3451 9.61524 14V13.987C9.61524 13.6418 9.33542 13.362 8.99024 13.362Z" fill="#383330"/>
<path d="M15.9904 6.37495C12.9235 6.37495 10.1673 8.19921 8.96879 11.0226C8.83392 11.3403 8.98217 11.7072 9.29986 11.8421C9.37954 11.8759 9.46236 11.892 9.54379 11.892C9.78704 11.892 10.0184 11.749 10.1194 11.511C11.1215 9.15034 13.426 7.62496 15.9904 7.62496C16.3356 7.62496 16.6154 7.34508 16.6154 6.99996C16.6154 6.65483 16.3356 6.37495 15.9904 6.37495Z" fill="#383330"/>
<path d="M24.2294 5.97458C23.996 5.87808 23.7271 5.93133 23.5483 6.11008L22.8295 6.82883C22.5855 7.07289 22.5855 7.46864 22.8295 7.71277C22.9754 7.85858 23.1756 7.91746 23.3652 7.88877V9.02077C23.3652 9.3659 23.645 9.64577 23.9902 9.64577C24.3354 9.64577 24.6152 9.3659 24.6152 9.02077V6.55202C24.6152 6.2992 24.4629 6.07133 24.2294 5.97458Z" fill="#383330"/>
</g>
<defs>
<clipPath id="clip0">
<rect width="32" height="32" fill="white"/>
</clipPath>
</defs>
</svg>
