<svg width="18" height="22" viewBox="0 0 18 22" fill="none" xmlns="http://www.w3.org/2000/svg">
<path fill-rule="evenodd" clip-rule="evenodd" d="M6 5.5C6 3.45302 7.45062 2 9 2C10.5494 2 12 3.45302 12 5.5C12 7.54698 10.5494 9 9 9C7.45062 9 6 7.54698 6 5.5ZM9 0C6.1311 0 4 2.57642 4 5.5C4 8.42358 6.1311 11 9 11C11.8689 11 14 8.42358 14 5.5C14 2.57642 11.8689 0 9 0ZM2 18C2 17.7971 2.09547 17.4779 2.41523 17.0707C2.72926 16.6707 3.21492 16.246 3.86041 15.8558C5.15076 15.0759 6.97166 14.5 9 14.5C11.0283 14.5 12.8492 15.0759 14.1396 15.8558C14.7851 16.246 15.2707 16.6707 15.5848 17.0707C15.9045 17.4779 16 17.7971 16 18C16 18.6739 15.8158 18.967 15.6392 19.1278C15.4253 19.3227 15.0433 19.4868 14.376 19.5702C13.7172 19.6526 12.9171 19.6415 11.9791 19.6024C11.7588 19.5933 11.5308 19.5825 11.2972 19.5715H11.2971C10.5657 19.5371 9.77889 19.5 9 19.5C8.22111 19.5 7.43426 19.5371 6.70288 19.5715H6.70284C6.46917 19.5825 6.24115 19.5933 6.02087 19.6024C5.08294 19.6415 4.28277 19.6526 3.62403 19.5702C2.95672 19.4868 2.57475 19.3227 2.36083 19.1278C2.18419 18.967 2 18.6739 2 18ZM9 12.5C6.61006 12.5 4.43096 13.1741 2.82588 14.1442C2.02366 14.629 1.33774 15.2043 0.84213 15.8356C0.352247 16.4596 0 17.2029 0 18C0 19.0761 0.315809 19.9705 1.01417 20.6065C1.67525 21.2086 2.54328 21.4507 3.37597 21.5548C4.21723 21.6599 5.16706 21.6397 6.10413 21.6007C6.34726 21.5906 6.58995 21.5792 6.83254 21.5677C7.55305 21.5338 8.27265 21.5 9 21.5C9.72735 21.5 10.4469 21.5338 11.1675 21.5677C11.4101 21.5792 11.6527 21.5906 11.8959 21.6007C12.8329 21.6397 13.7828 21.6599 14.624 21.5548C15.4567 21.4507 16.3247 21.2086 16.9858 20.6065C17.6842 19.9705 18 19.0761 18 18C18 17.2029 17.6478 16.4596 17.1579 15.8356C16.6623 15.2043 15.9763 14.629 15.1741 14.1442C13.569 13.1741 11.3899 12.5 9 12.5Z" fill="#3B3E3C"/>
</svg>
