<svg width="24" height="24" viewBox="0 0 24 24" fill="none" xmlns="http://www.w3.org/2000/svg">
<path fill-rule="evenodd" clip-rule="evenodd" d="M17.1938 14.4952L23.4507 20.6358C23.8049 20.9831 24 21.4452 24 21.9368C24 22.4285 23.8049 22.8905 23.4505 23.238C23.0964 23.5855 22.6257 23.777 22.125 23.777C21.6243 23.777 21.1536 23.5855 20.7993 23.2378L16.2727 18.7953L16.2719 18.7946L14.5425 17.0973C13.0072 18.0976 11.2292 18.6245 9.375 18.6245C4.20563 18.6245 0 14.4971 0 9.42378C0 4.35048 4.20563 0.223022 9.375 0.223022C14.5444 0.223022 18.75 4.35048 18.75 9.42378C18.75 11.2435 18.2131 12.9884 17.1938 14.4952ZM14.3219 16.1279L14.322 16.1278C15.0464 15.6118 15.6802 14.9897 16.206 14.2788C17.257 12.8587 17.8125 11.18 17.8125 9.42378C17.8125 4.85781 14.0274 1.1431 9.375 1.1431C4.72256 1.1431 0.9375 4.85781 0.9375 9.42378C0.9375 13.9897 4.72256 17.7045 9.375 17.7045C11.1645 17.7045 12.875 17.1593 14.3219 16.1279ZM16.6309 15.244C16.2341 15.7201 15.7906 16.1553 15.3054 16.5448L16.6353 17.85C17.1127 17.4531 17.5564 17.0176 17.9608 16.5492L16.6309 15.244ZM22.125 22.8569C22.3752 22.8569 22.6106 22.7612 22.7878 22.5873C22.965 22.4135 23.0625 22.1826 23.0625 21.9368C23.0625 21.6911 22.965 21.4602 22.7879 21.2865L18.6255 17.2015C18.2181 17.6674 17.7747 18.1025 17.3 18.5023L21.4622 22.5873C21.6394 22.7612 21.8748 22.8569 22.125 22.8569ZM14.0625 9.42319C14.0625 9.16926 14.2725 8.96318 14.5312 8.96318C14.79 8.96318 15 9.16926 15 9.42319C15 9.67711 14.79 9.8832 14.5312 9.8832C14.2725 9.8832 14.0625 9.67711 14.0625 9.42319ZM9.375 2.06306C5.23945 2.06306 1.875 5.36477 1.875 9.42319C1.875 13.4816 5.23945 16.7833 9.375 16.7833C13.5105 16.7833 16.875 13.4816 16.875 9.42319C16.875 5.36477 13.5105 2.06306 9.375 2.06306ZM9.375 15.8633C5.75644 15.8633 2.8125 12.9743 2.8125 9.42319C2.8125 5.87211 5.75644 2.98307 9.375 2.98307C12.9936 2.98307 15.9375 5.87211 15.9375 9.42319C15.9375 12.9743 12.9936 15.8633 9.375 15.8633ZM12.5956 4.89947C13.5216 5.53607 14.2244 6.41754 14.6281 7.44851C14.7209 7.68569 14.6003 7.95181 14.3586 8.04293C14.3034 8.06377 14.2465 8.07366 14.1906 8.07366C14.0022 8.07366 13.8246 7.96142 13.7529 7.77852C13.0608 6.01076 11.3015 4.82311 9.375 4.82311C9.11616 4.82311 8.90625 4.61711 8.90625 4.3631C8.90625 4.10908 9.11616 3.90309 9.375 3.90309C10.5338 3.90309 11.6475 4.24764 12.5956 4.89947Z" fill="#524E4B"/>
</svg>
