<svg width="22" height="22" viewBox="0 0 22 22" fill="none" xmlns="http://www.w3.org/2000/svg">
<path d="M8.90843 2.72142C9.35662 0.424077 12.6435 0.424077 13.0917 2.72142C13.3644 4.11939 14.9054 4.86148 16.1684 4.20309C18.244 3.12112 20.2933 5.69092 18.7766 7.47369C17.8537 8.55854 18.2343 10.226 19.5365 10.803C21.6765 11.7511 20.9451 14.9556 18.6056 14.8813C17.182 14.8362 16.1157 16.1734 16.4765 17.5512C17.0695 19.8155 14.1081 21.2416 12.7075 19.3663C11.8552 18.2251 10.1449 18.2251 9.29262 19.3663C7.89204 21.2416 4.93065 19.8155 5.52363 17.5512C5.88447 16.1734 4.81808 14.8362 3.39448 14.8813C1.055 14.9556 0.323603 11.7511 2.46362 10.803C3.76585 10.226 4.14643 8.55854 3.2235 7.47369C1.70681 5.69092 3.75615 3.12112 5.83172 4.20309C7.09474 4.86148 8.63571 4.11939 8.90843 2.72142Z" stroke="#3B3E3C" stroke-width="1.8"/>
<path d="M14.0001 11C14.0001 12.6569 12.6569 14 11.0001 14C9.34321 14 8.00007 12.6569 8.00007 11C8.00007 9.34314 9.34321 8 11.0001 8C12.6569 8 14.0001 9.34314 14.0001 11Z" stroke="#3B3E3C" stroke-width="1.8"/>
</svg>
