<svg width="52" height="60" viewBox="0 0 52 60" fill="none" xmlns="http://www.w3.org/2000/svg">
<path d="M27.1931 58.8189C27.1931 59.4697 26.6627 60 26.0108 60C25.36 60 24.8297 59.4697 24.8297 58.8189C24.8297 58.1681 25.36 57.6378 26.0108 57.6378C26.6627 57.6378 27.1931 58.1681 27.1931 58.8189ZM1.197 58.8189V57.3248C1.197 49.4502 6.53794 45.1559 8.87652 43.7539C12.0526 41.8512 15.4641 40.4126 19.0316 39.4674V37.5657C18.4368 37.0407 17.8931 36.4436 17.4126 35.7782C15.9979 33.8189 14.8432 31.6945 13.973 29.4516C13.1766 29.3428 12.4484 28.836 12.074 28.0432C11.717 27.2874 9.2403 22.7059 8.86082 21.8906C7.89881 19.8235 9.15609 17.7814 10.75 17.124C11.0154 17.0145 11.2882 16.9336 11.5658 16.8874C11.3077 15.8316 11.1773 14.7458 11.1773 13.6419C11.1773 6.11965 17.297 0 24.819 0C26.1409 0 27.3929 0.50563 28.3442 1.4237C28.3543 1.4335 28.3703 1.4335 28.3804 1.4237C29.3319 0.50563 30.5838 0 31.9057 0C37.0181 0 41.1773 4.15925 41.1773 9.27165V11.4226C41.1773 13.2746 40.923 15.0978 40.4212 16.865C40.7048 16.9109 40.9879 16.985 41.2564 17.1065C43.2175 17.9946 43.9834 20.1892 43.1455 21.8731C42.745 22.678 40.2895 27.2695 39.9323 28.0257C39.558 28.8181 38.8301 29.3249 38.0343 29.434C37.1636 31.6824 36.0072 33.8117 34.5896 35.7754C34.1085 36.4416 33.5642 37.0395 32.9686 37.5651V39.4672C36.536 40.4125 39.9477 41.8511 43.1238 43.7538C45.4623 45.1558 50.8033 49.45 50.8033 57.3247V58.8189C50.8033 59.4712 50.2745 60 49.6222 60H31.3281C31.3269 60 31.3269 60 31.3257 60C30.6488 60 30.1022 59.4275 30.1472 58.7399C30.1883 58.1121 30.7381 57.6378 31.3672 57.6378H48.4411C48.4411 52.6505 45.9383 48.1949 41.9084 45.7807C39.0635 44.0759 36.0167 42.7657 32.8334 41.8775C32.1968 45.0681 29.3753 47.4803 26.0001 47.4803C22.6251 47.4803 19.8035 45.0683 19.1669 41.8775C15.9843 42.7657 12.9367 44.0759 10.0919 45.7807C6.06196 48.1949 3.5592 52.5133 3.5592 57.6378H20.697C21.3749 57.6378 21.9209 58.2132 21.8742 58.901C21.8316 59.5276 21.2821 60 20.6541 60H2.3781C1.72578 60 1.197 59.4712 1.197 58.8189ZM13.5438 13.8228C13.6528 13.6946 15.2826 11.6929 18.0876 11.6929C19.4867 11.6929 20.8306 12.1805 21.8948 13.0498C22.8751 13.8504 24.1233 14.2913 25.4096 14.2913C28.4536 14.2913 30.8922 11.843 30.961 8.7176C30.9752 8.07567 31.4995 7.5626 32.1416 7.56248C32.7837 7.56236 33.3082 8.0752 33.3227 8.71713C33.3566 10.2254 34.1684 11.5332 35.4415 12.1303C36.6936 12.7175 37.7414 13.6065 38.5098 14.6943C38.7129 13.6204 38.8152 12.5274 38.8152 11.4227V9.27165C38.8152 5.46177 35.7157 2.3622 31.9058 2.3622C31.199 2.3622 30.5297 2.63256 30.021 3.12343C29.091 4.0213 27.6338 4.02118 26.7037 3.12343C26.1951 2.63256 25.5258 2.3622 24.819 2.3622C18.5995 2.3622 13.4842 7.35709 13.5438 13.8228ZM30.6064 39.1385C27.8099 40.4585 24.579 40.6109 21.3938 39.139V40.5118C21.3938 43.0518 23.4602 45.1181 26.0001 45.1181C28.5401 45.1181 30.6064 43.0518 30.6064 40.5118V39.1385ZM32.6743 34.3928C34.1394 32.3634 35.3009 30.1416 36.1237 27.788C36.2682 27.375 36.8168 26.7501 37.7464 27.1159C38.1846 26.1824 40.6521 21.62 41.0097 20.8641C41.2822 20.2883 40.9527 19.5384 40.3334 19.2809C39.9837 19.1355 39.5968 19.1609 39.2567 19.3346C38.5236 19.7092 37.6169 19.2672 37.5233 18.457C37.3109 16.6176 36.1185 15.0569 34.4384 14.269C33.5892 13.8707 32.8649 13.2866 32.3007 12.5717C31.9453 13.2111 31.484 13.7864 30.9774 14.3323C28.7357 16.7489 24.0493 17.8233 20.4004 14.8794C18.977 13.7309 16.8599 13.8 15.5538 15.1251C14.8432 15.8459 14.4253 16.8189 14.4253 17.813V18.278C14.4291 19.1456 13.5072 19.7246 12.7144 19.3337C12.3861 19.1718 12.0107 19.1646 11.6729 19.2987C11.1373 19.5113 10.6801 20.2048 10.9966 20.8818C11.3509 21.6396 13.8728 26.2703 14.2463 27.1161C15.2864 26.7541 15.7745 27.497 15.8826 27.805C16.7063 30.153 17.8654 32.3704 19.3277 34.3956C20.9004 36.5735 23.3324 37.8227 25.9998 37.8224C28.6683 37.822 31.1011 36.572 32.6743 34.3928ZM51.3938 7.08661V1.1811C51.3938 0.52878 50.8651 0 50.2127 0H44.3072C43.6549 0 43.1261 0.52878 43.1261 1.1811C43.1261 1.83343 43.6549 2.3622 44.3072 2.3622H49.0316V7.08661C49.0316 7.73894 49.5604 8.26772 50.2127 8.26772C50.8651 8.26772 51.3938 7.73894 51.3938 7.08661ZM51.3938 39.3307V33.4252C51.3938 32.7729 50.8651 32.2441 50.2127 32.2441C49.5604 32.2441 49.0316 32.7729 49.0316 33.4252V38.1496H44.3072C43.6549 38.1496 43.1261 38.6784 43.1261 39.3307C43.1261 39.983 43.6549 40.5118 44.3072 40.5118H50.2127C50.8651 40.5118 51.3938 39.983 51.3938 39.3307ZM2.96865 7.08661V2.3622H7.69306C8.34538 2.3622 8.87416 1.83343 8.87416 1.1811C8.87416 0.52878 8.34538 0 7.69306 0H1.78755C1.13522 0 0.606445 0.52878 0.606445 1.1811V7.08661C0.606445 7.73894 1.13522 8.26772 1.78755 8.26772C2.43987 8.26772 2.96865 7.73894 2.96865 7.08661ZM8.87416 39.3307C8.87416 38.6784 8.34538 38.1496 7.69306 38.1496H2.96865V33.4252C2.96865 32.7729 2.43987 32.2441 1.78755 32.2441C1.13522 32.2441 0.606445 32.7729 0.606445 33.4252V39.3307C0.606445 39.983 1.13522 40.5118 1.78755 40.5118H7.69306C8.34538 40.5118 8.87416 39.983 8.87416 39.3307Z" fill="#FC4F4F"/>
</svg>
