<svg width="48" height="48" viewBox="0 0 48 48" fill="none" xmlns="http://www.w3.org/2000/svg">
<mask id="mask0" mask-type="alpha" maskUnits="userSpaceOnUse" x="0" y="0" width="48" height="48">
<ellipse cx="24" cy="23.9765" rx="24" ry="23.9765" fill="#A1BCFF"/>
</mask>
<g mask="url(#mask0)">
<mask id="mask1" mask-type="alpha" maskUnits="userSpaceOnUse" x="0" y="0" width="48" height="48">
<circle cx="24" cy="24" r="24" fill="#A1BCFF"/>
</mask>
<g mask="url(#mask1)">
<circle cx="24" cy="24" r="24" fill="white"/>
</g>
<mask id="mask2" mask-type="alpha" maskUnits="userSpaceOnUse" x="0" y="0" width="48" height="48">
<mask id="mask3" maskUnits="userSpaceOnUse" x="0" y="0" width="48" height="48">
<circle cx="24" cy="24" r="24" fill="#A1BCFF"/>
</mask>
<g mask="url(#mask3)">
<circle cx="24" cy="24" r="24" fill="#FFD1A9"/>
</g>
</mask>
<g mask="url(#mask2)">
<path fill-rule="evenodd" clip-rule="evenodd" d="M23.9999 7.92206C18.611 7.92206 14.2423 12.2907 14.2423 17.6796V18.1467C13.2534 18.3126 12.4999 19.1726 12.4999 20.2087V22.2758C12.4999 23.3528 13.3141 24.2395 14.3605 24.3542C14.867 27.5864 16.9602 30.2924 19.8181 31.6501V34.7271C12.4974 34.769 6.57568 40.7165 6.57568 48.0471H41.4242C41.4242 40.7165 35.5025 34.769 28.1817 34.7271V31.6501C31.0396 30.2924 33.1329 27.5864 33.6394 24.3542C34.6858 24.2395 35.4999 23.3528 35.4999 22.2758V20.2087C35.4999 19.1726 34.7464 18.3126 33.7575 18.1467V17.6796C33.7575 12.2907 29.3889 7.92206 23.9999 7.92206Z" fill="#D0C6AC"/>
<mask id="mask4" mask-type="alpha" maskUnits="userSpaceOnUse" x="6" y="7" width="36" height="42">
<path fill-rule="evenodd" clip-rule="evenodd" d="M23.9999 7.92206C18.611 7.92206 14.2423 12.2907 14.2423 17.6796V18.1467C13.2534 18.3126 12.4999 19.1726 12.4999 20.2087V22.2758C12.4999 23.3528 13.3141 24.2395 14.3605 24.3542C14.867 27.5864 16.9602 30.2924 19.8181 31.6501V34.7271C12.4974 34.769 6.57568 40.7165 6.57568 48.0471H41.4242C41.4242 40.7165 35.5025 34.769 28.1817 34.7271V31.6501C31.0396 30.2924 33.1329 27.5864 33.6394 24.3542C34.6858 24.2395 35.4999 23.3528 35.4999 22.2758V20.2087C35.4999 19.1726 34.7464 18.3126 33.7575 18.1467V17.6796C33.7575 12.2907 29.3889 7.92206 23.9999 7.92206Z" fill="white"/>
</mask>
<g mask="url(#mask4)">
<rect x="1" y="7.92206" width="46" height="40.125" fill="#FFD1A9"/>
<path fill-rule="evenodd" clip-rule="evenodd" d="M14.2424 22.8315V24.1471C14.2424 29.536 18.611 33.9046 24 33.9046C29.389 33.9046 33.7576 29.536 33.7576 24.1471V22.8315C33.7576 28.2204 29.389 32.5891 24 32.5891C18.611 32.5891 14.2424 28.2204 14.2424 22.8315Z" fill="#3B3E3C"/>
</g>
<path fill-rule="evenodd" clip-rule="evenodd" d="M19.8181 32.1073C16.6642 32.4404 14.2423 33.3559 14.2423 35.7261C14.2423 35.811 14.2455 35.895 14.2516 35.9782C9.71669 38.1028 6.57568 42.708 6.57568 48.047H41.4242C41.4242 42.708 38.2832 38.1027 33.7483 35.9782C33.7544 35.895 33.7575 35.811 33.7575 35.7261C33.7575 33.3559 31.3356 32.4404 28.1817 32.1073V34.985C28.1817 37.2946 26.3095 39.1669 23.9999 39.1669C21.6904 39.1669 19.8181 37.2946 19.8181 34.985V32.1073Z" fill="#F6F6F6"/>
<mask id="mask5" mask-type="alpha" maskUnits="userSpaceOnUse" x="6" y="32" width="36" height="17">
<path fill-rule="evenodd" clip-rule="evenodd" d="M19.8181 32.1073C16.6642 32.4404 14.2423 33.3559 14.2423 35.7261C14.2423 35.811 14.2455 35.895 14.2516 35.9782C9.71669 38.1028 6.57568 42.708 6.57568 48.047H41.4242C41.4242 42.708 38.2832 38.1027 33.7483 35.9782C33.7544 35.895 33.7575 35.811 33.7575 35.7261C33.7575 33.3559 31.3356 32.4404 28.1817 32.1073V34.985C28.1817 37.2946 26.3095 39.1669 23.9999 39.1669C21.6904 39.1669 19.8181 37.2946 19.8181 34.985V32.1073Z" fill="white"/>
</mask>
<g mask="url(#mask5)">
<rect x="1" y="29.9579" width="46" height="18.0891" fill="#2795FB"/>
<path fill-rule="evenodd" clip-rule="evenodd" d="M17.553 39.5205C17.937 39.7359 18.3452 39.9334 18.7727 40.1107V48.047H17.553V39.5205ZM30.4469 39.5205C30.0629 39.7359 29.6547 39.9334 29.2272 40.1107V46.1216C29.2272 46.4584 29.5003 46.7315 29.8371 46.7315C30.1739 46.7315 30.4469 46.4584 30.4469 46.1216V39.5205Z" fill="#F2F2F2"/>
<path fill-rule="evenodd" clip-rule="evenodd" d="M33.7575 35.0684C33.7575 38.4218 28.9099 41.1402 24 41.1402C19.09 41.1402 14.2424 38.4218 14.2424 35.0684C14.2424 33.5274 15.2661 32.6013 16.849 32.0504C14.2266 32.5185 12.4128 33.4512 12.4128 35.2708C12.4128 38.5124 18.1694 41.1403 24 41.1402C29.8305 41.1403 35.5871 38.5124 35.5871 35.2708C35.5871 33.4512 33.7734 32.5185 31.1509 32.0504C32.7339 32.6013 33.7575 33.5274 33.7575 35.0684Z" fill="#3B3E3C"/>
</g>
<path fill-rule="evenodd" clip-rule="evenodd" d="M19.6439 26.6046C19.8896 28.187 21.7457 29.4645 24 29.4645C26.2596 29.4645 28.1202 28.1791 28.3561 26.4616C28.3737 26.3959 28.3169 26.1756 27.9773 26.1756C24.4946 26.1756 21.8637 26.1756 20.0227 26.1756C19.7107 26.1756 19.6213 26.3796 19.6439 26.6046Z" fill="#3B3E3C"/>
<mask id="mask6" mask-type="alpha" maskUnits="userSpaceOnUse" x="19" y="26" width="10" height="4">
<path fill-rule="evenodd" clip-rule="evenodd" d="M19.6439 26.6046C19.8896 28.187 21.7457 29.4645 24 29.4645C26.2596 29.4645 28.1202 28.1791 28.3561 26.4616C28.3737 26.3959 28.3169 26.1756 27.9773 26.1756C24.4946 26.1756 21.8637 26.1756 20.0227 26.1756C19.7107 26.1756 19.6213 26.3796 19.6439 26.6046Z" fill="white"/>
</mask>
<g mask="url(#mask6)">
<rect x="21.3865" y="24.3667" width="5.40152" height="2.63115" rx="1.31557" fill="#F2F2F2"/>
</g>
<path fill-rule="evenodd" clip-rule="evenodd" d="M26.0906 27.9132C26.0908 27.9096 26.0908 27.9059 26.0908 27.9023C26.0908 27.5844 25.5838 27.3267 24.9583 27.3267C24.6079 27.3267 24.2948 27.4075 24.087 27.5345C23.8793 27.4075 23.5661 27.3267 23.2158 27.3267C22.5903 27.3267 22.0833 27.5844 22.0833 27.9023L22.0835 27.9132L22.0833 27.9236V29.2697C22.0833 30.3763 22.9804 31.2734 24.087 31.2734C25.1937 31.2734 26.0908 30.3763 26.0908 29.2697V27.9236C26.0908 27.9201 26.0908 27.9166 26.0906 27.9132Z" fill="#F46E84"/>
<path fill-rule="evenodd" clip-rule="evenodd" d="M21.9092 23.38C21.9092 24.1066 22.8453 24.6956 24.0001 24.6956C25.1549 24.6956 26.091 24.1066 26.091 23.38" fill="#3B3E3C"/>
<rect x="14.2424" y="16.8021" width="19.5152" height="7.23565" fill="#FFD1A9"/>
<path fill-rule="evenodd" clip-rule="evenodd" d="M17.0582 20.4935C17.3799 19.8688 18.1044 19.4333 18.9465 19.4333C19.7857 19.4333 20.508 19.8658 20.8314 20.4869C20.9275 20.6714 20.7908 20.8224 20.6529 20.7105C20.2258 20.364 19.6193 20.1476 18.9465 20.1476C18.2948 20.1476 17.7052 20.3507 17.2808 20.6784C17.1255 20.7982 16.9641 20.6762 17.0582 20.4935Z" fill="#3B3E3C"/>
<path fill-rule="evenodd" clip-rule="evenodd" d="M27.1644 20.4935C27.4861 19.8688 28.2106 19.4333 29.0527 19.4333C29.8919 19.4333 30.6142 19.8658 30.9376 20.4869C31.0337 20.6714 30.897 20.8224 30.7591 20.7105C30.332 20.364 29.7255 20.1476 29.0527 20.1476C28.401 20.1476 27.8114 20.3507 27.387 20.6784C27.2317 20.7982 27.0703 20.6762 27.1644 20.4935Z" fill="#3B3E3C"/>
<path d="M16.9661 18.3082C17.6482 17.4023 19.5183 16.8943 21.1292 17.2677C21.3161 17.311 21.5048 17.2031 21.5507 17.0267C21.5966 16.8503 21.4823 16.6722 21.2954 16.6289C19.4246 16.1953 17.2591 16.7835 16.398 17.9272C16.2865 18.0752 16.3233 18.2806 16.4801 18.3858C16.637 18.491 16.8546 18.4563 16.9661 18.3082Z" fill="#3B3E3C"/>
<path d="M31.0342 18.3082C30.352 17.4023 28.4819 16.8943 26.871 17.2677C26.6841 17.311 26.4954 17.2031 26.4495 17.0267C26.4036 16.8503 26.5179 16.6722 26.7048 16.6289C28.5756 16.1953 30.7411 16.7835 31.6023 17.9272C31.7138 18.0752 31.677 18.2806 31.5201 18.3858C31.3632 18.491 31.1457 18.4563 31.0342 18.3082Z" fill="#3B3E3C"/>
<mask id="mask7" mask-type="alpha" maskUnits="userSpaceOnUse" x="1" y="2" width="46" height="47">
<rect x="1" y="2.00195" width="46" height="46.0451" fill="white"/>
</mask>
<g mask="url(#mask7)">
<path fill-rule="evenodd" clip-rule="evenodd" d="M11.4545 20.4323C11.4545 19.5807 11.5445 18.7505 11.7152 17.9502C10.7697 12.8583 13.3716 8.80209 16.5075 6.60653C19.9757 4.17936 25.8193 3.47903 27.8414 6.36349C29.3488 5.73178 31.5828 6.30752 33.2348 7.75761C35.1537 9.54026 36.6267 13.801 34.9288 16.7387C35.2354 17.7107 35.4183 18.7356 35.4591 19.7952C35.2897 18.9506 34.6113 18.2899 33.7575 18.1467L33.7575 18.1178C32.9233 15.3086 30.8064 13.705 29.0275 12.3573C28.5638 12.006 28.123 11.6721 27.7339 11.3388C26.5837 12.5529 24.4808 13.2944 22.1599 14.1126C18.5409 15.3885 14.3921 16.8512 12.5 20.5844V22.1114C12.5 23.1798 13.3013 24.0611 14.3358 24.1869C14.7952 27.4929 16.9111 30.2691 19.8181 31.6501L19.8181 31.7668C20.3287 38.9787 18.6609 48.0138 7.79541 45.2515C10.2309 43.9063 11.4889 35.0944 11.4545 29.9579L11.4698 29.9612C11.4596 29.636 11.4545 29.3105 11.4545 28.9848V20.4323ZM28.1818 31.6501C31.0888 30.2691 33.2047 27.4929 33.6642 24.1869C34.6986 24.0611 35.5 23.1798 35.5 22.1114V21.534C35.6917 25.3622 36.7381 29.1048 38.5691 32.4845L38.7465 32.8121C40.2197 35.5313 40.3316 38.4825 39.4449 41.0569C37.1112 37.2788 32.9423 34.7543 28.1818 34.7271V31.6501Z" fill="#3B3E3C"/>
<mask id="mask8" mask-type="alpha" maskUnits="userSpaceOnUse" x="7" y="4" width="34" height="42">
<path fill-rule="evenodd" clip-rule="evenodd" d="M11.4545 20.4323C11.4545 19.5807 11.5445 18.7505 11.7152 17.9502C10.7697 12.8583 13.3716 8.80209 16.5075 6.60653C19.9757 4.17936 25.8193 3.47903 27.8414 6.36349C29.3488 5.73178 31.5828 6.30752 33.2348 7.75761C35.1537 9.54026 36.6267 13.801 34.9288 16.7387C35.2354 17.7107 35.4183 18.7356 35.4591 19.7952C35.2897 18.9506 34.6113 18.2899 33.7575 18.1467L33.7575 18.1178C32.9233 15.3086 30.8064 13.705 29.0275 12.3573C28.5638 12.006 28.123 11.6721 27.7339 11.3388C26.5837 12.5529 24.4808 13.2944 22.1599 14.1126C18.5409 15.3885 14.3921 16.8512 12.5 20.5844V22.1114C12.5 23.1798 13.3013 24.0611 14.3358 24.1869C14.7952 27.4929 16.9111 30.2691 19.8181 31.6501L19.8181 31.7668C20.3287 38.9787 18.6609 48.0138 7.79541 45.2515C10.2309 43.9063 11.4889 35.0944 11.4545 29.9579L11.4698 29.9612C11.4596 29.636 11.4545 29.3105 11.4545 28.9848V20.4323ZM28.1818 31.6501C31.0888 30.2691 33.2047 27.4929 33.6642 24.1869C34.6986 24.0611 35.5 23.1798 35.5 22.1114V21.534C35.6917 25.3622 36.7381 29.1048 38.5691 32.4845L38.7465 32.8121C40.2197 35.5313 40.3316 38.4825 39.4449 41.0569C37.1112 37.2788 32.9423 34.7543 28.1818 34.7271V31.6501Z" fill="white"/>
</mask>
<g mask="url(#mask8)">
<rect x="1" y="2.00195" width="46" height="46.0451" fill="#3B3E3C"/>
</g>
<path fill-rule="evenodd" clip-rule="evenodd" d="M12.5 20.5845C14.3921 16.8513 18.5409 15.3886 22.16 14.1126C24.4808 13.2944 26.5838 12.553 27.734 11.3388C28.1231 11.6721 28.5639 12.0061 29.0276 12.3574C30.8022 13.7017 32.9131 15.3008 33.7515 18.0974C32.9541 15.79 31.0056 14.6083 29.2901 13.5679C28.7306 13.2285 28.1958 12.9043 27.7339 12.5609C26.5838 13.6145 24.4808 14.2579 22.16 14.968C18.5409 16.0753 14.3921 17.3447 12.5 20.5845Z" fill="#3B3E3C"/>
</g>
</g>
</g>
</svg>
