<svg width="23" height="25" viewBox="0 0 23 25" fill="none" xmlns="http://www.w3.org/2000/svg">
<path fill-rule="evenodd" clip-rule="evenodd" d="M4.03885 9.33771C4.03885 5.46292 7.36336 1.8 11.3671 1.8C15.3708 1.8 18.6954 5.46292 18.6954 9.33771V13.3052C18.6954 14.8883 19.46 16.3739 20.7482 17.2939C21.0917 17.5392 20.9182 18.0808 20.4961 18.0808H2.23808C1.81601 18.0808 1.64249 17.5392 1.98595 17.2939C3.27424 16.3739 4.03885 14.8883 4.03885 13.3052V9.33771ZM11.3671 0C6.28216 0 2.23885 4.55819 2.23885 9.33771V13.3052C2.23885 14.3069 1.75503 15.247 0.939848 15.8291C-0.828712 17.0922 0.0648379 19.8808 2.23808 19.8808H7.31252C7.30441 19.9816 7.30028 20.0835 7.30028 20.1862C7.30028 22.3886 9.16216 24.0997 11.365 24.0997C13.5678 24.0997 15.4297 22.3886 15.4297 20.1862C15.4297 20.0835 15.4256 19.9816 15.4175 19.8808H20.4961C22.6694 19.8808 23.5629 17.0922 21.7943 15.8291C20.9792 15.247 20.4953 14.3069 20.4953 13.3052V9.33771C20.4953 4.55819 16.452 0 11.3671 0ZM9.10028 20.1862C9.10028 20.0824 9.10825 19.9804 9.12366 19.8808H13.6063C13.6217 19.9804 13.6297 20.0824 13.6297 20.1862C13.6297 21.3124 12.6578 22.2997 11.365 22.2997C10.0722 22.2997 9.10028 21.3124 9.10028 20.1862Z" fill="#3B3E3C"/>
</svg>
