<svg width="20" height="18" viewBox="0 0 20 18" fill="none" xmlns="http://www.w3.org/2000/svg">
<path fill-rule="evenodd" clip-rule="evenodd" d="M8.9999 0H17.9999C19.1029 0 19.9999 0.897 19.9999 2V16C19.9999 17.103 19.1029 18 17.9999 18H8.9999C7.8969 18 6.9999 17.103 6.9999 16V13C6.9999 12.4477 7.44762 12 7.9999 12C8.55219 12 8.9999 12.4477 8.9999 13V15C8.9999 15.5523 9.44762 16 9.9999 16H16.9999C17.5522 16 17.9999 15.5523 17.9999 15V3C17.9999 2.44772 17.5522 2 16.9999 2H9.9999C9.44762 2 8.9999 2.44772 8.9999 3V5C8.9999 5.55228 8.55219 6 7.9999 6C7.44762 6 6.9999 5.55228 6.9999 5V2C6.9999 0.897 7.8969 0 8.9999 0ZM13.9999 9C13.9999 9.55229 13.5522 10 12.9999 10H4.9999V11.9597C4.9999 12.3789 4.51494 12.612 4.18755 12.3501L0.487945 9.39043C0.237742 9.19027 0.237742 8.80973 0.487946 8.60957L4.18755 5.64988C4.51494 5.38797 4.9999 5.62106 4.9999 6.04031V8H12.9999C13.5522 8 13.9999 8.44771 13.9999 9Z" fill="#3B3E3C"/>
</svg>
