<svg width="20" height="20" viewBox="0 0 20 20" fill="none" xmlns="http://www.w3.org/2000/svg">
<path fill-rule="evenodd" clip-rule="evenodd" d="M6 0H18C19.1 0 20 0.9 20 2V14C20 15.1 19.1 16 18 16H6C4.9 16 4 15.1 4 14V2C4 0.9 4.9 0 6 0ZM1 4C1.55228 4 2 4.44772 2 5V17C2 17.5523 2.44772 18 3 18H15C15.5523 18 16 18.4477 16 19C16 19.5523 15.5523 20 15 20H2C0.9 20 0 19.1 0 18V5C0 4.44772 0.447715 4 1 4ZM18 13C18 13.5523 17.5523 14 17 14H7C6.44771 14 6 13.5523 6 13V3C6 2.44772 6.44772 2 7 2H17C17.5523 2 18 2.44772 18 3V13ZM9 7C8.44771 7 8 7.44772 8 8C8 8.55229 8.44771 9 9 9H15C15.5523 9 16 8.55229 16 8C16 7.44772 15.5523 7 15 7H9ZM8 11C8 10.4477 8.44771 10 9 10H11C11.5523 10 12 10.4477 12 11C12 11.5523 11.5523 12 11 12H9C8.44771 12 8 11.5523 8 11ZM9 4C8.44771 4 8 4.44772 8 5C8 5.55228 8.44771 6 9 6H15C15.5523 6 16 5.55228 16 5C16 4.44772 15.5523 4 15 4H9Z" fill="#3B3E3C"/>
</svg>
