<svg width="22" height="17" viewBox="0 0 22 17" fill="none" xmlns="http://www.w3.org/2000/svg">
<path d="M18.7 5.53333C18.7 4.98105 18.2523 4.53333 17.7 4.53333H17.5C16.9477 4.53333 16.5 4.98105 16.5 5.53333V7.93333H14.2C13.6477 7.93333 13.2 8.38105 13.2 8.93333V9.2C13.2 9.75229 13.6477 10.2 14.2 10.2H16.5V12.6C16.5 13.1523 16.9477 13.6 17.5 13.6H17.7C18.2523 13.6 18.7 13.1523 18.7 12.6V10.2H21C21.5523 10.2 22 9.75229 22 9.2V8.93333C22 8.38105 21.5523 7.93333 21 7.93333H18.7V5.53333ZM2.2 4.53333C2.2 7.11733 4.092 9.06667 6.6 9.06667C9.108 9.06667 11 7.11733 11 4.53333C11 1.94933 9.108 0 6.6 0C4.092 0 2.2 1.94933 2.2 4.53333ZM8.8 4.53333C8.8 5.8684 7.8958 6.8 6.6 6.8C5.3042 6.8 4.4 5.8684 4.4 4.53333C4.4 3.19827 5.3042 2.26667 6.6 2.26667C7.8958 2.26667 8.8 3.19827 8.8 4.53333ZM2.2 15.8667C2.2 13.9921 3.6806 12.4667 5.5 12.4667H7.7C9.5194 12.4667 11 13.9921 11 15.8667V16C11 16.5523 11.4477 17 12 17H12.2C12.7523 17 13.2 16.5523 13.2 16V15.8667C13.2 12.7421 10.7327 10.2 7.7 10.2H5.5C2.4673 10.2 0 12.7421 0 15.8667V16C0 16.5523 0.447715 17 1 17H1.2C1.75228 17 2.2 16.5523 2.2 16V15.8667Z" fill="#3B3E3C"/>
</svg>
