<svg width="22" height="20" viewBox="0 0 22 20" fill="none" xmlns="http://www.w3.org/2000/svg">
<path fill-rule="evenodd" clip-rule="evenodd" d="M9.54029 0.0999771L9.61255 0.10001H12.3876L12.4599 0.0999771C12.8269 0.0997242 13.1349 0.0995118 13.4289 0.16055C14.0421 0.287844 14.5976 0.610213 15.0123 1.07945C15.2112 1.30444 15.3638 1.57197 15.5457 1.8907L15.5457 1.89072L15.5457 1.89073L15.5815 1.95349L15.9617 2.61874C16.3084 3.22553 16.9537 3.60002 17.6526 3.60002C19.7223 3.60002 21.4001 5.27784 21.4001 7.34753V13.7V13.7377C21.4001 14.5458 21.4001 15.2066 21.3562 15.7437C21.3108 16.2996 21.2139 16.8017 20.975 17.2706C20.6011 18.0044 20.0045 18.601 19.2707 18.9749C18.8018 19.2139 18.2997 19.3107 17.7438 19.3562C17.2067 19.4 16.5459 19.4 15.7378 19.4H15.7001H6.3001H6.26239C5.45434 19.4 4.79349 19.4 4.25642 19.3562C3.7005 19.3107 3.19842 19.2139 2.72954 18.9749C1.9957 18.601 1.39908 18.0044 1.02517 17.2706C0.786262 16.8017 0.68938 16.2996 0.64396 15.7437C0.60008 15.2066 0.600088 14.5458 0.600098 13.7377V13.7377V13.7V7.34753C0.600098 5.27784 2.27792 3.60002 4.34762 3.60002C5.0465 3.60002 5.6918 3.22553 6.03854 2.61873L6.41868 1.95349L6.4545 1.89073L6.4545 1.89073L6.45451 1.89072C6.63635 1.57198 6.78899 1.30445 6.98786 1.07945C7.4026 0.610213 7.9581 0.287844 8.57128 0.16055C8.8653 0.0995118 9.17332 0.0997242 9.54029 0.0999771ZM9.61255 1.90001C9.13543 1.90001 9.02627 1.90447 8.93715 1.92297C8.70457 1.97126 8.49386 2.09354 8.33655 2.27152C8.27627 2.33972 8.21824 2.43228 7.98152 2.84654L7.60138 3.51178C6.93416 4.67942 5.69244 5.40001 4.34762 5.40001C3.27203 5.40001 2.4001 6.27195 2.4001 7.34753V13.7C2.4001 14.5549 2.4008 15.142 2.43798 15.5971C2.47431 16.0417 2.54092 16.2805 2.62898 16.4534C2.83032 16.8485 3.15158 17.1698 3.54672 17.3711C3.71956 17.4592 3.95839 17.5258 4.40299 17.5621C4.8581 17.5993 5.44517 17.6 6.3001 17.6H15.7001C16.555 17.6 17.1421 17.5993 17.5972 17.5621C18.0418 17.5258 18.2806 17.4592 18.4535 17.3711C18.8486 17.1698 19.1699 16.8485 19.3712 16.4534C19.4593 16.2805 19.5259 16.0417 19.5622 15.5971C19.5994 15.142 19.6001 14.5549 19.6001 13.7V7.34753C19.6001 6.27195 18.7282 5.40001 17.6526 5.40001C16.3078 5.40001 15.066 4.67942 14.3988 3.51179L14.0187 2.84654C13.782 2.43228 13.7239 2.33972 13.6637 2.27152C13.5063 2.09354 13.2956 1.97126 13.063 1.92297C12.9739 1.90447 12.8648 1.90001 12.3876 1.90001H9.61255ZM11.0001 8.40001C9.28802 8.40001 7.9001 9.78793 7.9001 11.5C7.9001 13.2121 9.28802 14.6 11.0001 14.6C12.7122 14.6 14.1001 13.2121 14.1001 11.5C14.1001 9.78793 12.7122 8.40001 11.0001 8.40001ZM6.1001 11.5C6.1001 8.79381 8.2939 6.60001 11.0001 6.60001C13.7063 6.60001 15.9001 8.79381 15.9001 11.5C15.9001 14.2062 13.7063 16.4 11.0001 16.4C8.2939 16.4 6.1001 14.2062 6.1001 11.5ZM17.2501 6.25001C16.4217 6.25001 15.7501 6.92158 15.7501 7.75001C15.7501 8.57844 16.4217 9.25001 17.2501 9.25001C18.0785 9.25001 18.7501 8.57844 18.7501 7.75001C18.7501 6.92158 18.0785 6.25001 17.2501 6.25001Z" fill="#3B3E3C"/>
</svg>
