<svg width="20" height="20" viewBox="0 0 20 20" fill="none" xmlns="http://www.w3.org/2000/svg">
<path fill-rule="evenodd" clip-rule="evenodd" d="M6 0H18C19.1 0 20 0.9 20 2V14C20 15.1 19.1 16 18 16H6C4.9 16 4 15.1 4 14V2C4 0.9 4.9 0 6 0ZM1 4C1.55228 4 2 4.44772 2 5V17C2 17.5523 2.44772 18 3 18H15C15.5523 18 16 18.4477 16 19C16 19.5523 15.5523 20 15 20H2C0.9 20 0 19.1 0 18V5C0 4.44772 0.447715 4 1 4ZM18 13C18 13.5523 17.5523 14 17 14H7C6.44771 14 6 13.5523 6 13V3C6 2.44772 6.44772 2 7 2H17C17.5523 2 18 2.44772 18 3V13ZM12 12C11.4477 12 11 11.5523 11 11V9H9C8.44772 9 8 8.55229 8 8C8 7.44772 8.44771 7 9 7H11V5C11 4.44772 11.4477 4 12 4C12.5523 4 13 4.44772 13 5V7H15C15.5523 7 16 7.44772 16 8C16 8.55229 15.5523 9 15 9H13V11C13 11.5523 12.5523 12 12 12Z" fill="#3B3E3C"/>
</svg>
