<svg width="20" height="20" viewBox="0 0 20 20" fill="none" xmlns="http://www.w3.org/2000/svg">
<path fill-rule="evenodd" clip-rule="evenodd" d="M10 18C14.4183 18 18 14.4183 18 10C18 5.58172 14.4183 2 10 2C5.58172 2 2 5.58172 2 10C2 14.4183 5.58172 18 10 18ZM10 20C15.5228 20 20 15.5228 20 10C20 4.47715 15.5228 0 10 0C4.47715 0 0 4.47715 0 10C0 15.5228 4.47715 20 10 20ZM9 15.5C9 14.9477 9.44771 14.5 10 14.5C10.5523 14.5 11 14.9477 11 15.5C11 16.0523 10.5523 16.5 10 16.5C9.44771 16.5 9 16.0523 9 15.5ZM10 3.5C7.79086 3.5 6 5.29086 6 7.5V8H8V7.5C8 6.39543 8.89543 5.5 10 5.5H10.0688C11.1354 5.5 12 6.36465 12 7.43124C12 8.07696 11.6773 8.67996 11.14 9.03814L10.3359 9.57422C9.5013 10.1306 9 11.0673 9 12.0704V13H11V12.0704C11 11.736 11.1671 11.4238 11.4453 11.2383L12.2494 10.7022C13.3431 9.97313 14 8.74567 14 7.43124C14 5.26008 12.2399 3.5 10.0688 3.5H10Z" fill="#3B3E3C"/>
</svg>
