<svg width="32" height="32" viewBox="0 0 32 32" fill="none" xmlns="http://www.w3.org/2000/svg">
<path fill-rule="evenodd" clip-rule="evenodd" d="M12 9C12 10.1046 11.1046 11 10 11C8.89543 11 8 10.1046 8 9C8 7.89543 8.89543 7 10 7C11.1046 7 12 7.89543 12 9ZM13.5556 15.6L15.376 18.3648L19.7778 12L26 21H17.1111H13.5556H10L13.5556 15.6Z" fill="#5DB07B"></path>
 <path d="M26.1111 3H7.33333C5.59133 3 3 4.0387 3 6.9V18.6V22.5V25.1C3 27.9613 5.59133 29 7.33333 29H29V27H7.33333C6.666 26.9844 5 26.1478 5 25.1C5 24.0522 6.68333 23.8156 7.35067 23.8H26.1111H27.5556H29V22.5V18.6V5.6C29 4.1661 27.7043 3 26.1111 3ZM27 22H5V18.6V6.9C5 5.8522 6.35 5.0156 7 5H27V18.6V22Z" fill="#2795FB"/>
 </svg>	