<svg width="32" height="32" viewBox="0 0 32 32" fill="none" xmlns="http://www.w3.org/2000/svg">
<path d="M20 8C20 10.2091 18.2091 12 16 12C13.7909 12 12 10.2091 12 8C12 5.79086 13.7909 4 16 4C18.2091 4 20 5.79086 20 8Z" stroke="#2795FB" stroke-width="2"/>
<path fill-rule="evenodd" clip-rule="evenodd" d="M15 17.6942C11.3539 15.7252 7.16074 15.0271 4.6665 14.7872V25.9628C4.6665 25.9663 4.6667 25.9706 4.67076 25.9801C4.67561 25.9915 4.68725 26.0124 4.71145 26.0372C4.76466 26.0919 4.84148 26.1288 4.91598 26.1355C7.15387 26.3368 10.8358 26.934 15 28.6819V17.6942ZM17 28.6818C21.164 26.934 24.8459 26.3367 27.0837 26.1355C27.1582 26.1288 27.235 26.0919 27.2882 26.0372C27.3124 26.0124 27.3241 25.9915 27.3289 25.9801C27.333 25.9706 27.3332 25.9663 27.3332 25.9627V14.7872C24.839 15.0271 20.6461 15.7252 17 17.694V28.6818ZM4.65988 12.7779C7.24174 13.0109 11.898 13.7317 15.9998 15.9612C20.1017 13.7317 24.7579 13.0109 27.3398 12.7779C28.4399 12.6786 29.3332 13.562 29.3332 14.6666V25.9627C29.3332 27.0965 28.392 28.0259 27.2628 28.1275C25.0189 28.3293 21.1792 28.9622 16.8897 30.9124C16.3256 31.1689 15.6741 31.1689 15.1099 30.9124C10.8204 28.9622 6.98074 28.3293 4.73684 28.1275C3.60766 28.0259 2.6665 27.0965 2.6665 25.9628V14.6666C2.6665 13.562 3.55978 12.6786 4.65988 12.7779Z" fill="#3B3E3C"/>
</svg>