<svg width="32" height="32" viewBox="0 0 32 32" fill="none" xmlns="http://www.w3.org/2000/svg">
<path fill-rule="evenodd" clip-rule="evenodd" d="M9 13C10.6569 13 12 11.6569 12 10C12 8.34315 10.6569 7 9 7C7.34315 7 6 8.34315 6 10C6 11.6569 7.34315 13 9 13ZM9 15C11.7614 15 14 12.7614 14 10C14 7.23858 11.7614 5 9 5C6.23858 5 4 7.23858 4 10C4 12.7614 6.23858 15 9 15ZM2 23.5C2 19.3579 5.35786 16 9.5 16C13.6421 16 17 19.3579 17 23.5V26C17 26.5523 16.5523 27 16 27C15.4477 27 15 26.5523 15 26V23.5C15 20.4624 12.5376 18 9.5 18C6.46243 18 4 20.4624 4 23.5V26C4 26.5523 3.55228 27 3 27C2.44772 27 2 26.5523 2 26V23.5ZM23.8949 12.333L23.8472 12.3648L23.8014 12.3993C23.2998 12.7769 22.6788 13 22 13C20.3431 13 19 11.6569 19 10C19 8.34315 20.3431 7 22 7C22.6788 7 23.2997 7.22304 23.8014 7.60068L23.8472 7.63514L23.8948 7.66691L27.3944 10L23.8949 12.333ZM29.1991 8.79945L29.1972 8.79815L25.0042 6.00282C24.1679 5.3732 23.1275 5 22 5C19.2386 5 17 7.23858 17 10C17 12.7614 19.2386 15 22 15C23.1275 15 24.1679 14.6268 25.0043 13.9971L29.1972 11.2019L29.1991 11.2006L29.3774 11.0817L30.3759 10.416C30.6728 10.2181 30.6728 9.78189 30.3759 9.58398L29.3774 8.9183L29.1991 8.79945Z" fill="#3B3E3C"/>
<path d="M28 26C28 26.5523 28.4477 27 29 27C29.5523 27 30 26.5523 30 26H28ZM15 26C15 26.5523 15.4477 27 16 27C16.5523 27 17 26.5523 17 26H15ZM28 23.5V26H30V23.5H28ZM17 26V23.5H15V26H17ZM22.5 18C25.5376 18 28 20.4624 28 23.5H30C30 19.3579 26.6421 16 22.5 16V18ZM22.5 16C18.3579 16 15 19.3579 15 23.5H17C17 20.4624 19.4624 18 22.5 18V16Z" fill="#5DB07B"/>
</svg>
