<svg width="32" height="32" viewBox="0 0 32 32" fill="none" xmlns="http://www.w3.org/2000/svg">
<path fill-rule="evenodd" clip-rule="evenodd" d="M27 5H5L5 27H27V5ZM5 3C3.89543 3 3 3.89543 3 5V27C3 28.1046 3.89543 29 5 29H27C28.1046 29 29 28.1046 29 27V5C29 3.89543 28.1046 3 27 3H5Z" fill="#3B3E3C"/>
<path fill-rule="evenodd" clip-rule="evenodd" d="M9 10C9 10.5523 8.55228 11 8 11C7.44772 11 7 10.5523 7 10C7 9.44772 7.44772 9 8 9C8.55228 9 9 9.44772 9 10ZM12 9C11.4477 9 11 9.44772 11 10C11 10.5523 11.4477 11 12 11H24C24.5523 11 25 10.5523 25 10C25 9.44772 24.5523 9 24 9H12ZM12 13C11.4477 13 11 13.4477 11 14C11 14.5523 11.4477 15 12 15H24C24.5523 15 25 14.5523 25 14C25 13.4477 24.5523 13 24 13H12ZM11 18C11 17.4477 11.4477 17 12 17H24C24.5523 17 25 17.4477 25 18C25 18.5523 24.5523 19 24 19H12C11.4477 19 11 18.5523 11 18ZM12 21C11.4477 21 11 21.4477 11 22C11 22.5523 11.4477 23 12 23H24C24.5523 23 25 22.5523 25 22C25 21.4477 24.5523 21 24 21H12ZM8 15C8.55228 15 9 14.5523 9 14C9 13.4477 8.55228 13 8 13C7.44772 13 7 13.4477 7 14C7 14.5523 7.44772 15 8 15ZM9 18C9 18.5523 8.55228 19 8 19C7.44772 19 7 18.5523 7 18C7 17.4477 7.44772 17 8 17C8.55228 17 9 17.4477 9 18ZM8 23C8.55228 23 9 22.5523 9 22C9 21.4477 8.55228 21 8 21C7.44772 21 7 21.4477 7 22C7 22.5523 7.44772 23 8 23Z" fill="#2795FB"/>
</svg>
