<svg width="48" height="48" viewBox="0 0 48 48" fill="none" xmlns="http://www.w3.org/2000/svg">
<path d="M24.5 4.5C13.5 4.5 4.5 13.48 4.5 24.54C4.5 34.54 11.82 42.84 21.38 44.34V30.34H16.3V24.54H21.38V20.12C21.38 15.1 24.36 12.34 28.94 12.34C31.12 12.34 33.4 12.72 33.4 12.72V17.66H30.88C28.4 17.66 27.62 19.2 27.62 20.78V24.54H33.18L32.28 30.34H27.62V44.34C32.3329 43.5957 36.6244 41.191 39.7199 37.5601C42.8153 33.9292 44.5107 29.3113 44.5 24.54C44.5 13.48 35.5 4.5 24.5 4.5Z" fill="#666565"/>
</svg>
